%TF.GenerationSoftware,KiCad,Pcbnew,7.0.1*%
%TF.CreationDate,2023-03-24T11:50:05-04:00*%
%TF.ProjectId,esp,6573702e-6b69-4636-9164-5f7063625858,1.0*%
%TF.SameCoordinates,Original*%
%TF.FileFunction,Legend,Top*%
%TF.FilePolarity,Positive*%
%FSLAX46Y46*%
G04 Gerber Fmt 4.6, Leading zero omitted, Abs format (unit mm)*
G04 Created by KiCad (PCBNEW 7.0.1) date 2023-03-24 11:50:05*
%MOMM*%
%LPD*%
G01*
G04 APERTURE LIST*
%ADD10C,0.250000*%
%ADD11C,0.100000*%
%ADD12C,0.500000*%
%ADD13C,0.150000*%
%ADD14C,0.120000*%
G04 APERTURE END LIST*
D10*
X186255952Y-62958809D02*
X187208333Y-62958809D01*
X186065476Y-63530238D02*
X186732142Y-61530238D01*
X186732142Y-61530238D02*
X187398809Y-63530238D01*
X189017857Y-63530238D02*
X188065476Y-63530238D01*
X188065476Y-63530238D02*
X188065476Y-61530238D01*
X189684524Y-63530238D02*
X189684524Y-61530238D01*
X190636905Y-63530238D02*
X190636905Y-61530238D01*
X190636905Y-61530238D02*
X191303572Y-62958809D01*
X191303572Y-62958809D02*
X191970238Y-61530238D01*
X191970238Y-61530238D02*
X191970238Y-63530238D01*
D11*
X151558333Y-99918761D02*
X151558333Y-100452095D01*
X151367857Y-99614000D02*
X151177380Y-100185428D01*
X151177380Y-100185428D02*
X151672619Y-100185428D01*
D12*
X182064285Y-82265000D02*
X184350000Y-82265000D01*
D11*
X150526190Y-79152095D02*
X150983333Y-79152095D01*
X150754761Y-79952095D02*
X150754761Y-79152095D01*
X151173809Y-79152095D02*
X151707143Y-79952095D01*
X151707143Y-79152095D02*
X151173809Y-79952095D01*
X125709523Y-100302095D02*
X125252380Y-100302095D01*
X125480952Y-100302095D02*
X125480952Y-99502095D01*
X125480952Y-99502095D02*
X125404761Y-99616380D01*
X125404761Y-99616380D02*
X125328571Y-99692571D01*
X125328571Y-99692571D02*
X125252380Y-99730666D01*
X126014285Y-99578285D02*
X126052381Y-99540190D01*
X126052381Y-99540190D02*
X126128571Y-99502095D01*
X126128571Y-99502095D02*
X126319047Y-99502095D01*
X126319047Y-99502095D02*
X126395238Y-99540190D01*
X126395238Y-99540190D02*
X126433333Y-99578285D01*
X126433333Y-99578285D02*
X126471428Y-99654476D01*
X126471428Y-99654476D02*
X126471428Y-99730666D01*
X126471428Y-99730666D02*
X126433333Y-99844952D01*
X126433333Y-99844952D02*
X125976190Y-100302095D01*
X125976190Y-100302095D02*
X126471428Y-100302095D01*
X125227380Y-94453285D02*
X125265476Y-94415190D01*
X125265476Y-94415190D02*
X125341666Y-94377095D01*
X125341666Y-94377095D02*
X125532142Y-94377095D01*
X125532142Y-94377095D02*
X125608333Y-94415190D01*
X125608333Y-94415190D02*
X125646428Y-94453285D01*
X125646428Y-94453285D02*
X125684523Y-94529476D01*
X125684523Y-94529476D02*
X125684523Y-94605666D01*
X125684523Y-94605666D02*
X125646428Y-94719952D01*
X125646428Y-94719952D02*
X125189285Y-95177095D01*
X125189285Y-95177095D02*
X125684523Y-95177095D01*
X125951190Y-94377095D02*
X126484524Y-94377095D01*
X126484524Y-94377095D02*
X126141666Y-95177095D01*
X150909523Y-90277095D02*
X150452380Y-90277095D01*
X150680952Y-90277095D02*
X150680952Y-89477095D01*
X150680952Y-89477095D02*
X150604761Y-89591380D01*
X150604761Y-89591380D02*
X150528571Y-89667571D01*
X150528571Y-89667571D02*
X150452380Y-89705666D01*
X151366666Y-89819952D02*
X151290476Y-89781857D01*
X151290476Y-89781857D02*
X151252381Y-89743761D01*
X151252381Y-89743761D02*
X151214285Y-89667571D01*
X151214285Y-89667571D02*
X151214285Y-89629476D01*
X151214285Y-89629476D02*
X151252381Y-89553285D01*
X151252381Y-89553285D02*
X151290476Y-89515190D01*
X151290476Y-89515190D02*
X151366666Y-89477095D01*
X151366666Y-89477095D02*
X151519047Y-89477095D01*
X151519047Y-89477095D02*
X151595238Y-89515190D01*
X151595238Y-89515190D02*
X151633333Y-89553285D01*
X151633333Y-89553285D02*
X151671428Y-89629476D01*
X151671428Y-89629476D02*
X151671428Y-89667571D01*
X151671428Y-89667571D02*
X151633333Y-89743761D01*
X151633333Y-89743761D02*
X151595238Y-89781857D01*
X151595238Y-89781857D02*
X151519047Y-89819952D01*
X151519047Y-89819952D02*
X151366666Y-89819952D01*
X151366666Y-89819952D02*
X151290476Y-89858047D01*
X151290476Y-89858047D02*
X151252381Y-89896142D01*
X151252381Y-89896142D02*
X151214285Y-89972333D01*
X151214285Y-89972333D02*
X151214285Y-90124714D01*
X151214285Y-90124714D02*
X151252381Y-90200904D01*
X151252381Y-90200904D02*
X151290476Y-90239000D01*
X151290476Y-90239000D02*
X151366666Y-90277095D01*
X151366666Y-90277095D02*
X151519047Y-90277095D01*
X151519047Y-90277095D02*
X151595238Y-90239000D01*
X151595238Y-90239000D02*
X151633333Y-90200904D01*
X151633333Y-90200904D02*
X151671428Y-90124714D01*
X151671428Y-90124714D02*
X151671428Y-89972333D01*
X151671428Y-89972333D02*
X151633333Y-89896142D01*
X151633333Y-89896142D02*
X151595238Y-89858047D01*
X151595238Y-89858047D02*
X151519047Y-89819952D01*
X125302380Y-89453285D02*
X125340476Y-89415190D01*
X125340476Y-89415190D02*
X125416666Y-89377095D01*
X125416666Y-89377095D02*
X125607142Y-89377095D01*
X125607142Y-89377095D02*
X125683333Y-89415190D01*
X125683333Y-89415190D02*
X125721428Y-89453285D01*
X125721428Y-89453285D02*
X125759523Y-89529476D01*
X125759523Y-89529476D02*
X125759523Y-89605666D01*
X125759523Y-89605666D02*
X125721428Y-89719952D01*
X125721428Y-89719952D02*
X125264285Y-90177095D01*
X125264285Y-90177095D02*
X125759523Y-90177095D01*
X126483333Y-89377095D02*
X126102381Y-89377095D01*
X126102381Y-89377095D02*
X126064285Y-89758047D01*
X126064285Y-89758047D02*
X126102381Y-89719952D01*
X126102381Y-89719952D02*
X126178571Y-89681857D01*
X126178571Y-89681857D02*
X126369047Y-89681857D01*
X126369047Y-89681857D02*
X126445238Y-89719952D01*
X126445238Y-89719952D02*
X126483333Y-89758047D01*
X126483333Y-89758047D02*
X126521428Y-89834238D01*
X126521428Y-89834238D02*
X126521428Y-90024714D01*
X126521428Y-90024714D02*
X126483333Y-90100904D01*
X126483333Y-90100904D02*
X126445238Y-90139000D01*
X126445238Y-90139000D02*
X126369047Y-90177095D01*
X126369047Y-90177095D02*
X126178571Y-90177095D01*
X126178571Y-90177095D02*
X126102381Y-90139000D01*
X126102381Y-90139000D02*
X126064285Y-90100904D01*
X125314285Y-84252095D02*
X125809523Y-84252095D01*
X125809523Y-84252095D02*
X125542857Y-84556857D01*
X125542857Y-84556857D02*
X125657142Y-84556857D01*
X125657142Y-84556857D02*
X125733333Y-84594952D01*
X125733333Y-84594952D02*
X125771428Y-84633047D01*
X125771428Y-84633047D02*
X125809523Y-84709238D01*
X125809523Y-84709238D02*
X125809523Y-84899714D01*
X125809523Y-84899714D02*
X125771428Y-84975904D01*
X125771428Y-84975904D02*
X125733333Y-85014000D01*
X125733333Y-85014000D02*
X125657142Y-85052095D01*
X125657142Y-85052095D02*
X125428571Y-85052095D01*
X125428571Y-85052095D02*
X125352380Y-85014000D01*
X125352380Y-85014000D02*
X125314285Y-84975904D01*
X126114285Y-84328285D02*
X126152381Y-84290190D01*
X126152381Y-84290190D02*
X126228571Y-84252095D01*
X126228571Y-84252095D02*
X126419047Y-84252095D01*
X126419047Y-84252095D02*
X126495238Y-84290190D01*
X126495238Y-84290190D02*
X126533333Y-84328285D01*
X126533333Y-84328285D02*
X126571428Y-84404476D01*
X126571428Y-84404476D02*
X126571428Y-84480666D01*
X126571428Y-84480666D02*
X126533333Y-84594952D01*
X126533333Y-84594952D02*
X126076190Y-85052095D01*
X126076190Y-85052095D02*
X126571428Y-85052095D01*
X125176190Y-76677095D02*
X125442857Y-77477095D01*
X125442857Y-77477095D02*
X125709523Y-76677095D01*
X125976190Y-77477095D02*
X125976190Y-76677095D01*
X125976190Y-76677095D02*
X126433333Y-77477095D01*
X126433333Y-77477095D02*
X126433333Y-76677095D01*
X150309523Y-68940190D02*
X150233333Y-68902095D01*
X150233333Y-68902095D02*
X150119047Y-68902095D01*
X150119047Y-68902095D02*
X150004761Y-68940190D01*
X150004761Y-68940190D02*
X149928571Y-69016380D01*
X149928571Y-69016380D02*
X149890476Y-69092571D01*
X149890476Y-69092571D02*
X149852380Y-69244952D01*
X149852380Y-69244952D02*
X149852380Y-69359238D01*
X149852380Y-69359238D02*
X149890476Y-69511619D01*
X149890476Y-69511619D02*
X149928571Y-69587809D01*
X149928571Y-69587809D02*
X150004761Y-69664000D01*
X150004761Y-69664000D02*
X150119047Y-69702095D01*
X150119047Y-69702095D02*
X150195238Y-69702095D01*
X150195238Y-69702095D02*
X150309523Y-69664000D01*
X150309523Y-69664000D02*
X150347619Y-69625904D01*
X150347619Y-69625904D02*
X150347619Y-69359238D01*
X150347619Y-69359238D02*
X150195238Y-69359238D01*
X150690476Y-69702095D02*
X150690476Y-68902095D01*
X150690476Y-68902095D02*
X151147619Y-69702095D01*
X151147619Y-69702095D02*
X151147619Y-68902095D01*
X151528571Y-69702095D02*
X151528571Y-68902095D01*
X151528571Y-68902095D02*
X151719047Y-68902095D01*
X151719047Y-68902095D02*
X151833333Y-68940190D01*
X151833333Y-68940190D02*
X151909523Y-69016380D01*
X151909523Y-69016380D02*
X151947618Y-69092571D01*
X151947618Y-69092571D02*
X151985714Y-69244952D01*
X151985714Y-69244952D02*
X151985714Y-69359238D01*
X151985714Y-69359238D02*
X151947618Y-69511619D01*
X151947618Y-69511619D02*
X151909523Y-69587809D01*
X151909523Y-69587809D02*
X151833333Y-69664000D01*
X151833333Y-69664000D02*
X151719047Y-69702095D01*
X151719047Y-69702095D02*
X151528571Y-69702095D01*
X150502380Y-74228285D02*
X150540476Y-74190190D01*
X150540476Y-74190190D02*
X150616666Y-74152095D01*
X150616666Y-74152095D02*
X150807142Y-74152095D01*
X150807142Y-74152095D02*
X150883333Y-74190190D01*
X150883333Y-74190190D02*
X150921428Y-74228285D01*
X150921428Y-74228285D02*
X150959523Y-74304476D01*
X150959523Y-74304476D02*
X150959523Y-74380666D01*
X150959523Y-74380666D02*
X150921428Y-74494952D01*
X150921428Y-74494952D02*
X150464285Y-74952095D01*
X150464285Y-74952095D02*
X150959523Y-74952095D01*
X151264285Y-74228285D02*
X151302381Y-74190190D01*
X151302381Y-74190190D02*
X151378571Y-74152095D01*
X151378571Y-74152095D02*
X151569047Y-74152095D01*
X151569047Y-74152095D02*
X151645238Y-74190190D01*
X151645238Y-74190190D02*
X151683333Y-74228285D01*
X151683333Y-74228285D02*
X151721428Y-74304476D01*
X151721428Y-74304476D02*
X151721428Y-74380666D01*
X151721428Y-74380666D02*
X151683333Y-74494952D01*
X151683333Y-74494952D02*
X151226190Y-74952095D01*
X151226190Y-74952095D02*
X151721428Y-74952095D01*
X150834523Y-87652095D02*
X150377380Y-87652095D01*
X150605952Y-87652095D02*
X150605952Y-86852095D01*
X150605952Y-86852095D02*
X150529761Y-86966380D01*
X150529761Y-86966380D02*
X150453571Y-87042571D01*
X150453571Y-87042571D02*
X150377380Y-87080666D01*
X151215476Y-87652095D02*
X151367857Y-87652095D01*
X151367857Y-87652095D02*
X151444047Y-87614000D01*
X151444047Y-87614000D02*
X151482143Y-87575904D01*
X151482143Y-87575904D02*
X151558333Y-87461619D01*
X151558333Y-87461619D02*
X151596428Y-87309238D01*
X151596428Y-87309238D02*
X151596428Y-87004476D01*
X151596428Y-87004476D02*
X151558333Y-86928285D01*
X151558333Y-86928285D02*
X151520238Y-86890190D01*
X151520238Y-86890190D02*
X151444047Y-86852095D01*
X151444047Y-86852095D02*
X151291666Y-86852095D01*
X151291666Y-86852095D02*
X151215476Y-86890190D01*
X151215476Y-86890190D02*
X151177381Y-86928285D01*
X151177381Y-86928285D02*
X151139285Y-87004476D01*
X151139285Y-87004476D02*
X151139285Y-87194952D01*
X151139285Y-87194952D02*
X151177381Y-87271142D01*
X151177381Y-87271142D02*
X151215476Y-87309238D01*
X151215476Y-87309238D02*
X151291666Y-87347333D01*
X151291666Y-87347333D02*
X151444047Y-87347333D01*
X151444047Y-87347333D02*
X151520238Y-87309238D01*
X151520238Y-87309238D02*
X151558333Y-87271142D01*
X151558333Y-87271142D02*
X151596428Y-87194952D01*
X150984523Y-95302095D02*
X150527380Y-95302095D01*
X150755952Y-95302095D02*
X150755952Y-94502095D01*
X150755952Y-94502095D02*
X150679761Y-94616380D01*
X150679761Y-94616380D02*
X150603571Y-94692571D01*
X150603571Y-94692571D02*
X150527380Y-94730666D01*
X151251190Y-94502095D02*
X151784524Y-94502095D01*
X151784524Y-94502095D02*
X151441666Y-95302095D01*
X125302380Y-91953285D02*
X125340476Y-91915190D01*
X125340476Y-91915190D02*
X125416666Y-91877095D01*
X125416666Y-91877095D02*
X125607142Y-91877095D01*
X125607142Y-91877095D02*
X125683333Y-91915190D01*
X125683333Y-91915190D02*
X125721428Y-91953285D01*
X125721428Y-91953285D02*
X125759523Y-92029476D01*
X125759523Y-92029476D02*
X125759523Y-92105666D01*
X125759523Y-92105666D02*
X125721428Y-92219952D01*
X125721428Y-92219952D02*
X125264285Y-92677095D01*
X125264285Y-92677095D02*
X125759523Y-92677095D01*
X126445238Y-91877095D02*
X126292857Y-91877095D01*
X126292857Y-91877095D02*
X126216666Y-91915190D01*
X126216666Y-91915190D02*
X126178571Y-91953285D01*
X126178571Y-91953285D02*
X126102381Y-92067571D01*
X126102381Y-92067571D02*
X126064285Y-92219952D01*
X126064285Y-92219952D02*
X126064285Y-92524714D01*
X126064285Y-92524714D02*
X126102381Y-92600904D01*
X126102381Y-92600904D02*
X126140476Y-92639000D01*
X126140476Y-92639000D02*
X126216666Y-92677095D01*
X126216666Y-92677095D02*
X126369047Y-92677095D01*
X126369047Y-92677095D02*
X126445238Y-92639000D01*
X126445238Y-92639000D02*
X126483333Y-92600904D01*
X126483333Y-92600904D02*
X126521428Y-92524714D01*
X126521428Y-92524714D02*
X126521428Y-92334238D01*
X126521428Y-92334238D02*
X126483333Y-92258047D01*
X126483333Y-92258047D02*
X126445238Y-92219952D01*
X126445238Y-92219952D02*
X126369047Y-92181857D01*
X126369047Y-92181857D02*
X126216666Y-92181857D01*
X126216666Y-92181857D02*
X126140476Y-92219952D01*
X126140476Y-92219952D02*
X126102381Y-92258047D01*
X126102381Y-92258047D02*
X126064285Y-92334238D01*
X150502380Y-71778285D02*
X150540476Y-71740190D01*
X150540476Y-71740190D02*
X150616666Y-71702095D01*
X150616666Y-71702095D02*
X150807142Y-71702095D01*
X150807142Y-71702095D02*
X150883333Y-71740190D01*
X150883333Y-71740190D02*
X150921428Y-71778285D01*
X150921428Y-71778285D02*
X150959523Y-71854476D01*
X150959523Y-71854476D02*
X150959523Y-71930666D01*
X150959523Y-71930666D02*
X150921428Y-72044952D01*
X150921428Y-72044952D02*
X150464285Y-72502095D01*
X150464285Y-72502095D02*
X150959523Y-72502095D01*
X151226190Y-71702095D02*
X151721428Y-71702095D01*
X151721428Y-71702095D02*
X151454762Y-72006857D01*
X151454762Y-72006857D02*
X151569047Y-72006857D01*
X151569047Y-72006857D02*
X151645238Y-72044952D01*
X151645238Y-72044952D02*
X151683333Y-72083047D01*
X151683333Y-72083047D02*
X151721428Y-72159238D01*
X151721428Y-72159238D02*
X151721428Y-72349714D01*
X151721428Y-72349714D02*
X151683333Y-72425904D01*
X151683333Y-72425904D02*
X151645238Y-72464000D01*
X151645238Y-72464000D02*
X151569047Y-72502095D01*
X151569047Y-72502095D02*
X151340476Y-72502095D01*
X151340476Y-72502095D02*
X151264285Y-72464000D01*
X151264285Y-72464000D02*
X151226190Y-72425904D01*
X150234523Y-84315190D02*
X150158333Y-84277095D01*
X150158333Y-84277095D02*
X150044047Y-84277095D01*
X150044047Y-84277095D02*
X149929761Y-84315190D01*
X149929761Y-84315190D02*
X149853571Y-84391380D01*
X149853571Y-84391380D02*
X149815476Y-84467571D01*
X149815476Y-84467571D02*
X149777380Y-84619952D01*
X149777380Y-84619952D02*
X149777380Y-84734238D01*
X149777380Y-84734238D02*
X149815476Y-84886619D01*
X149815476Y-84886619D02*
X149853571Y-84962809D01*
X149853571Y-84962809D02*
X149929761Y-85039000D01*
X149929761Y-85039000D02*
X150044047Y-85077095D01*
X150044047Y-85077095D02*
X150120238Y-85077095D01*
X150120238Y-85077095D02*
X150234523Y-85039000D01*
X150234523Y-85039000D02*
X150272619Y-85000904D01*
X150272619Y-85000904D02*
X150272619Y-84734238D01*
X150272619Y-84734238D02*
X150120238Y-84734238D01*
X150615476Y-85077095D02*
X150615476Y-84277095D01*
X150615476Y-84277095D02*
X151072619Y-85077095D01*
X151072619Y-85077095D02*
X151072619Y-84277095D01*
X151453571Y-85077095D02*
X151453571Y-84277095D01*
X151453571Y-84277095D02*
X151644047Y-84277095D01*
X151644047Y-84277095D02*
X151758333Y-84315190D01*
X151758333Y-84315190D02*
X151834523Y-84391380D01*
X151834523Y-84391380D02*
X151872618Y-84467571D01*
X151872618Y-84467571D02*
X151910714Y-84619952D01*
X151910714Y-84619952D02*
X151910714Y-84734238D01*
X151910714Y-84734238D02*
X151872618Y-84886619D01*
X151872618Y-84886619D02*
X151834523Y-84962809D01*
X151834523Y-84962809D02*
X151758333Y-85039000D01*
X151758333Y-85039000D02*
X151644047Y-85077095D01*
X151644047Y-85077095D02*
X151453571Y-85077095D01*
X125909809Y-102034523D02*
X125947904Y-101958333D01*
X125947904Y-101958333D02*
X125947904Y-101844047D01*
X125947904Y-101844047D02*
X125909809Y-101729761D01*
X125909809Y-101729761D02*
X125833619Y-101653571D01*
X125833619Y-101653571D02*
X125757428Y-101615476D01*
X125757428Y-101615476D02*
X125605047Y-101577380D01*
X125605047Y-101577380D02*
X125490761Y-101577380D01*
X125490761Y-101577380D02*
X125338380Y-101615476D01*
X125338380Y-101615476D02*
X125262190Y-101653571D01*
X125262190Y-101653571D02*
X125186000Y-101729761D01*
X125186000Y-101729761D02*
X125147904Y-101844047D01*
X125147904Y-101844047D02*
X125147904Y-101920238D01*
X125147904Y-101920238D02*
X125186000Y-102034523D01*
X125186000Y-102034523D02*
X125224095Y-102072619D01*
X125224095Y-102072619D02*
X125490761Y-102072619D01*
X125490761Y-102072619D02*
X125490761Y-101920238D01*
X125147904Y-102415476D02*
X125947904Y-102415476D01*
X125947904Y-102415476D02*
X125147904Y-102872619D01*
X125147904Y-102872619D02*
X125947904Y-102872619D01*
X125147904Y-103253571D02*
X125947904Y-103253571D01*
X125947904Y-103253571D02*
X125947904Y-103444047D01*
X125947904Y-103444047D02*
X125909809Y-103558333D01*
X125909809Y-103558333D02*
X125833619Y-103634523D01*
X125833619Y-103634523D02*
X125757428Y-103672618D01*
X125757428Y-103672618D02*
X125605047Y-103710714D01*
X125605047Y-103710714D02*
X125490761Y-103710714D01*
X125490761Y-103710714D02*
X125338380Y-103672618D01*
X125338380Y-103672618D02*
X125262190Y-103634523D01*
X125262190Y-103634523D02*
X125186000Y-103558333D01*
X125186000Y-103558333D02*
X125147904Y-103444047D01*
X125147904Y-103444047D02*
X125147904Y-103253571D01*
X125239285Y-86802095D02*
X125734523Y-86802095D01*
X125734523Y-86802095D02*
X125467857Y-87106857D01*
X125467857Y-87106857D02*
X125582142Y-87106857D01*
X125582142Y-87106857D02*
X125658333Y-87144952D01*
X125658333Y-87144952D02*
X125696428Y-87183047D01*
X125696428Y-87183047D02*
X125734523Y-87259238D01*
X125734523Y-87259238D02*
X125734523Y-87449714D01*
X125734523Y-87449714D02*
X125696428Y-87525904D01*
X125696428Y-87525904D02*
X125658333Y-87564000D01*
X125658333Y-87564000D02*
X125582142Y-87602095D01*
X125582142Y-87602095D02*
X125353571Y-87602095D01*
X125353571Y-87602095D02*
X125277380Y-87564000D01*
X125277380Y-87564000D02*
X125239285Y-87525904D01*
X126001190Y-86802095D02*
X126496428Y-86802095D01*
X126496428Y-86802095D02*
X126229762Y-87106857D01*
X126229762Y-87106857D02*
X126344047Y-87106857D01*
X126344047Y-87106857D02*
X126420238Y-87144952D01*
X126420238Y-87144952D02*
X126458333Y-87183047D01*
X126458333Y-87183047D02*
X126496428Y-87259238D01*
X126496428Y-87259238D02*
X126496428Y-87449714D01*
X126496428Y-87449714D02*
X126458333Y-87525904D01*
X126458333Y-87525904D02*
X126420238Y-87564000D01*
X126420238Y-87564000D02*
X126344047Y-87602095D01*
X126344047Y-87602095D02*
X126115476Y-87602095D01*
X126115476Y-87602095D02*
X126039285Y-87564000D01*
X126039285Y-87564000D02*
X126001190Y-87525904D01*
X151459523Y-107952095D02*
X151002380Y-107952095D01*
X151230952Y-107952095D02*
X151230952Y-107152095D01*
X151230952Y-107152095D02*
X151154761Y-107266380D01*
X151154761Y-107266380D02*
X151078571Y-107342571D01*
X151078571Y-107342571D02*
X151002380Y-107380666D01*
X152183333Y-107152095D02*
X151802381Y-107152095D01*
X151802381Y-107152095D02*
X151764285Y-107533047D01*
X151764285Y-107533047D02*
X151802381Y-107494952D01*
X151802381Y-107494952D02*
X151878571Y-107456857D01*
X151878571Y-107456857D02*
X152069047Y-107456857D01*
X152069047Y-107456857D02*
X152145238Y-107494952D01*
X152145238Y-107494952D02*
X152183333Y-107533047D01*
X152183333Y-107533047D02*
X152221428Y-107609238D01*
X152221428Y-107609238D02*
X152221428Y-107799714D01*
X152221428Y-107799714D02*
X152183333Y-107875904D01*
X152183333Y-107875904D02*
X152145238Y-107914000D01*
X152145238Y-107914000D02*
X152069047Y-107952095D01*
X152069047Y-107952095D02*
X151878571Y-107952095D01*
X151878571Y-107952095D02*
X151802381Y-107914000D01*
X151802381Y-107914000D02*
X151764285Y-107875904D01*
D12*
X182039285Y-71890000D02*
X184325000Y-71890000D01*
X183182142Y-73032857D02*
X183182142Y-70747142D01*
D11*
X151227380Y-104703285D02*
X151265476Y-104665190D01*
X151265476Y-104665190D02*
X151341666Y-104627095D01*
X151341666Y-104627095D02*
X151532142Y-104627095D01*
X151532142Y-104627095D02*
X151608333Y-104665190D01*
X151608333Y-104665190D02*
X151646428Y-104703285D01*
X151646428Y-104703285D02*
X151684523Y-104779476D01*
X151684523Y-104779476D02*
X151684523Y-104855666D01*
X151684523Y-104855666D02*
X151646428Y-104969952D01*
X151646428Y-104969952D02*
X151189285Y-105427095D01*
X151189285Y-105427095D02*
X151684523Y-105427095D01*
D10*
X183676190Y-79280238D02*
X183676190Y-77280238D01*
X183676190Y-77280238D02*
X184342857Y-78708809D01*
X184342857Y-78708809D02*
X185009523Y-77280238D01*
X185009523Y-77280238D02*
X185009523Y-79280238D01*
X186247618Y-79280238D02*
X186057142Y-79185000D01*
X186057142Y-79185000D02*
X185961904Y-79089761D01*
X185961904Y-79089761D02*
X185866666Y-78899285D01*
X185866666Y-78899285D02*
X185866666Y-78327857D01*
X185866666Y-78327857D02*
X185961904Y-78137380D01*
X185961904Y-78137380D02*
X186057142Y-78042142D01*
X186057142Y-78042142D02*
X186247618Y-77946904D01*
X186247618Y-77946904D02*
X186533333Y-77946904D01*
X186533333Y-77946904D02*
X186723809Y-78042142D01*
X186723809Y-78042142D02*
X186819047Y-78137380D01*
X186819047Y-78137380D02*
X186914285Y-78327857D01*
X186914285Y-78327857D02*
X186914285Y-78899285D01*
X186914285Y-78899285D02*
X186819047Y-79089761D01*
X186819047Y-79089761D02*
X186723809Y-79185000D01*
X186723809Y-79185000D02*
X186533333Y-79280238D01*
X186533333Y-79280238D02*
X186247618Y-79280238D01*
X187485714Y-77946904D02*
X188247618Y-77946904D01*
X187771428Y-77280238D02*
X187771428Y-78994523D01*
X187771428Y-78994523D02*
X187866666Y-79185000D01*
X187866666Y-79185000D02*
X188057142Y-79280238D01*
X188057142Y-79280238D02*
X188247618Y-79280238D01*
X189676190Y-79185000D02*
X189485714Y-79280238D01*
X189485714Y-79280238D02*
X189104761Y-79280238D01*
X189104761Y-79280238D02*
X188914285Y-79185000D01*
X188914285Y-79185000D02*
X188819047Y-78994523D01*
X188819047Y-78994523D02*
X188819047Y-78232619D01*
X188819047Y-78232619D02*
X188914285Y-78042142D01*
X188914285Y-78042142D02*
X189104761Y-77946904D01*
X189104761Y-77946904D02*
X189485714Y-77946904D01*
X189485714Y-77946904D02*
X189676190Y-78042142D01*
X189676190Y-78042142D02*
X189771428Y-78232619D01*
X189771428Y-78232619D02*
X189771428Y-78423095D01*
X189771428Y-78423095D02*
X188819047Y-78613571D01*
X191485714Y-77946904D02*
X191485714Y-79280238D01*
X190628571Y-77946904D02*
X190628571Y-78994523D01*
X190628571Y-78994523D02*
X190723809Y-79185000D01*
X190723809Y-79185000D02*
X190914285Y-79280238D01*
X190914285Y-79280238D02*
X191200000Y-79280238D01*
X191200000Y-79280238D02*
X191390476Y-79185000D01*
X191390476Y-79185000D02*
X191485714Y-79089761D01*
X192438095Y-79280238D02*
X192438095Y-77946904D01*
X192438095Y-78327857D02*
X192533333Y-78137380D01*
X192533333Y-78137380D02*
X192628571Y-78042142D01*
X192628571Y-78042142D02*
X192819047Y-77946904D01*
X192819047Y-77946904D02*
X193009524Y-77946904D01*
D11*
X125214285Y-79177095D02*
X125709523Y-79177095D01*
X125709523Y-79177095D02*
X125442857Y-79481857D01*
X125442857Y-79481857D02*
X125557142Y-79481857D01*
X125557142Y-79481857D02*
X125633333Y-79519952D01*
X125633333Y-79519952D02*
X125671428Y-79558047D01*
X125671428Y-79558047D02*
X125709523Y-79634238D01*
X125709523Y-79634238D02*
X125709523Y-79824714D01*
X125709523Y-79824714D02*
X125671428Y-79900904D01*
X125671428Y-79900904D02*
X125633333Y-79939000D01*
X125633333Y-79939000D02*
X125557142Y-79977095D01*
X125557142Y-79977095D02*
X125328571Y-79977095D01*
X125328571Y-79977095D02*
X125252380Y-79939000D01*
X125252380Y-79939000D02*
X125214285Y-79900904D01*
X126395238Y-79443761D02*
X126395238Y-79977095D01*
X126204762Y-79139000D02*
X126014285Y-79710428D01*
X126014285Y-79710428D02*
X126509524Y-79710428D01*
D12*
X182089285Y-87740000D02*
X184375000Y-87740000D01*
X183232142Y-88882857D02*
X183232142Y-86597142D01*
D11*
X125239285Y-81677095D02*
X125734523Y-81677095D01*
X125734523Y-81677095D02*
X125467857Y-81981857D01*
X125467857Y-81981857D02*
X125582142Y-81981857D01*
X125582142Y-81981857D02*
X125658333Y-82019952D01*
X125658333Y-82019952D02*
X125696428Y-82058047D01*
X125696428Y-82058047D02*
X125734523Y-82134238D01*
X125734523Y-82134238D02*
X125734523Y-82324714D01*
X125734523Y-82324714D02*
X125696428Y-82400904D01*
X125696428Y-82400904D02*
X125658333Y-82439000D01*
X125658333Y-82439000D02*
X125582142Y-82477095D01*
X125582142Y-82477095D02*
X125353571Y-82477095D01*
X125353571Y-82477095D02*
X125277380Y-82439000D01*
X125277380Y-82439000D02*
X125239285Y-82400904D01*
X126458333Y-81677095D02*
X126077381Y-81677095D01*
X126077381Y-81677095D02*
X126039285Y-82058047D01*
X126039285Y-82058047D02*
X126077381Y-82019952D01*
X126077381Y-82019952D02*
X126153571Y-81981857D01*
X126153571Y-81981857D02*
X126344047Y-81981857D01*
X126344047Y-81981857D02*
X126420238Y-82019952D01*
X126420238Y-82019952D02*
X126458333Y-82058047D01*
X126458333Y-82058047D02*
X126496428Y-82134238D01*
X126496428Y-82134238D02*
X126496428Y-82324714D01*
X126496428Y-82324714D02*
X126458333Y-82400904D01*
X126458333Y-82400904D02*
X126420238Y-82439000D01*
X126420238Y-82439000D02*
X126344047Y-82477095D01*
X126344047Y-82477095D02*
X126153571Y-82477095D01*
X126153571Y-82477095D02*
X126077381Y-82439000D01*
X126077381Y-82439000D02*
X126039285Y-82400904D01*
X125201190Y-74102095D02*
X125467857Y-74902095D01*
X125467857Y-74902095D02*
X125734523Y-74102095D01*
X126001190Y-74902095D02*
X126001190Y-74102095D01*
X126001190Y-74102095D02*
X126305952Y-74102095D01*
X126305952Y-74102095D02*
X126382142Y-74140190D01*
X126382142Y-74140190D02*
X126420237Y-74178285D01*
X126420237Y-74178285D02*
X126458333Y-74254476D01*
X126458333Y-74254476D02*
X126458333Y-74368761D01*
X126458333Y-74368761D02*
X126420237Y-74444952D01*
X126420237Y-74444952D02*
X126382142Y-74483047D01*
X126382142Y-74483047D02*
X126305952Y-74521142D01*
X126305952Y-74521142D02*
X126001190Y-74521142D01*
X125164285Y-69277095D02*
X125659523Y-69277095D01*
X125659523Y-69277095D02*
X125392857Y-69581857D01*
X125392857Y-69581857D02*
X125507142Y-69581857D01*
X125507142Y-69581857D02*
X125583333Y-69619952D01*
X125583333Y-69619952D02*
X125621428Y-69658047D01*
X125621428Y-69658047D02*
X125659523Y-69734238D01*
X125659523Y-69734238D02*
X125659523Y-69924714D01*
X125659523Y-69924714D02*
X125621428Y-70000904D01*
X125621428Y-70000904D02*
X125583333Y-70039000D01*
X125583333Y-70039000D02*
X125507142Y-70077095D01*
X125507142Y-70077095D02*
X125278571Y-70077095D01*
X125278571Y-70077095D02*
X125202380Y-70039000D01*
X125202380Y-70039000D02*
X125164285Y-70000904D01*
X125888095Y-69277095D02*
X126154762Y-70077095D01*
X126154762Y-70077095D02*
X126421428Y-69277095D01*
X126611904Y-69277095D02*
X127107142Y-69277095D01*
X127107142Y-69277095D02*
X126840476Y-69581857D01*
X126840476Y-69581857D02*
X126954761Y-69581857D01*
X126954761Y-69581857D02*
X127030952Y-69619952D01*
X127030952Y-69619952D02*
X127069047Y-69658047D01*
X127069047Y-69658047D02*
X127107142Y-69734238D01*
X127107142Y-69734238D02*
X127107142Y-69924714D01*
X127107142Y-69924714D02*
X127069047Y-70000904D01*
X127069047Y-70000904D02*
X127030952Y-70039000D01*
X127030952Y-70039000D02*
X126954761Y-70077095D01*
X126954761Y-70077095D02*
X126726190Y-70077095D01*
X126726190Y-70077095D02*
X126649999Y-70039000D01*
X126649999Y-70039000D02*
X126611904Y-70000904D01*
X125671428Y-114827095D02*
X125290476Y-114827095D01*
X125290476Y-114827095D02*
X125252380Y-115208047D01*
X125252380Y-115208047D02*
X125290476Y-115169952D01*
X125290476Y-115169952D02*
X125366666Y-115131857D01*
X125366666Y-115131857D02*
X125557142Y-115131857D01*
X125557142Y-115131857D02*
X125633333Y-115169952D01*
X125633333Y-115169952D02*
X125671428Y-115208047D01*
X125671428Y-115208047D02*
X125709523Y-115284238D01*
X125709523Y-115284238D02*
X125709523Y-115474714D01*
X125709523Y-115474714D02*
X125671428Y-115550904D01*
X125671428Y-115550904D02*
X125633333Y-115589000D01*
X125633333Y-115589000D02*
X125557142Y-115627095D01*
X125557142Y-115627095D02*
X125366666Y-115627095D01*
X125366666Y-115627095D02*
X125290476Y-115589000D01*
X125290476Y-115589000D02*
X125252380Y-115550904D01*
X125938095Y-114827095D02*
X126204762Y-115627095D01*
X126204762Y-115627095D02*
X126471428Y-114827095D01*
X151034523Y-97952095D02*
X150577380Y-97952095D01*
X150805952Y-97952095D02*
X150805952Y-97152095D01*
X150805952Y-97152095D02*
X150729761Y-97266380D01*
X150729761Y-97266380D02*
X150653571Y-97342571D01*
X150653571Y-97342571D02*
X150577380Y-97380666D01*
X151720238Y-97152095D02*
X151567857Y-97152095D01*
X151567857Y-97152095D02*
X151491666Y-97190190D01*
X151491666Y-97190190D02*
X151453571Y-97228285D01*
X151453571Y-97228285D02*
X151377381Y-97342571D01*
X151377381Y-97342571D02*
X151339285Y-97494952D01*
X151339285Y-97494952D02*
X151339285Y-97799714D01*
X151339285Y-97799714D02*
X151377381Y-97875904D01*
X151377381Y-97875904D02*
X151415476Y-97914000D01*
X151415476Y-97914000D02*
X151491666Y-97952095D01*
X151491666Y-97952095D02*
X151644047Y-97952095D01*
X151644047Y-97952095D02*
X151720238Y-97914000D01*
X151720238Y-97914000D02*
X151758333Y-97875904D01*
X151758333Y-97875904D02*
X151796428Y-97799714D01*
X151796428Y-97799714D02*
X151796428Y-97609238D01*
X151796428Y-97609238D02*
X151758333Y-97533047D01*
X151758333Y-97533047D02*
X151720238Y-97494952D01*
X151720238Y-97494952D02*
X151644047Y-97456857D01*
X151644047Y-97456857D02*
X151491666Y-97456857D01*
X151491666Y-97456857D02*
X151415476Y-97494952D01*
X151415476Y-97494952D02*
X151377381Y-97533047D01*
X151377381Y-97533047D02*
X151339285Y-97609238D01*
X151521428Y-91927095D02*
X151140476Y-91927095D01*
X151140476Y-91927095D02*
X151102380Y-92308047D01*
X151102380Y-92308047D02*
X151140476Y-92269952D01*
X151140476Y-92269952D02*
X151216666Y-92231857D01*
X151216666Y-92231857D02*
X151407142Y-92231857D01*
X151407142Y-92231857D02*
X151483333Y-92269952D01*
X151483333Y-92269952D02*
X151521428Y-92308047D01*
X151521428Y-92308047D02*
X151559523Y-92384238D01*
X151559523Y-92384238D02*
X151559523Y-92574714D01*
X151559523Y-92574714D02*
X151521428Y-92650904D01*
X151521428Y-92650904D02*
X151483333Y-92689000D01*
X151483333Y-92689000D02*
X151407142Y-92727095D01*
X151407142Y-92727095D02*
X151216666Y-92727095D01*
X151216666Y-92727095D02*
X151140476Y-92689000D01*
X151140476Y-92689000D02*
X151102380Y-92650904D01*
X151342857Y-102102095D02*
X151419047Y-102102095D01*
X151419047Y-102102095D02*
X151495238Y-102140190D01*
X151495238Y-102140190D02*
X151533333Y-102178285D01*
X151533333Y-102178285D02*
X151571428Y-102254476D01*
X151571428Y-102254476D02*
X151609523Y-102406857D01*
X151609523Y-102406857D02*
X151609523Y-102597333D01*
X151609523Y-102597333D02*
X151571428Y-102749714D01*
X151571428Y-102749714D02*
X151533333Y-102825904D01*
X151533333Y-102825904D02*
X151495238Y-102864000D01*
X151495238Y-102864000D02*
X151419047Y-102902095D01*
X151419047Y-102902095D02*
X151342857Y-102902095D01*
X151342857Y-102902095D02*
X151266666Y-102864000D01*
X151266666Y-102864000D02*
X151228571Y-102825904D01*
X151228571Y-102825904D02*
X151190476Y-102749714D01*
X151190476Y-102749714D02*
X151152380Y-102597333D01*
X151152380Y-102597333D02*
X151152380Y-102406857D01*
X151152380Y-102406857D02*
X151190476Y-102254476D01*
X151190476Y-102254476D02*
X151228571Y-102178285D01*
X151228571Y-102178285D02*
X151266666Y-102140190D01*
X151266666Y-102140190D02*
X151342857Y-102102095D01*
D12*
X182114285Y-66115000D02*
X184400000Y-66115000D01*
D11*
X150922619Y-77527095D02*
X150655952Y-77146142D01*
X150465476Y-77527095D02*
X150465476Y-76727095D01*
X150465476Y-76727095D02*
X150770238Y-76727095D01*
X150770238Y-76727095D02*
X150846428Y-76765190D01*
X150846428Y-76765190D02*
X150884523Y-76803285D01*
X150884523Y-76803285D02*
X150922619Y-76879476D01*
X150922619Y-76879476D02*
X150922619Y-76993761D01*
X150922619Y-76993761D02*
X150884523Y-77069952D01*
X150884523Y-77069952D02*
X150846428Y-77108047D01*
X150846428Y-77108047D02*
X150770238Y-77146142D01*
X150770238Y-77146142D02*
X150465476Y-77146142D01*
X151189285Y-76727095D02*
X151722619Y-77527095D01*
X151722619Y-76727095D02*
X151189285Y-77527095D01*
X125215476Y-71858047D02*
X125482142Y-71858047D01*
X125596428Y-72277095D02*
X125215476Y-72277095D01*
X125215476Y-72277095D02*
X125215476Y-71477095D01*
X125215476Y-71477095D02*
X125596428Y-71477095D01*
X125939286Y-72277095D02*
X125939286Y-71477095D01*
X125939286Y-71477095D02*
X126396429Y-72277095D01*
X126396429Y-72277095D02*
X126396429Y-71477095D01*
X125684523Y-105527095D02*
X125227380Y-105527095D01*
X125455952Y-105527095D02*
X125455952Y-104727095D01*
X125455952Y-104727095D02*
X125379761Y-104841380D01*
X125379761Y-104841380D02*
X125303571Y-104917571D01*
X125303571Y-104917571D02*
X125227380Y-104955666D01*
X125951190Y-104727095D02*
X126446428Y-104727095D01*
X126446428Y-104727095D02*
X126179762Y-105031857D01*
X126179762Y-105031857D02*
X126294047Y-105031857D01*
X126294047Y-105031857D02*
X126370238Y-105069952D01*
X126370238Y-105069952D02*
X126408333Y-105108047D01*
X126408333Y-105108047D02*
X126446428Y-105184238D01*
X126446428Y-105184238D02*
X126446428Y-105374714D01*
X126446428Y-105374714D02*
X126408333Y-105450904D01*
X126408333Y-105450904D02*
X126370238Y-105489000D01*
X126370238Y-105489000D02*
X126294047Y-105527095D01*
X126294047Y-105527095D02*
X126065476Y-105527095D01*
X126065476Y-105527095D02*
X125989285Y-105489000D01*
X125989285Y-105489000D02*
X125951190Y-105450904D01*
X150527380Y-81753285D02*
X150565476Y-81715190D01*
X150565476Y-81715190D02*
X150641666Y-81677095D01*
X150641666Y-81677095D02*
X150832142Y-81677095D01*
X150832142Y-81677095D02*
X150908333Y-81715190D01*
X150908333Y-81715190D02*
X150946428Y-81753285D01*
X150946428Y-81753285D02*
X150984523Y-81829476D01*
X150984523Y-81829476D02*
X150984523Y-81905666D01*
X150984523Y-81905666D02*
X150946428Y-82019952D01*
X150946428Y-82019952D02*
X150489285Y-82477095D01*
X150489285Y-82477095D02*
X150984523Y-82477095D01*
X151746428Y-82477095D02*
X151289285Y-82477095D01*
X151517857Y-82477095D02*
X151517857Y-81677095D01*
X151517857Y-81677095D02*
X151441666Y-81791380D01*
X151441666Y-81791380D02*
X151365476Y-81867571D01*
X151365476Y-81867571D02*
X151289285Y-81905666D01*
X125734523Y-97727095D02*
X125277380Y-97727095D01*
X125505952Y-97727095D02*
X125505952Y-96927095D01*
X125505952Y-96927095D02*
X125429761Y-97041380D01*
X125429761Y-97041380D02*
X125353571Y-97117571D01*
X125353571Y-97117571D02*
X125277380Y-97155666D01*
X126420238Y-97193761D02*
X126420238Y-97727095D01*
X126229762Y-96889000D02*
X126039285Y-97460428D01*
X126039285Y-97460428D02*
X126534524Y-97460428D01*
D13*
%TO.C,J2*%
X183357619Y-69498333D02*
X184071904Y-69498333D01*
X184071904Y-69498333D02*
X184214761Y-69545952D01*
X184214761Y-69545952D02*
X184310000Y-69641190D01*
X184310000Y-69641190D02*
X184357619Y-69784047D01*
X184357619Y-69784047D02*
X184357619Y-69879285D01*
X183452857Y-69069761D02*
X183405238Y-69022142D01*
X183405238Y-69022142D02*
X183357619Y-68926904D01*
X183357619Y-68926904D02*
X183357619Y-68688809D01*
X183357619Y-68688809D02*
X183405238Y-68593571D01*
X183405238Y-68593571D02*
X183452857Y-68545952D01*
X183452857Y-68545952D02*
X183548095Y-68498333D01*
X183548095Y-68498333D02*
X183643333Y-68498333D01*
X183643333Y-68498333D02*
X183786190Y-68545952D01*
X183786190Y-68545952D02*
X184357619Y-69117380D01*
X184357619Y-69117380D02*
X184357619Y-68498333D01*
%TO.C,R1*%
X130922733Y-105505319D02*
X130589400Y-105029128D01*
X130351305Y-105505319D02*
X130351305Y-104505319D01*
X130351305Y-104505319D02*
X130732257Y-104505319D01*
X130732257Y-104505319D02*
X130827495Y-104552938D01*
X130827495Y-104552938D02*
X130875114Y-104600557D01*
X130875114Y-104600557D02*
X130922733Y-104695795D01*
X130922733Y-104695795D02*
X130922733Y-104838652D01*
X130922733Y-104838652D02*
X130875114Y-104933890D01*
X130875114Y-104933890D02*
X130827495Y-104981509D01*
X130827495Y-104981509D02*
X130732257Y-105029128D01*
X130732257Y-105029128D02*
X130351305Y-105029128D01*
X131875114Y-105505319D02*
X131303686Y-105505319D01*
X131589400Y-105505319D02*
X131589400Y-104505319D01*
X131589400Y-104505319D02*
X131494162Y-104648176D01*
X131494162Y-104648176D02*
X131398924Y-104743414D01*
X131398924Y-104743414D02*
X131303686Y-104791033D01*
%TO.C,J8*%
X166536200Y-74170819D02*
X166536200Y-74885104D01*
X166536200Y-74885104D02*
X166488581Y-75027961D01*
X166488581Y-75027961D02*
X166393343Y-75123200D01*
X166393343Y-75123200D02*
X166250486Y-75170819D01*
X166250486Y-75170819D02*
X166155248Y-75170819D01*
X167155248Y-74599390D02*
X167060010Y-74551771D01*
X167060010Y-74551771D02*
X167012391Y-74504152D01*
X167012391Y-74504152D02*
X166964772Y-74408914D01*
X166964772Y-74408914D02*
X166964772Y-74361295D01*
X166964772Y-74361295D02*
X167012391Y-74266057D01*
X167012391Y-74266057D02*
X167060010Y-74218438D01*
X167060010Y-74218438D02*
X167155248Y-74170819D01*
X167155248Y-74170819D02*
X167345724Y-74170819D01*
X167345724Y-74170819D02*
X167440962Y-74218438D01*
X167440962Y-74218438D02*
X167488581Y-74266057D01*
X167488581Y-74266057D02*
X167536200Y-74361295D01*
X167536200Y-74361295D02*
X167536200Y-74408914D01*
X167536200Y-74408914D02*
X167488581Y-74504152D01*
X167488581Y-74504152D02*
X167440962Y-74551771D01*
X167440962Y-74551771D02*
X167345724Y-74599390D01*
X167345724Y-74599390D02*
X167155248Y-74599390D01*
X167155248Y-74599390D02*
X167060010Y-74647009D01*
X167060010Y-74647009D02*
X167012391Y-74694628D01*
X167012391Y-74694628D02*
X166964772Y-74789866D01*
X166964772Y-74789866D02*
X166964772Y-74980342D01*
X166964772Y-74980342D02*
X167012391Y-75075580D01*
X167012391Y-75075580D02*
X167060010Y-75123200D01*
X167060010Y-75123200D02*
X167155248Y-75170819D01*
X167155248Y-75170819D02*
X167345724Y-75170819D01*
X167345724Y-75170819D02*
X167440962Y-75123200D01*
X167440962Y-75123200D02*
X167488581Y-75075580D01*
X167488581Y-75075580D02*
X167536200Y-74980342D01*
X167536200Y-74980342D02*
X167536200Y-74789866D01*
X167536200Y-74789866D02*
X167488581Y-74694628D01*
X167488581Y-74694628D02*
X167440962Y-74647009D01*
X167440962Y-74647009D02*
X167345724Y-74599390D01*
%TO.C,R3*%
X160433333Y-103412619D02*
X160100000Y-102936428D01*
X159861905Y-103412619D02*
X159861905Y-102412619D01*
X159861905Y-102412619D02*
X160242857Y-102412619D01*
X160242857Y-102412619D02*
X160338095Y-102460238D01*
X160338095Y-102460238D02*
X160385714Y-102507857D01*
X160385714Y-102507857D02*
X160433333Y-102603095D01*
X160433333Y-102603095D02*
X160433333Y-102745952D01*
X160433333Y-102745952D02*
X160385714Y-102841190D01*
X160385714Y-102841190D02*
X160338095Y-102888809D01*
X160338095Y-102888809D02*
X160242857Y-102936428D01*
X160242857Y-102936428D02*
X159861905Y-102936428D01*
X160766667Y-102412619D02*
X161385714Y-102412619D01*
X161385714Y-102412619D02*
X161052381Y-102793571D01*
X161052381Y-102793571D02*
X161195238Y-102793571D01*
X161195238Y-102793571D02*
X161290476Y-102841190D01*
X161290476Y-102841190D02*
X161338095Y-102888809D01*
X161338095Y-102888809D02*
X161385714Y-102984047D01*
X161385714Y-102984047D02*
X161385714Y-103222142D01*
X161385714Y-103222142D02*
X161338095Y-103317380D01*
X161338095Y-103317380D02*
X161290476Y-103365000D01*
X161290476Y-103365000D02*
X161195238Y-103412619D01*
X161195238Y-103412619D02*
X160909524Y-103412619D01*
X160909524Y-103412619D02*
X160814286Y-103365000D01*
X160814286Y-103365000D02*
X160766667Y-103317380D01*
%TO.C,R14*%
X166057142Y-63012619D02*
X165723809Y-62536428D01*
X165485714Y-63012619D02*
X165485714Y-62012619D01*
X165485714Y-62012619D02*
X165866666Y-62012619D01*
X165866666Y-62012619D02*
X165961904Y-62060238D01*
X165961904Y-62060238D02*
X166009523Y-62107857D01*
X166009523Y-62107857D02*
X166057142Y-62203095D01*
X166057142Y-62203095D02*
X166057142Y-62345952D01*
X166057142Y-62345952D02*
X166009523Y-62441190D01*
X166009523Y-62441190D02*
X165961904Y-62488809D01*
X165961904Y-62488809D02*
X165866666Y-62536428D01*
X165866666Y-62536428D02*
X165485714Y-62536428D01*
X167009523Y-63012619D02*
X166438095Y-63012619D01*
X166723809Y-63012619D02*
X166723809Y-62012619D01*
X166723809Y-62012619D02*
X166628571Y-62155476D01*
X166628571Y-62155476D02*
X166533333Y-62250714D01*
X166533333Y-62250714D02*
X166438095Y-62298333D01*
X167866666Y-62345952D02*
X167866666Y-63012619D01*
X167628571Y-61965000D02*
X167390476Y-62679285D01*
X167390476Y-62679285D02*
X168009523Y-62679285D01*
%TO.C,R12*%
X166607142Y-106862619D02*
X166273809Y-106386428D01*
X166035714Y-106862619D02*
X166035714Y-105862619D01*
X166035714Y-105862619D02*
X166416666Y-105862619D01*
X166416666Y-105862619D02*
X166511904Y-105910238D01*
X166511904Y-105910238D02*
X166559523Y-105957857D01*
X166559523Y-105957857D02*
X166607142Y-106053095D01*
X166607142Y-106053095D02*
X166607142Y-106195952D01*
X166607142Y-106195952D02*
X166559523Y-106291190D01*
X166559523Y-106291190D02*
X166511904Y-106338809D01*
X166511904Y-106338809D02*
X166416666Y-106386428D01*
X166416666Y-106386428D02*
X166035714Y-106386428D01*
X167559523Y-106862619D02*
X166988095Y-106862619D01*
X167273809Y-106862619D02*
X167273809Y-105862619D01*
X167273809Y-105862619D02*
X167178571Y-106005476D01*
X167178571Y-106005476D02*
X167083333Y-106100714D01*
X167083333Y-106100714D02*
X166988095Y-106148333D01*
X167940476Y-105957857D02*
X167988095Y-105910238D01*
X167988095Y-105910238D02*
X168083333Y-105862619D01*
X168083333Y-105862619D02*
X168321428Y-105862619D01*
X168321428Y-105862619D02*
X168416666Y-105910238D01*
X168416666Y-105910238D02*
X168464285Y-105957857D01*
X168464285Y-105957857D02*
X168511904Y-106053095D01*
X168511904Y-106053095D02*
X168511904Y-106148333D01*
X168511904Y-106148333D02*
X168464285Y-106291190D01*
X168464285Y-106291190D02*
X167892857Y-106862619D01*
X167892857Y-106862619D02*
X168511904Y-106862619D01*
%TO.C,J1*%
X183282619Y-85468333D02*
X183996904Y-85468333D01*
X183996904Y-85468333D02*
X184139761Y-85515952D01*
X184139761Y-85515952D02*
X184235000Y-85611190D01*
X184235000Y-85611190D02*
X184282619Y-85754047D01*
X184282619Y-85754047D02*
X184282619Y-85849285D01*
X184282619Y-84468333D02*
X184282619Y-85039761D01*
X184282619Y-84754047D02*
X183282619Y-84754047D01*
X183282619Y-84754047D02*
X183425476Y-84849285D01*
X183425476Y-84849285D02*
X183520714Y-84944523D01*
X183520714Y-84944523D02*
X183568333Y-85039761D01*
%TO.C,J4*%
X160389400Y-74180819D02*
X160389400Y-74895104D01*
X160389400Y-74895104D02*
X160341781Y-75037961D01*
X160341781Y-75037961D02*
X160246543Y-75133200D01*
X160246543Y-75133200D02*
X160103686Y-75180819D01*
X160103686Y-75180819D02*
X160008448Y-75180819D01*
X161294162Y-74514152D02*
X161294162Y-75180819D01*
X161056067Y-74133200D02*
X160817972Y-74847485D01*
X160817972Y-74847485D02*
X161437019Y-74847485D01*
%TO.C,K1*%
X181405205Y-98846519D02*
X181405205Y-97846519D01*
X181976633Y-98846519D02*
X181548062Y-98275090D01*
X181976633Y-97846519D02*
X181405205Y-98417947D01*
X182929014Y-98846519D02*
X182357586Y-98846519D01*
X182643300Y-98846519D02*
X182643300Y-97846519D01*
X182643300Y-97846519D02*
X182548062Y-97989376D01*
X182548062Y-97989376D02*
X182452824Y-98084614D01*
X182452824Y-98084614D02*
X182357586Y-98132233D01*
%TO.C,R6*%
X128863333Y-89329719D02*
X128530000Y-88853528D01*
X128291905Y-89329719D02*
X128291905Y-88329719D01*
X128291905Y-88329719D02*
X128672857Y-88329719D01*
X128672857Y-88329719D02*
X128768095Y-88377338D01*
X128768095Y-88377338D02*
X128815714Y-88424957D01*
X128815714Y-88424957D02*
X128863333Y-88520195D01*
X128863333Y-88520195D02*
X128863333Y-88663052D01*
X128863333Y-88663052D02*
X128815714Y-88758290D01*
X128815714Y-88758290D02*
X128768095Y-88805909D01*
X128768095Y-88805909D02*
X128672857Y-88853528D01*
X128672857Y-88853528D02*
X128291905Y-88853528D01*
X129720476Y-88329719D02*
X129530000Y-88329719D01*
X129530000Y-88329719D02*
X129434762Y-88377338D01*
X129434762Y-88377338D02*
X129387143Y-88424957D01*
X129387143Y-88424957D02*
X129291905Y-88567814D01*
X129291905Y-88567814D02*
X129244286Y-88758290D01*
X129244286Y-88758290D02*
X129244286Y-89139242D01*
X129244286Y-89139242D02*
X129291905Y-89234480D01*
X129291905Y-89234480D02*
X129339524Y-89282100D01*
X129339524Y-89282100D02*
X129434762Y-89329719D01*
X129434762Y-89329719D02*
X129625238Y-89329719D01*
X129625238Y-89329719D02*
X129720476Y-89282100D01*
X129720476Y-89282100D02*
X129768095Y-89234480D01*
X129768095Y-89234480D02*
X129815714Y-89139242D01*
X129815714Y-89139242D02*
X129815714Y-88901147D01*
X129815714Y-88901147D02*
X129768095Y-88805909D01*
X129768095Y-88805909D02*
X129720476Y-88758290D01*
X129720476Y-88758290D02*
X129625238Y-88710671D01*
X129625238Y-88710671D02*
X129434762Y-88710671D01*
X129434762Y-88710671D02*
X129339524Y-88758290D01*
X129339524Y-88758290D02*
X129291905Y-88805909D01*
X129291905Y-88805909D02*
X129244286Y-88901147D01*
%TO.C,J9*%
X160313200Y-81816219D02*
X160313200Y-82530504D01*
X160313200Y-82530504D02*
X160265581Y-82673361D01*
X160265581Y-82673361D02*
X160170343Y-82768600D01*
X160170343Y-82768600D02*
X160027486Y-82816219D01*
X160027486Y-82816219D02*
X159932248Y-82816219D01*
X160837010Y-82816219D02*
X161027486Y-82816219D01*
X161027486Y-82816219D02*
X161122724Y-82768600D01*
X161122724Y-82768600D02*
X161170343Y-82720980D01*
X161170343Y-82720980D02*
X161265581Y-82578123D01*
X161265581Y-82578123D02*
X161313200Y-82387647D01*
X161313200Y-82387647D02*
X161313200Y-82006695D01*
X161313200Y-82006695D02*
X161265581Y-81911457D01*
X161265581Y-81911457D02*
X161217962Y-81863838D01*
X161217962Y-81863838D02*
X161122724Y-81816219D01*
X161122724Y-81816219D02*
X160932248Y-81816219D01*
X160932248Y-81816219D02*
X160837010Y-81863838D01*
X160837010Y-81863838D02*
X160789391Y-81911457D01*
X160789391Y-81911457D02*
X160741772Y-82006695D01*
X160741772Y-82006695D02*
X160741772Y-82244790D01*
X160741772Y-82244790D02*
X160789391Y-82340028D01*
X160789391Y-82340028D02*
X160837010Y-82387647D01*
X160837010Y-82387647D02*
X160932248Y-82435266D01*
X160932248Y-82435266D02*
X161122724Y-82435266D01*
X161122724Y-82435266D02*
X161217962Y-82387647D01*
X161217962Y-82387647D02*
X161265581Y-82340028D01*
X161265581Y-82340028D02*
X161313200Y-82244790D01*
%TO.C,R10*%
X138507142Y-89210219D02*
X138173809Y-88734028D01*
X137935714Y-89210219D02*
X137935714Y-88210219D01*
X137935714Y-88210219D02*
X138316666Y-88210219D01*
X138316666Y-88210219D02*
X138411904Y-88257838D01*
X138411904Y-88257838D02*
X138459523Y-88305457D01*
X138459523Y-88305457D02*
X138507142Y-88400695D01*
X138507142Y-88400695D02*
X138507142Y-88543552D01*
X138507142Y-88543552D02*
X138459523Y-88638790D01*
X138459523Y-88638790D02*
X138411904Y-88686409D01*
X138411904Y-88686409D02*
X138316666Y-88734028D01*
X138316666Y-88734028D02*
X137935714Y-88734028D01*
X139459523Y-89210219D02*
X138888095Y-89210219D01*
X139173809Y-89210219D02*
X139173809Y-88210219D01*
X139173809Y-88210219D02*
X139078571Y-88353076D01*
X139078571Y-88353076D02*
X138983333Y-88448314D01*
X138983333Y-88448314D02*
X138888095Y-88495933D01*
X140078571Y-88210219D02*
X140173809Y-88210219D01*
X140173809Y-88210219D02*
X140269047Y-88257838D01*
X140269047Y-88257838D02*
X140316666Y-88305457D01*
X140316666Y-88305457D02*
X140364285Y-88400695D01*
X140364285Y-88400695D02*
X140411904Y-88591171D01*
X140411904Y-88591171D02*
X140411904Y-88829266D01*
X140411904Y-88829266D02*
X140364285Y-89019742D01*
X140364285Y-89019742D02*
X140316666Y-89114980D01*
X140316666Y-89114980D02*
X140269047Y-89162600D01*
X140269047Y-89162600D02*
X140173809Y-89210219D01*
X140173809Y-89210219D02*
X140078571Y-89210219D01*
X140078571Y-89210219D02*
X139983333Y-89162600D01*
X139983333Y-89162600D02*
X139935714Y-89114980D01*
X139935714Y-89114980D02*
X139888095Y-89019742D01*
X139888095Y-89019742D02*
X139840476Y-88829266D01*
X139840476Y-88829266D02*
X139840476Y-88591171D01*
X139840476Y-88591171D02*
X139888095Y-88400695D01*
X139888095Y-88400695D02*
X139935714Y-88305457D01*
X139935714Y-88305457D02*
X139983333Y-88257838D01*
X139983333Y-88257838D02*
X140078571Y-88210219D01*
%TO.C,J7*%
X160389400Y-66560819D02*
X160389400Y-67275104D01*
X160389400Y-67275104D02*
X160341781Y-67417961D01*
X160341781Y-67417961D02*
X160246543Y-67513200D01*
X160246543Y-67513200D02*
X160103686Y-67560819D01*
X160103686Y-67560819D02*
X160008448Y-67560819D01*
X160770353Y-66560819D02*
X161437019Y-66560819D01*
X161437019Y-66560819D02*
X161008448Y-67560819D01*
%TO.C,J6*%
X166460000Y-91976219D02*
X166460000Y-92690504D01*
X166460000Y-92690504D02*
X166412381Y-92833361D01*
X166412381Y-92833361D02*
X166317143Y-92928600D01*
X166317143Y-92928600D02*
X166174286Y-92976219D01*
X166174286Y-92976219D02*
X166079048Y-92976219D01*
X167364762Y-91976219D02*
X167174286Y-91976219D01*
X167174286Y-91976219D02*
X167079048Y-92023838D01*
X167079048Y-92023838D02*
X167031429Y-92071457D01*
X167031429Y-92071457D02*
X166936191Y-92214314D01*
X166936191Y-92214314D02*
X166888572Y-92404790D01*
X166888572Y-92404790D02*
X166888572Y-92785742D01*
X166888572Y-92785742D02*
X166936191Y-92880980D01*
X166936191Y-92880980D02*
X166983810Y-92928600D01*
X166983810Y-92928600D02*
X167079048Y-92976219D01*
X167079048Y-92976219D02*
X167269524Y-92976219D01*
X167269524Y-92976219D02*
X167364762Y-92928600D01*
X167364762Y-92928600D02*
X167412381Y-92880980D01*
X167412381Y-92880980D02*
X167460000Y-92785742D01*
X167460000Y-92785742D02*
X167460000Y-92547647D01*
X167460000Y-92547647D02*
X167412381Y-92452409D01*
X167412381Y-92452409D02*
X167364762Y-92404790D01*
X167364762Y-92404790D02*
X167269524Y-92357171D01*
X167269524Y-92357171D02*
X167079048Y-92357171D01*
X167079048Y-92357171D02*
X166983810Y-92404790D01*
X166983810Y-92404790D02*
X166936191Y-92452409D01*
X166936191Y-92452409D02*
X166888572Y-92547647D01*
%TO.C,SW2*%
X149166667Y-120515000D02*
X149309524Y-120562619D01*
X149309524Y-120562619D02*
X149547619Y-120562619D01*
X149547619Y-120562619D02*
X149642857Y-120515000D01*
X149642857Y-120515000D02*
X149690476Y-120467380D01*
X149690476Y-120467380D02*
X149738095Y-120372142D01*
X149738095Y-120372142D02*
X149738095Y-120276904D01*
X149738095Y-120276904D02*
X149690476Y-120181666D01*
X149690476Y-120181666D02*
X149642857Y-120134047D01*
X149642857Y-120134047D02*
X149547619Y-120086428D01*
X149547619Y-120086428D02*
X149357143Y-120038809D01*
X149357143Y-120038809D02*
X149261905Y-119991190D01*
X149261905Y-119991190D02*
X149214286Y-119943571D01*
X149214286Y-119943571D02*
X149166667Y-119848333D01*
X149166667Y-119848333D02*
X149166667Y-119753095D01*
X149166667Y-119753095D02*
X149214286Y-119657857D01*
X149214286Y-119657857D02*
X149261905Y-119610238D01*
X149261905Y-119610238D02*
X149357143Y-119562619D01*
X149357143Y-119562619D02*
X149595238Y-119562619D01*
X149595238Y-119562619D02*
X149738095Y-119610238D01*
X150071429Y-119562619D02*
X150309524Y-120562619D01*
X150309524Y-120562619D02*
X150500000Y-119848333D01*
X150500000Y-119848333D02*
X150690476Y-120562619D01*
X150690476Y-120562619D02*
X150928572Y-119562619D01*
X151261905Y-119657857D02*
X151309524Y-119610238D01*
X151309524Y-119610238D02*
X151404762Y-119562619D01*
X151404762Y-119562619D02*
X151642857Y-119562619D01*
X151642857Y-119562619D02*
X151738095Y-119610238D01*
X151738095Y-119610238D02*
X151785714Y-119657857D01*
X151785714Y-119657857D02*
X151833333Y-119753095D01*
X151833333Y-119753095D02*
X151833333Y-119848333D01*
X151833333Y-119848333D02*
X151785714Y-119991190D01*
X151785714Y-119991190D02*
X151214286Y-120562619D01*
X151214286Y-120562619D02*
X151833333Y-120562619D01*
%TO.C,R5*%
X130925333Y-89329719D02*
X130592000Y-88853528D01*
X130353905Y-89329719D02*
X130353905Y-88329719D01*
X130353905Y-88329719D02*
X130734857Y-88329719D01*
X130734857Y-88329719D02*
X130830095Y-88377338D01*
X130830095Y-88377338D02*
X130877714Y-88424957D01*
X130877714Y-88424957D02*
X130925333Y-88520195D01*
X130925333Y-88520195D02*
X130925333Y-88663052D01*
X130925333Y-88663052D02*
X130877714Y-88758290D01*
X130877714Y-88758290D02*
X130830095Y-88805909D01*
X130830095Y-88805909D02*
X130734857Y-88853528D01*
X130734857Y-88853528D02*
X130353905Y-88853528D01*
X131830095Y-88329719D02*
X131353905Y-88329719D01*
X131353905Y-88329719D02*
X131306286Y-88805909D01*
X131306286Y-88805909D02*
X131353905Y-88758290D01*
X131353905Y-88758290D02*
X131449143Y-88710671D01*
X131449143Y-88710671D02*
X131687238Y-88710671D01*
X131687238Y-88710671D02*
X131782476Y-88758290D01*
X131782476Y-88758290D02*
X131830095Y-88805909D01*
X131830095Y-88805909D02*
X131877714Y-88901147D01*
X131877714Y-88901147D02*
X131877714Y-89139242D01*
X131877714Y-89139242D02*
X131830095Y-89234480D01*
X131830095Y-89234480D02*
X131782476Y-89282100D01*
X131782476Y-89282100D02*
X131687238Y-89329719D01*
X131687238Y-89329719D02*
X131449143Y-89329719D01*
X131449143Y-89329719D02*
X131353905Y-89282100D01*
X131353905Y-89282100D02*
X131306286Y-89234480D01*
%TO.C,SW1*%
X125031667Y-120293800D02*
X125174524Y-120341419D01*
X125174524Y-120341419D02*
X125412619Y-120341419D01*
X125412619Y-120341419D02*
X125507857Y-120293800D01*
X125507857Y-120293800D02*
X125555476Y-120246180D01*
X125555476Y-120246180D02*
X125603095Y-120150942D01*
X125603095Y-120150942D02*
X125603095Y-120055704D01*
X125603095Y-120055704D02*
X125555476Y-119960466D01*
X125555476Y-119960466D02*
X125507857Y-119912847D01*
X125507857Y-119912847D02*
X125412619Y-119865228D01*
X125412619Y-119865228D02*
X125222143Y-119817609D01*
X125222143Y-119817609D02*
X125126905Y-119769990D01*
X125126905Y-119769990D02*
X125079286Y-119722371D01*
X125079286Y-119722371D02*
X125031667Y-119627133D01*
X125031667Y-119627133D02*
X125031667Y-119531895D01*
X125031667Y-119531895D02*
X125079286Y-119436657D01*
X125079286Y-119436657D02*
X125126905Y-119389038D01*
X125126905Y-119389038D02*
X125222143Y-119341419D01*
X125222143Y-119341419D02*
X125460238Y-119341419D01*
X125460238Y-119341419D02*
X125603095Y-119389038D01*
X125936429Y-119341419D02*
X126174524Y-120341419D01*
X126174524Y-120341419D02*
X126365000Y-119627133D01*
X126365000Y-119627133D02*
X126555476Y-120341419D01*
X126555476Y-120341419D02*
X126793572Y-119341419D01*
X127698333Y-120341419D02*
X127126905Y-120341419D01*
X127412619Y-120341419D02*
X127412619Y-119341419D01*
X127412619Y-119341419D02*
X127317381Y-119484276D01*
X127317381Y-119484276D02*
X127222143Y-119579514D01*
X127222143Y-119579514D02*
X127126905Y-119627133D01*
%TO.C,C7*%
X130922733Y-110571880D02*
X130875114Y-110619500D01*
X130875114Y-110619500D02*
X130732257Y-110667119D01*
X130732257Y-110667119D02*
X130637019Y-110667119D01*
X130637019Y-110667119D02*
X130494162Y-110619500D01*
X130494162Y-110619500D02*
X130398924Y-110524261D01*
X130398924Y-110524261D02*
X130351305Y-110429023D01*
X130351305Y-110429023D02*
X130303686Y-110238547D01*
X130303686Y-110238547D02*
X130303686Y-110095690D01*
X130303686Y-110095690D02*
X130351305Y-109905214D01*
X130351305Y-109905214D02*
X130398924Y-109809976D01*
X130398924Y-109809976D02*
X130494162Y-109714738D01*
X130494162Y-109714738D02*
X130637019Y-109667119D01*
X130637019Y-109667119D02*
X130732257Y-109667119D01*
X130732257Y-109667119D02*
X130875114Y-109714738D01*
X130875114Y-109714738D02*
X130922733Y-109762357D01*
X131256067Y-109667119D02*
X131922733Y-109667119D01*
X131922733Y-109667119D02*
X131494162Y-110667119D01*
%TO.C,J3*%
X166536200Y-66560819D02*
X166536200Y-67275104D01*
X166536200Y-67275104D02*
X166488581Y-67417961D01*
X166488581Y-67417961D02*
X166393343Y-67513200D01*
X166393343Y-67513200D02*
X166250486Y-67560819D01*
X166250486Y-67560819D02*
X166155248Y-67560819D01*
X166917153Y-66560819D02*
X167536200Y-66560819D01*
X167536200Y-66560819D02*
X167202867Y-66941771D01*
X167202867Y-66941771D02*
X167345724Y-66941771D01*
X167345724Y-66941771D02*
X167440962Y-66989390D01*
X167440962Y-66989390D02*
X167488581Y-67037009D01*
X167488581Y-67037009D02*
X167536200Y-67132247D01*
X167536200Y-67132247D02*
X167536200Y-67370342D01*
X167536200Y-67370342D02*
X167488581Y-67465580D01*
X167488581Y-67465580D02*
X167440962Y-67513200D01*
X167440962Y-67513200D02*
X167345724Y-67560819D01*
X167345724Y-67560819D02*
X167060010Y-67560819D01*
X167060010Y-67560819D02*
X166964772Y-67513200D01*
X166964772Y-67513200D02*
X166917153Y-67465580D01*
%TO.C,R11*%
X148812619Y-117142857D02*
X148336428Y-117476190D01*
X148812619Y-117714285D02*
X147812619Y-117714285D01*
X147812619Y-117714285D02*
X147812619Y-117333333D01*
X147812619Y-117333333D02*
X147860238Y-117238095D01*
X147860238Y-117238095D02*
X147907857Y-117190476D01*
X147907857Y-117190476D02*
X148003095Y-117142857D01*
X148003095Y-117142857D02*
X148145952Y-117142857D01*
X148145952Y-117142857D02*
X148241190Y-117190476D01*
X148241190Y-117190476D02*
X148288809Y-117238095D01*
X148288809Y-117238095D02*
X148336428Y-117333333D01*
X148336428Y-117333333D02*
X148336428Y-117714285D01*
X148812619Y-116190476D02*
X148812619Y-116761904D01*
X148812619Y-116476190D02*
X147812619Y-116476190D01*
X147812619Y-116476190D02*
X147955476Y-116571428D01*
X147955476Y-116571428D02*
X148050714Y-116666666D01*
X148050714Y-116666666D02*
X148098333Y-116761904D01*
X148812619Y-115238095D02*
X148812619Y-115809523D01*
X148812619Y-115523809D02*
X147812619Y-115523809D01*
X147812619Y-115523809D02*
X147955476Y-115619047D01*
X147955476Y-115619047D02*
X148050714Y-115714285D01*
X148050714Y-115714285D02*
X148098333Y-115809523D01*
%TO.C,R21*%
X141307142Y-89210219D02*
X140973809Y-88734028D01*
X140735714Y-89210219D02*
X140735714Y-88210219D01*
X140735714Y-88210219D02*
X141116666Y-88210219D01*
X141116666Y-88210219D02*
X141211904Y-88257838D01*
X141211904Y-88257838D02*
X141259523Y-88305457D01*
X141259523Y-88305457D02*
X141307142Y-88400695D01*
X141307142Y-88400695D02*
X141307142Y-88543552D01*
X141307142Y-88543552D02*
X141259523Y-88638790D01*
X141259523Y-88638790D02*
X141211904Y-88686409D01*
X141211904Y-88686409D02*
X141116666Y-88734028D01*
X141116666Y-88734028D02*
X140735714Y-88734028D01*
X141688095Y-88305457D02*
X141735714Y-88257838D01*
X141735714Y-88257838D02*
X141830952Y-88210219D01*
X141830952Y-88210219D02*
X142069047Y-88210219D01*
X142069047Y-88210219D02*
X142164285Y-88257838D01*
X142164285Y-88257838D02*
X142211904Y-88305457D01*
X142211904Y-88305457D02*
X142259523Y-88400695D01*
X142259523Y-88400695D02*
X142259523Y-88495933D01*
X142259523Y-88495933D02*
X142211904Y-88638790D01*
X142211904Y-88638790D02*
X141640476Y-89210219D01*
X141640476Y-89210219D02*
X142259523Y-89210219D01*
X143211904Y-89210219D02*
X142640476Y-89210219D01*
X142926190Y-89210219D02*
X142926190Y-88210219D01*
X142926190Y-88210219D02*
X142830952Y-88353076D01*
X142830952Y-88353076D02*
X142735714Y-88448314D01*
X142735714Y-88448314D02*
X142640476Y-88495933D01*
%TO.C,C1*%
X134224733Y-110597280D02*
X134177114Y-110644900D01*
X134177114Y-110644900D02*
X134034257Y-110692519D01*
X134034257Y-110692519D02*
X133939019Y-110692519D01*
X133939019Y-110692519D02*
X133796162Y-110644900D01*
X133796162Y-110644900D02*
X133700924Y-110549661D01*
X133700924Y-110549661D02*
X133653305Y-110454423D01*
X133653305Y-110454423D02*
X133605686Y-110263947D01*
X133605686Y-110263947D02*
X133605686Y-110121090D01*
X133605686Y-110121090D02*
X133653305Y-109930614D01*
X133653305Y-109930614D02*
X133700924Y-109835376D01*
X133700924Y-109835376D02*
X133796162Y-109740138D01*
X133796162Y-109740138D02*
X133939019Y-109692519D01*
X133939019Y-109692519D02*
X134034257Y-109692519D01*
X134034257Y-109692519D02*
X134177114Y-109740138D01*
X134177114Y-109740138D02*
X134224733Y-109787757D01*
X135177114Y-110692519D02*
X134605686Y-110692519D01*
X134891400Y-110692519D02*
X134891400Y-109692519D01*
X134891400Y-109692519D02*
X134796162Y-109835376D01*
X134796162Y-109835376D02*
X134700924Y-109930614D01*
X134700924Y-109930614D02*
X134605686Y-109978233D01*
%TO.C,P1*%
X138022105Y-116831819D02*
X138022105Y-115831819D01*
X138022105Y-115831819D02*
X138403057Y-115831819D01*
X138403057Y-115831819D02*
X138498295Y-115879438D01*
X138498295Y-115879438D02*
X138545914Y-115927057D01*
X138545914Y-115927057D02*
X138593533Y-116022295D01*
X138593533Y-116022295D02*
X138593533Y-116165152D01*
X138593533Y-116165152D02*
X138545914Y-116260390D01*
X138545914Y-116260390D02*
X138498295Y-116308009D01*
X138498295Y-116308009D02*
X138403057Y-116355628D01*
X138403057Y-116355628D02*
X138022105Y-116355628D01*
X139545914Y-116831819D02*
X138974486Y-116831819D01*
X139260200Y-116831819D02*
X139260200Y-115831819D01*
X139260200Y-115831819D02*
X139164962Y-115974676D01*
X139164962Y-115974676D02*
X139069724Y-116069914D01*
X139069724Y-116069914D02*
X138974486Y-116117533D01*
%TO.C,Q2*%
X129876561Y-94385457D02*
X129781323Y-94337838D01*
X129781323Y-94337838D02*
X129686085Y-94242600D01*
X129686085Y-94242600D02*
X129543228Y-94099742D01*
X129543228Y-94099742D02*
X129447990Y-94052123D01*
X129447990Y-94052123D02*
X129352752Y-94052123D01*
X129400371Y-94290219D02*
X129305133Y-94242600D01*
X129305133Y-94242600D02*
X129209895Y-94147361D01*
X129209895Y-94147361D02*
X129162276Y-93956885D01*
X129162276Y-93956885D02*
X129162276Y-93623552D01*
X129162276Y-93623552D02*
X129209895Y-93433076D01*
X129209895Y-93433076D02*
X129305133Y-93337838D01*
X129305133Y-93337838D02*
X129400371Y-93290219D01*
X129400371Y-93290219D02*
X129590847Y-93290219D01*
X129590847Y-93290219D02*
X129686085Y-93337838D01*
X129686085Y-93337838D02*
X129781323Y-93433076D01*
X129781323Y-93433076D02*
X129828942Y-93623552D01*
X129828942Y-93623552D02*
X129828942Y-93956885D01*
X129828942Y-93956885D02*
X129781323Y-94147361D01*
X129781323Y-94147361D02*
X129686085Y-94242600D01*
X129686085Y-94242600D02*
X129590847Y-94290219D01*
X129590847Y-94290219D02*
X129400371Y-94290219D01*
X130209895Y-93385457D02*
X130257514Y-93337838D01*
X130257514Y-93337838D02*
X130352752Y-93290219D01*
X130352752Y-93290219D02*
X130590847Y-93290219D01*
X130590847Y-93290219D02*
X130686085Y-93337838D01*
X130686085Y-93337838D02*
X130733704Y-93385457D01*
X130733704Y-93385457D02*
X130781323Y-93480695D01*
X130781323Y-93480695D02*
X130781323Y-93575933D01*
X130781323Y-93575933D02*
X130733704Y-93718790D01*
X130733704Y-93718790D02*
X130162276Y-94290219D01*
X130162276Y-94290219D02*
X130781323Y-94290219D01*
%TO.C,R4*%
X160433333Y-106812619D02*
X160100000Y-106336428D01*
X159861905Y-106812619D02*
X159861905Y-105812619D01*
X159861905Y-105812619D02*
X160242857Y-105812619D01*
X160242857Y-105812619D02*
X160338095Y-105860238D01*
X160338095Y-105860238D02*
X160385714Y-105907857D01*
X160385714Y-105907857D02*
X160433333Y-106003095D01*
X160433333Y-106003095D02*
X160433333Y-106145952D01*
X160433333Y-106145952D02*
X160385714Y-106241190D01*
X160385714Y-106241190D02*
X160338095Y-106288809D01*
X160338095Y-106288809D02*
X160242857Y-106336428D01*
X160242857Y-106336428D02*
X159861905Y-106336428D01*
X161290476Y-106145952D02*
X161290476Y-106812619D01*
X161052381Y-105765000D02*
X160814286Y-106479285D01*
X160814286Y-106479285D02*
X161433333Y-106479285D01*
%TO.C,R20*%
X159057142Y-62812619D02*
X158723809Y-62336428D01*
X158485714Y-62812619D02*
X158485714Y-61812619D01*
X158485714Y-61812619D02*
X158866666Y-61812619D01*
X158866666Y-61812619D02*
X158961904Y-61860238D01*
X158961904Y-61860238D02*
X159009523Y-61907857D01*
X159009523Y-61907857D02*
X159057142Y-62003095D01*
X159057142Y-62003095D02*
X159057142Y-62145952D01*
X159057142Y-62145952D02*
X159009523Y-62241190D01*
X159009523Y-62241190D02*
X158961904Y-62288809D01*
X158961904Y-62288809D02*
X158866666Y-62336428D01*
X158866666Y-62336428D02*
X158485714Y-62336428D01*
X159438095Y-61907857D02*
X159485714Y-61860238D01*
X159485714Y-61860238D02*
X159580952Y-61812619D01*
X159580952Y-61812619D02*
X159819047Y-61812619D01*
X159819047Y-61812619D02*
X159914285Y-61860238D01*
X159914285Y-61860238D02*
X159961904Y-61907857D01*
X159961904Y-61907857D02*
X160009523Y-62003095D01*
X160009523Y-62003095D02*
X160009523Y-62098333D01*
X160009523Y-62098333D02*
X159961904Y-62241190D01*
X159961904Y-62241190D02*
X159390476Y-62812619D01*
X159390476Y-62812619D02*
X160009523Y-62812619D01*
X160628571Y-61812619D02*
X160723809Y-61812619D01*
X160723809Y-61812619D02*
X160819047Y-61860238D01*
X160819047Y-61860238D02*
X160866666Y-61907857D01*
X160866666Y-61907857D02*
X160914285Y-62003095D01*
X160914285Y-62003095D02*
X160961904Y-62193571D01*
X160961904Y-62193571D02*
X160961904Y-62431666D01*
X160961904Y-62431666D02*
X160914285Y-62622142D01*
X160914285Y-62622142D02*
X160866666Y-62717380D01*
X160866666Y-62717380D02*
X160819047Y-62765000D01*
X160819047Y-62765000D02*
X160723809Y-62812619D01*
X160723809Y-62812619D02*
X160628571Y-62812619D01*
X160628571Y-62812619D02*
X160533333Y-62765000D01*
X160533333Y-62765000D02*
X160485714Y-62717380D01*
X160485714Y-62717380D02*
X160438095Y-62622142D01*
X160438095Y-62622142D02*
X160390476Y-62431666D01*
X160390476Y-62431666D02*
X160390476Y-62193571D01*
X160390476Y-62193571D02*
X160438095Y-62003095D01*
X160438095Y-62003095D02*
X160485714Y-61907857D01*
X160485714Y-61907857D02*
X160533333Y-61860238D01*
X160533333Y-61860238D02*
X160628571Y-61812619D01*
%TO.C,R13*%
X146807142Y-89298819D02*
X146473809Y-88822628D01*
X146235714Y-89298819D02*
X146235714Y-88298819D01*
X146235714Y-88298819D02*
X146616666Y-88298819D01*
X146616666Y-88298819D02*
X146711904Y-88346438D01*
X146711904Y-88346438D02*
X146759523Y-88394057D01*
X146759523Y-88394057D02*
X146807142Y-88489295D01*
X146807142Y-88489295D02*
X146807142Y-88632152D01*
X146807142Y-88632152D02*
X146759523Y-88727390D01*
X146759523Y-88727390D02*
X146711904Y-88775009D01*
X146711904Y-88775009D02*
X146616666Y-88822628D01*
X146616666Y-88822628D02*
X146235714Y-88822628D01*
X147759523Y-89298819D02*
X147188095Y-89298819D01*
X147473809Y-89298819D02*
X147473809Y-88298819D01*
X147473809Y-88298819D02*
X147378571Y-88441676D01*
X147378571Y-88441676D02*
X147283333Y-88536914D01*
X147283333Y-88536914D02*
X147188095Y-88584533D01*
X148092857Y-88298819D02*
X148711904Y-88298819D01*
X148711904Y-88298819D02*
X148378571Y-88679771D01*
X148378571Y-88679771D02*
X148521428Y-88679771D01*
X148521428Y-88679771D02*
X148616666Y-88727390D01*
X148616666Y-88727390D02*
X148664285Y-88775009D01*
X148664285Y-88775009D02*
X148711904Y-88870247D01*
X148711904Y-88870247D02*
X148711904Y-89108342D01*
X148711904Y-89108342D02*
X148664285Y-89203580D01*
X148664285Y-89203580D02*
X148616666Y-89251200D01*
X148616666Y-89251200D02*
X148521428Y-89298819D01*
X148521428Y-89298819D02*
X148235714Y-89298819D01*
X148235714Y-89298819D02*
X148140476Y-89251200D01*
X148140476Y-89251200D02*
X148092857Y-89203580D01*
%TO.C,R16*%
X144053742Y-89210219D02*
X143720409Y-88734028D01*
X143482314Y-89210219D02*
X143482314Y-88210219D01*
X143482314Y-88210219D02*
X143863266Y-88210219D01*
X143863266Y-88210219D02*
X143958504Y-88257838D01*
X143958504Y-88257838D02*
X144006123Y-88305457D01*
X144006123Y-88305457D02*
X144053742Y-88400695D01*
X144053742Y-88400695D02*
X144053742Y-88543552D01*
X144053742Y-88543552D02*
X144006123Y-88638790D01*
X144006123Y-88638790D02*
X143958504Y-88686409D01*
X143958504Y-88686409D02*
X143863266Y-88734028D01*
X143863266Y-88734028D02*
X143482314Y-88734028D01*
X145006123Y-89210219D02*
X144434695Y-89210219D01*
X144720409Y-89210219D02*
X144720409Y-88210219D01*
X144720409Y-88210219D02*
X144625171Y-88353076D01*
X144625171Y-88353076D02*
X144529933Y-88448314D01*
X144529933Y-88448314D02*
X144434695Y-88495933D01*
X145863266Y-88210219D02*
X145672790Y-88210219D01*
X145672790Y-88210219D02*
X145577552Y-88257838D01*
X145577552Y-88257838D02*
X145529933Y-88305457D01*
X145529933Y-88305457D02*
X145434695Y-88448314D01*
X145434695Y-88448314D02*
X145387076Y-88638790D01*
X145387076Y-88638790D02*
X145387076Y-89019742D01*
X145387076Y-89019742D02*
X145434695Y-89114980D01*
X145434695Y-89114980D02*
X145482314Y-89162600D01*
X145482314Y-89162600D02*
X145577552Y-89210219D01*
X145577552Y-89210219D02*
X145768028Y-89210219D01*
X145768028Y-89210219D02*
X145863266Y-89162600D01*
X145863266Y-89162600D02*
X145910885Y-89114980D01*
X145910885Y-89114980D02*
X145958504Y-89019742D01*
X145958504Y-89019742D02*
X145958504Y-88781647D01*
X145958504Y-88781647D02*
X145910885Y-88686409D01*
X145910885Y-88686409D02*
X145863266Y-88638790D01*
X145863266Y-88638790D02*
X145768028Y-88591171D01*
X145768028Y-88591171D02*
X145577552Y-88591171D01*
X145577552Y-88591171D02*
X145482314Y-88638790D01*
X145482314Y-88638790D02*
X145434695Y-88686409D01*
X145434695Y-88686409D02*
X145387076Y-88781647D01*
%TO.C,R2*%
X134097733Y-100478819D02*
X133764400Y-100002628D01*
X133526305Y-100478819D02*
X133526305Y-99478819D01*
X133526305Y-99478819D02*
X133907257Y-99478819D01*
X133907257Y-99478819D02*
X134002495Y-99526438D01*
X134002495Y-99526438D02*
X134050114Y-99574057D01*
X134050114Y-99574057D02*
X134097733Y-99669295D01*
X134097733Y-99669295D02*
X134097733Y-99812152D01*
X134097733Y-99812152D02*
X134050114Y-99907390D01*
X134050114Y-99907390D02*
X134002495Y-99955009D01*
X134002495Y-99955009D02*
X133907257Y-100002628D01*
X133907257Y-100002628D02*
X133526305Y-100002628D01*
X134478686Y-99574057D02*
X134526305Y-99526438D01*
X134526305Y-99526438D02*
X134621543Y-99478819D01*
X134621543Y-99478819D02*
X134859638Y-99478819D01*
X134859638Y-99478819D02*
X134954876Y-99526438D01*
X134954876Y-99526438D02*
X135002495Y-99574057D01*
X135002495Y-99574057D02*
X135050114Y-99669295D01*
X135050114Y-99669295D02*
X135050114Y-99764533D01*
X135050114Y-99764533D02*
X135002495Y-99907390D01*
X135002495Y-99907390D02*
X134431067Y-100478819D01*
X134431067Y-100478819D02*
X135050114Y-100478819D01*
%TO.C,C4*%
X133234133Y-94245780D02*
X133186514Y-94293400D01*
X133186514Y-94293400D02*
X133043657Y-94341019D01*
X133043657Y-94341019D02*
X132948419Y-94341019D01*
X132948419Y-94341019D02*
X132805562Y-94293400D01*
X132805562Y-94293400D02*
X132710324Y-94198161D01*
X132710324Y-94198161D02*
X132662705Y-94102923D01*
X132662705Y-94102923D02*
X132615086Y-93912447D01*
X132615086Y-93912447D02*
X132615086Y-93769590D01*
X132615086Y-93769590D02*
X132662705Y-93579114D01*
X132662705Y-93579114D02*
X132710324Y-93483876D01*
X132710324Y-93483876D02*
X132805562Y-93388638D01*
X132805562Y-93388638D02*
X132948419Y-93341019D01*
X132948419Y-93341019D02*
X133043657Y-93341019D01*
X133043657Y-93341019D02*
X133186514Y-93388638D01*
X133186514Y-93388638D02*
X133234133Y-93436257D01*
X134091276Y-93674352D02*
X134091276Y-94341019D01*
X133853181Y-93293400D02*
X133615086Y-94007685D01*
X133615086Y-94007685D02*
X134234133Y-94007685D01*
%TO.C,U3*%
X161788095Y-109212619D02*
X161788095Y-110022142D01*
X161788095Y-110022142D02*
X161835714Y-110117380D01*
X161835714Y-110117380D02*
X161883333Y-110165000D01*
X161883333Y-110165000D02*
X161978571Y-110212619D01*
X161978571Y-110212619D02*
X162169047Y-110212619D01*
X162169047Y-110212619D02*
X162264285Y-110165000D01*
X162264285Y-110165000D02*
X162311904Y-110117380D01*
X162311904Y-110117380D02*
X162359523Y-110022142D01*
X162359523Y-110022142D02*
X162359523Y-109212619D01*
X162740476Y-109212619D02*
X163359523Y-109212619D01*
X163359523Y-109212619D02*
X163026190Y-109593571D01*
X163026190Y-109593571D02*
X163169047Y-109593571D01*
X163169047Y-109593571D02*
X163264285Y-109641190D01*
X163264285Y-109641190D02*
X163311904Y-109688809D01*
X163311904Y-109688809D02*
X163359523Y-109784047D01*
X163359523Y-109784047D02*
X163359523Y-110022142D01*
X163359523Y-110022142D02*
X163311904Y-110117380D01*
X163311904Y-110117380D02*
X163264285Y-110165000D01*
X163264285Y-110165000D02*
X163169047Y-110212619D01*
X163169047Y-110212619D02*
X162883333Y-110212619D01*
X162883333Y-110212619D02*
X162788095Y-110165000D01*
X162788095Y-110165000D02*
X162740476Y-110117380D01*
%TO.C,U4*%
X148788095Y-61362619D02*
X148788095Y-62172142D01*
X148788095Y-62172142D02*
X148835714Y-62267380D01*
X148835714Y-62267380D02*
X148883333Y-62315000D01*
X148883333Y-62315000D02*
X148978571Y-62362619D01*
X148978571Y-62362619D02*
X149169047Y-62362619D01*
X149169047Y-62362619D02*
X149264285Y-62315000D01*
X149264285Y-62315000D02*
X149311904Y-62267380D01*
X149311904Y-62267380D02*
X149359523Y-62172142D01*
X149359523Y-62172142D02*
X149359523Y-61362619D01*
X150264285Y-61695952D02*
X150264285Y-62362619D01*
X150026190Y-61315000D02*
X149788095Y-62029285D01*
X149788095Y-62029285D02*
X150407142Y-62029285D01*
X133998294Y-64802104D02*
X134474484Y-64802104D01*
X133903056Y-65087819D02*
X134236389Y-64087819D01*
X134236389Y-64087819D02*
X134569722Y-65087819D01*
X134903056Y-64421152D02*
X134903056Y-65087819D01*
X134903056Y-64516390D02*
X134950675Y-64468771D01*
X134950675Y-64468771D02*
X135045913Y-64421152D01*
X135045913Y-64421152D02*
X135188770Y-64421152D01*
X135188770Y-64421152D02*
X135284008Y-64468771D01*
X135284008Y-64468771D02*
X135331627Y-64564009D01*
X135331627Y-64564009D02*
X135331627Y-65087819D01*
X135664961Y-64421152D02*
X136045913Y-64421152D01*
X135807818Y-64087819D02*
X135807818Y-64944961D01*
X135807818Y-64944961D02*
X135855437Y-65040200D01*
X135855437Y-65040200D02*
X135950675Y-65087819D01*
X135950675Y-65087819D02*
X136045913Y-65087819D01*
X136760199Y-65040200D02*
X136664961Y-65087819D01*
X136664961Y-65087819D02*
X136474485Y-65087819D01*
X136474485Y-65087819D02*
X136379247Y-65040200D01*
X136379247Y-65040200D02*
X136331628Y-64944961D01*
X136331628Y-64944961D02*
X136331628Y-64564009D01*
X136331628Y-64564009D02*
X136379247Y-64468771D01*
X136379247Y-64468771D02*
X136474485Y-64421152D01*
X136474485Y-64421152D02*
X136664961Y-64421152D01*
X136664961Y-64421152D02*
X136760199Y-64468771D01*
X136760199Y-64468771D02*
X136807818Y-64564009D01*
X136807818Y-64564009D02*
X136807818Y-64659247D01*
X136807818Y-64659247D02*
X136331628Y-64754485D01*
X137236390Y-64421152D02*
X137236390Y-65087819D01*
X137236390Y-64516390D02*
X137284009Y-64468771D01*
X137284009Y-64468771D02*
X137379247Y-64421152D01*
X137379247Y-64421152D02*
X137522104Y-64421152D01*
X137522104Y-64421152D02*
X137617342Y-64468771D01*
X137617342Y-64468771D02*
X137664961Y-64564009D01*
X137664961Y-64564009D02*
X137664961Y-65087819D01*
X138141152Y-64421152D02*
X138141152Y-65087819D01*
X138141152Y-64516390D02*
X138188771Y-64468771D01*
X138188771Y-64468771D02*
X138284009Y-64421152D01*
X138284009Y-64421152D02*
X138426866Y-64421152D01*
X138426866Y-64421152D02*
X138522104Y-64468771D01*
X138522104Y-64468771D02*
X138569723Y-64564009D01*
X138569723Y-64564009D02*
X138569723Y-65087819D01*
X139474485Y-65087819D02*
X139474485Y-64564009D01*
X139474485Y-64564009D02*
X139426866Y-64468771D01*
X139426866Y-64468771D02*
X139331628Y-64421152D01*
X139331628Y-64421152D02*
X139141152Y-64421152D01*
X139141152Y-64421152D02*
X139045914Y-64468771D01*
X139474485Y-65040200D02*
X139379247Y-65087819D01*
X139379247Y-65087819D02*
X139141152Y-65087819D01*
X139141152Y-65087819D02*
X139045914Y-65040200D01*
X139045914Y-65040200D02*
X138998295Y-64944961D01*
X138998295Y-64944961D02*
X138998295Y-64849723D01*
X138998295Y-64849723D02*
X139045914Y-64754485D01*
X139045914Y-64754485D02*
X139141152Y-64706866D01*
X139141152Y-64706866D02*
X139379247Y-64706866D01*
X139379247Y-64706866D02*
X139474485Y-64659247D01*
X140664962Y-64802104D02*
X141141152Y-64802104D01*
X140569724Y-65087819D02*
X140903057Y-64087819D01*
X140903057Y-64087819D02*
X141236390Y-65087819D01*
X141569724Y-65087819D02*
X141569724Y-64421152D01*
X141569724Y-64611628D02*
X141617343Y-64516390D01*
X141617343Y-64516390D02*
X141664962Y-64468771D01*
X141664962Y-64468771D02*
X141760200Y-64421152D01*
X141760200Y-64421152D02*
X141855438Y-64421152D01*
X142569724Y-65040200D02*
X142474486Y-65087819D01*
X142474486Y-65087819D02*
X142284010Y-65087819D01*
X142284010Y-65087819D02*
X142188772Y-65040200D01*
X142188772Y-65040200D02*
X142141153Y-64944961D01*
X142141153Y-64944961D02*
X142141153Y-64564009D01*
X142141153Y-64564009D02*
X142188772Y-64468771D01*
X142188772Y-64468771D02*
X142284010Y-64421152D01*
X142284010Y-64421152D02*
X142474486Y-64421152D01*
X142474486Y-64421152D02*
X142569724Y-64468771D01*
X142569724Y-64468771D02*
X142617343Y-64564009D01*
X142617343Y-64564009D02*
X142617343Y-64659247D01*
X142617343Y-64659247D02*
X142141153Y-64754485D01*
X143474486Y-65087819D02*
X143474486Y-64564009D01*
X143474486Y-64564009D02*
X143426867Y-64468771D01*
X143426867Y-64468771D02*
X143331629Y-64421152D01*
X143331629Y-64421152D02*
X143141153Y-64421152D01*
X143141153Y-64421152D02*
X143045915Y-64468771D01*
X143474486Y-65040200D02*
X143379248Y-65087819D01*
X143379248Y-65087819D02*
X143141153Y-65087819D01*
X143141153Y-65087819D02*
X143045915Y-65040200D01*
X143045915Y-65040200D02*
X142998296Y-64944961D01*
X142998296Y-64944961D02*
X142998296Y-64849723D01*
X142998296Y-64849723D02*
X143045915Y-64754485D01*
X143045915Y-64754485D02*
X143141153Y-64706866D01*
X143141153Y-64706866D02*
X143379248Y-64706866D01*
X143379248Y-64706866D02*
X143474486Y-64659247D01*
%TO.C,R15*%
X134907142Y-89162619D02*
X134573809Y-88686428D01*
X134335714Y-89162619D02*
X134335714Y-88162619D01*
X134335714Y-88162619D02*
X134716666Y-88162619D01*
X134716666Y-88162619D02*
X134811904Y-88210238D01*
X134811904Y-88210238D02*
X134859523Y-88257857D01*
X134859523Y-88257857D02*
X134907142Y-88353095D01*
X134907142Y-88353095D02*
X134907142Y-88495952D01*
X134907142Y-88495952D02*
X134859523Y-88591190D01*
X134859523Y-88591190D02*
X134811904Y-88638809D01*
X134811904Y-88638809D02*
X134716666Y-88686428D01*
X134716666Y-88686428D02*
X134335714Y-88686428D01*
X135859523Y-89162619D02*
X135288095Y-89162619D01*
X135573809Y-89162619D02*
X135573809Y-88162619D01*
X135573809Y-88162619D02*
X135478571Y-88305476D01*
X135478571Y-88305476D02*
X135383333Y-88400714D01*
X135383333Y-88400714D02*
X135288095Y-88448333D01*
X136764285Y-88162619D02*
X136288095Y-88162619D01*
X136288095Y-88162619D02*
X136240476Y-88638809D01*
X136240476Y-88638809D02*
X136288095Y-88591190D01*
X136288095Y-88591190D02*
X136383333Y-88543571D01*
X136383333Y-88543571D02*
X136621428Y-88543571D01*
X136621428Y-88543571D02*
X136716666Y-88591190D01*
X136716666Y-88591190D02*
X136764285Y-88638809D01*
X136764285Y-88638809D02*
X136811904Y-88734047D01*
X136811904Y-88734047D02*
X136811904Y-88972142D01*
X136811904Y-88972142D02*
X136764285Y-89067380D01*
X136764285Y-89067380D02*
X136716666Y-89115000D01*
X136716666Y-89115000D02*
X136621428Y-89162619D01*
X136621428Y-89162619D02*
X136383333Y-89162619D01*
X136383333Y-89162619D02*
X136288095Y-89115000D01*
X136288095Y-89115000D02*
X136240476Y-89067380D01*
%TO.C,R19*%
X127017542Y-110714019D02*
X126684209Y-110237828D01*
X126446114Y-110714019D02*
X126446114Y-109714019D01*
X126446114Y-109714019D02*
X126827066Y-109714019D01*
X126827066Y-109714019D02*
X126922304Y-109761638D01*
X126922304Y-109761638D02*
X126969923Y-109809257D01*
X126969923Y-109809257D02*
X127017542Y-109904495D01*
X127017542Y-109904495D02*
X127017542Y-110047352D01*
X127017542Y-110047352D02*
X126969923Y-110142590D01*
X126969923Y-110142590D02*
X126922304Y-110190209D01*
X126922304Y-110190209D02*
X126827066Y-110237828D01*
X126827066Y-110237828D02*
X126446114Y-110237828D01*
X127969923Y-110714019D02*
X127398495Y-110714019D01*
X127684209Y-110714019D02*
X127684209Y-109714019D01*
X127684209Y-109714019D02*
X127588971Y-109856876D01*
X127588971Y-109856876D02*
X127493733Y-109952114D01*
X127493733Y-109952114D02*
X127398495Y-109999733D01*
X128446114Y-110714019D02*
X128636590Y-110714019D01*
X128636590Y-110714019D02*
X128731828Y-110666400D01*
X128731828Y-110666400D02*
X128779447Y-110618780D01*
X128779447Y-110618780D02*
X128874685Y-110475923D01*
X128874685Y-110475923D02*
X128922304Y-110285447D01*
X128922304Y-110285447D02*
X128922304Y-109904495D01*
X128922304Y-109904495D02*
X128874685Y-109809257D01*
X128874685Y-109809257D02*
X128827066Y-109761638D01*
X128827066Y-109761638D02*
X128731828Y-109714019D01*
X128731828Y-109714019D02*
X128541352Y-109714019D01*
X128541352Y-109714019D02*
X128446114Y-109761638D01*
X128446114Y-109761638D02*
X128398495Y-109809257D01*
X128398495Y-109809257D02*
X128350876Y-109904495D01*
X128350876Y-109904495D02*
X128350876Y-110142590D01*
X128350876Y-110142590D02*
X128398495Y-110237828D01*
X128398495Y-110237828D02*
X128446114Y-110285447D01*
X128446114Y-110285447D02*
X128541352Y-110333066D01*
X128541352Y-110333066D02*
X128731828Y-110333066D01*
X128731828Y-110333066D02*
X128827066Y-110285447D01*
X128827066Y-110285447D02*
X128874685Y-110237828D01*
X128874685Y-110237828D02*
X128922304Y-110142590D01*
%TO.C,C2*%
X137425133Y-105387380D02*
X137377514Y-105435000D01*
X137377514Y-105435000D02*
X137234657Y-105482619D01*
X137234657Y-105482619D02*
X137139419Y-105482619D01*
X137139419Y-105482619D02*
X136996562Y-105435000D01*
X136996562Y-105435000D02*
X136901324Y-105339761D01*
X136901324Y-105339761D02*
X136853705Y-105244523D01*
X136853705Y-105244523D02*
X136806086Y-105054047D01*
X136806086Y-105054047D02*
X136806086Y-104911190D01*
X136806086Y-104911190D02*
X136853705Y-104720714D01*
X136853705Y-104720714D02*
X136901324Y-104625476D01*
X136901324Y-104625476D02*
X136996562Y-104530238D01*
X136996562Y-104530238D02*
X137139419Y-104482619D01*
X137139419Y-104482619D02*
X137234657Y-104482619D01*
X137234657Y-104482619D02*
X137377514Y-104530238D01*
X137377514Y-104530238D02*
X137425133Y-104577857D01*
X137806086Y-104577857D02*
X137853705Y-104530238D01*
X137853705Y-104530238D02*
X137948943Y-104482619D01*
X137948943Y-104482619D02*
X138187038Y-104482619D01*
X138187038Y-104482619D02*
X138282276Y-104530238D01*
X138282276Y-104530238D02*
X138329895Y-104577857D01*
X138329895Y-104577857D02*
X138377514Y-104673095D01*
X138377514Y-104673095D02*
X138377514Y-104768333D01*
X138377514Y-104768333D02*
X138329895Y-104911190D01*
X138329895Y-104911190D02*
X137758467Y-105482619D01*
X137758467Y-105482619D02*
X138377514Y-105482619D01*
%TO.C,D1*%
X135583705Y-94290219D02*
X135583705Y-93290219D01*
X135583705Y-93290219D02*
X135821800Y-93290219D01*
X135821800Y-93290219D02*
X135964657Y-93337838D01*
X135964657Y-93337838D02*
X136059895Y-93433076D01*
X136059895Y-93433076D02*
X136107514Y-93528314D01*
X136107514Y-93528314D02*
X136155133Y-93718790D01*
X136155133Y-93718790D02*
X136155133Y-93861647D01*
X136155133Y-93861647D02*
X136107514Y-94052123D01*
X136107514Y-94052123D02*
X136059895Y-94147361D01*
X136059895Y-94147361D02*
X135964657Y-94242600D01*
X135964657Y-94242600D02*
X135821800Y-94290219D01*
X135821800Y-94290219D02*
X135583705Y-94290219D01*
X137107514Y-94290219D02*
X136536086Y-94290219D01*
X136821800Y-94290219D02*
X136821800Y-93290219D01*
X136821800Y-93290219D02*
X136726562Y-93433076D01*
X136726562Y-93433076D02*
X136631324Y-93528314D01*
X136631324Y-93528314D02*
X136536086Y-93575933D01*
%TO.C,R8*%
X139965133Y-100033619D02*
X139631800Y-99557428D01*
X139393705Y-100033619D02*
X139393705Y-99033619D01*
X139393705Y-99033619D02*
X139774657Y-99033619D01*
X139774657Y-99033619D02*
X139869895Y-99081238D01*
X139869895Y-99081238D02*
X139917514Y-99128857D01*
X139917514Y-99128857D02*
X139965133Y-99224095D01*
X139965133Y-99224095D02*
X139965133Y-99366952D01*
X139965133Y-99366952D02*
X139917514Y-99462190D01*
X139917514Y-99462190D02*
X139869895Y-99509809D01*
X139869895Y-99509809D02*
X139774657Y-99557428D01*
X139774657Y-99557428D02*
X139393705Y-99557428D01*
X140536562Y-99462190D02*
X140441324Y-99414571D01*
X140441324Y-99414571D02*
X140393705Y-99366952D01*
X140393705Y-99366952D02*
X140346086Y-99271714D01*
X140346086Y-99271714D02*
X140346086Y-99224095D01*
X140346086Y-99224095D02*
X140393705Y-99128857D01*
X140393705Y-99128857D02*
X140441324Y-99081238D01*
X140441324Y-99081238D02*
X140536562Y-99033619D01*
X140536562Y-99033619D02*
X140727038Y-99033619D01*
X140727038Y-99033619D02*
X140822276Y-99081238D01*
X140822276Y-99081238D02*
X140869895Y-99128857D01*
X140869895Y-99128857D02*
X140917514Y-99224095D01*
X140917514Y-99224095D02*
X140917514Y-99271714D01*
X140917514Y-99271714D02*
X140869895Y-99366952D01*
X140869895Y-99366952D02*
X140822276Y-99414571D01*
X140822276Y-99414571D02*
X140727038Y-99462190D01*
X140727038Y-99462190D02*
X140536562Y-99462190D01*
X140536562Y-99462190D02*
X140441324Y-99509809D01*
X140441324Y-99509809D02*
X140393705Y-99557428D01*
X140393705Y-99557428D02*
X140346086Y-99652666D01*
X140346086Y-99652666D02*
X140346086Y-99843142D01*
X140346086Y-99843142D02*
X140393705Y-99938380D01*
X140393705Y-99938380D02*
X140441324Y-99986000D01*
X140441324Y-99986000D02*
X140536562Y-100033619D01*
X140536562Y-100033619D02*
X140727038Y-100033619D01*
X140727038Y-100033619D02*
X140822276Y-99986000D01*
X140822276Y-99986000D02*
X140869895Y-99938380D01*
X140869895Y-99938380D02*
X140917514Y-99843142D01*
X140917514Y-99843142D02*
X140917514Y-99652666D01*
X140917514Y-99652666D02*
X140869895Y-99557428D01*
X140869895Y-99557428D02*
X140822276Y-99509809D01*
X140822276Y-99509809D02*
X140727038Y-99462190D01*
%TO.C,Q1*%
X130917961Y-100447057D02*
X130822723Y-100399438D01*
X130822723Y-100399438D02*
X130727485Y-100304200D01*
X130727485Y-100304200D02*
X130584628Y-100161342D01*
X130584628Y-100161342D02*
X130489390Y-100113723D01*
X130489390Y-100113723D02*
X130394152Y-100113723D01*
X130441771Y-100351819D02*
X130346533Y-100304200D01*
X130346533Y-100304200D02*
X130251295Y-100208961D01*
X130251295Y-100208961D02*
X130203676Y-100018485D01*
X130203676Y-100018485D02*
X130203676Y-99685152D01*
X130203676Y-99685152D02*
X130251295Y-99494676D01*
X130251295Y-99494676D02*
X130346533Y-99399438D01*
X130346533Y-99399438D02*
X130441771Y-99351819D01*
X130441771Y-99351819D02*
X130632247Y-99351819D01*
X130632247Y-99351819D02*
X130727485Y-99399438D01*
X130727485Y-99399438D02*
X130822723Y-99494676D01*
X130822723Y-99494676D02*
X130870342Y-99685152D01*
X130870342Y-99685152D02*
X130870342Y-100018485D01*
X130870342Y-100018485D02*
X130822723Y-100208961D01*
X130822723Y-100208961D02*
X130727485Y-100304200D01*
X130727485Y-100304200D02*
X130632247Y-100351819D01*
X130632247Y-100351819D02*
X130441771Y-100351819D01*
X131822723Y-100351819D02*
X131251295Y-100351819D01*
X131537009Y-100351819D02*
X131537009Y-99351819D01*
X131537009Y-99351819D02*
X131441771Y-99494676D01*
X131441771Y-99494676D02*
X131346533Y-99589914D01*
X131346533Y-99589914D02*
X131251295Y-99637533D01*
%TO.C,R18*%
X127307142Y-105533419D02*
X126973809Y-105057228D01*
X126735714Y-105533419D02*
X126735714Y-104533419D01*
X126735714Y-104533419D02*
X127116666Y-104533419D01*
X127116666Y-104533419D02*
X127211904Y-104581038D01*
X127211904Y-104581038D02*
X127259523Y-104628657D01*
X127259523Y-104628657D02*
X127307142Y-104723895D01*
X127307142Y-104723895D02*
X127307142Y-104866752D01*
X127307142Y-104866752D02*
X127259523Y-104961990D01*
X127259523Y-104961990D02*
X127211904Y-105009609D01*
X127211904Y-105009609D02*
X127116666Y-105057228D01*
X127116666Y-105057228D02*
X126735714Y-105057228D01*
X128259523Y-105533419D02*
X127688095Y-105533419D01*
X127973809Y-105533419D02*
X127973809Y-104533419D01*
X127973809Y-104533419D02*
X127878571Y-104676276D01*
X127878571Y-104676276D02*
X127783333Y-104771514D01*
X127783333Y-104771514D02*
X127688095Y-104819133D01*
X128830952Y-104961990D02*
X128735714Y-104914371D01*
X128735714Y-104914371D02*
X128688095Y-104866752D01*
X128688095Y-104866752D02*
X128640476Y-104771514D01*
X128640476Y-104771514D02*
X128640476Y-104723895D01*
X128640476Y-104723895D02*
X128688095Y-104628657D01*
X128688095Y-104628657D02*
X128735714Y-104581038D01*
X128735714Y-104581038D02*
X128830952Y-104533419D01*
X128830952Y-104533419D02*
X129021428Y-104533419D01*
X129021428Y-104533419D02*
X129116666Y-104581038D01*
X129116666Y-104581038D02*
X129164285Y-104628657D01*
X129164285Y-104628657D02*
X129211904Y-104723895D01*
X129211904Y-104723895D02*
X129211904Y-104771514D01*
X129211904Y-104771514D02*
X129164285Y-104866752D01*
X129164285Y-104866752D02*
X129116666Y-104914371D01*
X129116666Y-104914371D02*
X129021428Y-104961990D01*
X129021428Y-104961990D02*
X128830952Y-104961990D01*
X128830952Y-104961990D02*
X128735714Y-105009609D01*
X128735714Y-105009609D02*
X128688095Y-105057228D01*
X128688095Y-105057228D02*
X128640476Y-105152466D01*
X128640476Y-105152466D02*
X128640476Y-105342942D01*
X128640476Y-105342942D02*
X128688095Y-105438180D01*
X128688095Y-105438180D02*
X128735714Y-105485800D01*
X128735714Y-105485800D02*
X128830952Y-105533419D01*
X128830952Y-105533419D02*
X129021428Y-105533419D01*
X129021428Y-105533419D02*
X129116666Y-105485800D01*
X129116666Y-105485800D02*
X129164285Y-105438180D01*
X129164285Y-105438180D02*
X129211904Y-105342942D01*
X129211904Y-105342942D02*
X129211904Y-105152466D01*
X129211904Y-105152466D02*
X129164285Y-105057228D01*
X129164285Y-105057228D02*
X129116666Y-105009609D01*
X129116666Y-105009609D02*
X129021428Y-104961990D01*
%TO.C,D3*%
X166511905Y-103262619D02*
X166511905Y-102262619D01*
X166511905Y-102262619D02*
X166750000Y-102262619D01*
X166750000Y-102262619D02*
X166892857Y-102310238D01*
X166892857Y-102310238D02*
X166988095Y-102405476D01*
X166988095Y-102405476D02*
X167035714Y-102500714D01*
X167035714Y-102500714D02*
X167083333Y-102691190D01*
X167083333Y-102691190D02*
X167083333Y-102834047D01*
X167083333Y-102834047D02*
X167035714Y-103024523D01*
X167035714Y-103024523D02*
X166988095Y-103119761D01*
X166988095Y-103119761D02*
X166892857Y-103215000D01*
X166892857Y-103215000D02*
X166750000Y-103262619D01*
X166750000Y-103262619D02*
X166511905Y-103262619D01*
X167416667Y-102262619D02*
X168035714Y-102262619D01*
X168035714Y-102262619D02*
X167702381Y-102643571D01*
X167702381Y-102643571D02*
X167845238Y-102643571D01*
X167845238Y-102643571D02*
X167940476Y-102691190D01*
X167940476Y-102691190D02*
X167988095Y-102738809D01*
X167988095Y-102738809D02*
X168035714Y-102834047D01*
X168035714Y-102834047D02*
X168035714Y-103072142D01*
X168035714Y-103072142D02*
X167988095Y-103167380D01*
X167988095Y-103167380D02*
X167940476Y-103215000D01*
X167940476Y-103215000D02*
X167845238Y-103262619D01*
X167845238Y-103262619D02*
X167559524Y-103262619D01*
X167559524Y-103262619D02*
X167464286Y-103215000D01*
X167464286Y-103215000D02*
X167416667Y-103167380D01*
%TO.C,U2*%
X144754695Y-103401619D02*
X144754695Y-104211142D01*
X144754695Y-104211142D02*
X144802314Y-104306380D01*
X144802314Y-104306380D02*
X144849933Y-104354000D01*
X144849933Y-104354000D02*
X144945171Y-104401619D01*
X144945171Y-104401619D02*
X145135647Y-104401619D01*
X145135647Y-104401619D02*
X145230885Y-104354000D01*
X145230885Y-104354000D02*
X145278504Y-104306380D01*
X145278504Y-104306380D02*
X145326123Y-104211142D01*
X145326123Y-104211142D02*
X145326123Y-103401619D01*
X145754695Y-103496857D02*
X145802314Y-103449238D01*
X145802314Y-103449238D02*
X145897552Y-103401619D01*
X145897552Y-103401619D02*
X146135647Y-103401619D01*
X146135647Y-103401619D02*
X146230885Y-103449238D01*
X146230885Y-103449238D02*
X146278504Y-103496857D01*
X146278504Y-103496857D02*
X146326123Y-103592095D01*
X146326123Y-103592095D02*
X146326123Y-103687333D01*
X146326123Y-103687333D02*
X146278504Y-103830190D01*
X146278504Y-103830190D02*
X145707076Y-104401619D01*
X145707076Y-104401619D02*
X146326123Y-104401619D01*
%TO.C,R9*%
X125664933Y-61587119D02*
X125331600Y-61110928D01*
X125093505Y-61587119D02*
X125093505Y-60587119D01*
X125093505Y-60587119D02*
X125474457Y-60587119D01*
X125474457Y-60587119D02*
X125569695Y-60634738D01*
X125569695Y-60634738D02*
X125617314Y-60682357D01*
X125617314Y-60682357D02*
X125664933Y-60777595D01*
X125664933Y-60777595D02*
X125664933Y-60920452D01*
X125664933Y-60920452D02*
X125617314Y-61015690D01*
X125617314Y-61015690D02*
X125569695Y-61063309D01*
X125569695Y-61063309D02*
X125474457Y-61110928D01*
X125474457Y-61110928D02*
X125093505Y-61110928D01*
X126141124Y-61587119D02*
X126331600Y-61587119D01*
X126331600Y-61587119D02*
X126426838Y-61539500D01*
X126426838Y-61539500D02*
X126474457Y-61491880D01*
X126474457Y-61491880D02*
X126569695Y-61349023D01*
X126569695Y-61349023D02*
X126617314Y-61158547D01*
X126617314Y-61158547D02*
X126617314Y-60777595D01*
X126617314Y-60777595D02*
X126569695Y-60682357D01*
X126569695Y-60682357D02*
X126522076Y-60634738D01*
X126522076Y-60634738D02*
X126426838Y-60587119D01*
X126426838Y-60587119D02*
X126236362Y-60587119D01*
X126236362Y-60587119D02*
X126141124Y-60634738D01*
X126141124Y-60634738D02*
X126093505Y-60682357D01*
X126093505Y-60682357D02*
X126045886Y-60777595D01*
X126045886Y-60777595D02*
X126045886Y-61015690D01*
X126045886Y-61015690D02*
X126093505Y-61110928D01*
X126093505Y-61110928D02*
X126141124Y-61158547D01*
X126141124Y-61158547D02*
X126236362Y-61206166D01*
X126236362Y-61206166D02*
X126426838Y-61206166D01*
X126426838Y-61206166D02*
X126522076Y-61158547D01*
X126522076Y-61158547D02*
X126569695Y-61110928D01*
X126569695Y-61110928D02*
X126617314Y-61015690D01*
%TO.C,K2*%
X181358105Y-112812819D02*
X181358105Y-111812819D01*
X181929533Y-112812819D02*
X181500962Y-112241390D01*
X181929533Y-111812819D02*
X181358105Y-112384247D01*
X182310486Y-111908057D02*
X182358105Y-111860438D01*
X182358105Y-111860438D02*
X182453343Y-111812819D01*
X182453343Y-111812819D02*
X182691438Y-111812819D01*
X182691438Y-111812819D02*
X182786676Y-111860438D01*
X182786676Y-111860438D02*
X182834295Y-111908057D01*
X182834295Y-111908057D02*
X182881914Y-112003295D01*
X182881914Y-112003295D02*
X182881914Y-112098533D01*
X182881914Y-112098533D02*
X182834295Y-112241390D01*
X182834295Y-112241390D02*
X182262867Y-112812819D01*
X182262867Y-112812819D02*
X182881914Y-112812819D01*
%TO.C,J10*%
X159837010Y-91976219D02*
X159837010Y-92690504D01*
X159837010Y-92690504D02*
X159789391Y-92833361D01*
X159789391Y-92833361D02*
X159694153Y-92928600D01*
X159694153Y-92928600D02*
X159551296Y-92976219D01*
X159551296Y-92976219D02*
X159456058Y-92976219D01*
X160837010Y-92976219D02*
X160265582Y-92976219D01*
X160551296Y-92976219D02*
X160551296Y-91976219D01*
X160551296Y-91976219D02*
X160456058Y-92119076D01*
X160456058Y-92119076D02*
X160360820Y-92214314D01*
X160360820Y-92214314D02*
X160265582Y-92261933D01*
X161456058Y-91976219D02*
X161551296Y-91976219D01*
X161551296Y-91976219D02*
X161646534Y-92023838D01*
X161646534Y-92023838D02*
X161694153Y-92071457D01*
X161694153Y-92071457D02*
X161741772Y-92166695D01*
X161741772Y-92166695D02*
X161789391Y-92357171D01*
X161789391Y-92357171D02*
X161789391Y-92595266D01*
X161789391Y-92595266D02*
X161741772Y-92785742D01*
X161741772Y-92785742D02*
X161694153Y-92880980D01*
X161694153Y-92880980D02*
X161646534Y-92928600D01*
X161646534Y-92928600D02*
X161551296Y-92976219D01*
X161551296Y-92976219D02*
X161456058Y-92976219D01*
X161456058Y-92976219D02*
X161360820Y-92928600D01*
X161360820Y-92928600D02*
X161313201Y-92880980D01*
X161313201Y-92880980D02*
X161265582Y-92785742D01*
X161265582Y-92785742D02*
X161217963Y-92595266D01*
X161217963Y-92595266D02*
X161217963Y-92357171D01*
X161217963Y-92357171D02*
X161265582Y-92166695D01*
X161265582Y-92166695D02*
X161313201Y-92071457D01*
X161313201Y-92071457D02*
X161360820Y-92023838D01*
X161360820Y-92023838D02*
X161456058Y-91976219D01*
%TO.C,C6*%
X134097733Y-105387380D02*
X134050114Y-105435000D01*
X134050114Y-105435000D02*
X133907257Y-105482619D01*
X133907257Y-105482619D02*
X133812019Y-105482619D01*
X133812019Y-105482619D02*
X133669162Y-105435000D01*
X133669162Y-105435000D02*
X133573924Y-105339761D01*
X133573924Y-105339761D02*
X133526305Y-105244523D01*
X133526305Y-105244523D02*
X133478686Y-105054047D01*
X133478686Y-105054047D02*
X133478686Y-104911190D01*
X133478686Y-104911190D02*
X133526305Y-104720714D01*
X133526305Y-104720714D02*
X133573924Y-104625476D01*
X133573924Y-104625476D02*
X133669162Y-104530238D01*
X133669162Y-104530238D02*
X133812019Y-104482619D01*
X133812019Y-104482619D02*
X133907257Y-104482619D01*
X133907257Y-104482619D02*
X134050114Y-104530238D01*
X134050114Y-104530238D02*
X134097733Y-104577857D01*
X134954876Y-104482619D02*
X134764400Y-104482619D01*
X134764400Y-104482619D02*
X134669162Y-104530238D01*
X134669162Y-104530238D02*
X134621543Y-104577857D01*
X134621543Y-104577857D02*
X134526305Y-104720714D01*
X134526305Y-104720714D02*
X134478686Y-104911190D01*
X134478686Y-104911190D02*
X134478686Y-105292142D01*
X134478686Y-105292142D02*
X134526305Y-105387380D01*
X134526305Y-105387380D02*
X134573924Y-105435000D01*
X134573924Y-105435000D02*
X134669162Y-105482619D01*
X134669162Y-105482619D02*
X134859638Y-105482619D01*
X134859638Y-105482619D02*
X134954876Y-105435000D01*
X134954876Y-105435000D02*
X135002495Y-105387380D01*
X135002495Y-105387380D02*
X135050114Y-105292142D01*
X135050114Y-105292142D02*
X135050114Y-105054047D01*
X135050114Y-105054047D02*
X135002495Y-104958809D01*
X135002495Y-104958809D02*
X134954876Y-104911190D01*
X134954876Y-104911190D02*
X134859638Y-104863571D01*
X134859638Y-104863571D02*
X134669162Y-104863571D01*
X134669162Y-104863571D02*
X134573924Y-104911190D01*
X134573924Y-104911190D02*
X134526305Y-104958809D01*
X134526305Y-104958809D02*
X134478686Y-105054047D01*
%TO.C,R7*%
X137145733Y-100428019D02*
X136812400Y-99951828D01*
X136574305Y-100428019D02*
X136574305Y-99428019D01*
X136574305Y-99428019D02*
X136955257Y-99428019D01*
X136955257Y-99428019D02*
X137050495Y-99475638D01*
X137050495Y-99475638D02*
X137098114Y-99523257D01*
X137098114Y-99523257D02*
X137145733Y-99618495D01*
X137145733Y-99618495D02*
X137145733Y-99761352D01*
X137145733Y-99761352D02*
X137098114Y-99856590D01*
X137098114Y-99856590D02*
X137050495Y-99904209D01*
X137050495Y-99904209D02*
X136955257Y-99951828D01*
X136955257Y-99951828D02*
X136574305Y-99951828D01*
X137479067Y-99428019D02*
X138145733Y-99428019D01*
X138145733Y-99428019D02*
X137717162Y-100428019D01*
%TO.C,D2*%
X138786905Y-94448419D02*
X138786905Y-93448419D01*
X138786905Y-93448419D02*
X139025000Y-93448419D01*
X139025000Y-93448419D02*
X139167857Y-93496038D01*
X139167857Y-93496038D02*
X139263095Y-93591276D01*
X139263095Y-93591276D02*
X139310714Y-93686514D01*
X139310714Y-93686514D02*
X139358333Y-93876990D01*
X139358333Y-93876990D02*
X139358333Y-94019847D01*
X139358333Y-94019847D02*
X139310714Y-94210323D01*
X139310714Y-94210323D02*
X139263095Y-94305561D01*
X139263095Y-94305561D02*
X139167857Y-94400800D01*
X139167857Y-94400800D02*
X139025000Y-94448419D01*
X139025000Y-94448419D02*
X138786905Y-94448419D01*
X139739286Y-93543657D02*
X139786905Y-93496038D01*
X139786905Y-93496038D02*
X139882143Y-93448419D01*
X139882143Y-93448419D02*
X140120238Y-93448419D01*
X140120238Y-93448419D02*
X140215476Y-93496038D01*
X140215476Y-93496038D02*
X140263095Y-93543657D01*
X140263095Y-93543657D02*
X140310714Y-93638895D01*
X140310714Y-93638895D02*
X140310714Y-93734133D01*
X140310714Y-93734133D02*
X140263095Y-93876990D01*
X140263095Y-93876990D02*
X139691667Y-94448419D01*
X139691667Y-94448419D02*
X140310714Y-94448419D01*
%TO.C,J11*%
X122431276Y-66586219D02*
X122431276Y-67300504D01*
X122431276Y-67300504D02*
X122383657Y-67443361D01*
X122383657Y-67443361D02*
X122288419Y-67538600D01*
X122288419Y-67538600D02*
X122145562Y-67586219D01*
X122145562Y-67586219D02*
X122050324Y-67586219D01*
X123431276Y-67586219D02*
X122859848Y-67586219D01*
X123145562Y-67586219D02*
X123145562Y-66586219D01*
X123145562Y-66586219D02*
X123050324Y-66729076D01*
X123050324Y-66729076D02*
X122955086Y-66824314D01*
X122955086Y-66824314D02*
X122859848Y-66871933D01*
X124383657Y-67586219D02*
X123812229Y-67586219D01*
X124097943Y-67586219D02*
X124097943Y-66586219D01*
X124097943Y-66586219D02*
X124002705Y-66729076D01*
X124002705Y-66729076D02*
X123907467Y-66824314D01*
X123907467Y-66824314D02*
X123812229Y-66871933D01*
%TO.C,J5*%
X166460000Y-81816219D02*
X166460000Y-82530504D01*
X166460000Y-82530504D02*
X166412381Y-82673361D01*
X166412381Y-82673361D02*
X166317143Y-82768600D01*
X166317143Y-82768600D02*
X166174286Y-82816219D01*
X166174286Y-82816219D02*
X166079048Y-82816219D01*
X167412381Y-81816219D02*
X166936191Y-81816219D01*
X166936191Y-81816219D02*
X166888572Y-82292409D01*
X166888572Y-82292409D02*
X166936191Y-82244790D01*
X166936191Y-82244790D02*
X167031429Y-82197171D01*
X167031429Y-82197171D02*
X167269524Y-82197171D01*
X167269524Y-82197171D02*
X167364762Y-82244790D01*
X167364762Y-82244790D02*
X167412381Y-82292409D01*
X167412381Y-82292409D02*
X167460000Y-82387647D01*
X167460000Y-82387647D02*
X167460000Y-82625742D01*
X167460000Y-82625742D02*
X167412381Y-82720980D01*
X167412381Y-82720980D02*
X167364762Y-82768600D01*
X167364762Y-82768600D02*
X167269524Y-82816219D01*
X167269524Y-82816219D02*
X167031429Y-82816219D01*
X167031429Y-82816219D02*
X166936191Y-82768600D01*
X166936191Y-82768600D02*
X166888572Y-82720980D01*
%TO.C,J12*%
X152911276Y-66586219D02*
X152911276Y-67300504D01*
X152911276Y-67300504D02*
X152863657Y-67443361D01*
X152863657Y-67443361D02*
X152768419Y-67538600D01*
X152768419Y-67538600D02*
X152625562Y-67586219D01*
X152625562Y-67586219D02*
X152530324Y-67586219D01*
X153911276Y-67586219D02*
X153339848Y-67586219D01*
X153625562Y-67586219D02*
X153625562Y-66586219D01*
X153625562Y-66586219D02*
X153530324Y-66729076D01*
X153530324Y-66729076D02*
X153435086Y-66824314D01*
X153435086Y-66824314D02*
X153339848Y-66871933D01*
X154292229Y-66681457D02*
X154339848Y-66633838D01*
X154339848Y-66633838D02*
X154435086Y-66586219D01*
X154435086Y-66586219D02*
X154673181Y-66586219D01*
X154673181Y-66586219D02*
X154768419Y-66633838D01*
X154768419Y-66633838D02*
X154816038Y-66681457D01*
X154816038Y-66681457D02*
X154863657Y-66776695D01*
X154863657Y-66776695D02*
X154863657Y-66871933D01*
X154863657Y-66871933D02*
X154816038Y-67014790D01*
X154816038Y-67014790D02*
X154244610Y-67586219D01*
X154244610Y-67586219D02*
X154863657Y-67586219D01*
%TO.C,C5*%
X122312133Y-61407480D02*
X122264514Y-61455100D01*
X122264514Y-61455100D02*
X122121657Y-61502719D01*
X122121657Y-61502719D02*
X122026419Y-61502719D01*
X122026419Y-61502719D02*
X121883562Y-61455100D01*
X121883562Y-61455100D02*
X121788324Y-61359861D01*
X121788324Y-61359861D02*
X121740705Y-61264623D01*
X121740705Y-61264623D02*
X121693086Y-61074147D01*
X121693086Y-61074147D02*
X121693086Y-60931290D01*
X121693086Y-60931290D02*
X121740705Y-60740814D01*
X121740705Y-60740814D02*
X121788324Y-60645576D01*
X121788324Y-60645576D02*
X121883562Y-60550338D01*
X121883562Y-60550338D02*
X122026419Y-60502719D01*
X122026419Y-60502719D02*
X122121657Y-60502719D01*
X122121657Y-60502719D02*
X122264514Y-60550338D01*
X122264514Y-60550338D02*
X122312133Y-60597957D01*
X123216895Y-60502719D02*
X122740705Y-60502719D01*
X122740705Y-60502719D02*
X122693086Y-60978909D01*
X122693086Y-60978909D02*
X122740705Y-60931290D01*
X122740705Y-60931290D02*
X122835943Y-60883671D01*
X122835943Y-60883671D02*
X123074038Y-60883671D01*
X123074038Y-60883671D02*
X123169276Y-60931290D01*
X123169276Y-60931290D02*
X123216895Y-60978909D01*
X123216895Y-60978909D02*
X123264514Y-61074147D01*
X123264514Y-61074147D02*
X123264514Y-61312242D01*
X123264514Y-61312242D02*
X123216895Y-61407480D01*
X123216895Y-61407480D02*
X123169276Y-61455100D01*
X123169276Y-61455100D02*
X123074038Y-61502719D01*
X123074038Y-61502719D02*
X122835943Y-61502719D01*
X122835943Y-61502719D02*
X122740705Y-61455100D01*
X122740705Y-61455100D02*
X122693086Y-61407480D01*
%TO.C,R17*%
X127357142Y-100312619D02*
X127023809Y-99836428D01*
X126785714Y-100312619D02*
X126785714Y-99312619D01*
X126785714Y-99312619D02*
X127166666Y-99312619D01*
X127166666Y-99312619D02*
X127261904Y-99360238D01*
X127261904Y-99360238D02*
X127309523Y-99407857D01*
X127309523Y-99407857D02*
X127357142Y-99503095D01*
X127357142Y-99503095D02*
X127357142Y-99645952D01*
X127357142Y-99645952D02*
X127309523Y-99741190D01*
X127309523Y-99741190D02*
X127261904Y-99788809D01*
X127261904Y-99788809D02*
X127166666Y-99836428D01*
X127166666Y-99836428D02*
X126785714Y-99836428D01*
X128309523Y-100312619D02*
X127738095Y-100312619D01*
X128023809Y-100312619D02*
X128023809Y-99312619D01*
X128023809Y-99312619D02*
X127928571Y-99455476D01*
X127928571Y-99455476D02*
X127833333Y-99550714D01*
X127833333Y-99550714D02*
X127738095Y-99598333D01*
X128642857Y-99312619D02*
X129309523Y-99312619D01*
X129309523Y-99312619D02*
X128880952Y-100312619D01*
%TO.C,D3*%
X136777505Y-110715019D02*
X136777505Y-109715019D01*
X136777505Y-109715019D02*
X137015600Y-109715019D01*
X137015600Y-109715019D02*
X137158457Y-109762638D01*
X137158457Y-109762638D02*
X137253695Y-109857876D01*
X137253695Y-109857876D02*
X137301314Y-109953114D01*
X137301314Y-109953114D02*
X137348933Y-110143590D01*
X137348933Y-110143590D02*
X137348933Y-110286447D01*
X137348933Y-110286447D02*
X137301314Y-110476923D01*
X137301314Y-110476923D02*
X137253695Y-110572161D01*
X137253695Y-110572161D02*
X137158457Y-110667400D01*
X137158457Y-110667400D02*
X137015600Y-110715019D01*
X137015600Y-110715019D02*
X136777505Y-110715019D01*
X137682267Y-109715019D02*
X138301314Y-109715019D01*
X138301314Y-109715019D02*
X137967981Y-110095971D01*
X137967981Y-110095971D02*
X138110838Y-110095971D01*
X138110838Y-110095971D02*
X138206076Y-110143590D01*
X138206076Y-110143590D02*
X138253695Y-110191209D01*
X138253695Y-110191209D02*
X138301314Y-110286447D01*
X138301314Y-110286447D02*
X138301314Y-110524542D01*
X138301314Y-110524542D02*
X138253695Y-110619780D01*
X138253695Y-110619780D02*
X138206076Y-110667400D01*
X138206076Y-110667400D02*
X138110838Y-110715019D01*
X138110838Y-110715019D02*
X137825124Y-110715019D01*
X137825124Y-110715019D02*
X137729886Y-110667400D01*
X137729886Y-110667400D02*
X137682267Y-110619780D01*
%TO.C,U1*%
X145186095Y-93239419D02*
X145186095Y-94048942D01*
X145186095Y-94048942D02*
X145233714Y-94144180D01*
X145233714Y-94144180D02*
X145281333Y-94191800D01*
X145281333Y-94191800D02*
X145376571Y-94239419D01*
X145376571Y-94239419D02*
X145567047Y-94239419D01*
X145567047Y-94239419D02*
X145662285Y-94191800D01*
X145662285Y-94191800D02*
X145709904Y-94144180D01*
X145709904Y-94144180D02*
X145757523Y-94048942D01*
X145757523Y-94048942D02*
X145757523Y-93239419D01*
X146757523Y-94239419D02*
X146186095Y-94239419D01*
X146471809Y-94239419D02*
X146471809Y-93239419D01*
X146471809Y-93239419D02*
X146376571Y-93382276D01*
X146376571Y-93382276D02*
X146281333Y-93477514D01*
X146281333Y-93477514D02*
X146186095Y-93525133D01*
%TO.C,C3*%
X133054333Y-89114980D02*
X133006714Y-89162600D01*
X133006714Y-89162600D02*
X132863857Y-89210219D01*
X132863857Y-89210219D02*
X132768619Y-89210219D01*
X132768619Y-89210219D02*
X132625762Y-89162600D01*
X132625762Y-89162600D02*
X132530524Y-89067361D01*
X132530524Y-89067361D02*
X132482905Y-88972123D01*
X132482905Y-88972123D02*
X132435286Y-88781647D01*
X132435286Y-88781647D02*
X132435286Y-88638790D01*
X132435286Y-88638790D02*
X132482905Y-88448314D01*
X132482905Y-88448314D02*
X132530524Y-88353076D01*
X132530524Y-88353076D02*
X132625762Y-88257838D01*
X132625762Y-88257838D02*
X132768619Y-88210219D01*
X132768619Y-88210219D02*
X132863857Y-88210219D01*
X132863857Y-88210219D02*
X133006714Y-88257838D01*
X133006714Y-88257838D02*
X133054333Y-88305457D01*
X133387667Y-88210219D02*
X134006714Y-88210219D01*
X134006714Y-88210219D02*
X133673381Y-88591171D01*
X133673381Y-88591171D02*
X133816238Y-88591171D01*
X133816238Y-88591171D02*
X133911476Y-88638790D01*
X133911476Y-88638790D02*
X133959095Y-88686409D01*
X133959095Y-88686409D02*
X134006714Y-88781647D01*
X134006714Y-88781647D02*
X134006714Y-89019742D01*
X134006714Y-89019742D02*
X133959095Y-89114980D01*
X133959095Y-89114980D02*
X133911476Y-89162600D01*
X133911476Y-89162600D02*
X133816238Y-89210219D01*
X133816238Y-89210219D02*
X133530524Y-89210219D01*
X133530524Y-89210219D02*
X133435286Y-89162600D01*
X133435286Y-89162600D02*
X133387667Y-89114980D01*
D14*
%TO.C,J2*%
X185165000Y-74245000D02*
X192785000Y-74245000D01*
X192785000Y-74245000D02*
X192785000Y-64085000D01*
X185165000Y-64085000D02*
X185165000Y-74245000D01*
X191515000Y-64085000D02*
X191515000Y-74245000D01*
X192785000Y-64085000D02*
X185165000Y-64085000D01*
%TO.C,R1*%
X131748200Y-107286036D02*
X131748200Y-107740164D01*
X130278200Y-107286036D02*
X130278200Y-107740164D01*
%TO.C,J8*%
X165539534Y-75708200D02*
X166869534Y-75708200D01*
X165539534Y-77038200D02*
X165539534Y-75708200D01*
X165539534Y-78308200D02*
X165539534Y-80908200D01*
X165539534Y-78308200D02*
X168199534Y-78308200D01*
X165539534Y-80908200D02*
X168199534Y-80908200D01*
X168199534Y-78308200D02*
X168199534Y-80908200D01*
%TO.C,R3*%
X160372936Y-103865000D02*
X160827064Y-103865000D01*
X160372936Y-105335000D02*
X160827064Y-105335000D01*
%TO.C,R14*%
X166472936Y-63465000D02*
X166927064Y-63465000D01*
X166472936Y-64935000D02*
X166927064Y-64935000D01*
%TO.C,R12*%
X167022936Y-107315000D02*
X167477064Y-107315000D01*
X167022936Y-108785000D02*
X167477064Y-108785000D01*
%TO.C,J1*%
X185090000Y-90215000D02*
X192710000Y-90215000D01*
X192710000Y-90215000D02*
X192710000Y-80055000D01*
X185090000Y-80055000D02*
X185090000Y-90215000D01*
X191440000Y-80055000D02*
X191440000Y-90215000D01*
X192710000Y-80055000D02*
X185090000Y-80055000D01*
%TO.C,J4*%
X159392734Y-75718200D02*
X160722734Y-75718200D01*
X159392734Y-77048200D02*
X159392734Y-75718200D01*
X159392734Y-78318200D02*
X159392734Y-80918200D01*
X159392734Y-78318200D02*
X162052734Y-78318200D01*
X159392734Y-80918200D02*
X162052734Y-80918200D01*
X162052734Y-78318200D02*
X162052734Y-80918200D01*
%TO.C,K1*%
X171223300Y-109883900D02*
X171223300Y-108383900D01*
X171473300Y-99313900D02*
X191993300Y-99313900D01*
X171473300Y-109633900D02*
X171473300Y-99313900D01*
X172243300Y-104183900D02*
X172243300Y-104883900D01*
X172243300Y-104883900D02*
X173443300Y-104883900D01*
X172843300Y-104183900D02*
X172843300Y-103083900D01*
X172843300Y-104883900D02*
X172843300Y-105983900D01*
X172943300Y-109883900D02*
X171223300Y-109883900D01*
X173043300Y-104883900D02*
X172643300Y-104183900D01*
X173443300Y-104183900D02*
X172243300Y-104183900D01*
X173443300Y-104883900D02*
X173443300Y-104183900D01*
X191993300Y-99313900D02*
X191993300Y-109633900D01*
X191993300Y-109633900D02*
X171473300Y-109633900D01*
%TO.C,R6*%
X128265000Y-91523164D02*
X128265000Y-91069036D01*
X129735000Y-91523164D02*
X129735000Y-91069036D01*
%TO.C,J9*%
X159316534Y-83353600D02*
X160646534Y-83353600D01*
X159316534Y-84683600D02*
X159316534Y-83353600D01*
X159316534Y-85953600D02*
X159316534Y-91093600D01*
X159316534Y-85953600D02*
X161976534Y-85953600D01*
X159316534Y-91093600D02*
X161976534Y-91093600D01*
X161976534Y-85953600D02*
X161976534Y-91093600D01*
%TO.C,R10*%
X138881600Y-91463164D02*
X138881600Y-91009036D01*
X140351600Y-91463164D02*
X140351600Y-91009036D01*
%TO.C,J7*%
X159392734Y-68098200D02*
X160722734Y-68098200D01*
X159392734Y-69428200D02*
X159392734Y-68098200D01*
X159392734Y-70698200D02*
X159392734Y-73298200D01*
X159392734Y-70698200D02*
X162052734Y-70698200D01*
X159392734Y-73298200D02*
X162052734Y-73298200D01*
X162052734Y-70698200D02*
X162052734Y-73298200D01*
%TO.C,J6*%
X165463334Y-93513600D02*
X166793334Y-93513600D01*
X165463334Y-94843600D02*
X165463334Y-93513600D01*
X165463334Y-96113600D02*
X165463334Y-101253600D01*
X165463334Y-96113600D02*
X168123334Y-96113600D01*
X165463334Y-101253600D02*
X168123334Y-101253600D01*
X168123334Y-96113600D02*
X168123334Y-101253600D01*
%TO.C,SW2*%
X153795200Y-124735200D02*
X147675200Y-124735200D01*
X153795200Y-121035200D02*
X153795200Y-124735200D01*
X147675200Y-124735200D02*
X147675200Y-121035200D01*
X147675200Y-121035200D02*
X153795200Y-121035200D01*
%TO.C,R5*%
X130454000Y-91523164D02*
X130454000Y-91069036D01*
X131924000Y-91523164D02*
X131924000Y-91069036D01*
%TO.C,SW1*%
X123305000Y-120628800D02*
X129425000Y-120628800D01*
X123305000Y-124328800D02*
X123305000Y-120628800D01*
X129425000Y-120628800D02*
X129425000Y-124328800D01*
X129425000Y-124328800D02*
X123305000Y-124328800D01*
%TO.C,C7*%
X131824400Y-112457848D02*
X131824400Y-112980352D01*
X130354400Y-112457848D02*
X130354400Y-112980352D01*
%TO.C,J3*%
X165539534Y-68098200D02*
X166869534Y-68098200D01*
X165539534Y-69428200D02*
X165539534Y-68098200D01*
X165539534Y-70698200D02*
X165539534Y-73298200D01*
X165539534Y-70698200D02*
X168199534Y-70698200D01*
X165539534Y-73298200D02*
X168199534Y-73298200D01*
X168199534Y-70698200D02*
X168199534Y-73298200D01*
%TO.C,R11*%
X149265000Y-116727064D02*
X149265000Y-116272936D01*
X150735000Y-116727064D02*
X150735000Y-116272936D01*
%TO.C,R21*%
X142637600Y-91009036D02*
X142637600Y-91463164D01*
X141167600Y-91009036D02*
X141167600Y-91463164D01*
%TO.C,C1*%
X135126400Y-112457848D02*
X135126400Y-112980352D01*
X133656400Y-112457848D02*
X133656400Y-112980352D01*
%TO.C,P1*%
X134090200Y-121869200D02*
X134090200Y-120069200D01*
X134090200Y-123969200D02*
X134090200Y-125119200D01*
X143430200Y-121869200D02*
X143430200Y-120069200D01*
X143430200Y-123969200D02*
X143430200Y-125119200D01*
%TO.C,Q2*%
X131592800Y-96346100D02*
X131592800Y-94671100D01*
X131592800Y-96346100D02*
X131592800Y-96996100D01*
X128472800Y-96346100D02*
X128472800Y-95696100D01*
X128472800Y-96346100D02*
X128472800Y-96996100D01*
%TO.C,R4*%
X160372936Y-107265000D02*
X160827064Y-107265000D01*
X160372936Y-108735000D02*
X160827064Y-108735000D01*
%TO.C,R20*%
X159472936Y-63265000D02*
X159927064Y-63265000D01*
X159472936Y-64735000D02*
X159927064Y-64735000D01*
%TO.C,R13*%
X146065000Y-91527064D02*
X146065000Y-91072936D01*
X147535000Y-91527064D02*
X147535000Y-91072936D01*
%TO.C,R16*%
X144923600Y-91009036D02*
X144923600Y-91463164D01*
X143453600Y-91009036D02*
X143453600Y-91463164D01*
%TO.C,R2*%
X133529400Y-102713664D02*
X133529400Y-102259536D01*
X134999400Y-102713664D02*
X134999400Y-102259536D01*
%TO.C,C4*%
X132792800Y-96607352D02*
X132792800Y-96084848D01*
X134262800Y-96607352D02*
X134262800Y-96084848D01*
%TO.C,U3*%
X162550000Y-110590000D02*
X159100000Y-110590000D01*
X162550000Y-110590000D02*
X164500000Y-110590000D01*
X162550000Y-120710000D02*
X160600000Y-120710000D01*
X162550000Y-120710000D02*
X164500000Y-120710000D01*
%TO.C,U4*%
X129760200Y-61625200D02*
X129760200Y-68375200D01*
X129760200Y-61625200D02*
X147760200Y-61625200D01*
X129760200Y-86375200D02*
X129760200Y-87125200D01*
X129760200Y-87125200D02*
X130510200Y-87125200D01*
X130510200Y-87125200D02*
X132260200Y-87125200D01*
X147010200Y-87125200D02*
X145260200Y-87125200D01*
X147760200Y-61625200D02*
X147760200Y-68375200D01*
X147760200Y-67565200D02*
X129760200Y-67565200D01*
X147760200Y-86375200D02*
X147760200Y-87125200D01*
X147760200Y-87125200D02*
X147010200Y-87125200D01*
%TO.C,R15*%
X134765000Y-91540064D02*
X134765000Y-91085936D01*
X136235000Y-91540064D02*
X136235000Y-91085936D01*
%TO.C,R19*%
X128395400Y-112492036D02*
X128395400Y-112946164D01*
X126925400Y-112492036D02*
X126925400Y-112946164D01*
%TO.C,C2*%
X138301400Y-107251848D02*
X138301400Y-107774352D01*
X136831400Y-107251848D02*
X136831400Y-107774352D01*
%TO.C,D1*%
X135361800Y-98183600D02*
X137281800Y-98183600D01*
X137281800Y-98183600D02*
X137281800Y-95323600D01*
X135361800Y-95323600D02*
X135361800Y-98183600D01*
%TO.C,R8*%
X140866800Y-101772936D02*
X140866800Y-102227064D01*
X139396800Y-101772936D02*
X139396800Y-102227064D01*
%TO.C,Q1*%
X129468400Y-102486600D02*
X129468400Y-104161600D01*
X129468400Y-102486600D02*
X129468400Y-101836600D01*
X132588400Y-102486600D02*
X132588400Y-103136600D01*
X132588400Y-102486600D02*
X132588400Y-101836600D01*
%TO.C,R18*%
X128395400Y-107286036D02*
X128395400Y-107740164D01*
X126925400Y-107286036D02*
X126925400Y-107740164D01*
%TO.C,D3*%
X165390000Y-103490000D02*
X165390000Y-105410000D01*
X165390000Y-105410000D02*
X168250000Y-105410000D01*
X168250000Y-103490000D02*
X165390000Y-103490000D01*
D13*
%TO.C,U2*%
X150841600Y-106525000D02*
X150266600Y-106525000D01*
X150841600Y-106525000D02*
X150841600Y-112275000D01*
X150266600Y-106525000D02*
X150266600Y-104925000D01*
X140191600Y-106525000D02*
X140841600Y-106525000D01*
X140191600Y-106525000D02*
X140191600Y-112275000D01*
X150841600Y-112275000D02*
X150191600Y-112275000D01*
X140191600Y-112275000D02*
X140841600Y-112275000D01*
D14*
%TO.C,R9*%
X126515800Y-63335836D02*
X126515800Y-63789964D01*
X125045800Y-63335836D02*
X125045800Y-63789964D01*
%TO.C,K2*%
X171176200Y-123850200D02*
X171176200Y-122350200D01*
X171426200Y-113280200D02*
X191946200Y-113280200D01*
X171426200Y-123600200D02*
X171426200Y-113280200D01*
X172196200Y-118150200D02*
X172196200Y-118850200D01*
X172196200Y-118850200D02*
X173396200Y-118850200D01*
X172796200Y-118150200D02*
X172796200Y-117050200D01*
X172796200Y-118850200D02*
X172796200Y-119950200D01*
X172896200Y-123850200D02*
X171176200Y-123850200D01*
X172996200Y-118850200D02*
X172596200Y-118150200D01*
X173396200Y-118150200D02*
X172196200Y-118150200D01*
X173396200Y-118850200D02*
X173396200Y-118150200D01*
X191946200Y-113280200D02*
X191946200Y-123600200D01*
X191946200Y-123600200D02*
X171426200Y-123600200D01*
%TO.C,J10*%
X159316534Y-93513600D02*
X160646534Y-93513600D01*
X159316534Y-94843600D02*
X159316534Y-93513600D01*
X159316534Y-96113600D02*
X159316534Y-101253600D01*
X159316534Y-96113600D02*
X161976534Y-96113600D01*
X159316534Y-101253600D02*
X161976534Y-101253600D01*
X161976534Y-96113600D02*
X161976534Y-101253600D01*
%TO.C,C6*%
X133529400Y-107774352D02*
X133529400Y-107251848D01*
X134999400Y-107774352D02*
X134999400Y-107251848D01*
%TO.C,R7*%
X138047400Y-102181036D02*
X138047400Y-102635164D01*
X136577400Y-102181036D02*
X136577400Y-102635164D01*
%TO.C,D2*%
X138565000Y-98335000D02*
X140485000Y-98335000D01*
X140485000Y-98335000D02*
X140485000Y-95475000D01*
X138565000Y-95475000D02*
X138565000Y-98335000D01*
%TO.C,J11*%
X121910800Y-68123600D02*
X123240800Y-68123600D01*
X121910800Y-69453600D02*
X121910800Y-68123600D01*
X121910800Y-70723600D02*
X121910800Y-116503600D01*
X121910800Y-70723600D02*
X124570800Y-70723600D01*
X121910800Y-116503600D02*
X124570800Y-116503600D01*
X124570800Y-70723600D02*
X124570800Y-116503600D01*
%TO.C,J5*%
X165463334Y-83353600D02*
X166793334Y-83353600D01*
X165463334Y-84683600D02*
X165463334Y-83353600D01*
X165463334Y-85953600D02*
X165463334Y-91093600D01*
X165463334Y-85953600D02*
X168123334Y-85953600D01*
X165463334Y-91093600D02*
X168123334Y-91093600D01*
X168123334Y-85953600D02*
X168123334Y-91093600D01*
%TO.C,J12*%
X152390800Y-68123600D02*
X153720800Y-68123600D01*
X152390800Y-69453600D02*
X152390800Y-68123600D01*
X152390800Y-70723600D02*
X152390800Y-116503600D01*
X152390800Y-70723600D02*
X155050800Y-70723600D01*
X152390800Y-116503600D02*
X155050800Y-116503600D01*
X155050800Y-70723600D02*
X155050800Y-116503600D01*
%TO.C,C5*%
X121693000Y-63837452D02*
X121693000Y-63314948D01*
X123163000Y-63837452D02*
X123163000Y-63314948D01*
%TO.C,R17*%
X126976200Y-102554664D02*
X126976200Y-102100536D01*
X128446200Y-102554664D02*
X128446200Y-102100536D01*
%TO.C,D3*%
X138526400Y-110881600D02*
X136606400Y-110881600D01*
X136606400Y-110881600D02*
X136606400Y-113741600D01*
X138526400Y-113741600D02*
X138526400Y-110881600D01*
%TO.C,U1*%
X141975000Y-94608600D02*
X147985000Y-94608600D01*
X144225000Y-101428600D02*
X147985000Y-101428600D01*
X147985000Y-94608600D02*
X147985000Y-95868600D01*
X147985000Y-101428600D02*
X147985000Y-100168600D01*
%TO.C,C3*%
X132613000Y-91527352D02*
X132613000Y-91004848D01*
X134083000Y-91527352D02*
X134083000Y-91004848D01*
%TD*%
M02*
