%TF.GenerationSoftware,KiCad,Pcbnew,7.0.1*%
%TF.CreationDate,2023-03-24T11:50:05-04:00*%
%TF.ProjectId,esp,6573702e-6b69-4636-9164-5f7063625858,1.0*%
%TF.SameCoordinates,Original*%
%TF.FileFunction,Soldermask,Top*%
%TF.FilePolarity,Negative*%
%FSLAX46Y46*%
G04 Gerber Fmt 4.6, Leading zero omitted, Abs format (unit mm)*
G04 Created by KiCad (PCBNEW 7.0.1) date 2023-03-24 11:50:05*
%MOMM*%
%LPD*%
G01*
G04 APERTURE LIST*
G04 Aperture macros list*
%AMRoundRect*
0 Rectangle with rounded corners*
0 $1 Rounding radius*
0 $2 $3 $4 $5 $6 $7 $8 $9 X,Y pos of 4 corners*
0 Add a 4 corners polygon primitive as box body*
4,1,4,$2,$3,$4,$5,$6,$7,$8,$9,$2,$3,0*
0 Add four circle primitives for the rounded corners*
1,1,$1+$1,$2,$3*
1,1,$1+$1,$4,$5*
1,1,$1+$1,$6,$7*
1,1,$1+$1,$8,$9*
0 Add four rect primitives between the rounded corners*
20,1,$1+$1,$2,$3,$4,$5,0*
20,1,$1+$1,$4,$5,$6,$7,0*
20,1,$1+$1,$6,$7,$8,$9,0*
20,1,$1+$1,$8,$9,$2,$3,0*%
G04 Aperture macros list end*
%ADD10R,3.000000X3.000000*%
%ADD11C,3.000000*%
%ADD12RoundRect,0.250000X-0.450000X0.350000X-0.450000X-0.350000X0.450000X-0.350000X0.450000X0.350000X0*%
%ADD13R,1.700000X1.700000*%
%ADD14O,1.700000X1.700000*%
%ADD15RoundRect,0.250000X-0.350000X-0.450000X0.350000X-0.450000X0.350000X0.450000X-0.350000X0.450000X0*%
%ADD16C,1.600000*%
%ADD17R,1.800000X1.600000*%
%ADD18RoundRect,0.250000X0.450000X-0.350000X0.450000X0.350000X-0.450000X0.350000X-0.450000X-0.350000X0*%
%ADD19R,1.500000X1.500000*%
%ADD20RoundRect,0.250000X-0.475000X0.337500X-0.475000X-0.337500X0.475000X-0.337500X0.475000X0.337500X0*%
%ADD21C,0.650000*%
%ADD22R,0.600000X1.150000*%
%ADD23R,0.300000X1.150000*%
%ADD24O,1.000000X2.100000*%
%ADD25O,1.000000X1.800000*%
%ADD26RoundRect,0.150000X-0.150000X0.587500X-0.150000X-0.587500X0.150000X-0.587500X0.150000X0.587500X0*%
%ADD27RoundRect,0.250000X0.475000X-0.337500X0.475000X0.337500X-0.475000X0.337500X-0.475000X-0.337500X0*%
%ADD28RoundRect,0.150000X-0.725000X-0.150000X0.725000X-0.150000X0.725000X0.150000X-0.725000X0.150000X0*%
%ADD29R,1.500000X0.900000*%
%ADD30R,0.900000X1.500000*%
%ADD31R,0.900000X0.900000*%
%ADD32RoundRect,0.250000X0.450000X-0.325000X0.450000X0.325000X-0.450000X0.325000X-0.450000X-0.325000X0*%
%ADD33RoundRect,0.150000X0.150000X-0.587500X0.150000X0.587500X-0.150000X0.587500X-0.150000X-0.587500X0*%
%ADD34RoundRect,0.250000X-0.325000X-0.450000X0.325000X-0.450000X0.325000X0.450000X-0.325000X0.450000X0*%
%ADD35R,0.450000X1.750000*%
%ADD36RoundRect,0.250000X-0.450000X0.325000X-0.450000X-0.325000X0.450000X-0.325000X0.450000X0.325000X0*%
%ADD37R,2.000000X1.500000*%
%ADD38R,2.000000X3.800000*%
G04 APERTURE END LIST*
D10*
%TO.C,J2*%
X188975000Y-71705000D03*
D11*
X188975000Y-66625000D03*
%TD*%
D12*
%TO.C,R1*%
X131013200Y-106513100D03*
X131013200Y-108513100D03*
%TD*%
D13*
%TO.C,J8*%
X166869534Y-77038200D03*
D14*
X166869534Y-79578200D03*
%TD*%
D15*
%TO.C,R3*%
X159600000Y-104600000D03*
X161600000Y-104600000D03*
%TD*%
%TO.C,R14*%
X165700000Y-64200000D03*
X167700000Y-64200000D03*
%TD*%
%TO.C,R12*%
X166250000Y-108050000D03*
X168250000Y-108050000D03*
%TD*%
D10*
%TO.C,J1*%
X188900000Y-87675000D03*
D11*
X188900000Y-82595000D03*
%TD*%
D13*
%TO.C,J4*%
X160722734Y-77048200D03*
D14*
X160722734Y-79588200D03*
%TD*%
D16*
%TO.C,K1*%
X180463300Y-108283900D03*
X185543300Y-108283900D03*
X190623300Y-108283900D03*
X180463300Y-100663900D03*
X185543300Y-100663900D03*
X190623300Y-100663900D03*
D17*
X172843300Y-108283900D03*
D16*
X172843300Y-100663900D03*
%TD*%
D18*
%TO.C,R6*%
X129000000Y-92296100D03*
X129000000Y-90296100D03*
%TD*%
D13*
%TO.C,J9*%
X160646534Y-84683600D03*
D14*
X160646534Y-87223600D03*
X160646534Y-89763600D03*
%TD*%
D18*
%TO.C,R10*%
X139616600Y-92236100D03*
X139616600Y-90236100D03*
%TD*%
D13*
%TO.C,J7*%
X160722734Y-69428200D03*
D14*
X160722734Y-71968200D03*
%TD*%
D13*
%TO.C,J6*%
X166793334Y-94843600D03*
D14*
X166793334Y-97383600D03*
X166793334Y-99923600D03*
%TD*%
D19*
%TO.C,SW2*%
X154635200Y-122885200D03*
X146835200Y-122885200D03*
%TD*%
D18*
%TO.C,R5*%
X131189000Y-92296100D03*
X131189000Y-90296100D03*
%TD*%
D19*
%TO.C,SW1*%
X122465000Y-122478800D03*
X130265000Y-122478800D03*
%TD*%
D20*
%TO.C,C7*%
X131089400Y-111681600D03*
X131089400Y-113756600D03*
%TD*%
D13*
%TO.C,J3*%
X166869534Y-69428200D03*
D14*
X166869534Y-71968200D03*
%TD*%
D18*
%TO.C,R11*%
X150000000Y-117500000D03*
X150000000Y-115500000D03*
%TD*%
D12*
%TO.C,R21*%
X141902600Y-90236100D03*
X141902600Y-92236100D03*
%TD*%
D20*
%TO.C,C1*%
X134391400Y-111681600D03*
X134391400Y-113756600D03*
%TD*%
D21*
%TO.C,P1*%
X135870200Y-119264200D03*
X141650200Y-119264200D03*
D22*
X135560200Y-118189200D03*
X136360200Y-118189200D03*
D23*
X137510200Y-118189200D03*
X138510200Y-118189200D03*
X139010200Y-118189200D03*
X140010200Y-118189200D03*
D22*
X141160200Y-118189200D03*
X141960200Y-118189200D03*
X141960200Y-118189200D03*
X141160200Y-118189200D03*
D23*
X140510200Y-118189200D03*
X139510200Y-118189200D03*
X138010200Y-118189200D03*
X137010200Y-118189200D03*
D22*
X136360200Y-118189200D03*
X135560200Y-118189200D03*
D24*
X134440200Y-118764200D03*
D25*
X134440200Y-122944200D03*
D24*
X143080200Y-118764200D03*
D25*
X143080200Y-122944200D03*
%TD*%
D26*
%TO.C,Q2*%
X130982800Y-95408600D03*
X129082800Y-95408600D03*
X130032800Y-97283600D03*
%TD*%
D15*
%TO.C,R4*%
X159600000Y-108000000D03*
X161600000Y-108000000D03*
%TD*%
%TO.C,R20*%
X158700000Y-64000000D03*
X160700000Y-64000000D03*
%TD*%
D18*
%TO.C,R13*%
X146800000Y-92300000D03*
X146800000Y-90300000D03*
%TD*%
D12*
%TO.C,R16*%
X144188600Y-90236100D03*
X144188600Y-92236100D03*
%TD*%
D18*
%TO.C,R2*%
X134264400Y-103486600D03*
X134264400Y-101486600D03*
%TD*%
D27*
%TO.C,C4*%
X133527800Y-97383600D03*
X133527800Y-95308600D03*
%TD*%
D28*
%TO.C,U3*%
X159975000Y-111205000D03*
X159975000Y-112475000D03*
X159975000Y-113745000D03*
X159975000Y-115015000D03*
X159975000Y-116285000D03*
X159975000Y-117555000D03*
X159975000Y-118825000D03*
X159975000Y-120095000D03*
X165125000Y-120095000D03*
X165125000Y-118825000D03*
X165125000Y-117555000D03*
X165125000Y-116285000D03*
X165125000Y-115015000D03*
X165125000Y-113745000D03*
X165125000Y-112475000D03*
X165125000Y-111205000D03*
%TD*%
D29*
%TO.C,U4*%
X130010200Y-69115200D03*
X130010200Y-70385200D03*
X130010200Y-71655200D03*
X130010200Y-72925200D03*
X130010200Y-74195200D03*
X130010200Y-75465200D03*
X130010200Y-76735200D03*
X130010200Y-78005200D03*
X130010200Y-79275200D03*
X130010200Y-80545200D03*
X130010200Y-81815200D03*
X130010200Y-83085200D03*
X130010200Y-84355200D03*
X130010200Y-85625200D03*
D30*
X133040200Y-86875200D03*
X134310200Y-86875200D03*
X135580200Y-86875200D03*
X136850200Y-86875200D03*
X138120200Y-86875200D03*
X139390200Y-86875200D03*
X140660200Y-86875200D03*
X141930200Y-86875200D03*
X143200200Y-86875200D03*
X144470200Y-86875200D03*
D29*
X147510200Y-85625200D03*
X147510200Y-84355200D03*
X147510200Y-83085200D03*
X147510200Y-81815200D03*
X147510200Y-80545200D03*
X147510200Y-79275200D03*
X147510200Y-78005200D03*
X147510200Y-76735200D03*
X147510200Y-75465200D03*
X147510200Y-74195200D03*
X147510200Y-72925200D03*
X147510200Y-71655200D03*
X147510200Y-70385200D03*
X147510200Y-69115200D03*
D31*
X135860200Y-75435200D03*
X135860200Y-76835200D03*
X135860200Y-78235200D03*
X137260200Y-75435200D03*
X137260200Y-76835200D03*
X137260200Y-78235200D03*
X138660200Y-75435200D03*
X138660200Y-76835200D03*
X138660200Y-78235200D03*
%TD*%
D18*
%TO.C,R15*%
X135500000Y-92313000D03*
X135500000Y-90313000D03*
%TD*%
D12*
%TO.C,R19*%
X127660400Y-111719100D03*
X127660400Y-113719100D03*
%TD*%
D20*
%TO.C,C2*%
X137566400Y-106475600D03*
X137566400Y-108550600D03*
%TD*%
D32*
%TO.C,D1*%
X136321800Y-97348600D03*
X136321800Y-95298600D03*
%TD*%
D12*
%TO.C,R8*%
X140131800Y-101000000D03*
X140131800Y-103000000D03*
%TD*%
D33*
%TO.C,Q1*%
X130078400Y-103424100D03*
X131978400Y-103424100D03*
X131028400Y-101549100D03*
%TD*%
D12*
%TO.C,R18*%
X127660400Y-106513100D03*
X127660400Y-108513100D03*
%TD*%
D34*
%TO.C,D3*%
X166225000Y-104450000D03*
X168275000Y-104450000D03*
%TD*%
D35*
%TO.C,U2*%
X149741600Y-105800000D03*
X149091600Y-105800000D03*
X148441600Y-105800000D03*
X147791600Y-105800000D03*
X147141600Y-105800000D03*
X146491600Y-105800000D03*
X145841600Y-105800000D03*
X145191600Y-105800000D03*
X144541600Y-105800000D03*
X143891600Y-105800000D03*
X143241600Y-105800000D03*
X142591600Y-105800000D03*
X141941600Y-105800000D03*
X141291600Y-105800000D03*
X141291600Y-113000000D03*
X141941600Y-113000000D03*
X142591600Y-113000000D03*
X143241600Y-113000000D03*
X143891600Y-113000000D03*
X144541600Y-113000000D03*
X145191600Y-113000000D03*
X145841600Y-113000000D03*
X146491600Y-113000000D03*
X147141600Y-113000000D03*
X147791600Y-113000000D03*
X148441600Y-113000000D03*
X149091600Y-113000000D03*
X149741600Y-113000000D03*
%TD*%
D12*
%TO.C,R9*%
X125780800Y-62562900D03*
X125780800Y-64562900D03*
%TD*%
D16*
%TO.C,K2*%
X180416200Y-122250200D03*
X185496200Y-122250200D03*
X190576200Y-122250200D03*
X180416200Y-114630200D03*
X185496200Y-114630200D03*
X190576200Y-114630200D03*
D17*
X172796200Y-122250200D03*
D16*
X172796200Y-114630200D03*
%TD*%
D13*
%TO.C,J10*%
X160646534Y-94843600D03*
D14*
X160646534Y-97383600D03*
X160646534Y-99923600D03*
%TD*%
D27*
%TO.C,C6*%
X134264400Y-108550600D03*
X134264400Y-106475600D03*
%TD*%
D12*
%TO.C,R7*%
X137312400Y-101408100D03*
X137312400Y-103408100D03*
%TD*%
D32*
%TO.C,D2*%
X139525000Y-97500000D03*
X139525000Y-95450000D03*
%TD*%
D13*
%TO.C,J11*%
X123240800Y-69453600D03*
D14*
X123240800Y-71993600D03*
X123240800Y-74533600D03*
X123240800Y-77073600D03*
X123240800Y-79613600D03*
X123240800Y-82153600D03*
X123240800Y-84693600D03*
X123240800Y-87233600D03*
X123240800Y-89773600D03*
X123240800Y-92313600D03*
X123240800Y-94853600D03*
X123240800Y-97393600D03*
X123240800Y-99933600D03*
X123240800Y-102473600D03*
X123240800Y-105013600D03*
X123240800Y-107553600D03*
X123240800Y-110093600D03*
X123240800Y-112633600D03*
X123240800Y-115173600D03*
%TD*%
D13*
%TO.C,J5*%
X166793334Y-84683600D03*
D14*
X166793334Y-87223600D03*
X166793334Y-89763600D03*
%TD*%
D13*
%TO.C,J12*%
X153720800Y-69453600D03*
D14*
X153720800Y-71993600D03*
X153720800Y-74533600D03*
X153720800Y-77073600D03*
X153720800Y-79613600D03*
X153720800Y-82153600D03*
X153720800Y-84693600D03*
X153720800Y-87233600D03*
X153720800Y-89773600D03*
X153720800Y-92313600D03*
X153720800Y-94853600D03*
X153720800Y-97393600D03*
X153720800Y-99933600D03*
X153720800Y-102473600D03*
X153720800Y-105013600D03*
X153720800Y-107553600D03*
X153720800Y-110093600D03*
X153720800Y-112633600D03*
X153720800Y-115173600D03*
%TD*%
D27*
%TO.C,C5*%
X122428000Y-64613700D03*
X122428000Y-62538700D03*
%TD*%
D18*
%TO.C,R17*%
X127711200Y-103327600D03*
X127711200Y-101327600D03*
%TD*%
D36*
%TO.C,D3*%
X137566400Y-111716600D03*
X137566400Y-113766600D03*
%TD*%
D37*
%TO.C,U1*%
X142925000Y-95718600D03*
X142925000Y-98018600D03*
D38*
X149225000Y-98018600D03*
D37*
X142925000Y-100318600D03*
%TD*%
D27*
%TO.C,C3*%
X133348000Y-92303600D03*
X133348000Y-90228600D03*
%TD*%
M02*
