%TF.GenerationSoftware,KiCad,Pcbnew,7.0.1*%
%TF.CreationDate,2023-03-24T11:50:05-04:00*%
%TF.ProjectId,esp,6573702e-6b69-4636-9164-5f7063625858,1.0*%
%TF.SameCoordinates,Original*%
%TF.FileFunction,Copper,L2,Inr*%
%TF.FilePolarity,Positive*%
%FSLAX46Y46*%
G04 Gerber Fmt 4.6, Leading zero omitted, Abs format (unit mm)*
G04 Created by KiCad (PCBNEW 7.0.1) date 2023-03-24 11:50:05*
%MOMM*%
%LPD*%
G01*
G04 APERTURE LIST*
%TA.AperFunction,ComponentPad*%
%ADD10R,3.000000X3.000000*%
%TD*%
%TA.AperFunction,ComponentPad*%
%ADD11C,3.000000*%
%TD*%
%TA.AperFunction,ComponentPad*%
%ADD12R,1.700000X1.700000*%
%TD*%
%TA.AperFunction,ComponentPad*%
%ADD13O,1.700000X1.700000*%
%TD*%
%TA.AperFunction,ComponentPad*%
%ADD14C,1.600000*%
%TD*%
%TA.AperFunction,ComponentPad*%
%ADD15R,1.800000X1.600000*%
%TD*%
%TA.AperFunction,ComponentPad*%
%ADD16O,1.000000X2.100000*%
%TD*%
%TA.AperFunction,ComponentPad*%
%ADD17O,1.000000X1.800000*%
%TD*%
%TA.AperFunction,ViaPad*%
%ADD18C,0.800000*%
%TD*%
%TA.AperFunction,Conductor*%
%ADD19C,0.250000*%
%TD*%
G04 APERTURE END LIST*
D10*
%TO.N,Net-(J2-Pin_1)*%
%TO.C,J2*%
X188975000Y-71705000D03*
D11*
%TO.N,Net-(J2-Pin_2)*%
X188975000Y-66625000D03*
%TD*%
D12*
%TO.N,/IO19*%
%TO.C,J8*%
X166869534Y-77038200D03*
D13*
%TO.N,GND*%
X166869534Y-79578200D03*
%TD*%
D10*
%TO.N,Net-(J1-Pin_1)*%
%TO.C,J1*%
X188900000Y-87675000D03*
D11*
%TO.N,Net-(J1-Pin_2)*%
X188900000Y-82595000D03*
%TD*%
D12*
%TO.N,/IO21*%
%TO.C,J4*%
X160722734Y-77048200D03*
D13*
%TO.N,GND*%
X160722734Y-79588200D03*
%TD*%
D14*
%TO.N,Net-(J1-Pin_2)*%
%TO.C,K1*%
X180463300Y-108283900D03*
%TO.N,unconnected-(K1-Pad12)*%
X185543300Y-108283900D03*
%TO.N,Net-(J2-Pin_2)*%
X190623300Y-108283900D03*
%TO.N,Net-(J2-Pin_1)*%
X180463300Y-100663900D03*
%TO.N,unconnected-(K1-Pad22)*%
X185543300Y-100663900D03*
%TO.N,Net-(J1-Pin_1)*%
X190623300Y-100663900D03*
D15*
%TO.N,+5V*%
X172843300Y-108283900D03*
D14*
%TO.N,Net-(U3-O1)*%
X172843300Y-100663900D03*
%TD*%
D12*
%TO.N,+5V*%
%TO.C,J9*%
X160646534Y-84683600D03*
D13*
%TO.N,GND*%
X160646534Y-87223600D03*
%TO.N,/IO18*%
X160646534Y-89763600D03*
%TD*%
D12*
%TO.N,Net-(J7-Pin_1)*%
%TO.C,J7*%
X160722734Y-69428200D03*
D13*
%TO.N,GND*%
X160722734Y-71968200D03*
%TD*%
D12*
%TO.N,+5V*%
%TO.C,J6*%
X166793334Y-94843600D03*
D13*
%TO.N,GND*%
X166793334Y-97383600D03*
%TO.N,/IO16*%
X166793334Y-99923600D03*
%TD*%
D12*
%TO.N,Net-(J3-Pin_1)*%
%TO.C,J3*%
X166869534Y-69428200D03*
D13*
%TO.N,GND*%
X166869534Y-71968200D03*
%TD*%
D16*
%TO.N,GND*%
%TO.C,P1*%
X134440200Y-118764200D03*
D17*
X134440200Y-122944200D03*
D16*
X143080200Y-118764200D03*
D17*
X143080200Y-122944200D03*
%TD*%
D14*
%TO.N,Net-(J1-Pin_1)*%
%TO.C,K2*%
X180416200Y-122250200D03*
%TO.N,unconnected-(K2-Pad12)*%
X185496200Y-122250200D03*
%TO.N,Net-(J2-Pin_2)*%
X190576200Y-122250200D03*
%TO.N,Net-(J2-Pin_1)*%
X180416200Y-114630200D03*
%TO.N,unconnected-(K2-Pad22)*%
X185496200Y-114630200D03*
%TO.N,Net-(J1-Pin_2)*%
X190576200Y-114630200D03*
D15*
%TO.N,+5V*%
X172796200Y-122250200D03*
D14*
%TO.N,Net-(U3-O2)*%
X172796200Y-114630200D03*
%TD*%
D12*
%TO.N,+5V*%
%TO.C,J10*%
X160646534Y-94843600D03*
D13*
%TO.N,GND*%
X160646534Y-97383600D03*
%TO.N,/IO17*%
X160646534Y-99923600D03*
%TD*%
D12*
%TO.N,+3.3V*%
%TO.C,J11*%
X123240800Y-69453600D03*
D13*
%TO.N,/EN*%
X123240800Y-71993600D03*
%TO.N,/VP*%
X123240800Y-74533600D03*
%TO.N,/VN*%
X123240800Y-77073600D03*
%TO.N,/IO34*%
X123240800Y-79613600D03*
%TO.N,/IO35*%
X123240800Y-82153600D03*
%TO.N,/IO32*%
X123240800Y-84693600D03*
%TO.N,/IO33*%
X123240800Y-87233600D03*
%TO.N,/IO25*%
X123240800Y-89773600D03*
%TO.N,/IO26*%
X123240800Y-92313600D03*
%TO.N,/IO27*%
X123240800Y-94853600D03*
%TO.N,/IO14*%
X123240800Y-97393600D03*
%TO.N,/IO12*%
X123240800Y-99933600D03*
%TO.N,GND*%
X123240800Y-102473600D03*
%TO.N,/IO13*%
X123240800Y-105013600D03*
%TO.N,unconnected-(J11-Pin_16-Pad16)*%
X123240800Y-107553600D03*
%TO.N,unconnected-(J11-Pin_17-Pad17)*%
X123240800Y-110093600D03*
%TO.N,unconnected-(J11-Pin_18-Pad18)*%
X123240800Y-112633600D03*
%TO.N,+5V*%
X123240800Y-115173600D03*
%TD*%
D12*
%TO.N,+5V*%
%TO.C,J5*%
X166793334Y-84683600D03*
D13*
%TO.N,GND*%
X166793334Y-87223600D03*
%TO.N,/IO5*%
X166793334Y-89763600D03*
%TD*%
D12*
%TO.N,GND*%
%TO.C,J12*%
X153720800Y-69453600D03*
D13*
%TO.N,/IO23*%
X153720800Y-71993600D03*
%TO.N,/IO22*%
X153720800Y-74533600D03*
%TO.N,/RX*%
X153720800Y-77073600D03*
%TO.N,/TX*%
X153720800Y-79613600D03*
%TO.N,/IO21*%
X153720800Y-82153600D03*
%TO.N,GND*%
X153720800Y-84693600D03*
%TO.N,/IO19*%
X153720800Y-87233600D03*
%TO.N,/IO18*%
X153720800Y-89773600D03*
%TO.N,/IO5*%
X153720800Y-92313600D03*
%TO.N,/IO17*%
X153720800Y-94853600D03*
%TO.N,/IO16*%
X153720800Y-97393600D03*
%TO.N,/IO4*%
X153720800Y-99933600D03*
%TO.N,/IO0*%
X153720800Y-102473600D03*
%TO.N,/IO2*%
X153720800Y-105013600D03*
%TO.N,/IO15*%
X153720800Y-107553600D03*
%TO.N,unconnected-(J12-Pin_17-Pad17)*%
X153720800Y-110093600D03*
%TO.N,unconnected-(J12-Pin_18-Pad18)*%
X153720800Y-112633600D03*
%TO.N,unconnected-(J12-Pin_19-Pad19)*%
X153720800Y-115173600D03*
%TD*%
D18*
%TO.N,+5V*%
X142488700Y-102288700D03*
X139000000Y-111700000D03*
X144500000Y-111500000D03*
%TO.N,GND*%
X126750000Y-68900000D03*
X138660200Y-76100000D03*
X137950000Y-76835200D03*
X137400000Y-91400000D03*
X137950000Y-75435200D03*
X136550000Y-78235200D03*
X137950000Y-78235200D03*
X137260200Y-76150000D03*
X137260200Y-77550000D03*
X135860200Y-77550000D03*
X135860200Y-76150000D03*
X135844400Y-108055600D03*
X136550000Y-75435200D03*
X138660200Y-77550000D03*
X136550000Y-76835200D03*
%TO.N,+3.3V*%
X134900000Y-93800000D03*
X144300000Y-93800000D03*
X141024283Y-96775500D03*
X126100000Y-103300000D03*
X167050000Y-109800000D03*
X167050000Y-120200000D03*
%TO.N,Net-(U2-DTR)*%
X134900000Y-98800000D03*
X149017100Y-103700000D03*
%TO.N,Net-(D1-K)*%
X146400000Y-109400000D03*
X135900000Y-100000000D03*
%TO.N,Net-(D2-K)*%
X145767100Y-110400000D03*
X140950000Y-97875000D03*
%TO.N,Net-(D3-A)*%
X145450000Y-119900000D03*
X168250000Y-106050000D03*
%TO.N,/EN*%
X127500000Y-71993600D03*
X129300000Y-111700000D03*
X130300000Y-99900000D03*
%TO.N,/IO13*%
X134200000Y-88600000D03*
%TO.N,/IO21*%
X169650000Y-108050000D03*
%TO.N,/IO18*%
X127700000Y-99800000D03*
%TO.N,/IO17*%
X136713000Y-89100000D03*
%TO.N,/IO16*%
X148700000Y-116100000D03*
%TO.N,/IO0*%
X129468100Y-99168100D03*
X144800000Y-88375500D03*
X147500000Y-86700000D03*
%TO.N,/IO2*%
X140800000Y-91300000D03*
%TO.N,/IO15*%
X141500000Y-88500000D03*
%TO.N,/RST*%
X135800000Y-104900000D03*
X148000000Y-104000000D03*
%TO.N,Net-(U2-TXD)*%
X149800000Y-103000000D03*
X131200000Y-93600000D03*
%TO.N,Net-(U2-RXD)*%
X127500000Y-93200000D03*
X147100000Y-103013200D03*
%TD*%
D19*
%TO.N,+5V*%
X171718300Y-99768566D02*
X166793334Y-94843600D01*
X156731534Y-98758600D02*
X160646534Y-94843600D01*
X160646534Y-94843600D02*
X166793334Y-94843600D01*
X142488700Y-102288700D02*
X148411300Y-102288700D01*
X144300000Y-111700000D02*
X144500000Y-111500000D01*
X151941400Y-98758600D02*
X156731534Y-98758600D01*
X148411300Y-102288700D02*
X151941400Y-98758600D01*
X139000000Y-111700000D02*
X144300000Y-111700000D01*
X171718300Y-107158900D02*
X171718300Y-99768566D01*
X172843300Y-108283900D02*
X171718300Y-107158900D01*
%TO.N,/EN*%
X134925000Y-88299695D02*
X134925000Y-91475000D01*
X129675000Y-100525000D02*
X130300000Y-99900000D01*
X129300000Y-100900000D02*
X130300000Y-99900000D01*
X126900000Y-80274695D02*
X134925000Y-88299695D01*
X129300000Y-111700000D02*
X129300000Y-100900000D01*
X127500000Y-71993600D02*
X127500000Y-72350000D01*
X127325000Y-100525000D02*
X129675000Y-100525000D01*
X134925000Y-91475000D02*
X126975000Y-99425000D01*
X127500000Y-71993600D02*
X123240800Y-71993600D01*
X127500000Y-72350000D02*
X126900000Y-72950000D01*
X126975000Y-100175000D02*
X127325000Y-100525000D01*
X126900000Y-72950000D02*
X126900000Y-80274695D01*
X126975000Y-99425000D02*
X126975000Y-100175000D01*
%TO.N,/IO13*%
X125900000Y-93500000D02*
X125900000Y-102354400D01*
X130800000Y-88600000D02*
X125900000Y-93500000D01*
X125900000Y-102354400D02*
X123240800Y-105013600D01*
X134200000Y-88600000D02*
X130800000Y-88600000D01*
%TO.N,/IO18*%
X127700000Y-99800000D02*
X140600000Y-86900000D01*
X149922200Y-85975000D02*
X153720800Y-89773600D01*
X146564104Y-85975000D02*
X149922200Y-85975000D01*
X140600000Y-86900000D02*
X145639104Y-86900000D01*
X145639104Y-86900000D02*
X146564104Y-85975000D01*
%TO.N,/IO0*%
X130657205Y-99168100D02*
X139400000Y-90425305D01*
X147500000Y-86700000D02*
X146475500Y-86700000D01*
X139400000Y-89574695D02*
X141274695Y-87700000D01*
X146475500Y-86700000D02*
X144800000Y-88375500D01*
X144124500Y-87700000D02*
X144800000Y-88375500D01*
X129468100Y-99168100D02*
X130657205Y-99168100D01*
X141274695Y-87700000D02*
X144124500Y-87700000D01*
X139400000Y-90425305D02*
X139400000Y-89574695D01*
%TO.N,/IO2*%
X153720800Y-105013600D02*
X144188295Y-105013600D01*
X140100000Y-100925305D02*
X140100000Y-92000000D01*
X140100000Y-92000000D02*
X140800000Y-91300000D01*
X144188295Y-105013600D02*
X140100000Y-100925305D01*
%TO.N,/IO15*%
X139225000Y-100686701D02*
X146091899Y-107553600D01*
X141500000Y-88500000D02*
X139850000Y-90150000D01*
X139225000Y-91236701D02*
X139225000Y-100686701D01*
X139850000Y-90150000D02*
X139850000Y-90611701D01*
X139850000Y-90611701D02*
X139225000Y-91236701D01*
X146091899Y-107553600D02*
X153720800Y-107553600D01*
%TD*%
M02*
