%TF.GenerationSoftware,KiCad,Pcbnew,7.0.1*%
%TF.CreationDate,2023-03-24T11:50:05-04:00*%
%TF.ProjectId,esp,6573702e-6b69-4636-9164-5f7063625858,1.0*%
%TF.SameCoordinates,Original*%
%TF.FileFunction,Copper,L4,Bot*%
%TF.FilePolarity,Positive*%
%FSLAX46Y46*%
G04 Gerber Fmt 4.6, Leading zero omitted, Abs format (unit mm)*
G04 Created by KiCad (PCBNEW 7.0.1) date 2023-03-24 11:50:05*
%MOMM*%
%LPD*%
G01*
G04 APERTURE LIST*
%TA.AperFunction,ComponentPad*%
%ADD10R,3.000000X3.000000*%
%TD*%
%TA.AperFunction,ComponentPad*%
%ADD11C,3.000000*%
%TD*%
%TA.AperFunction,ComponentPad*%
%ADD12R,1.700000X1.700000*%
%TD*%
%TA.AperFunction,ComponentPad*%
%ADD13O,1.700000X1.700000*%
%TD*%
%TA.AperFunction,ComponentPad*%
%ADD14C,1.600000*%
%TD*%
%TA.AperFunction,ComponentPad*%
%ADD15R,1.800000X1.600000*%
%TD*%
%TA.AperFunction,ComponentPad*%
%ADD16O,1.000000X2.100000*%
%TD*%
%TA.AperFunction,ComponentPad*%
%ADD17O,1.000000X1.800000*%
%TD*%
%TA.AperFunction,ViaPad*%
%ADD18C,0.800000*%
%TD*%
%TA.AperFunction,Conductor*%
%ADD19C,0.250000*%
%TD*%
G04 APERTURE END LIST*
D10*
%TO.P,J2,1,Pin_1*%
%TO.N,Net-(J2-Pin_1)*%
X188975000Y-71705000D03*
D11*
%TO.P,J2,2,Pin_2*%
%TO.N,Net-(J2-Pin_2)*%
X188975000Y-66625000D03*
%TD*%
D12*
%TO.P,J8,1,Pin_1*%
%TO.N,/IO19*%
X166869534Y-77038200D03*
D13*
%TO.P,J8,2,Pin_2*%
%TO.N,GND*%
X166869534Y-79578200D03*
%TD*%
D10*
%TO.P,J1,1,Pin_1*%
%TO.N,Net-(J1-Pin_1)*%
X188900000Y-87675000D03*
D11*
%TO.P,J1,2,Pin_2*%
%TO.N,Net-(J1-Pin_2)*%
X188900000Y-82595000D03*
%TD*%
D12*
%TO.P,J4,1,Pin_1*%
%TO.N,/IO21*%
X160722734Y-77048200D03*
D13*
%TO.P,J4,2,Pin_2*%
%TO.N,GND*%
X160722734Y-79588200D03*
%TD*%
D14*
%TO.P,K1,11*%
%TO.N,Net-(J1-Pin_2)*%
X180463300Y-108283900D03*
%TO.P,K1,12*%
%TO.N,unconnected-(K1-Pad12)*%
X185543300Y-108283900D03*
%TO.P,K1,14*%
%TO.N,Net-(J2-Pin_2)*%
X190623300Y-108283900D03*
%TO.P,K1,21*%
%TO.N,Net-(J2-Pin_1)*%
X180463300Y-100663900D03*
%TO.P,K1,22*%
%TO.N,unconnected-(K1-Pad22)*%
X185543300Y-100663900D03*
%TO.P,K1,24*%
%TO.N,Net-(J1-Pin_1)*%
X190623300Y-100663900D03*
D15*
%TO.P,K1,A1*%
%TO.N,+5V*%
X172843300Y-108283900D03*
D14*
%TO.P,K1,A2*%
%TO.N,Net-(U3-O1)*%
X172843300Y-100663900D03*
%TD*%
D12*
%TO.P,J9,1,Pin_1*%
%TO.N,+5V*%
X160646534Y-84683600D03*
D13*
%TO.P,J9,2,Pin_2*%
%TO.N,GND*%
X160646534Y-87223600D03*
%TO.P,J9,3,Pin_3*%
%TO.N,/IO18*%
X160646534Y-89763600D03*
%TD*%
D12*
%TO.P,J7,1,Pin_1*%
%TO.N,Net-(J7-Pin_1)*%
X160722734Y-69428200D03*
D13*
%TO.P,J7,2,Pin_2*%
%TO.N,GND*%
X160722734Y-71968200D03*
%TD*%
D12*
%TO.P,J6,1,Pin_1*%
%TO.N,+5V*%
X166793334Y-94843600D03*
D13*
%TO.P,J6,2,Pin_2*%
%TO.N,GND*%
X166793334Y-97383600D03*
%TO.P,J6,3,Pin_3*%
%TO.N,/IO16*%
X166793334Y-99923600D03*
%TD*%
D12*
%TO.P,J3,1,Pin_1*%
%TO.N,Net-(J3-Pin_1)*%
X166869534Y-69428200D03*
D13*
%TO.P,J3,2,Pin_2*%
%TO.N,GND*%
X166869534Y-71968200D03*
%TD*%
D16*
%TO.P,P1,S1,SHIELD*%
%TO.N,GND*%
X134440200Y-118764200D03*
D17*
X134440200Y-122944200D03*
D16*
X143080200Y-118764200D03*
D17*
X143080200Y-122944200D03*
%TD*%
D14*
%TO.P,K2,11*%
%TO.N,Net-(J1-Pin_1)*%
X180416200Y-122250200D03*
%TO.P,K2,12*%
%TO.N,unconnected-(K2-Pad12)*%
X185496200Y-122250200D03*
%TO.P,K2,14*%
%TO.N,Net-(J2-Pin_2)*%
X190576200Y-122250200D03*
%TO.P,K2,21*%
%TO.N,Net-(J2-Pin_1)*%
X180416200Y-114630200D03*
%TO.P,K2,22*%
%TO.N,unconnected-(K2-Pad22)*%
X185496200Y-114630200D03*
%TO.P,K2,24*%
%TO.N,Net-(J1-Pin_2)*%
X190576200Y-114630200D03*
D15*
%TO.P,K2,A1*%
%TO.N,+5V*%
X172796200Y-122250200D03*
D14*
%TO.P,K2,A2*%
%TO.N,Net-(U3-O2)*%
X172796200Y-114630200D03*
%TD*%
D12*
%TO.P,J10,1,Pin_1*%
%TO.N,+5V*%
X160646534Y-94843600D03*
D13*
%TO.P,J10,2,Pin_2*%
%TO.N,GND*%
X160646534Y-97383600D03*
%TO.P,J10,3,Pin_3*%
%TO.N,/IO17*%
X160646534Y-99923600D03*
%TD*%
D12*
%TO.P,J11,1,Pin_1*%
%TO.N,+3.3V*%
X123240800Y-69453600D03*
D13*
%TO.P,J11,2,Pin_2*%
%TO.N,/EN*%
X123240800Y-71993600D03*
%TO.P,J11,3,Pin_3*%
%TO.N,/VP*%
X123240800Y-74533600D03*
%TO.P,J11,4,Pin_4*%
%TO.N,/VN*%
X123240800Y-77073600D03*
%TO.P,J11,5,Pin_5*%
%TO.N,/IO34*%
X123240800Y-79613600D03*
%TO.P,J11,6,Pin_6*%
%TO.N,/IO35*%
X123240800Y-82153600D03*
%TO.P,J11,7,Pin_7*%
%TO.N,/IO32*%
X123240800Y-84693600D03*
%TO.P,J11,8,Pin_8*%
%TO.N,/IO33*%
X123240800Y-87233600D03*
%TO.P,J11,9,Pin_9*%
%TO.N,/IO25*%
X123240800Y-89773600D03*
%TO.P,J11,10,Pin_10*%
%TO.N,/IO26*%
X123240800Y-92313600D03*
%TO.P,J11,11,Pin_11*%
%TO.N,/IO27*%
X123240800Y-94853600D03*
%TO.P,J11,12,Pin_12*%
%TO.N,/IO14*%
X123240800Y-97393600D03*
%TO.P,J11,13,Pin_13*%
%TO.N,/IO12*%
X123240800Y-99933600D03*
%TO.P,J11,14,Pin_14*%
%TO.N,GND*%
X123240800Y-102473600D03*
%TO.P,J11,15,Pin_15*%
%TO.N,/IO13*%
X123240800Y-105013600D03*
%TO.P,J11,16,Pin_16*%
%TO.N,unconnected-(J11-Pin_16-Pad16)*%
X123240800Y-107553600D03*
%TO.P,J11,17,Pin_17*%
%TO.N,unconnected-(J11-Pin_17-Pad17)*%
X123240800Y-110093600D03*
%TO.P,J11,18,Pin_18*%
%TO.N,unconnected-(J11-Pin_18-Pad18)*%
X123240800Y-112633600D03*
%TO.P,J11,19,Pin_19*%
%TO.N,+5V*%
X123240800Y-115173600D03*
%TD*%
D12*
%TO.P,J5,1,Pin_1*%
%TO.N,+5V*%
X166793334Y-84683600D03*
D13*
%TO.P,J5,2,Pin_2*%
%TO.N,GND*%
X166793334Y-87223600D03*
%TO.P,J5,3,Pin_3*%
%TO.N,/IO5*%
X166793334Y-89763600D03*
%TD*%
D12*
%TO.P,J12,1,Pin_1*%
%TO.N,GND*%
X153720800Y-69453600D03*
D13*
%TO.P,J12,2,Pin_2*%
%TO.N,/IO23*%
X153720800Y-71993600D03*
%TO.P,J12,3,Pin_3*%
%TO.N,/IO22*%
X153720800Y-74533600D03*
%TO.P,J12,4,Pin_4*%
%TO.N,/RX*%
X153720800Y-77073600D03*
%TO.P,J12,5,Pin_5*%
%TO.N,/TX*%
X153720800Y-79613600D03*
%TO.P,J12,6,Pin_6*%
%TO.N,/IO21*%
X153720800Y-82153600D03*
%TO.P,J12,7,Pin_7*%
%TO.N,GND*%
X153720800Y-84693600D03*
%TO.P,J12,8,Pin_8*%
%TO.N,/IO19*%
X153720800Y-87233600D03*
%TO.P,J12,9,Pin_9*%
%TO.N,/IO18*%
X153720800Y-89773600D03*
%TO.P,J12,10,Pin_10*%
%TO.N,/IO5*%
X153720800Y-92313600D03*
%TO.P,J12,11,Pin_11*%
%TO.N,/IO17*%
X153720800Y-94853600D03*
%TO.P,J12,12,Pin_12*%
%TO.N,/IO16*%
X153720800Y-97393600D03*
%TO.P,J12,13,Pin_13*%
%TO.N,/IO4*%
X153720800Y-99933600D03*
%TO.P,J12,14,Pin_14*%
%TO.N,/IO0*%
X153720800Y-102473600D03*
%TO.P,J12,15,Pin_15*%
%TO.N,/IO2*%
X153720800Y-105013600D03*
%TO.P,J12,16,Pin_16*%
%TO.N,/IO15*%
X153720800Y-107553600D03*
%TO.P,J12,17,Pin_17*%
%TO.N,unconnected-(J12-Pin_17-Pad17)*%
X153720800Y-110093600D03*
%TO.P,J12,18,Pin_18*%
%TO.N,unconnected-(J12-Pin_18-Pad18)*%
X153720800Y-112633600D03*
%TO.P,J12,19,Pin_19*%
%TO.N,unconnected-(J12-Pin_19-Pad19)*%
X153720800Y-115173600D03*
%TD*%
D18*
%TO.N,+5V*%
X142488700Y-102288700D03*
X139000000Y-111700000D03*
X144500000Y-111500000D03*
%TO.N,GND*%
X126750000Y-68900000D03*
X138660200Y-76100000D03*
X137950000Y-76835200D03*
X137400000Y-91400000D03*
X137950000Y-75435200D03*
X136550000Y-78235200D03*
X137950000Y-78235200D03*
X137260200Y-76150000D03*
X137260200Y-77550000D03*
X135860200Y-77550000D03*
X135860200Y-76150000D03*
X135844400Y-108055600D03*
X136550000Y-75435200D03*
X138660200Y-77550000D03*
X136550000Y-76835200D03*
%TO.N,+3.3V*%
X134900000Y-93800000D03*
X144300000Y-93800000D03*
X141024283Y-96775500D03*
X126100000Y-103300000D03*
X167050000Y-109800000D03*
X167050000Y-120200000D03*
%TO.N,Net-(U2-DTR)*%
X134900000Y-98800000D03*
X149017100Y-103700000D03*
%TO.N,Net-(D1-K)*%
X146400000Y-109400000D03*
X135900000Y-100000000D03*
%TO.N,Net-(D2-K)*%
X145767100Y-110400000D03*
X140950000Y-97875000D03*
%TO.N,Net-(D3-A)*%
X145450000Y-119900000D03*
X168250000Y-106050000D03*
%TO.N,/EN*%
X127500000Y-71993600D03*
X129300000Y-111700000D03*
X130300000Y-99900000D03*
%TO.N,/IO13*%
X134200000Y-88600000D03*
%TO.N,/IO21*%
X169650000Y-108050000D03*
%TO.N,/IO18*%
X127700000Y-99800000D03*
%TO.N,/IO17*%
X136713000Y-89100000D03*
%TO.N,/IO16*%
X148700000Y-116100000D03*
%TO.N,/IO0*%
X129468100Y-99168100D03*
X144800000Y-88375500D03*
X147500000Y-86700000D03*
%TO.N,/IO2*%
X140800000Y-91300000D03*
%TO.N,/IO15*%
X141500000Y-88500000D03*
%TO.N,/RST*%
X135800000Y-104900000D03*
X148000000Y-104000000D03*
%TO.N,Net-(U2-TXD)*%
X149800000Y-103000000D03*
X131200000Y-93600000D03*
%TO.N,Net-(U2-RXD)*%
X127500000Y-93200000D03*
X147100000Y-103013200D03*
%TD*%
D19*
%TO.N,GND*%
X164500000Y-89516934D02*
X164500000Y-99676934D01*
X162206666Y-87223600D02*
X164500000Y-89516934D01*
X137400000Y-91400000D02*
X137400000Y-93825305D01*
X131964200Y-118764200D02*
X134440200Y-118764200D01*
X134440200Y-118764200D02*
X134440200Y-119314200D01*
X160722734Y-71968200D02*
X162130466Y-71968200D01*
X164500000Y-81947734D02*
X164500000Y-89516934D01*
X138700000Y-90100000D02*
X137400000Y-91400000D01*
X134440200Y-119314200D02*
X135090200Y-119964200D01*
X128751705Y-102473600D02*
X123240800Y-102473600D01*
X166869534Y-79578200D02*
X164500000Y-81947734D01*
X153720800Y-69453600D02*
X152545800Y-70628600D01*
X134440200Y-122944200D02*
X143080200Y-122944200D01*
X156235400Y-71968200D02*
X153720800Y-69453600D01*
X143080200Y-119319800D02*
X143080200Y-118764200D01*
X143080200Y-122944200D02*
X143080200Y-118764200D01*
X164500000Y-74337734D02*
X164500000Y-81947734D01*
X147550000Y-90100000D02*
X138700000Y-90100000D01*
X134440200Y-122944200D02*
X134440200Y-118764200D01*
X156250800Y-87223600D02*
X153720800Y-84693600D01*
X142435800Y-119964200D02*
X143080200Y-119319800D01*
X160722734Y-79588200D02*
X162140466Y-79588200D01*
X162140466Y-79588200D02*
X164500000Y-81947734D01*
X162130466Y-71968200D02*
X164500000Y-74337734D01*
X152545800Y-85104200D02*
X147550000Y-90100000D01*
X134440200Y-109459800D02*
X135844400Y-108055600D01*
X160646534Y-97383600D02*
X162206666Y-97383600D01*
X134440200Y-118764200D02*
X134440200Y-109459800D01*
X137400000Y-93825305D02*
X128751705Y-102473600D01*
X160646534Y-87223600D02*
X162206666Y-87223600D01*
X152545800Y-70628600D02*
X152545800Y-85104200D01*
X160722734Y-71968200D02*
X156235400Y-71968200D01*
X135090200Y-119964200D02*
X142435800Y-119964200D01*
X160646534Y-87223600D02*
X156250800Y-87223600D01*
X166793334Y-87223600D02*
X164500000Y-89516934D01*
X162206666Y-97383600D02*
X164500000Y-99676934D01*
X124415800Y-111215800D02*
X131964200Y-118764200D01*
X164500000Y-99676934D02*
X166793334Y-97383600D01*
X124415800Y-103648600D02*
X124415800Y-111215800D01*
X166869534Y-71968200D02*
X164500000Y-74337734D01*
X123240800Y-102473600D02*
X124415800Y-103648600D01*
%TO.N,+3.3V*%
X141024283Y-96775500D02*
X140999783Y-96800000D01*
X140999783Y-96800000D02*
X135874695Y-96800000D01*
X135874695Y-96800000D02*
X129374695Y-103300000D01*
X129374695Y-103300000D02*
X126100000Y-103300000D01*
X167050000Y-109800000D02*
X167050000Y-120200000D01*
%TO.N,Net-(U2-DTR)*%
X144117100Y-98800000D02*
X134900000Y-98800000D01*
X149017100Y-103700000D02*
X144117100Y-98800000D01*
%TO.N,Net-(D1-K)*%
X135900000Y-100000000D02*
X135900000Y-101874695D01*
X143425305Y-109400000D02*
X146400000Y-109400000D01*
X135900000Y-101874695D02*
X143425305Y-109400000D01*
%TO.N,Net-(D3-A)*%
X154400000Y-119900000D02*
X145450000Y-119900000D01*
X168250000Y-106050000D02*
X154400000Y-119900000D01*
%TO.N,/IO16*%
X150600000Y-100514400D02*
X153720800Y-97393600D01*
X150600000Y-114200000D02*
X150600000Y-100514400D01*
X148700000Y-116100000D02*
X150600000Y-114200000D01*
%TO.N,/RST*%
X135624695Y-99250000D02*
X135100000Y-99774695D01*
X135100000Y-104200000D02*
X135800000Y-104900000D01*
X136175305Y-99250000D02*
X135624695Y-99250000D01*
X140925305Y-104000000D02*
X136175305Y-99250000D01*
X135100000Y-99774695D02*
X135100000Y-104200000D01*
X148000000Y-104000000D02*
X140925305Y-104000000D01*
%TD*%
%TA.AperFunction,Conductor*%
%TO.N,GND*%
G36*
X127538000Y-60416613D02*
G01*
X127583387Y-60462000D01*
X127600000Y-60524000D01*
X127600000Y-68100000D01*
X149500000Y-68100000D01*
X149500000Y-66624999D01*
X186969389Y-66624999D01*
X186989804Y-66910429D01*
X187050629Y-67190041D01*
X187150634Y-67458163D01*
X187287772Y-67709313D01*
X187373517Y-67823855D01*
X187459261Y-67938395D01*
X187661605Y-68140739D01*
X187833415Y-68269354D01*
X187890686Y-68312227D01*
X188030435Y-68388535D01*
X188141839Y-68449367D01*
X188409954Y-68549369D01*
X188409957Y-68549369D01*
X188409958Y-68549370D01*
X188462217Y-68560738D01*
X188689572Y-68610196D01*
X188953012Y-68629037D01*
X188974999Y-68630610D01*
X188974999Y-68630609D01*
X188975000Y-68630610D01*
X189260428Y-68610196D01*
X189540046Y-68549369D01*
X189808161Y-68449367D01*
X190059315Y-68312226D01*
X190288395Y-68140739D01*
X190490739Y-67938395D01*
X190662226Y-67709315D01*
X190799367Y-67458161D01*
X190899369Y-67190046D01*
X190960196Y-66910428D01*
X190980610Y-66625000D01*
X190960196Y-66339572D01*
X190899369Y-66059954D01*
X190799367Y-65791839D01*
X190662226Y-65540685D01*
X190490739Y-65311605D01*
X190288395Y-65109261D01*
X190173855Y-65023517D01*
X190059313Y-64937772D01*
X189808163Y-64800634D01*
X189808162Y-64800633D01*
X189808161Y-64800633D01*
X189540046Y-64700631D01*
X189540041Y-64700629D01*
X189260429Y-64639804D01*
X188975000Y-64619389D01*
X188689570Y-64639804D01*
X188409958Y-64700629D01*
X188141836Y-64800634D01*
X187890686Y-64937772D01*
X187661602Y-65109263D01*
X187459263Y-65311602D01*
X187287772Y-65540686D01*
X187150634Y-65791836D01*
X187050629Y-66059958D01*
X186989804Y-66339570D01*
X186969389Y-66624999D01*
X149500000Y-66624999D01*
X149500000Y-60573860D01*
X149516589Y-60511900D01*
X149561919Y-60466520D01*
X149623860Y-60449860D01*
X158780526Y-60439501D01*
X193575861Y-60400140D01*
X193637919Y-60416706D01*
X193683364Y-60462100D01*
X193700000Y-60524140D01*
X193700000Y-125876000D01*
X193683387Y-125938000D01*
X193638000Y-125983387D01*
X193576000Y-126000000D01*
X121224000Y-126000000D01*
X121162000Y-125983387D01*
X121116613Y-125938000D01*
X121100000Y-125876000D01*
X121100000Y-123194200D01*
X133440200Y-123194200D01*
X133440200Y-123394910D01*
X133455619Y-123546539D01*
X133516503Y-123740589D01*
X133615203Y-123918414D01*
X133747679Y-124072731D01*
X133908507Y-124197221D01*
X134091105Y-124286789D01*
X134190199Y-124312446D01*
X134190200Y-124312446D01*
X134190200Y-123194200D01*
X134690200Y-123194200D01*
X134690200Y-124317566D01*
X134692148Y-124317267D01*
X134882863Y-124246635D01*
X135055463Y-124139054D01*
X135202869Y-123998933D01*
X135319055Y-123832005D01*
X135399259Y-123645107D01*
X135440200Y-123445889D01*
X135440200Y-123194200D01*
X142080200Y-123194200D01*
X142080200Y-123394910D01*
X142095619Y-123546539D01*
X142156503Y-123740589D01*
X142255203Y-123918414D01*
X142387679Y-124072731D01*
X142548507Y-124197221D01*
X142731105Y-124286789D01*
X142830199Y-124312446D01*
X142830200Y-124312447D01*
X142830200Y-123194200D01*
X143330200Y-123194200D01*
X143330200Y-124317566D01*
X143332148Y-124317267D01*
X143522863Y-124246635D01*
X143695463Y-124139054D01*
X143842869Y-123998933D01*
X143959055Y-123832005D01*
X144039259Y-123645107D01*
X144080200Y-123445889D01*
X144080200Y-123194200D01*
X143330200Y-123194200D01*
X142830200Y-123194200D01*
X142080200Y-123194200D01*
X135440200Y-123194200D01*
X134690200Y-123194200D01*
X134190200Y-123194200D01*
X133440200Y-123194200D01*
X121100000Y-123194200D01*
X121100000Y-123098069D01*
X171395700Y-123098069D01*
X171402109Y-123157683D01*
X171452404Y-123292531D01*
X171538654Y-123407746D01*
X171653869Y-123493996D01*
X171788717Y-123544291D01*
X171848327Y-123550700D01*
X173744072Y-123550699D01*
X173803683Y-123544291D01*
X173938531Y-123493996D01*
X174053746Y-123407746D01*
X174139996Y-123292531D01*
X174190291Y-123157683D01*
X174196700Y-123098073D01*
X174196699Y-122250200D01*
X179110731Y-122250200D01*
X179130564Y-122476889D01*
X179189461Y-122696697D01*
X179285632Y-122902935D01*
X179416153Y-123089340D01*
X179577059Y-123250246D01*
X179763464Y-123380767D01*
X179763465Y-123380767D01*
X179763466Y-123380768D01*
X179969704Y-123476939D01*
X180189508Y-123535835D01*
X180416200Y-123555668D01*
X180642892Y-123535835D01*
X180862696Y-123476939D01*
X181068934Y-123380768D01*
X181255339Y-123250247D01*
X181416247Y-123089339D01*
X181546768Y-122902934D01*
X181642939Y-122696696D01*
X181701835Y-122476892D01*
X181721668Y-122250200D01*
X184190731Y-122250200D01*
X184210564Y-122476889D01*
X184269461Y-122696697D01*
X184365632Y-122902935D01*
X184496153Y-123089340D01*
X184657059Y-123250246D01*
X184843464Y-123380767D01*
X184843465Y-123380767D01*
X184843466Y-123380768D01*
X185049704Y-123476939D01*
X185269508Y-123535835D01*
X185496200Y-123555668D01*
X185722892Y-123535835D01*
X185942696Y-123476939D01*
X186148934Y-123380768D01*
X186335339Y-123250247D01*
X186496247Y-123089339D01*
X186626768Y-122902934D01*
X186722939Y-122696696D01*
X186781835Y-122476892D01*
X186801668Y-122250200D01*
X189270731Y-122250200D01*
X189290564Y-122476889D01*
X189349461Y-122696697D01*
X189445632Y-122902935D01*
X189576153Y-123089340D01*
X189737059Y-123250246D01*
X189923464Y-123380767D01*
X189923465Y-123380767D01*
X189923466Y-123380768D01*
X190129704Y-123476939D01*
X190349508Y-123535835D01*
X190576200Y-123555668D01*
X190802892Y-123535835D01*
X191022696Y-123476939D01*
X191228934Y-123380768D01*
X191415339Y-123250247D01*
X191576247Y-123089339D01*
X191706768Y-122902934D01*
X191802939Y-122696696D01*
X191861835Y-122476892D01*
X191881668Y-122250200D01*
X191861835Y-122023508D01*
X191802939Y-121803704D01*
X191706768Y-121597466D01*
X191688120Y-121570834D01*
X191576246Y-121411059D01*
X191415340Y-121250153D01*
X191228935Y-121119632D01*
X191022697Y-121023461D01*
X190802889Y-120964564D01*
X190576200Y-120944731D01*
X190349510Y-120964564D01*
X190129702Y-121023461D01*
X189923464Y-121119632D01*
X189737059Y-121250153D01*
X189576153Y-121411059D01*
X189445632Y-121597464D01*
X189349461Y-121803702D01*
X189290564Y-122023510D01*
X189270731Y-122250200D01*
X186801668Y-122250200D01*
X186781835Y-122023508D01*
X186722939Y-121803704D01*
X186626768Y-121597466D01*
X186608120Y-121570834D01*
X186496246Y-121411059D01*
X186335340Y-121250153D01*
X186148935Y-121119632D01*
X185942697Y-121023461D01*
X185722889Y-120964564D01*
X185496200Y-120944731D01*
X185269510Y-120964564D01*
X185049702Y-121023461D01*
X184843464Y-121119632D01*
X184657059Y-121250153D01*
X184496153Y-121411059D01*
X184365632Y-121597464D01*
X184269461Y-121803702D01*
X184210564Y-122023510D01*
X184190731Y-122250200D01*
X181721668Y-122250200D01*
X181701835Y-122023508D01*
X181642939Y-121803704D01*
X181546768Y-121597466D01*
X181528120Y-121570834D01*
X181416246Y-121411059D01*
X181255340Y-121250153D01*
X181068935Y-121119632D01*
X180862697Y-121023461D01*
X180642889Y-120964564D01*
X180416200Y-120944731D01*
X180189510Y-120964564D01*
X179969702Y-121023461D01*
X179763464Y-121119632D01*
X179577059Y-121250153D01*
X179416153Y-121411059D01*
X179285632Y-121597464D01*
X179189461Y-121803702D01*
X179130564Y-122023510D01*
X179110731Y-122250200D01*
X174196699Y-122250200D01*
X174196699Y-121402328D01*
X174190291Y-121342717D01*
X174139996Y-121207869D01*
X174053746Y-121092654D01*
X173938531Y-121006404D01*
X173803683Y-120956109D01*
X173744073Y-120949700D01*
X173744069Y-120949700D01*
X171848330Y-120949700D01*
X171788715Y-120956109D01*
X171653869Y-121006404D01*
X171538654Y-121092654D01*
X171452404Y-121207868D01*
X171402109Y-121342716D01*
X171395700Y-121402330D01*
X171395700Y-123098069D01*
X121100000Y-123098069D01*
X121100000Y-122694200D01*
X133440200Y-122694200D01*
X134190200Y-122694200D01*
X134190200Y-121575953D01*
X134690200Y-121575953D01*
X134690200Y-122694200D01*
X135440200Y-122694200D01*
X142080200Y-122694200D01*
X142830200Y-122694200D01*
X142830200Y-121575953D01*
X143330200Y-121575953D01*
X143330200Y-122694200D01*
X144080200Y-122694200D01*
X144080200Y-122493490D01*
X144064780Y-122341860D01*
X144003896Y-122147810D01*
X143905196Y-121969985D01*
X143772720Y-121815668D01*
X143611892Y-121691178D01*
X143429294Y-121601610D01*
X143330200Y-121575953D01*
X142830200Y-121575953D01*
X142830200Y-121570834D01*
X142828251Y-121571132D01*
X142637536Y-121641764D01*
X142464936Y-121749345D01*
X142317530Y-121889466D01*
X142201344Y-122056394D01*
X142121140Y-122243292D01*
X142080200Y-122442511D01*
X142080200Y-122694200D01*
X135440200Y-122694200D01*
X135440200Y-122493490D01*
X135424780Y-122341860D01*
X135363896Y-122147810D01*
X135265196Y-121969985D01*
X135132720Y-121815668D01*
X134971892Y-121691178D01*
X134789294Y-121601610D01*
X134690200Y-121575953D01*
X134190200Y-121575953D01*
X134190200Y-121570834D01*
X134188251Y-121571132D01*
X133997536Y-121641764D01*
X133824936Y-121749345D01*
X133677530Y-121889466D01*
X133561344Y-122056394D01*
X133481140Y-122243292D01*
X133440200Y-122442511D01*
X133440200Y-122694200D01*
X121100000Y-122694200D01*
X121100000Y-119014200D01*
X133440200Y-119014200D01*
X133440200Y-119364910D01*
X133455619Y-119516539D01*
X133516503Y-119710589D01*
X133615203Y-119888414D01*
X133747679Y-120042731D01*
X133908507Y-120167221D01*
X134091105Y-120256789D01*
X134190199Y-120282446D01*
X134190200Y-120282446D01*
X134190200Y-119014200D01*
X133440200Y-119014200D01*
X121100000Y-119014200D01*
X121100000Y-118514200D01*
X133440200Y-118514200D01*
X134190200Y-118514200D01*
X134190200Y-117245953D01*
X134690200Y-117245953D01*
X134690200Y-120287566D01*
X134692148Y-120287267D01*
X134882863Y-120216635D01*
X135055463Y-120109054D01*
X135202869Y-119968933D01*
X135319056Y-119802004D01*
X135332122Y-119771557D01*
X135365203Y-119726456D01*
X135414738Y-119700480D01*
X135470649Y-119698916D01*
X135521558Y-119722079D01*
X135579967Y-119766898D01*
X135719963Y-119824886D01*
X135719964Y-119824887D01*
X135832479Y-119839700D01*
X135832480Y-119839700D01*
X135907920Y-119839700D01*
X135907921Y-119839700D01*
X135964177Y-119832293D01*
X136020436Y-119824887D01*
X136160433Y-119766898D01*
X136280651Y-119674651D01*
X136372898Y-119554433D01*
X136430887Y-119414436D01*
X136450666Y-119264200D01*
X136450666Y-119264199D01*
X141069733Y-119264199D01*
X141089512Y-119414435D01*
X141138092Y-119531715D01*
X141147502Y-119554433D01*
X141239749Y-119674651D01*
X141359967Y-119766898D01*
X141499963Y-119824886D01*
X141499964Y-119824887D01*
X141612479Y-119839700D01*
X141612480Y-119839700D01*
X141687920Y-119839700D01*
X141687921Y-119839700D01*
X141744177Y-119832293D01*
X141800436Y-119824887D01*
X141940433Y-119766898D01*
X141999780Y-119721358D01*
X142047616Y-119698858D01*
X142100481Y-119698327D01*
X142148762Y-119719866D01*
X142183683Y-119759559D01*
X142255203Y-119888414D01*
X142387679Y-120042731D01*
X142548507Y-120167221D01*
X142731105Y-120256789D01*
X142830199Y-120282446D01*
X142830200Y-120282447D01*
X142830200Y-119014200D01*
X143330200Y-119014200D01*
X143330200Y-120287566D01*
X143332148Y-120287267D01*
X143522863Y-120216635D01*
X143695463Y-120109054D01*
X143842869Y-119968933D01*
X143890849Y-119899999D01*
X144544540Y-119899999D01*
X144564326Y-120088257D01*
X144622820Y-120268284D01*
X144717466Y-120432216D01*
X144844129Y-120572889D01*
X144997269Y-120684151D01*
X145170197Y-120761144D01*
X145355352Y-120800500D01*
X145355354Y-120800500D01*
X145544646Y-120800500D01*
X145544648Y-120800500D01*
X145668083Y-120774262D01*
X145729803Y-120761144D01*
X145902730Y-120684151D01*
X146055871Y-120572888D01*
X146061598Y-120566526D01*
X146103312Y-120536220D01*
X146153747Y-120525500D01*
X154317256Y-120525500D01*
X154337762Y-120527764D01*
X154340665Y-120527672D01*
X154340667Y-120527673D01*
X154407872Y-120525561D01*
X154411768Y-120525500D01*
X154439349Y-120525500D01*
X154439350Y-120525500D01*
X154443319Y-120524998D01*
X154454965Y-120524080D01*
X154498627Y-120522709D01*
X154517859Y-120517120D01*
X154536918Y-120513174D01*
X154543196Y-120512381D01*
X154556792Y-120510664D01*
X154597407Y-120494582D01*
X154608444Y-120490803D01*
X154650390Y-120478618D01*
X154667629Y-120468422D01*
X154685102Y-120459862D01*
X154703732Y-120452486D01*
X154739064Y-120426814D01*
X154748830Y-120420400D01*
X154786418Y-120398171D01*
X154786417Y-120398171D01*
X154786420Y-120398170D01*
X154800585Y-120384004D01*
X154815373Y-120371373D01*
X154831587Y-120359594D01*
X154859438Y-120325926D01*
X154867279Y-120317309D01*
X154984589Y-120199999D01*
X166144540Y-120199999D01*
X166164326Y-120388257D01*
X166222820Y-120568284D01*
X166317466Y-120732216D01*
X166444129Y-120872889D01*
X166597269Y-120984151D01*
X166770197Y-121061144D01*
X166955352Y-121100500D01*
X166955354Y-121100500D01*
X167144646Y-121100500D01*
X167144648Y-121100500D01*
X167268083Y-121074262D01*
X167329803Y-121061144D01*
X167502730Y-120984151D01*
X167655871Y-120872888D01*
X167782533Y-120732216D01*
X167877179Y-120568284D01*
X167935674Y-120388256D01*
X167955460Y-120200000D01*
X167935674Y-120011744D01*
X167899366Y-119899999D01*
X167877179Y-119831715D01*
X167782535Y-119667786D01*
X167735102Y-119615107D01*
X167707347Y-119584282D01*
X167683736Y-119545751D01*
X167675500Y-119501313D01*
X167675500Y-114630200D01*
X171490731Y-114630200D01*
X171510564Y-114856889D01*
X171569461Y-115076697D01*
X171665632Y-115282935D01*
X171796153Y-115469340D01*
X171957059Y-115630246D01*
X172143464Y-115760767D01*
X172143465Y-115760767D01*
X172143466Y-115760768D01*
X172349704Y-115856939D01*
X172569508Y-115915835D01*
X172796200Y-115935668D01*
X173022892Y-115915835D01*
X173242696Y-115856939D01*
X173448934Y-115760768D01*
X173635339Y-115630247D01*
X173796247Y-115469339D01*
X173926768Y-115282934D01*
X174022939Y-115076696D01*
X174081835Y-114856892D01*
X174101668Y-114630200D01*
X179110731Y-114630200D01*
X179130564Y-114856889D01*
X179189461Y-115076697D01*
X179285632Y-115282935D01*
X179416153Y-115469340D01*
X179577059Y-115630246D01*
X179763464Y-115760767D01*
X179763465Y-115760767D01*
X179763466Y-115760768D01*
X179969704Y-115856939D01*
X180189508Y-115915835D01*
X180416200Y-115935668D01*
X180642892Y-115915835D01*
X180862696Y-115856939D01*
X181068934Y-115760768D01*
X181255339Y-115630247D01*
X181416247Y-115469339D01*
X181546768Y-115282934D01*
X181642939Y-115076696D01*
X181701835Y-114856892D01*
X181721668Y-114630200D01*
X184190731Y-114630200D01*
X184210564Y-114856889D01*
X184269461Y-115076697D01*
X184365632Y-115282935D01*
X184496153Y-115469340D01*
X184657059Y-115630246D01*
X184843464Y-115760767D01*
X184843465Y-115760767D01*
X184843466Y-115760768D01*
X185049704Y-115856939D01*
X185269508Y-115915835D01*
X185496200Y-115935668D01*
X185722892Y-115915835D01*
X185942696Y-115856939D01*
X186148934Y-115760768D01*
X186335339Y-115630247D01*
X186496247Y-115469339D01*
X186626768Y-115282934D01*
X186722939Y-115076696D01*
X186781835Y-114856892D01*
X186801668Y-114630200D01*
X189270731Y-114630200D01*
X189290564Y-114856889D01*
X189349461Y-115076697D01*
X189445632Y-115282935D01*
X189576153Y-115469340D01*
X189737059Y-115630246D01*
X189923464Y-115760767D01*
X189923465Y-115760767D01*
X189923466Y-115760768D01*
X190129704Y-115856939D01*
X190349508Y-115915835D01*
X190576200Y-115935668D01*
X190802892Y-115915835D01*
X191022696Y-115856939D01*
X191228934Y-115760768D01*
X191415339Y-115630247D01*
X191576247Y-115469339D01*
X191706768Y-115282934D01*
X191802939Y-115076696D01*
X191861835Y-114856892D01*
X191881668Y-114630200D01*
X191861835Y-114403508D01*
X191802939Y-114183704D01*
X191706768Y-113977466D01*
X191695138Y-113960857D01*
X191576246Y-113791059D01*
X191415340Y-113630153D01*
X191228935Y-113499632D01*
X191022697Y-113403461D01*
X190802889Y-113344564D01*
X190576200Y-113324731D01*
X190349510Y-113344564D01*
X190129702Y-113403461D01*
X189923464Y-113499632D01*
X189737059Y-113630153D01*
X189576153Y-113791059D01*
X189445632Y-113977464D01*
X189349461Y-114183702D01*
X189290564Y-114403510D01*
X189270731Y-114630200D01*
X186801668Y-114630200D01*
X186781835Y-114403508D01*
X186722939Y-114183704D01*
X186626768Y-113977466D01*
X186615138Y-113960857D01*
X186496246Y-113791059D01*
X186335340Y-113630153D01*
X186148935Y-113499632D01*
X185942697Y-113403461D01*
X185722889Y-113344564D01*
X185496200Y-113324731D01*
X185269510Y-113344564D01*
X185049702Y-113403461D01*
X184843464Y-113499632D01*
X184657059Y-113630153D01*
X184496153Y-113791059D01*
X184365632Y-113977464D01*
X184269461Y-114183702D01*
X184210564Y-114403510D01*
X184190731Y-114630200D01*
X181721668Y-114630200D01*
X181701835Y-114403508D01*
X181642939Y-114183704D01*
X181546768Y-113977466D01*
X181535138Y-113960857D01*
X181416246Y-113791059D01*
X181255340Y-113630153D01*
X181068935Y-113499632D01*
X180862697Y-113403461D01*
X180642889Y-113344564D01*
X180416200Y-113324731D01*
X180189510Y-113344564D01*
X179969702Y-113403461D01*
X179763464Y-113499632D01*
X179577059Y-113630153D01*
X179416153Y-113791059D01*
X179285632Y-113977464D01*
X179189461Y-114183702D01*
X179130564Y-114403510D01*
X179110731Y-114630200D01*
X174101668Y-114630200D01*
X174081835Y-114403508D01*
X174022939Y-114183704D01*
X173926768Y-113977466D01*
X173915138Y-113960857D01*
X173796246Y-113791059D01*
X173635340Y-113630153D01*
X173448935Y-113499632D01*
X173242697Y-113403461D01*
X173022889Y-113344564D01*
X172796200Y-113324731D01*
X172569510Y-113344564D01*
X172349702Y-113403461D01*
X172143464Y-113499632D01*
X171957059Y-113630153D01*
X171796153Y-113791059D01*
X171665632Y-113977464D01*
X171569461Y-114183702D01*
X171510564Y-114403510D01*
X171490731Y-114630200D01*
X167675500Y-114630200D01*
X167675500Y-110498687D01*
X167683736Y-110454249D01*
X167707347Y-110415717D01*
X167782533Y-110332216D01*
X167796081Y-110308751D01*
X167877179Y-110168284D01*
X167901445Y-110093600D01*
X167935674Y-109988256D01*
X167955460Y-109800000D01*
X167935674Y-109611744D01*
X167902822Y-109510638D01*
X167877179Y-109431715D01*
X167782533Y-109267783D01*
X167660065Y-109131769D01*
X171442800Y-109131769D01*
X171449209Y-109191384D01*
X171474356Y-109258807D01*
X171499504Y-109326231D01*
X171585754Y-109441446D01*
X171700969Y-109527696D01*
X171835817Y-109577991D01*
X171895427Y-109584400D01*
X173791172Y-109584399D01*
X173850783Y-109577991D01*
X173985631Y-109527696D01*
X174100846Y-109441446D01*
X174187096Y-109326231D01*
X174237391Y-109191383D01*
X174243800Y-109131773D01*
X174243799Y-108283899D01*
X179157831Y-108283899D01*
X179177664Y-108510589D01*
X179236561Y-108730397D01*
X179332732Y-108936635D01*
X179463253Y-109123040D01*
X179624159Y-109283946D01*
X179810564Y-109414467D01*
X179810565Y-109414467D01*
X179810566Y-109414468D01*
X180016804Y-109510639D01*
X180236608Y-109569535D01*
X180463300Y-109589368D01*
X180689992Y-109569535D01*
X180909796Y-109510639D01*
X181116034Y-109414468D01*
X181302439Y-109283947D01*
X181463347Y-109123039D01*
X181593868Y-108936634D01*
X181690039Y-108730396D01*
X181748935Y-108510592D01*
X181768768Y-108283900D01*
X181768768Y-108283899D01*
X184237831Y-108283899D01*
X184257664Y-108510589D01*
X184316561Y-108730397D01*
X184412732Y-108936635D01*
X184543253Y-109123040D01*
X184704159Y-109283946D01*
X184890564Y-109414467D01*
X184890565Y-109414467D01*
X184890566Y-109414468D01*
X185096804Y-109510639D01*
X185316608Y-109569535D01*
X185543300Y-109589368D01*
X185769992Y-109569535D01*
X185989796Y-109510639D01*
X186196034Y-109414468D01*
X186382439Y-109283947D01*
X186543347Y-109123039D01*
X186673868Y-108936634D01*
X186770039Y-108730396D01*
X186828935Y-108510592D01*
X186848768Y-108283900D01*
X186848768Y-108283899D01*
X189317831Y-108283899D01*
X189337664Y-108510589D01*
X189396561Y-108730397D01*
X189492732Y-108936635D01*
X189623253Y-109123040D01*
X189784159Y-109283946D01*
X189970564Y-109414467D01*
X189970565Y-109414467D01*
X189970566Y-109414468D01*
X190176804Y-109510639D01*
X190396608Y-109569535D01*
X190623300Y-109589368D01*
X190849992Y-109569535D01*
X191069796Y-109510639D01*
X191276034Y-109414468D01*
X191462439Y-109283947D01*
X191623347Y-109123039D01*
X191753868Y-108936634D01*
X191850039Y-108730396D01*
X191908935Y-108510592D01*
X191928768Y-108283900D01*
X191908935Y-108057208D01*
X191850039Y-107837404D01*
X191753868Y-107631166D01*
X191699556Y-107553600D01*
X191623346Y-107444759D01*
X191462440Y-107283853D01*
X191276035Y-107153332D01*
X191069797Y-107057161D01*
X190849989Y-106998264D01*
X190623300Y-106978431D01*
X190396610Y-106998264D01*
X190176802Y-107057161D01*
X189970564Y-107153332D01*
X189784159Y-107283853D01*
X189623253Y-107444759D01*
X189492732Y-107631164D01*
X189396561Y-107837402D01*
X189337664Y-108057210D01*
X189317831Y-108283899D01*
X186848768Y-108283899D01*
X186828935Y-108057208D01*
X186770039Y-107837404D01*
X186673868Y-107631166D01*
X186619556Y-107553600D01*
X186543346Y-107444759D01*
X186382440Y-107283853D01*
X186196035Y-107153332D01*
X185989797Y-107057161D01*
X185769989Y-106998264D01*
X185543300Y-106978431D01*
X185316610Y-106998264D01*
X185096802Y-107057161D01*
X184890564Y-107153332D01*
X184704159Y-107283853D01*
X184543253Y-107444759D01*
X184412732Y-107631164D01*
X184316561Y-107837402D01*
X184257664Y-108057210D01*
X184237831Y-108283899D01*
X181768768Y-108283899D01*
X181748935Y-108057208D01*
X181690039Y-107837404D01*
X181593868Y-107631166D01*
X181539556Y-107553600D01*
X181463346Y-107444759D01*
X181302440Y-107283853D01*
X181116035Y-107153332D01*
X180909797Y-107057161D01*
X180689989Y-106998264D01*
X180463300Y-106978431D01*
X180236610Y-106998264D01*
X180016802Y-107057161D01*
X179810564Y-107153332D01*
X179624159Y-107283853D01*
X179463253Y-107444759D01*
X179332732Y-107631164D01*
X179236561Y-107837402D01*
X179177664Y-108057210D01*
X179157831Y-108283899D01*
X174243799Y-108283899D01*
X174243799Y-107436028D01*
X174237391Y-107376417D01*
X174187096Y-107241569D01*
X174100846Y-107126354D01*
X173985631Y-107040104D01*
X173850783Y-106989809D01*
X173791173Y-106983400D01*
X173791169Y-106983400D01*
X171895430Y-106983400D01*
X171835815Y-106989809D01*
X171700969Y-107040104D01*
X171585754Y-107126354D01*
X171499504Y-107241568D01*
X171449209Y-107376416D01*
X171442800Y-107436030D01*
X171442800Y-109131769D01*
X167660065Y-109131769D01*
X167655870Y-109127110D01*
X167502730Y-109015848D01*
X167329802Y-108938855D01*
X167144648Y-108899500D01*
X167144646Y-108899500D01*
X166955354Y-108899500D01*
X166955352Y-108899500D01*
X166770197Y-108938855D01*
X166597269Y-109015848D01*
X166444129Y-109127110D01*
X166317466Y-109267783D01*
X166222820Y-109431715D01*
X166164326Y-109611742D01*
X166144540Y-109800000D01*
X166164326Y-109988257D01*
X166222820Y-110168284D01*
X166317464Y-110332213D01*
X166317467Y-110332216D01*
X166392652Y-110415717D01*
X166416264Y-110454249D01*
X166424500Y-110498687D01*
X166424500Y-119501313D01*
X166416264Y-119545751D01*
X166392652Y-119584282D01*
X166364898Y-119615107D01*
X166317464Y-119667786D01*
X166222820Y-119831715D01*
X166164326Y-120011742D01*
X166144540Y-120199999D01*
X154984589Y-120199999D01*
X167134590Y-108050000D01*
X168744540Y-108050000D01*
X168764326Y-108238257D01*
X168822820Y-108418284D01*
X168917466Y-108582216D01*
X169044129Y-108722889D01*
X169197269Y-108834151D01*
X169370197Y-108911144D01*
X169555352Y-108950500D01*
X169555354Y-108950500D01*
X169744646Y-108950500D01*
X169744648Y-108950500D01*
X169890185Y-108919565D01*
X169929803Y-108911144D01*
X170102730Y-108834151D01*
X170234822Y-108738181D01*
X170255870Y-108722889D01*
X170382533Y-108582216D01*
X170477179Y-108418284D01*
X170520843Y-108283900D01*
X170535674Y-108238256D01*
X170555460Y-108050000D01*
X170535674Y-107861744D01*
X170477179Y-107681716D01*
X170477179Y-107681715D01*
X170382533Y-107517783D01*
X170255870Y-107377110D01*
X170102730Y-107265848D01*
X169929802Y-107188855D01*
X169744648Y-107149500D01*
X169744646Y-107149500D01*
X169555354Y-107149500D01*
X169555352Y-107149500D01*
X169370197Y-107188855D01*
X169197269Y-107265848D01*
X169044129Y-107377110D01*
X168917466Y-107517783D01*
X168822820Y-107681715D01*
X168764326Y-107861742D01*
X168744540Y-108050000D01*
X167134590Y-108050000D01*
X168197771Y-106986819D01*
X168238000Y-106959939D01*
X168285453Y-106950500D01*
X168344648Y-106950500D01*
X168468084Y-106924262D01*
X168529803Y-106911144D01*
X168702730Y-106834151D01*
X168855871Y-106722888D01*
X168982533Y-106582216D01*
X169077179Y-106418284D01*
X169135674Y-106238256D01*
X169155460Y-106050000D01*
X169135674Y-105861744D01*
X169102987Y-105761144D01*
X169077179Y-105681715D01*
X168982533Y-105517783D01*
X168855870Y-105377110D01*
X168702730Y-105265848D01*
X168529802Y-105188855D01*
X168344648Y-105149500D01*
X168344646Y-105149500D01*
X168155354Y-105149500D01*
X168155352Y-105149500D01*
X167970197Y-105188855D01*
X167797269Y-105265848D01*
X167644129Y-105377110D01*
X167517466Y-105517783D01*
X167422820Y-105681715D01*
X167364326Y-105861742D01*
X167346678Y-106029651D01*
X167335277Y-106070073D01*
X167311038Y-106104370D01*
X154177228Y-119238181D01*
X154137000Y-119265061D01*
X154089547Y-119274500D01*
X146153747Y-119274500D01*
X146103312Y-119263780D01*
X146061598Y-119233473D01*
X146055871Y-119227112D01*
X145902730Y-119115849D01*
X145902729Y-119115848D01*
X145902727Y-119115847D01*
X145729802Y-119038855D01*
X145544648Y-118999500D01*
X145544646Y-118999500D01*
X145355354Y-118999500D01*
X145355352Y-118999500D01*
X145170197Y-119038855D01*
X144997269Y-119115848D01*
X144844129Y-119227110D01*
X144717466Y-119367783D01*
X144622820Y-119531715D01*
X144564326Y-119711742D01*
X144544540Y-119899999D01*
X143890849Y-119899999D01*
X143959055Y-119802005D01*
X144039259Y-119615107D01*
X144080200Y-119415889D01*
X144080200Y-119014200D01*
X143330200Y-119014200D01*
X142830200Y-119014200D01*
X142830200Y-117245953D01*
X143330200Y-117245953D01*
X143330200Y-118514200D01*
X144080200Y-118514200D01*
X144080200Y-118163490D01*
X144064780Y-118011860D01*
X144003896Y-117817810D01*
X143905196Y-117639985D01*
X143772720Y-117485668D01*
X143611892Y-117361178D01*
X143429294Y-117271610D01*
X143330200Y-117245953D01*
X142830200Y-117245953D01*
X142830200Y-117240834D01*
X142828251Y-117241132D01*
X142637536Y-117311764D01*
X142464936Y-117419345D01*
X142317530Y-117559466D01*
X142201344Y-117726394D01*
X142121140Y-117913292D01*
X142080200Y-118112511D01*
X142080200Y-118633816D01*
X142065558Y-118692269D01*
X142025091Y-118736918D01*
X141968354Y-118757219D01*
X141908747Y-118748377D01*
X141800435Y-118703512D01*
X141687921Y-118688700D01*
X141687920Y-118688700D01*
X141612480Y-118688700D01*
X141612479Y-118688700D01*
X141499964Y-118703512D01*
X141359968Y-118761501D01*
X141239749Y-118853749D01*
X141147501Y-118973968D01*
X141089512Y-119113964D01*
X141069733Y-119264199D01*
X136450666Y-119264199D01*
X136430887Y-119113964D01*
X136372898Y-118973967D01*
X136280651Y-118853749D01*
X136160433Y-118761502D01*
X136128747Y-118748377D01*
X136020435Y-118703512D01*
X135907921Y-118688700D01*
X135907920Y-118688700D01*
X135832480Y-118688700D01*
X135832479Y-118688700D01*
X135719964Y-118703512D01*
X135611653Y-118748377D01*
X135552046Y-118757219D01*
X135495309Y-118736918D01*
X135454842Y-118692269D01*
X135440200Y-118633816D01*
X135440200Y-118163490D01*
X135424780Y-118011860D01*
X135363896Y-117817810D01*
X135265196Y-117639985D01*
X135132720Y-117485668D01*
X134971892Y-117361178D01*
X134789294Y-117271610D01*
X134690200Y-117245953D01*
X134190200Y-117245953D01*
X134190200Y-117240834D01*
X134188251Y-117241132D01*
X133997536Y-117311764D01*
X133824936Y-117419345D01*
X133677530Y-117559466D01*
X133561344Y-117726394D01*
X133481140Y-117913292D01*
X133440200Y-118112511D01*
X133440200Y-118514200D01*
X121100000Y-118514200D01*
X121100000Y-115173599D01*
X121885140Y-115173599D01*
X121905736Y-115409007D01*
X121948280Y-115567783D01*
X121966897Y-115637263D01*
X122066765Y-115851430D01*
X122202305Y-116045001D01*
X122369399Y-116212095D01*
X122562970Y-116347635D01*
X122777137Y-116447503D01*
X123005392Y-116508663D01*
X123240800Y-116529259D01*
X123476208Y-116508663D01*
X123704463Y-116447503D01*
X123918630Y-116347635D01*
X124112201Y-116212095D01*
X124279295Y-116045001D01*
X124414835Y-115851430D01*
X124514703Y-115637263D01*
X124575863Y-115409008D01*
X124596459Y-115173600D01*
X124595547Y-115163181D01*
X124575863Y-114938192D01*
X124554078Y-114856889D01*
X124514703Y-114709937D01*
X124414835Y-114495771D01*
X124279295Y-114302199D01*
X124112201Y-114135105D01*
X123926639Y-114005173D01*
X123887775Y-113960857D01*
X123873764Y-113903600D01*
X123887775Y-113846343D01*
X123926639Y-113802026D01*
X124112201Y-113672095D01*
X124279295Y-113505001D01*
X124414835Y-113311430D01*
X124514703Y-113097263D01*
X124575863Y-112869008D01*
X124596459Y-112633600D01*
X124575863Y-112398192D01*
X124514703Y-112169937D01*
X124414835Y-111955771D01*
X124279295Y-111762199D01*
X124217095Y-111699999D01*
X128394540Y-111699999D01*
X128414326Y-111888257D01*
X128472820Y-112068284D01*
X128567466Y-112232216D01*
X128694129Y-112372889D01*
X128847269Y-112484151D01*
X129020197Y-112561144D01*
X129205352Y-112600500D01*
X129205354Y-112600500D01*
X129394646Y-112600500D01*
X129394648Y-112600500D01*
X129518083Y-112574262D01*
X129579803Y-112561144D01*
X129752730Y-112484151D01*
X129905871Y-112372888D01*
X130032533Y-112232216D01*
X130127179Y-112068284D01*
X130185674Y-111888256D01*
X130205460Y-111700000D01*
X130205460Y-111699999D01*
X138094540Y-111699999D01*
X138114326Y-111888257D01*
X138172820Y-112068284D01*
X138267466Y-112232216D01*
X138394129Y-112372889D01*
X138547269Y-112484151D01*
X138720197Y-112561144D01*
X138905352Y-112600500D01*
X138905354Y-112600500D01*
X139094646Y-112600500D01*
X139094648Y-112600500D01*
X139218083Y-112574262D01*
X139279803Y-112561144D01*
X139452730Y-112484151D01*
X139605871Y-112372888D01*
X139732533Y-112232216D01*
X139827179Y-112068284D01*
X139885674Y-111888256D01*
X139905460Y-111700000D01*
X139885674Y-111511744D01*
X139837539Y-111363600D01*
X139827179Y-111331715D01*
X139732533Y-111167783D01*
X139605870Y-111027110D01*
X139452730Y-110915848D01*
X139279802Y-110838855D01*
X139094648Y-110799500D01*
X139094646Y-110799500D01*
X138905354Y-110799500D01*
X138905352Y-110799500D01*
X138720197Y-110838855D01*
X138547269Y-110915848D01*
X138394129Y-111027110D01*
X138267466Y-111167783D01*
X138172820Y-111331715D01*
X138114326Y-111511742D01*
X138094540Y-111699999D01*
X130205460Y-111699999D01*
X130185674Y-111511744D01*
X130137539Y-111363600D01*
X130127179Y-111331715D01*
X130032533Y-111167783D01*
X129905870Y-111027110D01*
X129752730Y-110915848D01*
X129579802Y-110838855D01*
X129394648Y-110799500D01*
X129394646Y-110799500D01*
X129205354Y-110799500D01*
X129205352Y-110799500D01*
X129020197Y-110838855D01*
X128847269Y-110915848D01*
X128694129Y-111027110D01*
X128567466Y-111167783D01*
X128472820Y-111331715D01*
X128414326Y-111511742D01*
X128394540Y-111699999D01*
X124217095Y-111699999D01*
X124112201Y-111595105D01*
X123926639Y-111465173D01*
X123887774Y-111420855D01*
X123873764Y-111363599D01*
X123887775Y-111306342D01*
X123926637Y-111262028D01*
X124112201Y-111132095D01*
X124279295Y-110965001D01*
X124414835Y-110771430D01*
X124514703Y-110557263D01*
X124575863Y-110329008D01*
X124596459Y-110093600D01*
X124575863Y-109858192D01*
X124514703Y-109629937D01*
X124414835Y-109415771D01*
X124279295Y-109222199D01*
X124112201Y-109055105D01*
X123926639Y-108925173D01*
X123887775Y-108880857D01*
X123873764Y-108823600D01*
X123887775Y-108766343D01*
X123926639Y-108722026D01*
X124112201Y-108592095D01*
X124279295Y-108425001D01*
X124414835Y-108231430D01*
X124514703Y-108017263D01*
X124575863Y-107789008D01*
X124596459Y-107553600D01*
X124575863Y-107318192D01*
X124514703Y-107089937D01*
X124414835Y-106875771D01*
X124279295Y-106682199D01*
X124112201Y-106515105D01*
X123926639Y-106385173D01*
X123887775Y-106340857D01*
X123873764Y-106283600D01*
X123887775Y-106226343D01*
X123926639Y-106182026D01*
X124112201Y-106052095D01*
X124279295Y-105885001D01*
X124414835Y-105691430D01*
X124514703Y-105477263D01*
X124575863Y-105249008D01*
X124596459Y-105013600D01*
X124575863Y-104778192D01*
X124514703Y-104549937D01*
X124414835Y-104335771D01*
X124279295Y-104142199D01*
X124112201Y-103975105D01*
X123926202Y-103844867D01*
X123887339Y-103800551D01*
X123873328Y-103743294D01*
X123887339Y-103686037D01*
X123926205Y-103641719D01*
X124111878Y-103511709D01*
X124278906Y-103344681D01*
X124310192Y-103300000D01*
X125194540Y-103300000D01*
X125214326Y-103488257D01*
X125272820Y-103668284D01*
X125367466Y-103832216D01*
X125494129Y-103972889D01*
X125647269Y-104084151D01*
X125820197Y-104161144D01*
X126005352Y-104200500D01*
X126005354Y-104200500D01*
X126194646Y-104200500D01*
X126194648Y-104200500D01*
X126318083Y-104174262D01*
X126379803Y-104161144D01*
X126552730Y-104084151D01*
X126705871Y-103972888D01*
X126711598Y-103966526D01*
X126753312Y-103936220D01*
X126803747Y-103925500D01*
X129291951Y-103925500D01*
X129312457Y-103927764D01*
X129315360Y-103927672D01*
X129315362Y-103927673D01*
X129382567Y-103925561D01*
X129386463Y-103925500D01*
X129414044Y-103925500D01*
X129414045Y-103925500D01*
X129418014Y-103924998D01*
X129429660Y-103924080D01*
X129473322Y-103922709D01*
X129492554Y-103917120D01*
X129511613Y-103913174D01*
X129517891Y-103912381D01*
X129531487Y-103910664D01*
X129572102Y-103894582D01*
X129583139Y-103890803D01*
X129625085Y-103878618D01*
X129642324Y-103868422D01*
X129659797Y-103859862D01*
X129678427Y-103852486D01*
X129713759Y-103826814D01*
X129723525Y-103820400D01*
X129761113Y-103798171D01*
X129761112Y-103798171D01*
X129761115Y-103798170D01*
X129775280Y-103784004D01*
X129790068Y-103771373D01*
X129806282Y-103759594D01*
X129834133Y-103725926D01*
X129841974Y-103717309D01*
X134103311Y-99455973D01*
X134160992Y-99423339D01*
X134227244Y-99425074D01*
X134283138Y-99460682D01*
X134294129Y-99472888D01*
X134294132Y-99472890D01*
X134426175Y-99568825D01*
X134459354Y-99604905D01*
X134475959Y-99651024D01*
X134474441Y-99680012D01*
X134474500Y-99680012D01*
X134474500Y-99715711D01*
X134472973Y-99735110D01*
X134470976Y-99747721D01*
X134469840Y-99754891D01*
X134472999Y-99788313D01*
X134473950Y-99798370D01*
X134474500Y-99810039D01*
X134474500Y-104117256D01*
X134472235Y-104137762D01*
X134474439Y-104207873D01*
X134474500Y-104211768D01*
X134474500Y-104239349D01*
X134475003Y-104243334D01*
X134475918Y-104254967D01*
X134477290Y-104298626D01*
X134482879Y-104317860D01*
X134486825Y-104336916D01*
X134489335Y-104356792D01*
X134505414Y-104397404D01*
X134509197Y-104408451D01*
X134521382Y-104450391D01*
X134531580Y-104467635D01*
X134540136Y-104485100D01*
X134547514Y-104503732D01*
X134547515Y-104503733D01*
X134573180Y-104539059D01*
X134579593Y-104548822D01*
X134601826Y-104586416D01*
X134601829Y-104586419D01*
X134601830Y-104586420D01*
X134615995Y-104600585D01*
X134628627Y-104615375D01*
X134640406Y-104631588D01*
X134674058Y-104659427D01*
X134682698Y-104667289D01*
X134861038Y-104845629D01*
X134885277Y-104879926D01*
X134896678Y-104920348D01*
X134914326Y-105088257D01*
X134972820Y-105268284D01*
X135067466Y-105432216D01*
X135194129Y-105572889D01*
X135347269Y-105684151D01*
X135520197Y-105761144D01*
X135705352Y-105800500D01*
X135705354Y-105800500D01*
X135894646Y-105800500D01*
X135894648Y-105800500D01*
X136018083Y-105774262D01*
X136079803Y-105761144D01*
X136252730Y-105684151D01*
X136405871Y-105572888D01*
X136532533Y-105432216D01*
X136627179Y-105268284D01*
X136685674Y-105088256D01*
X136705460Y-104900000D01*
X136685674Y-104711744D01*
X136649528Y-104600500D01*
X136627179Y-104531715D01*
X136532533Y-104367783D01*
X136405870Y-104227110D01*
X136252730Y-104115848D01*
X136079802Y-104038855D01*
X135894648Y-103999500D01*
X135894646Y-103999500D01*
X135849500Y-103999500D01*
X135787500Y-103982887D01*
X135742113Y-103937500D01*
X135725500Y-103875500D01*
X135725500Y-102884147D01*
X135739015Y-102827852D01*
X135776615Y-102783829D01*
X135830102Y-102761674D01*
X135887818Y-102766216D01*
X135937180Y-102796465D01*
X139481571Y-106340857D01*
X142924501Y-109783787D01*
X142937401Y-109799888D01*
X142988528Y-109847900D01*
X142991324Y-109850610D01*
X143010834Y-109870120D01*
X143014016Y-109872588D01*
X143022876Y-109880155D01*
X143054723Y-109910062D01*
X143072275Y-109919711D01*
X143088543Y-109930397D01*
X143104369Y-109942673D01*
X143144451Y-109960017D01*
X143154938Y-109965155D01*
X143193212Y-109986197D01*
X143201232Y-109988256D01*
X143212613Y-109991178D01*
X143231018Y-109997478D01*
X143249409Y-110005437D01*
X143292555Y-110012270D01*
X143303973Y-110014635D01*
X143346286Y-110025500D01*
X143366321Y-110025500D01*
X143385720Y-110027027D01*
X143405501Y-110030160D01*
X143448979Y-110026050D01*
X143460649Y-110025500D01*
X144771269Y-110025500D01*
X144827564Y-110039015D01*
X144871587Y-110076614D01*
X144893742Y-110130101D01*
X144889200Y-110187817D01*
X144881426Y-110211740D01*
X144861640Y-110400000D01*
X144871348Y-110492370D01*
X144863791Y-110549769D01*
X144830999Y-110597481D01*
X144780121Y-110625106D01*
X144722247Y-110626621D01*
X144594649Y-110599500D01*
X144594646Y-110599500D01*
X144405354Y-110599500D01*
X144405352Y-110599500D01*
X144220197Y-110638855D01*
X144047269Y-110715848D01*
X143894129Y-110827110D01*
X143767466Y-110967783D01*
X143672820Y-111131715D01*
X143614326Y-111311742D01*
X143594540Y-111499999D01*
X143614326Y-111688257D01*
X143672820Y-111868284D01*
X143767466Y-112032216D01*
X143894129Y-112172889D01*
X144047269Y-112284151D01*
X144220197Y-112361144D01*
X144405352Y-112400500D01*
X144405354Y-112400500D01*
X144594646Y-112400500D01*
X144594648Y-112400500D01*
X144724551Y-112372888D01*
X144779803Y-112361144D01*
X144952730Y-112284151D01*
X145105871Y-112172888D01*
X145232533Y-112032216D01*
X145327179Y-111868284D01*
X145385674Y-111688256D01*
X145405460Y-111500000D01*
X145395751Y-111407626D01*
X145403308Y-111350231D01*
X145436100Y-111302518D01*
X145486978Y-111274893D01*
X145544853Y-111273378D01*
X145672452Y-111300500D01*
X145672454Y-111300500D01*
X145861746Y-111300500D01*
X145861748Y-111300500D01*
X145989346Y-111273378D01*
X146046903Y-111261144D01*
X146219830Y-111184151D01*
X146372971Y-111072888D01*
X146499633Y-110932216D01*
X146594279Y-110768284D01*
X146652774Y-110588256D01*
X146672560Y-110400000D01*
X146668358Y-110360025D01*
X146673748Y-110308751D01*
X146699529Y-110264096D01*
X146741242Y-110233788D01*
X146852730Y-110184151D01*
X146852730Y-110184150D01*
X146852732Y-110184150D01*
X147005870Y-110072889D01*
X147042943Y-110031716D01*
X147132533Y-109932216D01*
X147227179Y-109768284D01*
X147285674Y-109588256D01*
X147305460Y-109400000D01*
X147285674Y-109211744D01*
X147227179Y-109031716D01*
X147227179Y-109031715D01*
X147132533Y-108867783D01*
X147005870Y-108727110D01*
X146852730Y-108615848D01*
X146679802Y-108538855D01*
X146494648Y-108499500D01*
X146494646Y-108499500D01*
X146305354Y-108499500D01*
X146305352Y-108499500D01*
X146120197Y-108538855D01*
X145947272Y-108615847D01*
X145845176Y-108690024D01*
X145794129Y-108727112D01*
X145788401Y-108733473D01*
X145746688Y-108763780D01*
X145696253Y-108774500D01*
X143735758Y-108774500D01*
X143688305Y-108765061D01*
X143648077Y-108738181D01*
X136561819Y-101651923D01*
X136534939Y-101611695D01*
X136525500Y-101564242D01*
X136525500Y-100784147D01*
X136539015Y-100727852D01*
X136576615Y-100683829D01*
X136630102Y-100661674D01*
X136687818Y-100666216D01*
X136737180Y-100696465D01*
X138620865Y-102580151D01*
X140424501Y-104383787D01*
X140437401Y-104399888D01*
X140488528Y-104447900D01*
X140491324Y-104450610D01*
X140510834Y-104470120D01*
X140514016Y-104472588D01*
X140522876Y-104480155D01*
X140547982Y-104503732D01*
X140554723Y-104510062D01*
X140572275Y-104519711D01*
X140588543Y-104530397D01*
X140593152Y-104533972D01*
X140604369Y-104542673D01*
X140644451Y-104560017D01*
X140654938Y-104565155D01*
X140693212Y-104586197D01*
X140701715Y-104588379D01*
X140712613Y-104591178D01*
X140731018Y-104597478D01*
X140749409Y-104605437D01*
X140792555Y-104612270D01*
X140803973Y-104614635D01*
X140846286Y-104625500D01*
X140866321Y-104625500D01*
X140885720Y-104627027D01*
X140905501Y-104630160D01*
X140948979Y-104626050D01*
X140960649Y-104625500D01*
X147296253Y-104625500D01*
X147346688Y-104636220D01*
X147388401Y-104666526D01*
X147394129Y-104672888D01*
X147547270Y-104784151D01*
X147547271Y-104784151D01*
X147547272Y-104784152D01*
X147720197Y-104861144D01*
X147905352Y-104900500D01*
X147905354Y-104900500D01*
X148094646Y-104900500D01*
X148094648Y-104900500D01*
X148218084Y-104874262D01*
X148279803Y-104861144D01*
X148452730Y-104784151D01*
X148605871Y-104672888D01*
X148663532Y-104608848D01*
X148717363Y-104573890D01*
X148781460Y-104570531D01*
X148878592Y-104591177D01*
X148922453Y-104600500D01*
X148922454Y-104600500D01*
X149111746Y-104600500D01*
X149111748Y-104600500D01*
X149252740Y-104570531D01*
X149296903Y-104561144D01*
X149469830Y-104484151D01*
X149517900Y-104449226D01*
X149622970Y-104372889D01*
X149627568Y-104367783D01*
X149739622Y-104243334D01*
X149758350Y-104222535D01*
X149807277Y-104189284D01*
X149866041Y-104182485D01*
X149921269Y-104203685D01*
X149960389Y-104248058D01*
X149974500Y-104305507D01*
X149974500Y-113889548D01*
X149965061Y-113937001D01*
X149938181Y-113977229D01*
X148752228Y-115163181D01*
X148712000Y-115190061D01*
X148664547Y-115199500D01*
X148605352Y-115199500D01*
X148420197Y-115238855D01*
X148247269Y-115315848D01*
X148094129Y-115427110D01*
X147967466Y-115567783D01*
X147872820Y-115731715D01*
X147814326Y-115911742D01*
X147794540Y-116099999D01*
X147814326Y-116288257D01*
X147872820Y-116468284D01*
X147967466Y-116632216D01*
X148094129Y-116772889D01*
X148247269Y-116884151D01*
X148420197Y-116961144D01*
X148605352Y-117000500D01*
X148605354Y-117000500D01*
X148794646Y-117000500D01*
X148794648Y-117000500D01*
X148918083Y-116974262D01*
X148979803Y-116961144D01*
X149152730Y-116884151D01*
X149305871Y-116772888D01*
X149432533Y-116632216D01*
X149527179Y-116468284D01*
X149585674Y-116288256D01*
X149603321Y-116120344D01*
X149614721Y-116079925D01*
X149638958Y-116045630D01*
X150983786Y-114700802D01*
X150999887Y-114687904D01*
X151001874Y-114685787D01*
X151001877Y-114685786D01*
X151047932Y-114636741D01*
X151050613Y-114633976D01*
X151054389Y-114630200D01*
X151070120Y-114614470D01*
X151072581Y-114611295D01*
X151080152Y-114602431D01*
X151110062Y-114570582D01*
X151119713Y-114553026D01*
X151130393Y-114536767D01*
X151142674Y-114520936D01*
X151160018Y-114480851D01*
X151165160Y-114470356D01*
X151186197Y-114432092D01*
X151191178Y-114412688D01*
X151197480Y-114394283D01*
X151205438Y-114375895D01*
X151212270Y-114332748D01*
X151214639Y-114321316D01*
X151225500Y-114279020D01*
X151225500Y-114258984D01*
X151227027Y-114239585D01*
X151230160Y-114219804D01*
X151226050Y-114176325D01*
X151225500Y-114164656D01*
X151225500Y-100824852D01*
X151234939Y-100777399D01*
X151261819Y-100737171D01*
X151462982Y-100536008D01*
X152152994Y-99845994D01*
X152213834Y-99812616D01*
X152283083Y-99817155D01*
X152339049Y-99858190D01*
X152364201Y-99922869D01*
X152385736Y-100169007D01*
X152416095Y-100282307D01*
X152446897Y-100397263D01*
X152546765Y-100611430D01*
X152682305Y-100805001D01*
X152849399Y-100972095D01*
X153034960Y-101102026D01*
X153073824Y-101146343D01*
X153087835Y-101203600D01*
X153073824Y-101260857D01*
X153034959Y-101305175D01*
X152849395Y-101435108D01*
X152682305Y-101602198D01*
X152546765Y-101795770D01*
X152446897Y-102009936D01*
X152385736Y-102238192D01*
X152365140Y-102473599D01*
X152385736Y-102709007D01*
X152417581Y-102827852D01*
X152446897Y-102937263D01*
X152546765Y-103151430D01*
X152682305Y-103345001D01*
X152849399Y-103512095D01*
X153034960Y-103642026D01*
X153073824Y-103686343D01*
X153087835Y-103743600D01*
X153073824Y-103800857D01*
X153034958Y-103845175D01*
X152861649Y-103966528D01*
X152849395Y-103975108D01*
X152682305Y-104142198D01*
X152546765Y-104335770D01*
X152446897Y-104549936D01*
X152385736Y-104778192D01*
X152365140Y-105013600D01*
X152385736Y-105249007D01*
X152420061Y-105377110D01*
X152446897Y-105477263D01*
X152546765Y-105691430D01*
X152682305Y-105885001D01*
X152849399Y-106052095D01*
X153034960Y-106182026D01*
X153073824Y-106226343D01*
X153087835Y-106283600D01*
X153073824Y-106340857D01*
X153034959Y-106385175D01*
X152849395Y-106515108D01*
X152682305Y-106682198D01*
X152546765Y-106875770D01*
X152446897Y-107089936D01*
X152385736Y-107318192D01*
X152365140Y-107553599D01*
X152385736Y-107789007D01*
X152405226Y-107861744D01*
X152446897Y-108017263D01*
X152546765Y-108231430D01*
X152682305Y-108425001D01*
X152849399Y-108592095D01*
X153034960Y-108722026D01*
X153073824Y-108766343D01*
X153087835Y-108823600D01*
X153073824Y-108880857D01*
X153034959Y-108925175D01*
X152849395Y-109055108D01*
X152682305Y-109222198D01*
X152546765Y-109415770D01*
X152446897Y-109629936D01*
X152385736Y-109858192D01*
X152365140Y-110093600D01*
X152385736Y-110329007D01*
X152418448Y-110451088D01*
X152446897Y-110557263D01*
X152546765Y-110771430D01*
X152682305Y-110965001D01*
X152849399Y-111132095D01*
X153034960Y-111262026D01*
X153073824Y-111306343D01*
X153087835Y-111363600D01*
X153073824Y-111420857D01*
X153034959Y-111465175D01*
X152849395Y-111595108D01*
X152682305Y-111762198D01*
X152546765Y-111955770D01*
X152446897Y-112169936D01*
X152385736Y-112398192D01*
X152365140Y-112633599D01*
X152385736Y-112869007D01*
X152430509Y-113036102D01*
X152446897Y-113097263D01*
X152546765Y-113311430D01*
X152682305Y-113505001D01*
X152849399Y-113672095D01*
X153034960Y-113802026D01*
X153073824Y-113846343D01*
X153087835Y-113903600D01*
X153073824Y-113960857D01*
X153034959Y-114005175D01*
X152849395Y-114135108D01*
X152682305Y-114302198D01*
X152546765Y-114495770D01*
X152446897Y-114709936D01*
X152385736Y-114938192D01*
X152365140Y-115173600D01*
X152385736Y-115409007D01*
X152428280Y-115567783D01*
X152446897Y-115637263D01*
X152546765Y-115851430D01*
X152682305Y-116045001D01*
X152849399Y-116212095D01*
X153042970Y-116347635D01*
X153257137Y-116447503D01*
X153485392Y-116508663D01*
X153720800Y-116529259D01*
X153956208Y-116508663D01*
X154184463Y-116447503D01*
X154398630Y-116347635D01*
X154592201Y-116212095D01*
X154759295Y-116045001D01*
X154894835Y-115851430D01*
X154994703Y-115637263D01*
X155055863Y-115409008D01*
X155076459Y-115173600D01*
X155055863Y-114938192D01*
X154994703Y-114709937D01*
X154894835Y-114495771D01*
X154759295Y-114302199D01*
X154592201Y-114135105D01*
X154406639Y-114005173D01*
X154367775Y-113960857D01*
X154353764Y-113903600D01*
X154367775Y-113846343D01*
X154406639Y-113802026D01*
X154592201Y-113672095D01*
X154759295Y-113505001D01*
X154894835Y-113311430D01*
X154994703Y-113097263D01*
X155055863Y-112869008D01*
X155076459Y-112633600D01*
X155055863Y-112398192D01*
X154994703Y-112169937D01*
X154894835Y-111955771D01*
X154759295Y-111762199D01*
X154592201Y-111595105D01*
X154406639Y-111465173D01*
X154367774Y-111420855D01*
X154353764Y-111363599D01*
X154367775Y-111306342D01*
X154406637Y-111262028D01*
X154592201Y-111132095D01*
X154759295Y-110965001D01*
X154894835Y-110771430D01*
X154994703Y-110557263D01*
X155055863Y-110329008D01*
X155076459Y-110093600D01*
X155055863Y-109858192D01*
X154994703Y-109629937D01*
X154894835Y-109415771D01*
X154759295Y-109222199D01*
X154592201Y-109055105D01*
X154406639Y-108925173D01*
X154367775Y-108880857D01*
X154353764Y-108823600D01*
X154367775Y-108766343D01*
X154406639Y-108722026D01*
X154592201Y-108592095D01*
X154759295Y-108425001D01*
X154894835Y-108231430D01*
X154994703Y-108017263D01*
X155055863Y-107789008D01*
X155076459Y-107553600D01*
X155073325Y-107517784D01*
X155055863Y-107318192D01*
X155041838Y-107265849D01*
X154994703Y-107089937D01*
X154894835Y-106875771D01*
X154759295Y-106682199D01*
X154592201Y-106515105D01*
X154406639Y-106385173D01*
X154367775Y-106340857D01*
X154353764Y-106283600D01*
X154367775Y-106226343D01*
X154406639Y-106182026D01*
X154592201Y-106052095D01*
X154759295Y-105885001D01*
X154894835Y-105691430D01*
X154994703Y-105477263D01*
X155055863Y-105249008D01*
X155076459Y-105013600D01*
X155055863Y-104778192D01*
X154994703Y-104549937D01*
X154894835Y-104335771D01*
X154759295Y-104142199D01*
X154592201Y-103975105D01*
X154406639Y-103845173D01*
X154367775Y-103800857D01*
X154353764Y-103743600D01*
X154367775Y-103686343D01*
X154406639Y-103642026D01*
X154592201Y-103512095D01*
X154759295Y-103345001D01*
X154894835Y-103151430D01*
X154994703Y-102937263D01*
X155055863Y-102709008D01*
X155076459Y-102473600D01*
X155063642Y-102327110D01*
X155055863Y-102238192D01*
X155024294Y-102120374D01*
X154994703Y-102009937D01*
X154894835Y-101795771D01*
X154759295Y-101602199D01*
X154592201Y-101435105D01*
X154406639Y-101305173D01*
X154367774Y-101260855D01*
X154353764Y-101203599D01*
X154367775Y-101146342D01*
X154406637Y-101102028D01*
X154592201Y-100972095D01*
X154759295Y-100805001D01*
X154894835Y-100611430D01*
X154994703Y-100397263D01*
X155055863Y-100169008D01*
X155076459Y-99933600D01*
X155075584Y-99923599D01*
X159290874Y-99923599D01*
X159311470Y-100159007D01*
X159331446Y-100233558D01*
X159372631Y-100387263D01*
X159472499Y-100601430D01*
X159608039Y-100795001D01*
X159775133Y-100962095D01*
X159968704Y-101097635D01*
X160182871Y-101197503D01*
X160411126Y-101258663D01*
X160646534Y-101279259D01*
X160881942Y-101258663D01*
X161110197Y-101197503D01*
X161324364Y-101097635D01*
X161517935Y-100962095D01*
X161685029Y-100795001D01*
X161820569Y-100601430D01*
X161920437Y-100387263D01*
X161981597Y-100159008D01*
X162002193Y-99923600D01*
X162002193Y-99923599D01*
X165437674Y-99923599D01*
X165458270Y-100159007D01*
X165478246Y-100233558D01*
X165519431Y-100387263D01*
X165619299Y-100601430D01*
X165754839Y-100795001D01*
X165921933Y-100962095D01*
X166115504Y-101097635D01*
X166329671Y-101197503D01*
X166557926Y-101258663D01*
X166793334Y-101279259D01*
X167028742Y-101258663D01*
X167256997Y-101197503D01*
X167471164Y-101097635D01*
X167664735Y-100962095D01*
X167831829Y-100795001D01*
X167923628Y-100663899D01*
X171537831Y-100663899D01*
X171557664Y-100890589D01*
X171616561Y-101110397D01*
X171712732Y-101316635D01*
X171843253Y-101503040D01*
X172004159Y-101663946D01*
X172190564Y-101794467D01*
X172190565Y-101794467D01*
X172190566Y-101794468D01*
X172396804Y-101890639D01*
X172616608Y-101949535D01*
X172843300Y-101969368D01*
X173069992Y-101949535D01*
X173289796Y-101890639D01*
X173496034Y-101794468D01*
X173682439Y-101663947D01*
X173843347Y-101503039D01*
X173973868Y-101316634D01*
X174070039Y-101110396D01*
X174128935Y-100890592D01*
X174148768Y-100663900D01*
X174148768Y-100663899D01*
X179157831Y-100663899D01*
X179177664Y-100890589D01*
X179236561Y-101110397D01*
X179332732Y-101316635D01*
X179463253Y-101503040D01*
X179624159Y-101663946D01*
X179810564Y-101794467D01*
X179810565Y-101794467D01*
X179810566Y-101794468D01*
X180016804Y-101890639D01*
X180236608Y-101949535D01*
X180463300Y-101969368D01*
X180689992Y-101949535D01*
X180909796Y-101890639D01*
X181116034Y-101794468D01*
X181302439Y-101663947D01*
X181463347Y-101503039D01*
X181593868Y-101316634D01*
X181690039Y-101110396D01*
X181748935Y-100890592D01*
X181768768Y-100663900D01*
X181768768Y-100663899D01*
X184237831Y-100663899D01*
X184257664Y-100890589D01*
X184316561Y-101110397D01*
X184412732Y-101316635D01*
X184543253Y-101503040D01*
X184704159Y-101663946D01*
X184890564Y-101794467D01*
X184890565Y-101794467D01*
X184890566Y-101794468D01*
X185096804Y-101890639D01*
X185316608Y-101949535D01*
X185543300Y-101969368D01*
X185769992Y-101949535D01*
X185989796Y-101890639D01*
X186196034Y-101794468D01*
X186382439Y-101663947D01*
X186543347Y-101503039D01*
X186673868Y-101316634D01*
X186770039Y-101110396D01*
X186828935Y-100890592D01*
X186848768Y-100663900D01*
X186848768Y-100663899D01*
X189317831Y-100663899D01*
X189337664Y-100890589D01*
X189396561Y-101110397D01*
X189492732Y-101316635D01*
X189623253Y-101503040D01*
X189784159Y-101663946D01*
X189970564Y-101794467D01*
X189970565Y-101794467D01*
X189970566Y-101794468D01*
X190176804Y-101890639D01*
X190396608Y-101949535D01*
X190623300Y-101969368D01*
X190849992Y-101949535D01*
X191069796Y-101890639D01*
X191276034Y-101794468D01*
X191462439Y-101663947D01*
X191623347Y-101503039D01*
X191753868Y-101316634D01*
X191850039Y-101110396D01*
X191908935Y-100890592D01*
X191928768Y-100663900D01*
X191908935Y-100437208D01*
X191850039Y-100217404D01*
X191753868Y-100011166D01*
X191737826Y-99988256D01*
X191623346Y-99824759D01*
X191462440Y-99663853D01*
X191276035Y-99533332D01*
X191069797Y-99437161D01*
X190849989Y-99378264D01*
X190623300Y-99358431D01*
X190396610Y-99378264D01*
X190176802Y-99437161D01*
X189970564Y-99533332D01*
X189784159Y-99663853D01*
X189623253Y-99824759D01*
X189492732Y-100011164D01*
X189396561Y-100217402D01*
X189337664Y-100437210D01*
X189317831Y-100663899D01*
X186848768Y-100663899D01*
X186828935Y-100437208D01*
X186770039Y-100217404D01*
X186673868Y-100011166D01*
X186657826Y-99988256D01*
X186543346Y-99824759D01*
X186382440Y-99663853D01*
X186196035Y-99533332D01*
X185989797Y-99437161D01*
X185769989Y-99378264D01*
X185543300Y-99358431D01*
X185316610Y-99378264D01*
X185096802Y-99437161D01*
X184890564Y-99533332D01*
X184704159Y-99663853D01*
X184543253Y-99824759D01*
X184412732Y-100011164D01*
X184316561Y-100217402D01*
X184257664Y-100437210D01*
X184237831Y-100663899D01*
X181768768Y-100663899D01*
X181748935Y-100437208D01*
X181690039Y-100217404D01*
X181593868Y-100011166D01*
X181577826Y-99988256D01*
X181463346Y-99824759D01*
X181302440Y-99663853D01*
X181116035Y-99533332D01*
X180909797Y-99437161D01*
X180689989Y-99378264D01*
X180463300Y-99358431D01*
X180236610Y-99378264D01*
X180016802Y-99437161D01*
X179810564Y-99533332D01*
X179624159Y-99663853D01*
X179463253Y-99824759D01*
X179332732Y-100011164D01*
X179236561Y-100217402D01*
X179177664Y-100437210D01*
X179157831Y-100663899D01*
X174148768Y-100663899D01*
X174128935Y-100437208D01*
X174070039Y-100217404D01*
X173973868Y-100011166D01*
X173957826Y-99988256D01*
X173843346Y-99824759D01*
X173682440Y-99663853D01*
X173496035Y-99533332D01*
X173289797Y-99437161D01*
X173069989Y-99378264D01*
X172843300Y-99358431D01*
X172616610Y-99378264D01*
X172396802Y-99437161D01*
X172190564Y-99533332D01*
X172004159Y-99663853D01*
X171843253Y-99824759D01*
X171712732Y-100011164D01*
X171616561Y-100217402D01*
X171557664Y-100437210D01*
X171537831Y-100663899D01*
X167923628Y-100663899D01*
X167967369Y-100601430D01*
X168067237Y-100387263D01*
X168128397Y-100159008D01*
X168148993Y-99923600D01*
X168139057Y-99810039D01*
X168128397Y-99688192D01*
X168107913Y-99611744D01*
X168067237Y-99459937D01*
X167967369Y-99245771D01*
X167831829Y-99052199D01*
X167664735Y-98885105D01*
X167478736Y-98754867D01*
X167439873Y-98710551D01*
X167425862Y-98653294D01*
X167439873Y-98596037D01*
X167478739Y-98551719D01*
X167664412Y-98421709D01*
X167831440Y-98254681D01*
X167966934Y-98061176D01*
X168066764Y-97847092D01*
X168123970Y-97633600D01*
X165462698Y-97633600D01*
X165519903Y-97847092D01*
X165619733Y-98061176D01*
X165755227Y-98254681D01*
X165922252Y-98421706D01*
X166107929Y-98551719D01*
X166146794Y-98596037D01*
X166160805Y-98653294D01*
X166146794Y-98710551D01*
X166107929Y-98754869D01*
X165921929Y-98885108D01*
X165754839Y-99052198D01*
X165619299Y-99245770D01*
X165519431Y-99459936D01*
X165458270Y-99688192D01*
X165437674Y-99923599D01*
X162002193Y-99923599D01*
X161992257Y-99810039D01*
X161981597Y-99688192D01*
X161961113Y-99611744D01*
X161920437Y-99459937D01*
X161820569Y-99245771D01*
X161685029Y-99052199D01*
X161517935Y-98885105D01*
X161331936Y-98754867D01*
X161293073Y-98710551D01*
X161279062Y-98653294D01*
X161293073Y-98596037D01*
X161331939Y-98551719D01*
X161517612Y-98421709D01*
X161684640Y-98254681D01*
X161820134Y-98061176D01*
X161919964Y-97847092D01*
X161977170Y-97633600D01*
X159315898Y-97633600D01*
X159373103Y-97847092D01*
X159472933Y-98061176D01*
X159608427Y-98254681D01*
X159775452Y-98421706D01*
X159961129Y-98551719D01*
X159999994Y-98596037D01*
X160014005Y-98653294D01*
X159999994Y-98710551D01*
X159961129Y-98754869D01*
X159775129Y-98885108D01*
X159608039Y-99052198D01*
X159472499Y-99245770D01*
X159372631Y-99459936D01*
X159311470Y-99688192D01*
X159290874Y-99923599D01*
X155075584Y-99923599D01*
X155055863Y-99698192D01*
X154994703Y-99469937D01*
X154894835Y-99255771D01*
X154759295Y-99062199D01*
X154592201Y-98895105D01*
X154406639Y-98765173D01*
X154367774Y-98720855D01*
X154353764Y-98663599D01*
X154367775Y-98606342D01*
X154406637Y-98562028D01*
X154592201Y-98432095D01*
X154759295Y-98265001D01*
X154894835Y-98071430D01*
X154994703Y-97857263D01*
X155055863Y-97629008D01*
X155076459Y-97393600D01*
X155055863Y-97158192D01*
X154994703Y-96929937D01*
X154894835Y-96715771D01*
X154759295Y-96522199D01*
X154592201Y-96355105D01*
X154406639Y-96225173D01*
X154367774Y-96180855D01*
X154353764Y-96123599D01*
X154367775Y-96066342D01*
X154406637Y-96022028D01*
X154592201Y-95892095D01*
X154742827Y-95741469D01*
X159296034Y-95741469D01*
X159302443Y-95801083D01*
X159352738Y-95935931D01*
X159438988Y-96051146D01*
X159554203Y-96137396D01*
X159686132Y-96186602D01*
X159736512Y-96221581D01*
X159763965Y-96276425D01*
X159761776Y-96337718D01*
X159730481Y-96390465D01*
X159608422Y-96512524D01*
X159472934Y-96706021D01*
X159373103Y-96920107D01*
X159315898Y-97133599D01*
X159315898Y-97133600D01*
X161977170Y-97133600D01*
X161977169Y-97133599D01*
X161919964Y-96920107D01*
X161820133Y-96706021D01*
X161684643Y-96512521D01*
X161562587Y-96390465D01*
X161531291Y-96337719D01*
X161529102Y-96276426D01*
X161556555Y-96221581D01*
X161606932Y-96186603D01*
X161738865Y-96137396D01*
X161854080Y-96051146D01*
X161940330Y-95935931D01*
X161990625Y-95801083D01*
X161997034Y-95741473D01*
X161997034Y-95741469D01*
X165442834Y-95741469D01*
X165449243Y-95801083D01*
X165499538Y-95935931D01*
X165585788Y-96051146D01*
X165701003Y-96137396D01*
X165832932Y-96186602D01*
X165883312Y-96221581D01*
X165910765Y-96276425D01*
X165908576Y-96337718D01*
X165877281Y-96390465D01*
X165755222Y-96512524D01*
X165619734Y-96706021D01*
X165519903Y-96920107D01*
X165462698Y-97133599D01*
X165462698Y-97133600D01*
X168123970Y-97133600D01*
X168123969Y-97133599D01*
X168066764Y-96920107D01*
X167966933Y-96706021D01*
X167831443Y-96512521D01*
X167709387Y-96390465D01*
X167678091Y-96337719D01*
X167675902Y-96276426D01*
X167703355Y-96221581D01*
X167753732Y-96186603D01*
X167885665Y-96137396D01*
X168000880Y-96051146D01*
X168087130Y-95935931D01*
X168137425Y-95801083D01*
X168143834Y-95741473D01*
X168143833Y-93945728D01*
X168137425Y-93886117D01*
X168087130Y-93751269D01*
X168000880Y-93636054D01*
X167885665Y-93549804D01*
X167750817Y-93499509D01*
X167691207Y-93493100D01*
X167691203Y-93493100D01*
X165895464Y-93493100D01*
X165835849Y-93499509D01*
X165701003Y-93549804D01*
X165585788Y-93636054D01*
X165499538Y-93751268D01*
X165449243Y-93886116D01*
X165442834Y-93945730D01*
X165442834Y-95741469D01*
X161997034Y-95741469D01*
X161997033Y-93945728D01*
X161990625Y-93886117D01*
X161940330Y-93751269D01*
X161854080Y-93636054D01*
X161738865Y-93549804D01*
X161604017Y-93499509D01*
X161544407Y-93493100D01*
X161544403Y-93493100D01*
X159748664Y-93493100D01*
X159689049Y-93499509D01*
X159554203Y-93549804D01*
X159438988Y-93636054D01*
X159352738Y-93751268D01*
X159302443Y-93886116D01*
X159296034Y-93945730D01*
X159296034Y-95741469D01*
X154742827Y-95741469D01*
X154759295Y-95725001D01*
X154894835Y-95531430D01*
X154994703Y-95317263D01*
X155055863Y-95089008D01*
X155076459Y-94853600D01*
X155055863Y-94618192D01*
X154994703Y-94389937D01*
X154894835Y-94175771D01*
X154759295Y-93982199D01*
X154592201Y-93815105D01*
X154406639Y-93685173D01*
X154367775Y-93640857D01*
X154353764Y-93583600D01*
X154367775Y-93526343D01*
X154406639Y-93482026D01*
X154592201Y-93352095D01*
X154759295Y-93185001D01*
X154894835Y-92991430D01*
X154994703Y-92777263D01*
X155055863Y-92549008D01*
X155076459Y-92313600D01*
X155055863Y-92078192D01*
X154994703Y-91849937D01*
X154894835Y-91635771D01*
X154759295Y-91442199D01*
X154592201Y-91275105D01*
X154406639Y-91145173D01*
X154367775Y-91100857D01*
X154353764Y-91043600D01*
X154367775Y-90986343D01*
X154406639Y-90942026D01*
X154592201Y-90812095D01*
X154759295Y-90645001D01*
X154894835Y-90451430D01*
X154994703Y-90237263D01*
X155055863Y-90009008D01*
X155076459Y-89773600D01*
X155075584Y-89763599D01*
X159290874Y-89763599D01*
X159311470Y-89999007D01*
X159314150Y-90009007D01*
X159372631Y-90227263D01*
X159472499Y-90441430D01*
X159608039Y-90635001D01*
X159775133Y-90802095D01*
X159968704Y-90937635D01*
X160182871Y-91037503D01*
X160411126Y-91098663D01*
X160646533Y-91119259D01*
X160646533Y-91119258D01*
X160646534Y-91119259D01*
X160881942Y-91098663D01*
X161110197Y-91037503D01*
X161324364Y-90937635D01*
X161517935Y-90802095D01*
X161685029Y-90635001D01*
X161820569Y-90441430D01*
X161920437Y-90227263D01*
X161981597Y-89999008D01*
X162002193Y-89763600D01*
X162002193Y-89763599D01*
X165437674Y-89763599D01*
X165458270Y-89999007D01*
X165460950Y-90009007D01*
X165519431Y-90227263D01*
X165619299Y-90441430D01*
X165754839Y-90635001D01*
X165921933Y-90802095D01*
X166115504Y-90937635D01*
X166329671Y-91037503D01*
X166557926Y-91098663D01*
X166793333Y-91119259D01*
X166793333Y-91119258D01*
X166793334Y-91119259D01*
X167028742Y-91098663D01*
X167256997Y-91037503D01*
X167471164Y-90937635D01*
X167664735Y-90802095D01*
X167831829Y-90635001D01*
X167967369Y-90441430D01*
X168067237Y-90227263D01*
X168128397Y-89999008D01*
X168148993Y-89763600D01*
X168128397Y-89528192D01*
X168067237Y-89299937D01*
X168031299Y-89222869D01*
X186899500Y-89222869D01*
X186905909Y-89282484D01*
X186931056Y-89349906D01*
X186956204Y-89417331D01*
X187042454Y-89532546D01*
X187157669Y-89618796D01*
X187292517Y-89669091D01*
X187352127Y-89675500D01*
X190447872Y-89675499D01*
X190507483Y-89669091D01*
X190642331Y-89618796D01*
X190757546Y-89532546D01*
X190843796Y-89417331D01*
X190894091Y-89282483D01*
X190900500Y-89222873D01*
X190900499Y-86127128D01*
X190894091Y-86067517D01*
X190843796Y-85932669D01*
X190757546Y-85817454D01*
X190642331Y-85731204D01*
X190507483Y-85680909D01*
X190447873Y-85674500D01*
X190447869Y-85674500D01*
X187352130Y-85674500D01*
X187292515Y-85680909D01*
X187157669Y-85731204D01*
X187042454Y-85817454D01*
X186956204Y-85932668D01*
X186905909Y-86067516D01*
X186899500Y-86127130D01*
X186899500Y-89222869D01*
X168031299Y-89222869D01*
X167967369Y-89085771D01*
X167831829Y-88892199D01*
X167664735Y-88725105D01*
X167478736Y-88594867D01*
X167439873Y-88550551D01*
X167425862Y-88493294D01*
X167439873Y-88436037D01*
X167478739Y-88391719D01*
X167664412Y-88261709D01*
X167831440Y-88094681D01*
X167966934Y-87901176D01*
X168066764Y-87687092D01*
X168123970Y-87473600D01*
X165462698Y-87473600D01*
X165519903Y-87687092D01*
X165619733Y-87901176D01*
X165755227Y-88094681D01*
X165922252Y-88261706D01*
X166107929Y-88391719D01*
X166146794Y-88436037D01*
X166160805Y-88493294D01*
X166146794Y-88550551D01*
X166107929Y-88594869D01*
X165921929Y-88725108D01*
X165754839Y-88892198D01*
X165619299Y-89085770D01*
X165519431Y-89299936D01*
X165458270Y-89528192D01*
X165437674Y-89763599D01*
X162002193Y-89763599D01*
X161981597Y-89528192D01*
X161920437Y-89299937D01*
X161820569Y-89085771D01*
X161685029Y-88892199D01*
X161517935Y-88725105D01*
X161331936Y-88594867D01*
X161293073Y-88550551D01*
X161279062Y-88493294D01*
X161293073Y-88436037D01*
X161331939Y-88391719D01*
X161517612Y-88261709D01*
X161684640Y-88094681D01*
X161820134Y-87901176D01*
X161919964Y-87687092D01*
X161977170Y-87473600D01*
X159315898Y-87473600D01*
X159373103Y-87687092D01*
X159472933Y-87901176D01*
X159608427Y-88094681D01*
X159775452Y-88261706D01*
X159961129Y-88391719D01*
X159999994Y-88436037D01*
X160014005Y-88493294D01*
X159999994Y-88550551D01*
X159961129Y-88594869D01*
X159775129Y-88725108D01*
X159608039Y-88892198D01*
X159472499Y-89085770D01*
X159372631Y-89299936D01*
X159311470Y-89528192D01*
X159290874Y-89763599D01*
X155075584Y-89763599D01*
X155055863Y-89538192D01*
X154994703Y-89309937D01*
X154894835Y-89095771D01*
X154759295Y-88902199D01*
X154592201Y-88735105D01*
X154406639Y-88605173D01*
X154367776Y-88560857D01*
X154353765Y-88503600D01*
X154367776Y-88446343D01*
X154406639Y-88402026D01*
X154592201Y-88272095D01*
X154759295Y-88105001D01*
X154894835Y-87911430D01*
X154994703Y-87697263D01*
X155055863Y-87469008D01*
X155076459Y-87233600D01*
X155055863Y-86998192D01*
X154994703Y-86769937D01*
X154894835Y-86555771D01*
X154759295Y-86362199D01*
X154592201Y-86195105D01*
X154406202Y-86064867D01*
X154367339Y-86020551D01*
X154353328Y-85963294D01*
X154367339Y-85906037D01*
X154406205Y-85861719D01*
X154591878Y-85731709D01*
X154742118Y-85581469D01*
X159296034Y-85581469D01*
X159302443Y-85641083D01*
X159352738Y-85775931D01*
X159438988Y-85891146D01*
X159554203Y-85977396D01*
X159686132Y-86026602D01*
X159736512Y-86061581D01*
X159763965Y-86116425D01*
X159761776Y-86177718D01*
X159730481Y-86230465D01*
X159608422Y-86352524D01*
X159472934Y-86546021D01*
X159373103Y-86760107D01*
X159315898Y-86973599D01*
X159315898Y-86973600D01*
X161977170Y-86973600D01*
X161977169Y-86973599D01*
X161919964Y-86760107D01*
X161820133Y-86546021D01*
X161684643Y-86352521D01*
X161562587Y-86230465D01*
X161531291Y-86177719D01*
X161529102Y-86116426D01*
X161556555Y-86061581D01*
X161606932Y-86026603D01*
X161738865Y-85977396D01*
X161854080Y-85891146D01*
X161940330Y-85775931D01*
X161990625Y-85641083D01*
X161997034Y-85581473D01*
X161997034Y-85581469D01*
X165442834Y-85581469D01*
X165449243Y-85641083D01*
X165499538Y-85775931D01*
X165585788Y-85891146D01*
X165701003Y-85977396D01*
X165832932Y-86026602D01*
X165883312Y-86061581D01*
X165910765Y-86116425D01*
X165908576Y-86177718D01*
X165877281Y-86230465D01*
X165755222Y-86352524D01*
X165619734Y-86546021D01*
X165519903Y-86760107D01*
X165462698Y-86973599D01*
X165462698Y-86973600D01*
X168123970Y-86973600D01*
X168123969Y-86973599D01*
X168066764Y-86760107D01*
X167966933Y-86546021D01*
X167831443Y-86352521D01*
X167709387Y-86230465D01*
X167678091Y-86177719D01*
X167675902Y-86116426D01*
X167703355Y-86061581D01*
X167753732Y-86026603D01*
X167885665Y-85977396D01*
X168000880Y-85891146D01*
X168087130Y-85775931D01*
X168137425Y-85641083D01*
X168143834Y-85581473D01*
X168143833Y-83785728D01*
X168137425Y-83726117D01*
X168087130Y-83591269D01*
X168000880Y-83476054D01*
X167885665Y-83389804D01*
X167750817Y-83339509D01*
X167691207Y-83333100D01*
X167691203Y-83333100D01*
X165895464Y-83333100D01*
X165835849Y-83339509D01*
X165701003Y-83389804D01*
X165585788Y-83476054D01*
X165499538Y-83591268D01*
X165449243Y-83726116D01*
X165442834Y-83785730D01*
X165442834Y-85581469D01*
X161997034Y-85581469D01*
X161997033Y-83785728D01*
X161990625Y-83726117D01*
X161940330Y-83591269D01*
X161854080Y-83476054D01*
X161738865Y-83389804D01*
X161604017Y-83339509D01*
X161544407Y-83333100D01*
X161544403Y-83333100D01*
X159748664Y-83333100D01*
X159689049Y-83339509D01*
X159554203Y-83389804D01*
X159438988Y-83476054D01*
X159352738Y-83591268D01*
X159302443Y-83726116D01*
X159296034Y-83785730D01*
X159296034Y-85581469D01*
X154742118Y-85581469D01*
X154758906Y-85564681D01*
X154894400Y-85371176D01*
X154994230Y-85157092D01*
X155051436Y-84943600D01*
X152390164Y-84943600D01*
X152447369Y-85157092D01*
X152547199Y-85371176D01*
X152682693Y-85564681D01*
X152849718Y-85731706D01*
X153035395Y-85861719D01*
X153074260Y-85906037D01*
X153088271Y-85963294D01*
X153074260Y-86020551D01*
X153035395Y-86064869D01*
X152849395Y-86195108D01*
X152682305Y-86362198D01*
X152546765Y-86555770D01*
X152446897Y-86769936D01*
X152385736Y-86998192D01*
X152365140Y-87233600D01*
X152385736Y-87469007D01*
X152418518Y-87591349D01*
X152446897Y-87697263D01*
X152546765Y-87911430D01*
X152682305Y-88105001D01*
X152849399Y-88272095D01*
X153034960Y-88402026D01*
X153073824Y-88446343D01*
X153087835Y-88503600D01*
X153073824Y-88560857D01*
X153034958Y-88605175D01*
X152854241Y-88731715D01*
X152849395Y-88735108D01*
X152682305Y-88902198D01*
X152546765Y-89095770D01*
X152446897Y-89309936D01*
X152385736Y-89538192D01*
X152365140Y-89773599D01*
X152385736Y-90009007D01*
X152430509Y-90176102D01*
X152446897Y-90237263D01*
X152546765Y-90451430D01*
X152682305Y-90645001D01*
X152849399Y-90812095D01*
X153034960Y-90942026D01*
X153073824Y-90986343D01*
X153087835Y-91043600D01*
X153073824Y-91100857D01*
X153034959Y-91145175D01*
X152849395Y-91275108D01*
X152682305Y-91442198D01*
X152546765Y-91635770D01*
X152446897Y-91849936D01*
X152385736Y-92078192D01*
X152365140Y-92313600D01*
X152385736Y-92549007D01*
X152426061Y-92699500D01*
X152446897Y-92777263D01*
X152546765Y-92991430D01*
X152682305Y-93185001D01*
X152849399Y-93352095D01*
X153034960Y-93482026D01*
X153073824Y-93526343D01*
X153087835Y-93583600D01*
X153073824Y-93640857D01*
X153034958Y-93685175D01*
X152870972Y-93800000D01*
X152849395Y-93815108D01*
X152682305Y-93982198D01*
X152546765Y-94175770D01*
X152446897Y-94389936D01*
X152385736Y-94618192D01*
X152365140Y-94853599D01*
X152385736Y-95089007D01*
X152430509Y-95256101D01*
X152446897Y-95317263D01*
X152546765Y-95531430D01*
X152682305Y-95725001D01*
X152849399Y-95892095D01*
X153034960Y-96022026D01*
X153073824Y-96066343D01*
X153087835Y-96123600D01*
X153073824Y-96180857D01*
X153034960Y-96225174D01*
X152870392Y-96340406D01*
X152849395Y-96355108D01*
X152682305Y-96522198D01*
X152546765Y-96715770D01*
X152446897Y-96929936D01*
X152385736Y-97158192D01*
X152365140Y-97393600D01*
X152385736Y-97629005D01*
X152412656Y-97729471D01*
X152412656Y-97793658D01*
X152380562Y-97849246D01*
X150216208Y-100013599D01*
X150200110Y-100026496D01*
X150152096Y-100077625D01*
X150149391Y-100080417D01*
X150129874Y-100099934D01*
X150127415Y-100103105D01*
X150119842Y-100111972D01*
X150089935Y-100143820D01*
X150080285Y-100161374D01*
X150069609Y-100177628D01*
X150057326Y-100193463D01*
X150039975Y-100233558D01*
X150034838Y-100244044D01*
X150013802Y-100282307D01*
X150008821Y-100301709D01*
X150002520Y-100320111D01*
X149994561Y-100338502D01*
X149987728Y-100381642D01*
X149985360Y-100393074D01*
X149974500Y-100435378D01*
X149974500Y-100455416D01*
X149972973Y-100474815D01*
X149969840Y-100494594D01*
X149973950Y-100538075D01*
X149974500Y-100549744D01*
X149974500Y-101975500D01*
X149957887Y-102037500D01*
X149912500Y-102082887D01*
X149850500Y-102099500D01*
X149705352Y-102099500D01*
X149520197Y-102138855D01*
X149347269Y-102215848D01*
X149194129Y-102327110D01*
X149067466Y-102467784D01*
X149002591Y-102580151D01*
X148964095Y-102621253D01*
X148911389Y-102641090D01*
X148855345Y-102635570D01*
X148807523Y-102605832D01*
X144617902Y-98416211D01*
X144605006Y-98400113D01*
X144553875Y-98352098D01*
X144551078Y-98349387D01*
X144531570Y-98329879D01*
X144528390Y-98327412D01*
X144519524Y-98319839D01*
X144487682Y-98289938D01*
X144470124Y-98280285D01*
X144453864Y-98269604D01*
X144438036Y-98257327D01*
X144397951Y-98239980D01*
X144387461Y-98234841D01*
X144349191Y-98213802D01*
X144329791Y-98208821D01*
X144311384Y-98202519D01*
X144292997Y-98194562D01*
X144249858Y-98187729D01*
X144238424Y-98185361D01*
X144196119Y-98174500D01*
X144176084Y-98174500D01*
X144156686Y-98172973D01*
X144149262Y-98171797D01*
X144136905Y-98169840D01*
X144136904Y-98169840D01*
X144103851Y-98172964D01*
X144093425Y-98173950D01*
X144081756Y-98174500D01*
X141961697Y-98174500D01*
X141895987Y-98155658D01*
X141850246Y-98104858D01*
X141838376Y-98037541D01*
X141855460Y-97875000D01*
X141835674Y-97686744D01*
X141777179Y-97506716D01*
X141777179Y-97506715D01*
X141744264Y-97449705D01*
X141728330Y-97400665D01*
X141733721Y-97349384D01*
X141751021Y-97319420D01*
X141750299Y-97319003D01*
X141851462Y-97143784D01*
X141854771Y-97133599D01*
X141909957Y-96963756D01*
X141929743Y-96775500D01*
X141909957Y-96587244D01*
X141851462Y-96407216D01*
X141851462Y-96407215D01*
X141756816Y-96243283D01*
X141630153Y-96102610D01*
X141477013Y-95991348D01*
X141304085Y-95914355D01*
X141118931Y-95875000D01*
X141118929Y-95875000D01*
X140929637Y-95875000D01*
X140929635Y-95875000D01*
X140744480Y-95914355D01*
X140571552Y-95991348D01*
X140418412Y-96102610D01*
X140390625Y-96133472D01*
X140348910Y-96163780D01*
X140298475Y-96174500D01*
X135957436Y-96174500D01*
X135936932Y-96172236D01*
X135866840Y-96174439D01*
X135862946Y-96174500D01*
X135835343Y-96174500D01*
X135831348Y-96175004D01*
X135819724Y-96175918D01*
X135776063Y-96177290D01*
X135756823Y-96182880D01*
X135737776Y-96186825D01*
X135717904Y-96189335D01*
X135677294Y-96205413D01*
X135666249Y-96209194D01*
X135624306Y-96221380D01*
X135607064Y-96231578D01*
X135589592Y-96240138D01*
X135570961Y-96247514D01*
X135535633Y-96273181D01*
X135525875Y-96279591D01*
X135488274Y-96301829D01*
X135474105Y-96315998D01*
X135459317Y-96328628D01*
X135443108Y-96340405D01*
X135415267Y-96374058D01*
X135407406Y-96382696D01*
X131254095Y-100536008D01*
X131203701Y-100566588D01*
X131144882Y-100570443D01*
X131090928Y-100546703D01*
X131054032Y-100500732D01*
X131042532Y-100442918D01*
X131059027Y-100386327D01*
X131127179Y-100268284D01*
X131143711Y-100217404D01*
X131185674Y-100088256D01*
X131205460Y-99900000D01*
X131185674Y-99711744D01*
X131127179Y-99531716D01*
X131127179Y-99531715D01*
X131032533Y-99367783D01*
X130905870Y-99227110D01*
X130752730Y-99115848D01*
X130579802Y-99038855D01*
X130427628Y-99006510D01*
X130370437Y-98977370D01*
X130335479Y-98923538D01*
X130295279Y-98799816D01*
X130275279Y-98765175D01*
X130200633Y-98635883D01*
X130073970Y-98495210D01*
X129920830Y-98383948D01*
X129747902Y-98306955D01*
X129562748Y-98267600D01*
X129562746Y-98267600D01*
X129373454Y-98267600D01*
X129373452Y-98267600D01*
X129188297Y-98306955D01*
X129015369Y-98383948D01*
X128862229Y-98495210D01*
X128735566Y-98635883D01*
X128640920Y-98799815D01*
X128582426Y-98979842D01*
X128568770Y-99109775D01*
X128550146Y-99163256D01*
X128509684Y-99202878D01*
X128455825Y-99220378D01*
X128399802Y-99212105D01*
X128353300Y-99179786D01*
X128305870Y-99127111D01*
X128152730Y-99015848D01*
X127979802Y-98938855D01*
X127794648Y-98899500D01*
X127794646Y-98899500D01*
X127605354Y-98899500D01*
X127605352Y-98899500D01*
X127420197Y-98938855D01*
X127247269Y-99015848D01*
X127094129Y-99127110D01*
X126967466Y-99267783D01*
X126872820Y-99431715D01*
X126814326Y-99611742D01*
X126794540Y-99800000D01*
X126814326Y-99988257D01*
X126872820Y-100168284D01*
X126967466Y-100332216D01*
X127094129Y-100472889D01*
X127247269Y-100584151D01*
X127420197Y-100661144D01*
X127605352Y-100700500D01*
X127605354Y-100700500D01*
X127794646Y-100700500D01*
X127794648Y-100700500D01*
X127929759Y-100671781D01*
X127979803Y-100661144D01*
X128152730Y-100584151D01*
X128171598Y-100570443D01*
X128305870Y-100472889D01*
X128337998Y-100437208D01*
X128432533Y-100332216D01*
X128527179Y-100168284D01*
X128585674Y-99988256D01*
X128599330Y-99858321D01*
X128617953Y-99804844D01*
X128658414Y-99765221D01*
X128712273Y-99747721D01*
X128768297Y-99755993D01*
X128814799Y-99788313D01*
X128862229Y-99840988D01*
X129015369Y-99952251D01*
X129188297Y-100029244D01*
X129340470Y-100061589D01*
X129397662Y-100090729D01*
X129432621Y-100144561D01*
X129472820Y-100268284D01*
X129567466Y-100432216D01*
X129694129Y-100572889D01*
X129847269Y-100684151D01*
X130020197Y-100761144D01*
X130205352Y-100800500D01*
X130205354Y-100800500D01*
X130394646Y-100800500D01*
X130394648Y-100800500D01*
X130521719Y-100773490D01*
X130579803Y-100761144D01*
X130654577Y-100727852D01*
X130752725Y-100684154D01*
X130752727Y-100684152D01*
X130752730Y-100684151D01*
X130769758Y-100671779D01*
X130826454Y-100649158D01*
X130887078Y-100656332D01*
X130936932Y-100691564D01*
X130963933Y-100746314D01*
X130961537Y-100807314D01*
X130930324Y-100859778D01*
X129151923Y-102638181D01*
X129111695Y-102665061D01*
X129064242Y-102674500D01*
X126803747Y-102674500D01*
X126753312Y-102663780D01*
X126711598Y-102633473D01*
X126705871Y-102627112D01*
X126552730Y-102515849D01*
X126552729Y-102515848D01*
X126552727Y-102515847D01*
X126379802Y-102438855D01*
X126194648Y-102399500D01*
X126194646Y-102399500D01*
X126005354Y-102399500D01*
X126005352Y-102399500D01*
X125820197Y-102438855D01*
X125647269Y-102515848D01*
X125494129Y-102627110D01*
X125367466Y-102767783D01*
X125272820Y-102931715D01*
X125214326Y-103111742D01*
X125194540Y-103300000D01*
X124310192Y-103300000D01*
X124414400Y-103151176D01*
X124514230Y-102937092D01*
X124571436Y-102723600D01*
X121910164Y-102723600D01*
X121967369Y-102937092D01*
X122067199Y-103151176D01*
X122202693Y-103344681D01*
X122369718Y-103511706D01*
X122555395Y-103641719D01*
X122594260Y-103686037D01*
X122608271Y-103743294D01*
X122594260Y-103800551D01*
X122555395Y-103844869D01*
X122369395Y-103975108D01*
X122202305Y-104142198D01*
X122066765Y-104335770D01*
X121966897Y-104549936D01*
X121905736Y-104778192D01*
X121885140Y-105013599D01*
X121905736Y-105249007D01*
X121940061Y-105377110D01*
X121966897Y-105477263D01*
X122066765Y-105691430D01*
X122202305Y-105885001D01*
X122369399Y-106052095D01*
X122554960Y-106182026D01*
X122593824Y-106226343D01*
X122607835Y-106283600D01*
X122593824Y-106340857D01*
X122554959Y-106385175D01*
X122369395Y-106515108D01*
X122202305Y-106682198D01*
X122066765Y-106875770D01*
X121966897Y-107089936D01*
X121905736Y-107318192D01*
X121885140Y-107553600D01*
X121905736Y-107789007D01*
X121925226Y-107861744D01*
X121966897Y-108017263D01*
X122066765Y-108231430D01*
X122202305Y-108425001D01*
X122369399Y-108592095D01*
X122554960Y-108722026D01*
X122593824Y-108766343D01*
X122607835Y-108823600D01*
X122593824Y-108880857D01*
X122554959Y-108925175D01*
X122369395Y-109055108D01*
X122202305Y-109222198D01*
X122066765Y-109415770D01*
X121966897Y-109629936D01*
X121905736Y-109858192D01*
X121885140Y-110093599D01*
X121905736Y-110329007D01*
X121938448Y-110451088D01*
X121966897Y-110557263D01*
X122066765Y-110771430D01*
X122202305Y-110965001D01*
X122369399Y-111132095D01*
X122554960Y-111262026D01*
X122593824Y-111306343D01*
X122607835Y-111363600D01*
X122593824Y-111420857D01*
X122554959Y-111465175D01*
X122369395Y-111595108D01*
X122202305Y-111762198D01*
X122066765Y-111955770D01*
X121966897Y-112169936D01*
X121905736Y-112398192D01*
X121885140Y-112633600D01*
X121905736Y-112869007D01*
X121950509Y-113036102D01*
X121966897Y-113097263D01*
X122066765Y-113311430D01*
X122202305Y-113505001D01*
X122369399Y-113672095D01*
X122554960Y-113802026D01*
X122593824Y-113846343D01*
X122607835Y-113903600D01*
X122593824Y-113960857D01*
X122554959Y-114005175D01*
X122369395Y-114135108D01*
X122202305Y-114302198D01*
X122066765Y-114495770D01*
X121966897Y-114709936D01*
X121905736Y-114938192D01*
X121885140Y-115173599D01*
X121100000Y-115173599D01*
X121100000Y-99933599D01*
X121885140Y-99933599D01*
X121905736Y-100169007D01*
X121936095Y-100282307D01*
X121966897Y-100397263D01*
X122066765Y-100611430D01*
X122202305Y-100805001D01*
X122369399Y-100972095D01*
X122555397Y-101102332D01*
X122594260Y-101146648D01*
X122608271Y-101203905D01*
X122594261Y-101261161D01*
X122555395Y-101305480D01*
X122369719Y-101435492D01*
X122202690Y-101602521D01*
X122067200Y-101796021D01*
X121967369Y-102010107D01*
X121910164Y-102223599D01*
X121910164Y-102223600D01*
X124571436Y-102223600D01*
X124571435Y-102223599D01*
X124514230Y-102010107D01*
X124414399Y-101796021D01*
X124278909Y-101602521D01*
X124111881Y-101435493D01*
X123926204Y-101305480D01*
X123887339Y-101261162D01*
X123873328Y-101203905D01*
X123887339Y-101146648D01*
X123926202Y-101102332D01*
X124112201Y-100972095D01*
X124279295Y-100805001D01*
X124414835Y-100611430D01*
X124514703Y-100397263D01*
X124575863Y-100169008D01*
X124596459Y-99933600D01*
X124588794Y-99845996D01*
X124575863Y-99698192D01*
X124566662Y-99663853D01*
X124514703Y-99469937D01*
X124414835Y-99255771D01*
X124279295Y-99062199D01*
X124112201Y-98895105D01*
X123926639Y-98765173D01*
X123887775Y-98720857D01*
X123873764Y-98663600D01*
X123887775Y-98606343D01*
X123926639Y-98562026D01*
X124112201Y-98432095D01*
X124279295Y-98265001D01*
X124414835Y-98071430D01*
X124514703Y-97857263D01*
X124575863Y-97629008D01*
X124596459Y-97393600D01*
X124575863Y-97158192D01*
X124514703Y-96929937D01*
X124414835Y-96715771D01*
X124279295Y-96522199D01*
X124112201Y-96355105D01*
X123926639Y-96225173D01*
X123887775Y-96180857D01*
X123873764Y-96123600D01*
X123887775Y-96066343D01*
X123926639Y-96022026D01*
X124112201Y-95892095D01*
X124279295Y-95725001D01*
X124414835Y-95531430D01*
X124514703Y-95317263D01*
X124575863Y-95089008D01*
X124596459Y-94853600D01*
X124575863Y-94618192D01*
X124514703Y-94389937D01*
X124414835Y-94175771D01*
X124279295Y-93982199D01*
X124112201Y-93815105D01*
X123926639Y-93685173D01*
X123887775Y-93640857D01*
X123873764Y-93583600D01*
X123887775Y-93526343D01*
X123926639Y-93482026D01*
X124112201Y-93352095D01*
X124264297Y-93199999D01*
X126594540Y-93199999D01*
X126614326Y-93388257D01*
X126672820Y-93568284D01*
X126767466Y-93732216D01*
X126894129Y-93872889D01*
X127047269Y-93984151D01*
X127220197Y-94061144D01*
X127405352Y-94100500D01*
X127405354Y-94100500D01*
X127594646Y-94100500D01*
X127594648Y-94100500D01*
X127718083Y-94074262D01*
X127779803Y-94061144D01*
X127952730Y-93984151D01*
X128105871Y-93872888D01*
X128232533Y-93732216D01*
X128308868Y-93600000D01*
X130294540Y-93600000D01*
X130314326Y-93788257D01*
X130372820Y-93968284D01*
X130467466Y-94132216D01*
X130594129Y-94272889D01*
X130747269Y-94384151D01*
X130920197Y-94461144D01*
X131105352Y-94500500D01*
X131105354Y-94500500D01*
X131294646Y-94500500D01*
X131294648Y-94500500D01*
X131424551Y-94472888D01*
X131479803Y-94461144D01*
X131652730Y-94384151D01*
X131805871Y-94272888D01*
X131932533Y-94132216D01*
X132027179Y-93968284D01*
X132081858Y-93799999D01*
X133994540Y-93799999D01*
X134014326Y-93988257D01*
X134072820Y-94168284D01*
X134167466Y-94332216D01*
X134294129Y-94472889D01*
X134447269Y-94584151D01*
X134620197Y-94661144D01*
X134805352Y-94700500D01*
X134805354Y-94700500D01*
X134994646Y-94700500D01*
X134994648Y-94700500D01*
X135118084Y-94674262D01*
X135179803Y-94661144D01*
X135352730Y-94584151D01*
X135505871Y-94472888D01*
X135632533Y-94332216D01*
X135727179Y-94168284D01*
X135785674Y-93988256D01*
X135805460Y-93800000D01*
X135805460Y-93799999D01*
X143394540Y-93799999D01*
X143414326Y-93988257D01*
X143472820Y-94168284D01*
X143567466Y-94332216D01*
X143694129Y-94472889D01*
X143847269Y-94584151D01*
X144020197Y-94661144D01*
X144205352Y-94700500D01*
X144205354Y-94700500D01*
X144394646Y-94700500D01*
X144394648Y-94700500D01*
X144518084Y-94674262D01*
X144579803Y-94661144D01*
X144752730Y-94584151D01*
X144905871Y-94472888D01*
X145032533Y-94332216D01*
X145127179Y-94168284D01*
X145185674Y-93988256D01*
X145205460Y-93800000D01*
X145185674Y-93611744D01*
X145145348Y-93487635D01*
X145127179Y-93431715D01*
X145032533Y-93267783D01*
X144905870Y-93127110D01*
X144752730Y-93015848D01*
X144579802Y-92938855D01*
X144394648Y-92899500D01*
X144394646Y-92899500D01*
X144205354Y-92899500D01*
X144205352Y-92899500D01*
X144020197Y-92938855D01*
X143847269Y-93015848D01*
X143694129Y-93127110D01*
X143567466Y-93267783D01*
X143472820Y-93431715D01*
X143414326Y-93611742D01*
X143394540Y-93799999D01*
X135805460Y-93799999D01*
X135785674Y-93611744D01*
X135745348Y-93487635D01*
X135727179Y-93431715D01*
X135632533Y-93267783D01*
X135505870Y-93127110D01*
X135352730Y-93015848D01*
X135179802Y-92938855D01*
X134994648Y-92899500D01*
X134994646Y-92899500D01*
X134805354Y-92899500D01*
X134805352Y-92899500D01*
X134620197Y-92938855D01*
X134447269Y-93015848D01*
X134294129Y-93127110D01*
X134167466Y-93267783D01*
X134072820Y-93431715D01*
X134014326Y-93611742D01*
X133994540Y-93799999D01*
X132081858Y-93799999D01*
X132085674Y-93788256D01*
X132105460Y-93600000D01*
X132085674Y-93411744D01*
X132027179Y-93231716D01*
X132027179Y-93231715D01*
X131932533Y-93067783D01*
X131805870Y-92927110D01*
X131652730Y-92815848D01*
X131479802Y-92738855D01*
X131294648Y-92699500D01*
X131294646Y-92699500D01*
X131105354Y-92699500D01*
X131105352Y-92699500D01*
X130920197Y-92738855D01*
X130747269Y-92815848D01*
X130594129Y-92927110D01*
X130467466Y-93067783D01*
X130372820Y-93231715D01*
X130314326Y-93411742D01*
X130294540Y-93600000D01*
X128308868Y-93600000D01*
X128327179Y-93568284D01*
X128385674Y-93388256D01*
X128405460Y-93200000D01*
X128385674Y-93011744D01*
X128355332Y-92918363D01*
X128327179Y-92831715D01*
X128232533Y-92667783D01*
X128105870Y-92527110D01*
X127952730Y-92415848D01*
X127779802Y-92338855D01*
X127594648Y-92299500D01*
X127594646Y-92299500D01*
X127405354Y-92299500D01*
X127405352Y-92299500D01*
X127220197Y-92338855D01*
X127047269Y-92415848D01*
X126894129Y-92527110D01*
X126767466Y-92667783D01*
X126672820Y-92831715D01*
X126614326Y-93011742D01*
X126594540Y-93199999D01*
X124264297Y-93199999D01*
X124279295Y-93185001D01*
X124414835Y-92991430D01*
X124514703Y-92777263D01*
X124575863Y-92549008D01*
X124596459Y-92313600D01*
X124575863Y-92078192D01*
X124514703Y-91849937D01*
X124414835Y-91635771D01*
X124279295Y-91442199D01*
X124137096Y-91300000D01*
X139894540Y-91300000D01*
X139914326Y-91488257D01*
X139972820Y-91668284D01*
X140067466Y-91832216D01*
X140194129Y-91972889D01*
X140347269Y-92084151D01*
X140520197Y-92161144D01*
X140705352Y-92200500D01*
X140705354Y-92200500D01*
X140894646Y-92200500D01*
X140894648Y-92200500D01*
X141018084Y-92174262D01*
X141079803Y-92161144D01*
X141252730Y-92084151D01*
X141405871Y-91972888D01*
X141532533Y-91832216D01*
X141627179Y-91668284D01*
X141685674Y-91488256D01*
X141705460Y-91300000D01*
X141685674Y-91111744D01*
X141655332Y-91018363D01*
X141627179Y-90931715D01*
X141532533Y-90767783D01*
X141405870Y-90627110D01*
X141252730Y-90515848D01*
X141079802Y-90438855D01*
X140894648Y-90399500D01*
X140894646Y-90399500D01*
X140705354Y-90399500D01*
X140705352Y-90399500D01*
X140520197Y-90438855D01*
X140347269Y-90515848D01*
X140194129Y-90627110D01*
X140067466Y-90767783D01*
X139972820Y-90931715D01*
X139914326Y-91111742D01*
X139894540Y-91300000D01*
X124137096Y-91300000D01*
X124112201Y-91275105D01*
X123926639Y-91145173D01*
X123887775Y-91100857D01*
X123873764Y-91043600D01*
X123887775Y-90986343D01*
X123926639Y-90942026D01*
X124112201Y-90812095D01*
X124279295Y-90645001D01*
X124414835Y-90451430D01*
X124514703Y-90237263D01*
X124575863Y-90009008D01*
X124596459Y-89773600D01*
X124575863Y-89538192D01*
X124514703Y-89309937D01*
X124414835Y-89095771D01*
X124279295Y-88902199D01*
X124112201Y-88735105D01*
X123926639Y-88605173D01*
X123922102Y-88599999D01*
X133294540Y-88599999D01*
X133314326Y-88788257D01*
X133372820Y-88968284D01*
X133467466Y-89132216D01*
X133594129Y-89272889D01*
X133747269Y-89384151D01*
X133920197Y-89461144D01*
X134105352Y-89500500D01*
X134105354Y-89500500D01*
X134294646Y-89500500D01*
X134294648Y-89500500D01*
X134418084Y-89474262D01*
X134479803Y-89461144D01*
X134652730Y-89384151D01*
X134768641Y-89299937D01*
X134805870Y-89272889D01*
X134932533Y-89132216D01*
X134951133Y-89099999D01*
X135807540Y-89099999D01*
X135827326Y-89288257D01*
X135885820Y-89468284D01*
X135980466Y-89632216D01*
X136107129Y-89772889D01*
X136260269Y-89884151D01*
X136433197Y-89961144D01*
X136618352Y-90000500D01*
X136618354Y-90000500D01*
X136807646Y-90000500D01*
X136807648Y-90000500D01*
X136931084Y-89974262D01*
X136992803Y-89961144D01*
X137165730Y-89884151D01*
X137317891Y-89773600D01*
X137318870Y-89772889D01*
X137412331Y-89669091D01*
X137445533Y-89632216D01*
X137540179Y-89468284D01*
X137598674Y-89288256D01*
X137618460Y-89100000D01*
X137598674Y-88911744D01*
X137568332Y-88818363D01*
X137540179Y-88731715D01*
X137445533Y-88567783D01*
X137384500Y-88499999D01*
X140594540Y-88499999D01*
X140614326Y-88688257D01*
X140672820Y-88868284D01*
X140767466Y-89032216D01*
X140894129Y-89172889D01*
X141047269Y-89284151D01*
X141220197Y-89361144D01*
X141405352Y-89400500D01*
X141405354Y-89400500D01*
X141594646Y-89400500D01*
X141594648Y-89400500D01*
X141718083Y-89374262D01*
X141779803Y-89361144D01*
X141952730Y-89284151D01*
X142105871Y-89172888D01*
X142232533Y-89032216D01*
X142327179Y-88868284D01*
X142385674Y-88688256D01*
X142405460Y-88500000D01*
X142392375Y-88375500D01*
X143894540Y-88375500D01*
X143897950Y-88407941D01*
X143914326Y-88563757D01*
X143972820Y-88743784D01*
X144067466Y-88907716D01*
X144194129Y-89048389D01*
X144347269Y-89159651D01*
X144520197Y-89236644D01*
X144705352Y-89276000D01*
X144705354Y-89276000D01*
X144894646Y-89276000D01*
X144894648Y-89276000D01*
X145018083Y-89249762D01*
X145079803Y-89236644D01*
X145252730Y-89159651D01*
X145405871Y-89048388D01*
X145532533Y-88907716D01*
X145627179Y-88743784D01*
X145685674Y-88563756D01*
X145705460Y-88375500D01*
X145685674Y-88187244D01*
X145627179Y-88007216D01*
X145627179Y-88007215D01*
X145532533Y-87843283D01*
X145405870Y-87702610D01*
X145252730Y-87591348D01*
X145079802Y-87514355D01*
X144894648Y-87475000D01*
X144894646Y-87475000D01*
X144705354Y-87475000D01*
X144705352Y-87475000D01*
X144520197Y-87514355D01*
X144347269Y-87591348D01*
X144194129Y-87702610D01*
X144067466Y-87843283D01*
X143972820Y-88007215D01*
X143914326Y-88187242D01*
X143900809Y-88315849D01*
X143894540Y-88375500D01*
X142392375Y-88375500D01*
X142385674Y-88311744D01*
X142355332Y-88218363D01*
X142327179Y-88131715D01*
X142232533Y-87967783D01*
X142105870Y-87827110D01*
X141952730Y-87715848D01*
X141779802Y-87638855D01*
X141594648Y-87599500D01*
X141594646Y-87599500D01*
X141405354Y-87599500D01*
X141405352Y-87599500D01*
X141220197Y-87638855D01*
X141047269Y-87715848D01*
X140894129Y-87827110D01*
X140767466Y-87967783D01*
X140672820Y-88131715D01*
X140614326Y-88311742D01*
X140594540Y-88499999D01*
X137384500Y-88499999D01*
X137318870Y-88427110D01*
X137165730Y-88315848D01*
X136992802Y-88238855D01*
X136807648Y-88199500D01*
X136807646Y-88199500D01*
X136618354Y-88199500D01*
X136618352Y-88199500D01*
X136433197Y-88238855D01*
X136260269Y-88315848D01*
X136107129Y-88427110D01*
X135980466Y-88567783D01*
X135885820Y-88731715D01*
X135827326Y-88911742D01*
X135807540Y-89099999D01*
X134951133Y-89099999D01*
X135027179Y-88968284D01*
X135048652Y-88902198D01*
X135085674Y-88788256D01*
X135105460Y-88600000D01*
X135085674Y-88411744D01*
X135040298Y-88272091D01*
X135027179Y-88231715D01*
X134932533Y-88067783D01*
X134805870Y-87927110D01*
X134652730Y-87815848D01*
X134479802Y-87738855D01*
X134294648Y-87699500D01*
X134294646Y-87699500D01*
X134105354Y-87699500D01*
X134105352Y-87699500D01*
X133920197Y-87738855D01*
X133747269Y-87815848D01*
X133594129Y-87927110D01*
X133467466Y-88067783D01*
X133372820Y-88231715D01*
X133314326Y-88411742D01*
X133294540Y-88599999D01*
X123922102Y-88599999D01*
X123887776Y-88560857D01*
X123873765Y-88503600D01*
X123887776Y-88446343D01*
X123926639Y-88402026D01*
X124112201Y-88272095D01*
X124279295Y-88105001D01*
X124414835Y-87911430D01*
X124514703Y-87697263D01*
X124575863Y-87469008D01*
X124596459Y-87233600D01*
X124575863Y-86998192D01*
X124514703Y-86769937D01*
X124482091Y-86700000D01*
X146594540Y-86700000D01*
X146614326Y-86888257D01*
X146672820Y-87068284D01*
X146767466Y-87232216D01*
X146894129Y-87372889D01*
X147047269Y-87484151D01*
X147220197Y-87561144D01*
X147405352Y-87600500D01*
X147405354Y-87600500D01*
X147594646Y-87600500D01*
X147594648Y-87600500D01*
X147718083Y-87574262D01*
X147779803Y-87561144D01*
X147952730Y-87484151D01*
X148105871Y-87372888D01*
X148232533Y-87232216D01*
X148327179Y-87068284D01*
X148385674Y-86888256D01*
X148405460Y-86700000D01*
X148385674Y-86511744D01*
X148327179Y-86331716D01*
X148327179Y-86331715D01*
X148232533Y-86167783D01*
X148105870Y-86027110D01*
X147952730Y-85915848D01*
X147779802Y-85838855D01*
X147594648Y-85799500D01*
X147594646Y-85799500D01*
X147405354Y-85799500D01*
X147405352Y-85799500D01*
X147220197Y-85838855D01*
X147047269Y-85915848D01*
X146894129Y-86027110D01*
X146767466Y-86167783D01*
X146672820Y-86331715D01*
X146614326Y-86511742D01*
X146594540Y-86700000D01*
X124482091Y-86700000D01*
X124414835Y-86555771D01*
X124279295Y-86362199D01*
X124112201Y-86195105D01*
X123926639Y-86065173D01*
X123887775Y-86020857D01*
X123873764Y-85963600D01*
X123887775Y-85906343D01*
X123926639Y-85862026D01*
X124112201Y-85732095D01*
X124279295Y-85565001D01*
X124414835Y-85371430D01*
X124514703Y-85157263D01*
X124575863Y-84929008D01*
X124596459Y-84693600D01*
X124575863Y-84458192D01*
X124514703Y-84229937D01*
X124414835Y-84015771D01*
X124279295Y-83822199D01*
X124112201Y-83655105D01*
X123926639Y-83525173D01*
X123887775Y-83480857D01*
X123873764Y-83423600D01*
X123887775Y-83366343D01*
X123926639Y-83322026D01*
X124112201Y-83192095D01*
X124279295Y-83025001D01*
X124414835Y-82831430D01*
X124514703Y-82617263D01*
X124575863Y-82389008D01*
X124596459Y-82153600D01*
X152365140Y-82153600D01*
X152385736Y-82389007D01*
X152430509Y-82556102D01*
X152446897Y-82617263D01*
X152546765Y-82831430D01*
X152682305Y-83025001D01*
X152849399Y-83192095D01*
X153035397Y-83322332D01*
X153074260Y-83366648D01*
X153088271Y-83423905D01*
X153074261Y-83481161D01*
X153035395Y-83525480D01*
X152849719Y-83655492D01*
X152682690Y-83822521D01*
X152547200Y-84016021D01*
X152447369Y-84230107D01*
X152390164Y-84443599D01*
X152390164Y-84443600D01*
X155051436Y-84443600D01*
X155051435Y-84443599D01*
X154994230Y-84230107D01*
X154894399Y-84016021D01*
X154758909Y-83822521D01*
X154591881Y-83655493D01*
X154406204Y-83525480D01*
X154367339Y-83481162D01*
X154353328Y-83423905D01*
X154367339Y-83366648D01*
X154406202Y-83322332D01*
X154592201Y-83192095D01*
X154759295Y-83025001D01*
X154894835Y-82831430D01*
X154994703Y-82617263D01*
X155000669Y-82594999D01*
X186894389Y-82594999D01*
X186914804Y-82880429D01*
X186975629Y-83160041D01*
X186975631Y-83160046D01*
X187042567Y-83339509D01*
X187075634Y-83428163D01*
X187212772Y-83679313D01*
X187292433Y-83785727D01*
X187384261Y-83908395D01*
X187586605Y-84110739D01*
X187745834Y-84229936D01*
X187815686Y-84282227D01*
X187955435Y-84358535D01*
X188066839Y-84419367D01*
X188334954Y-84519369D01*
X188334957Y-84519369D01*
X188334958Y-84519370D01*
X188387217Y-84530738D01*
X188614572Y-84580196D01*
X188900000Y-84600610D01*
X189185428Y-84580196D01*
X189465046Y-84519369D01*
X189733161Y-84419367D01*
X189984315Y-84282226D01*
X190213395Y-84110739D01*
X190415739Y-83908395D01*
X190587226Y-83679315D01*
X190724367Y-83428161D01*
X190824369Y-83160046D01*
X190885196Y-82880428D01*
X190905610Y-82595000D01*
X190885196Y-82309572D01*
X190824369Y-82029954D01*
X190724367Y-81761839D01*
X190587226Y-81510685D01*
X190415739Y-81281605D01*
X190213395Y-81079261D01*
X190028509Y-80940857D01*
X189984313Y-80907772D01*
X189733163Y-80770634D01*
X189733162Y-80770633D01*
X189733161Y-80770633D01*
X189465046Y-80670631D01*
X189465041Y-80670629D01*
X189185429Y-80609804D01*
X188900000Y-80589389D01*
X188614570Y-80609804D01*
X188334958Y-80670629D01*
X188066836Y-80770634D01*
X187815686Y-80907772D01*
X187586602Y-81079263D01*
X187384263Y-81281602D01*
X187212772Y-81510686D01*
X187075634Y-81761836D01*
X186975629Y-82029958D01*
X186914804Y-82309570D01*
X186894389Y-82594999D01*
X155000669Y-82594999D01*
X155055863Y-82389008D01*
X155076459Y-82153600D01*
X155055863Y-81918192D01*
X154994703Y-81689937D01*
X154894835Y-81475771D01*
X154759295Y-81282199D01*
X154592201Y-81115105D01*
X154406639Y-80985173D01*
X154367775Y-80940857D01*
X154353764Y-80883600D01*
X154367775Y-80826343D01*
X154406639Y-80782026D01*
X154592201Y-80652095D01*
X154759295Y-80485001D01*
X154894835Y-80291430D01*
X154994703Y-80077263D01*
X155055863Y-79849008D01*
X155056809Y-79838200D01*
X159392098Y-79838200D01*
X159449303Y-80051692D01*
X159549133Y-80265776D01*
X159684627Y-80459281D01*
X159851652Y-80626306D01*
X160045157Y-80761800D01*
X160259241Y-80861630D01*
X160472733Y-80918835D01*
X160472734Y-80918836D01*
X160472734Y-79838200D01*
X160972734Y-79838200D01*
X160972734Y-80918835D01*
X161186226Y-80861630D01*
X161400310Y-80761800D01*
X161593815Y-80626306D01*
X161760840Y-80459281D01*
X161896334Y-80265776D01*
X161996164Y-80051692D01*
X162053370Y-79838200D01*
X160972734Y-79838200D01*
X160472734Y-79838200D01*
X159392098Y-79838200D01*
X155056809Y-79838200D01*
X155057684Y-79828200D01*
X165538898Y-79828200D01*
X165596103Y-80041692D01*
X165695933Y-80255776D01*
X165831427Y-80449281D01*
X165998452Y-80616306D01*
X166191957Y-80751800D01*
X166406041Y-80851630D01*
X166619533Y-80908835D01*
X166619534Y-80908836D01*
X166619534Y-79828200D01*
X167119534Y-79828200D01*
X167119534Y-80908835D01*
X167333026Y-80851630D01*
X167547110Y-80751800D01*
X167740615Y-80616306D01*
X167907640Y-80449281D01*
X168043134Y-80255776D01*
X168142964Y-80041692D01*
X168200170Y-79828200D01*
X167119534Y-79828200D01*
X166619534Y-79828200D01*
X165538898Y-79828200D01*
X155057684Y-79828200D01*
X155076459Y-79613600D01*
X155055863Y-79378192D01*
X154994703Y-79149937D01*
X154894835Y-78935771D01*
X154759295Y-78742199D01*
X154592201Y-78575105D01*
X154406639Y-78445173D01*
X154367775Y-78400857D01*
X154353764Y-78343600D01*
X154367775Y-78286343D01*
X154406639Y-78242026D01*
X154592201Y-78112095D01*
X154758227Y-77946069D01*
X159372234Y-77946069D01*
X159377568Y-77995683D01*
X159378643Y-78005683D01*
X159428938Y-78140531D01*
X159515188Y-78255746D01*
X159630403Y-78341996D01*
X159762332Y-78391202D01*
X159812712Y-78426181D01*
X159840165Y-78481025D01*
X159837976Y-78542318D01*
X159806681Y-78595065D01*
X159684622Y-78717124D01*
X159549134Y-78910621D01*
X159449303Y-79124707D01*
X159392098Y-79338199D01*
X159392098Y-79338200D01*
X162053370Y-79338200D01*
X162053369Y-79338199D01*
X161996164Y-79124707D01*
X161896333Y-78910621D01*
X161760843Y-78717121D01*
X161638787Y-78595065D01*
X161607491Y-78542319D01*
X161605302Y-78481026D01*
X161632755Y-78426181D01*
X161683132Y-78391203D01*
X161815065Y-78341996D01*
X161930280Y-78255746D01*
X162016530Y-78140531D01*
X162066825Y-78005683D01*
X162073234Y-77946073D01*
X162073234Y-77936069D01*
X165519034Y-77936069D01*
X165525443Y-77995684D01*
X165529173Y-78005684D01*
X165575738Y-78130531D01*
X165661988Y-78245746D01*
X165777203Y-78331996D01*
X165909132Y-78381202D01*
X165959512Y-78416181D01*
X165986965Y-78471025D01*
X165984776Y-78532318D01*
X165953481Y-78585065D01*
X165831422Y-78707124D01*
X165695934Y-78900621D01*
X165596103Y-79114707D01*
X165538898Y-79328199D01*
X165538898Y-79328200D01*
X168200170Y-79328200D01*
X168200169Y-79328199D01*
X168142964Y-79114707D01*
X168043133Y-78900621D01*
X167907643Y-78707121D01*
X167785587Y-78585065D01*
X167754291Y-78532319D01*
X167752102Y-78471026D01*
X167779555Y-78416181D01*
X167829932Y-78381203D01*
X167961865Y-78331996D01*
X168077080Y-78245746D01*
X168163330Y-78130531D01*
X168213625Y-77995683D01*
X168220034Y-77936073D01*
X168220033Y-76140328D01*
X168213625Y-76080717D01*
X168163330Y-75945869D01*
X168077080Y-75830654D01*
X167961865Y-75744404D01*
X167827017Y-75694109D01*
X167767407Y-75687700D01*
X167767403Y-75687700D01*
X165971664Y-75687700D01*
X165912049Y-75694109D01*
X165777203Y-75744404D01*
X165661988Y-75830654D01*
X165575738Y-75945868D01*
X165525443Y-76080716D01*
X165519034Y-76140330D01*
X165519034Y-77936069D01*
X162073234Y-77936069D01*
X162073233Y-76150328D01*
X162066825Y-76090717D01*
X162016530Y-75955869D01*
X161930280Y-75840654D01*
X161815065Y-75754404D01*
X161680217Y-75704109D01*
X161620607Y-75697700D01*
X161620603Y-75697700D01*
X159824864Y-75697700D01*
X159765249Y-75704109D01*
X159630403Y-75754404D01*
X159515188Y-75840654D01*
X159428938Y-75955868D01*
X159378643Y-76090716D01*
X159372234Y-76150330D01*
X159372234Y-77946069D01*
X154758227Y-77946069D01*
X154759295Y-77945001D01*
X154894835Y-77751430D01*
X154994703Y-77537263D01*
X155055863Y-77309008D01*
X155076459Y-77073600D01*
X155055863Y-76838192D01*
X154994703Y-76609937D01*
X154894835Y-76395771D01*
X154759295Y-76202199D01*
X154592201Y-76035105D01*
X154406639Y-75905173D01*
X154367775Y-75860857D01*
X154353764Y-75803600D01*
X154367775Y-75746343D01*
X154406639Y-75702026D01*
X154592201Y-75572095D01*
X154759295Y-75405001D01*
X154894835Y-75211430D01*
X154994703Y-74997263D01*
X155055863Y-74769008D01*
X155076459Y-74533600D01*
X155055863Y-74298192D01*
X154994703Y-74069937D01*
X154894835Y-73855771D01*
X154759295Y-73662199D01*
X154592201Y-73495105D01*
X154406639Y-73365173D01*
X154367774Y-73320855D01*
X154353764Y-73263599D01*
X154367775Y-73206342D01*
X154406637Y-73162028D01*
X154592201Y-73032095D01*
X154759295Y-72865001D01*
X154894835Y-72671430D01*
X154994703Y-72457263D01*
X155055863Y-72229008D01*
X155056809Y-72218200D01*
X159392098Y-72218200D01*
X159449303Y-72431692D01*
X159549133Y-72645776D01*
X159684627Y-72839281D01*
X159851652Y-73006306D01*
X160045157Y-73141800D01*
X160259241Y-73241630D01*
X160472733Y-73298835D01*
X160472734Y-73298836D01*
X160472734Y-72218200D01*
X160972734Y-72218200D01*
X160972734Y-73298835D01*
X161186226Y-73241630D01*
X161400310Y-73141800D01*
X161593815Y-73006306D01*
X161760840Y-72839281D01*
X161896334Y-72645776D01*
X161996164Y-72431692D01*
X162053370Y-72218200D01*
X165538898Y-72218200D01*
X165596103Y-72431692D01*
X165695933Y-72645776D01*
X165831427Y-72839281D01*
X165998452Y-73006306D01*
X166191957Y-73141800D01*
X166406041Y-73241630D01*
X166619533Y-73298835D01*
X166619534Y-73298836D01*
X166619534Y-72218200D01*
X167119534Y-72218200D01*
X167119534Y-73298835D01*
X167291081Y-73252869D01*
X186974500Y-73252869D01*
X186980909Y-73312484D01*
X186984032Y-73320857D01*
X187031204Y-73447331D01*
X187117454Y-73562546D01*
X187232669Y-73648796D01*
X187367517Y-73699091D01*
X187427127Y-73705500D01*
X190522872Y-73705499D01*
X190582483Y-73699091D01*
X190717331Y-73648796D01*
X190832546Y-73562546D01*
X190918796Y-73447331D01*
X190969091Y-73312483D01*
X190975500Y-73252873D01*
X190975499Y-70157128D01*
X190969091Y-70097517D01*
X190918796Y-69962669D01*
X190832546Y-69847454D01*
X190717331Y-69761204D01*
X190582483Y-69710909D01*
X190522873Y-69704500D01*
X190522869Y-69704500D01*
X187427130Y-69704500D01*
X187367515Y-69710909D01*
X187232669Y-69761204D01*
X187117454Y-69847454D01*
X187031204Y-69962668D01*
X186980909Y-70097516D01*
X186974500Y-70157130D01*
X186974500Y-73252869D01*
X167291081Y-73252869D01*
X167333026Y-73241630D01*
X167547110Y-73141800D01*
X167740615Y-73006306D01*
X167907640Y-72839281D01*
X168043134Y-72645776D01*
X168142964Y-72431692D01*
X168200170Y-72218200D01*
X167119534Y-72218200D01*
X166619534Y-72218200D01*
X165538898Y-72218200D01*
X162053370Y-72218200D01*
X160972734Y-72218200D01*
X160472734Y-72218200D01*
X159392098Y-72218200D01*
X155056809Y-72218200D01*
X155076459Y-71993600D01*
X155055863Y-71758192D01*
X154994703Y-71529937D01*
X154894835Y-71315771D01*
X154759295Y-71122199D01*
X154636981Y-70999885D01*
X154605685Y-70947139D01*
X154603496Y-70885846D01*
X154630949Y-70831001D01*
X154681328Y-70796022D01*
X154812889Y-70746952D01*
X154927988Y-70660788D01*
X155014152Y-70545689D01*
X155064397Y-70410975D01*
X155070800Y-70351424D01*
X155070800Y-70326069D01*
X159372234Y-70326069D01*
X159378643Y-70385684D01*
X159388117Y-70411084D01*
X159428938Y-70520531D01*
X159515188Y-70635746D01*
X159630403Y-70721996D01*
X159762332Y-70771202D01*
X159812712Y-70806181D01*
X159840165Y-70861025D01*
X159837976Y-70922318D01*
X159806681Y-70975065D01*
X159684622Y-71097124D01*
X159549134Y-71290621D01*
X159449303Y-71504707D01*
X159392098Y-71718199D01*
X159392098Y-71718200D01*
X162053370Y-71718200D01*
X162053369Y-71718199D01*
X161996164Y-71504707D01*
X161896333Y-71290621D01*
X161760843Y-71097121D01*
X161638787Y-70975065D01*
X161607491Y-70922319D01*
X161605302Y-70861026D01*
X161632755Y-70806181D01*
X161683132Y-70771203D01*
X161815065Y-70721996D01*
X161930280Y-70635746D01*
X162016530Y-70520531D01*
X162066825Y-70385683D01*
X162073234Y-70326073D01*
X162073234Y-70326069D01*
X165519034Y-70326069D01*
X165525443Y-70385684D01*
X165534917Y-70411084D01*
X165575738Y-70520531D01*
X165661988Y-70635746D01*
X165777203Y-70721996D01*
X165909132Y-70771202D01*
X165959512Y-70806181D01*
X165986965Y-70861025D01*
X165984776Y-70922318D01*
X165953481Y-70975065D01*
X165831422Y-71097124D01*
X165695934Y-71290621D01*
X165596103Y-71504707D01*
X165538898Y-71718199D01*
X165538898Y-71718200D01*
X168200170Y-71718200D01*
X168200169Y-71718199D01*
X168142964Y-71504707D01*
X168043133Y-71290621D01*
X167907643Y-71097121D01*
X167785587Y-70975065D01*
X167754291Y-70922319D01*
X167752102Y-70861026D01*
X167779555Y-70806181D01*
X167829932Y-70771203D01*
X167961865Y-70721996D01*
X168077080Y-70635746D01*
X168163330Y-70520531D01*
X168213625Y-70385683D01*
X168220034Y-70326073D01*
X168220033Y-68530328D01*
X168213625Y-68470717D01*
X168163330Y-68335869D01*
X168077080Y-68220654D01*
X167961865Y-68134404D01*
X167827017Y-68084109D01*
X167767407Y-68077700D01*
X167767403Y-68077700D01*
X165971664Y-68077700D01*
X165912049Y-68084109D01*
X165777203Y-68134404D01*
X165661988Y-68220654D01*
X165575738Y-68335868D01*
X165525443Y-68470716D01*
X165519034Y-68530330D01*
X165519034Y-70326069D01*
X162073234Y-70326069D01*
X162073233Y-68530328D01*
X162066825Y-68470717D01*
X162016530Y-68335869D01*
X161930280Y-68220654D01*
X161815065Y-68134404D01*
X161680217Y-68084109D01*
X161620607Y-68077700D01*
X161620603Y-68077700D01*
X159824864Y-68077700D01*
X159765249Y-68084109D01*
X159630403Y-68134404D01*
X159515188Y-68220654D01*
X159428938Y-68335868D01*
X159378643Y-68470716D01*
X159372234Y-68530330D01*
X159372234Y-70326069D01*
X155070800Y-70326069D01*
X155070800Y-69703600D01*
X152370800Y-69703600D01*
X152370800Y-70351424D01*
X152377202Y-70410975D01*
X152427447Y-70545689D01*
X152513611Y-70660788D01*
X152628711Y-70746952D01*
X152760271Y-70796022D01*
X152810650Y-70831001D01*
X152838103Y-70885846D01*
X152835914Y-70947139D01*
X152804619Y-70999885D01*
X152682303Y-71122201D01*
X152546765Y-71315770D01*
X152446897Y-71529936D01*
X152385736Y-71758192D01*
X152365140Y-71993599D01*
X152385736Y-72229007D01*
X152430509Y-72396102D01*
X152446897Y-72457263D01*
X152546765Y-72671430D01*
X152682305Y-72865001D01*
X152849399Y-73032095D01*
X153034960Y-73162026D01*
X153073824Y-73206343D01*
X153087835Y-73263600D01*
X153073824Y-73320857D01*
X153034959Y-73365175D01*
X152849395Y-73495108D01*
X152682305Y-73662198D01*
X152546765Y-73855770D01*
X152446897Y-74069936D01*
X152385736Y-74298192D01*
X152365140Y-74533600D01*
X152385736Y-74769007D01*
X152430509Y-74936101D01*
X152446897Y-74997263D01*
X152546765Y-75211430D01*
X152682305Y-75405001D01*
X152849399Y-75572095D01*
X153034960Y-75702026D01*
X153073824Y-75746343D01*
X153087835Y-75803600D01*
X153073824Y-75860857D01*
X153034959Y-75905175D01*
X152849395Y-76035108D01*
X152682305Y-76202198D01*
X152546765Y-76395770D01*
X152446897Y-76609936D01*
X152385736Y-76838192D01*
X152365140Y-77073599D01*
X152385736Y-77309007D01*
X152430509Y-77476101D01*
X152446897Y-77537263D01*
X152546765Y-77751430D01*
X152682305Y-77945001D01*
X152849399Y-78112095D01*
X153034960Y-78242026D01*
X153073824Y-78286343D01*
X153087835Y-78343600D01*
X153073824Y-78400857D01*
X153034958Y-78445175D01*
X152896223Y-78542319D01*
X152849395Y-78575108D01*
X152682305Y-78742198D01*
X152546765Y-78935770D01*
X152446897Y-79149936D01*
X152385736Y-79378192D01*
X152365140Y-79613599D01*
X152385736Y-79849007D01*
X152430509Y-80016102D01*
X152446897Y-80077263D01*
X152546765Y-80291430D01*
X152682305Y-80485001D01*
X152849399Y-80652095D01*
X153034960Y-80782026D01*
X153073824Y-80826343D01*
X153087835Y-80883600D01*
X153073824Y-80940857D01*
X153034959Y-80985175D01*
X152849395Y-81115108D01*
X152682305Y-81282198D01*
X152546765Y-81475770D01*
X152446897Y-81689936D01*
X152385736Y-81918192D01*
X152365140Y-82153600D01*
X124596459Y-82153600D01*
X124585641Y-82029958D01*
X124575863Y-81918192D01*
X124575862Y-81918191D01*
X124514703Y-81689937D01*
X124414835Y-81475771D01*
X124279295Y-81282199D01*
X124112201Y-81115105D01*
X123926639Y-80985173D01*
X123887775Y-80940857D01*
X123873764Y-80883600D01*
X123887775Y-80826343D01*
X123926639Y-80782026D01*
X124112201Y-80652095D01*
X124279295Y-80485001D01*
X124414835Y-80291430D01*
X124514703Y-80077263D01*
X124575863Y-79849008D01*
X124596459Y-79613600D01*
X124575863Y-79378192D01*
X124514703Y-79149937D01*
X124414835Y-78935771D01*
X124279295Y-78742199D01*
X124112201Y-78575105D01*
X123926639Y-78445173D01*
X123887775Y-78400857D01*
X123873764Y-78343600D01*
X123887775Y-78286343D01*
X123926639Y-78242026D01*
X124112201Y-78112095D01*
X124279295Y-77945001D01*
X124414835Y-77751430D01*
X124514703Y-77537263D01*
X124575863Y-77309008D01*
X124596459Y-77073600D01*
X124575863Y-76838192D01*
X124514703Y-76609937D01*
X124414835Y-76395771D01*
X124279295Y-76202199D01*
X124112201Y-76035105D01*
X123926639Y-75905173D01*
X123887775Y-75860857D01*
X123873764Y-75803600D01*
X123887775Y-75746343D01*
X123926639Y-75702026D01*
X124112201Y-75572095D01*
X124279295Y-75405001D01*
X124414835Y-75211430D01*
X124514703Y-74997263D01*
X124575863Y-74769008D01*
X124596459Y-74533600D01*
X124575863Y-74298192D01*
X124514703Y-74069937D01*
X124414835Y-73855771D01*
X124279295Y-73662199D01*
X124112201Y-73495105D01*
X123926639Y-73365173D01*
X123887774Y-73320855D01*
X123873764Y-73263599D01*
X123887775Y-73206342D01*
X123926637Y-73162028D01*
X124112201Y-73032095D01*
X124279295Y-72865001D01*
X124414835Y-72671430D01*
X124514703Y-72457263D01*
X124575863Y-72229008D01*
X124596459Y-71993600D01*
X124596459Y-71993599D01*
X126594540Y-71993599D01*
X126614326Y-72181857D01*
X126672820Y-72361884D01*
X126767466Y-72525816D01*
X126894129Y-72666489D01*
X127047269Y-72777751D01*
X127220197Y-72854744D01*
X127405352Y-72894100D01*
X127405354Y-72894100D01*
X127594646Y-72894100D01*
X127594648Y-72894100D01*
X127731547Y-72865001D01*
X127779803Y-72854744D01*
X127952730Y-72777751D01*
X128105871Y-72666488D01*
X128232533Y-72525816D01*
X128327179Y-72361884D01*
X128385674Y-72181856D01*
X128405460Y-71993600D01*
X128385674Y-71805344D01*
X128327179Y-71625316D01*
X128327179Y-71625315D01*
X128232533Y-71461383D01*
X128105870Y-71320710D01*
X127952730Y-71209448D01*
X127779802Y-71132455D01*
X127594648Y-71093100D01*
X127594646Y-71093100D01*
X127405354Y-71093100D01*
X127405352Y-71093100D01*
X127220197Y-71132455D01*
X127047269Y-71209448D01*
X126894129Y-71320710D01*
X126767466Y-71461383D01*
X126672820Y-71625315D01*
X126614326Y-71805342D01*
X126594540Y-71993599D01*
X124596459Y-71993599D01*
X124575863Y-71758192D01*
X124514703Y-71529937D01*
X124414835Y-71315771D01*
X124279295Y-71122199D01*
X124157368Y-71000272D01*
X124126073Y-70947527D01*
X124123884Y-70886234D01*
X124151337Y-70831389D01*
X124201716Y-70796410D01*
X124333131Y-70747396D01*
X124448346Y-70661146D01*
X124534596Y-70545931D01*
X124584891Y-70411083D01*
X124591300Y-70351473D01*
X124591299Y-69203600D01*
X152370800Y-69203600D01*
X153470800Y-69203600D01*
X153470800Y-68103600D01*
X153970800Y-68103600D01*
X153970800Y-69203600D01*
X155070800Y-69203600D01*
X155070800Y-68555776D01*
X155064397Y-68496224D01*
X155014152Y-68361510D01*
X154927988Y-68246411D01*
X154812889Y-68160247D01*
X154678175Y-68110002D01*
X154618624Y-68103600D01*
X153970800Y-68103600D01*
X153470800Y-68103600D01*
X152822976Y-68103600D01*
X152763424Y-68110002D01*
X152628710Y-68160247D01*
X152513611Y-68246411D01*
X152427447Y-68361510D01*
X152377202Y-68496224D01*
X152370800Y-68555776D01*
X152370800Y-69203600D01*
X124591299Y-69203600D01*
X124591299Y-68555728D01*
X124584891Y-68496117D01*
X124534596Y-68361269D01*
X124448346Y-68246054D01*
X124333131Y-68159804D01*
X124198283Y-68109509D01*
X124138673Y-68103100D01*
X124138669Y-68103100D01*
X122342930Y-68103100D01*
X122283315Y-68109509D01*
X122148469Y-68159804D01*
X122033254Y-68246054D01*
X121947004Y-68361268D01*
X121896709Y-68496115D01*
X121896709Y-68496117D01*
X121890984Y-68549370D01*
X121890300Y-68555730D01*
X121890300Y-70351469D01*
X121896697Y-70410975D01*
X121896709Y-70411083D01*
X121947004Y-70545931D01*
X122033254Y-70661146D01*
X122148469Y-70747396D01*
X122260707Y-70789258D01*
X122279882Y-70796410D01*
X122330262Y-70831389D01*
X122357715Y-70886234D01*
X122355526Y-70947526D01*
X122324231Y-71000273D01*
X122202303Y-71122201D01*
X122066765Y-71315770D01*
X121966897Y-71529936D01*
X121905736Y-71758192D01*
X121885140Y-71993600D01*
X121905736Y-72229007D01*
X121950509Y-72396102D01*
X121966897Y-72457263D01*
X122066765Y-72671430D01*
X122202305Y-72865001D01*
X122369399Y-73032095D01*
X122554960Y-73162026D01*
X122593824Y-73206343D01*
X122607835Y-73263600D01*
X122593824Y-73320857D01*
X122554959Y-73365175D01*
X122369395Y-73495108D01*
X122202305Y-73662198D01*
X122066765Y-73855770D01*
X121966897Y-74069936D01*
X121905736Y-74298192D01*
X121885140Y-74533600D01*
X121905736Y-74769007D01*
X121950509Y-74936101D01*
X121966897Y-74997263D01*
X122066765Y-75211430D01*
X122202305Y-75405001D01*
X122369399Y-75572095D01*
X122554960Y-75702026D01*
X122593824Y-75746343D01*
X122607835Y-75803600D01*
X122593824Y-75860857D01*
X122554959Y-75905175D01*
X122369395Y-76035108D01*
X122202305Y-76202198D01*
X122066765Y-76395770D01*
X121966897Y-76609936D01*
X121905736Y-76838192D01*
X121885140Y-77073600D01*
X121905736Y-77309007D01*
X121950509Y-77476101D01*
X121966897Y-77537263D01*
X122066765Y-77751430D01*
X122202305Y-77945001D01*
X122369399Y-78112095D01*
X122554960Y-78242026D01*
X122593824Y-78286343D01*
X122607835Y-78343600D01*
X122593824Y-78400857D01*
X122554958Y-78445175D01*
X122416223Y-78542319D01*
X122369395Y-78575108D01*
X122202305Y-78742198D01*
X122066765Y-78935770D01*
X121966897Y-79149936D01*
X121905736Y-79378192D01*
X121885140Y-79613600D01*
X121905736Y-79849007D01*
X121950509Y-80016102D01*
X121966897Y-80077263D01*
X122066765Y-80291430D01*
X122202305Y-80485001D01*
X122369399Y-80652095D01*
X122554960Y-80782026D01*
X122593824Y-80826343D01*
X122607835Y-80883600D01*
X122593824Y-80940857D01*
X122554959Y-80985175D01*
X122369395Y-81115108D01*
X122202305Y-81282198D01*
X122066765Y-81475770D01*
X121966897Y-81689936D01*
X121905736Y-81918192D01*
X121885140Y-82153599D01*
X121905736Y-82389007D01*
X121950509Y-82556102D01*
X121966897Y-82617263D01*
X122066765Y-82831430D01*
X122202305Y-83025001D01*
X122369399Y-83192095D01*
X122554960Y-83322026D01*
X122593824Y-83366343D01*
X122607835Y-83423600D01*
X122593824Y-83480857D01*
X122554959Y-83525175D01*
X122369395Y-83655108D01*
X122202305Y-83822198D01*
X122066765Y-84015770D01*
X121966897Y-84229936D01*
X121905736Y-84458192D01*
X121885140Y-84693600D01*
X121905736Y-84929007D01*
X121950509Y-85096101D01*
X121966897Y-85157263D01*
X122066765Y-85371430D01*
X122202305Y-85565001D01*
X122369399Y-85732095D01*
X122554960Y-85862026D01*
X122593824Y-85906343D01*
X122607835Y-85963600D01*
X122593824Y-86020857D01*
X122554958Y-86065175D01*
X122394231Y-86177718D01*
X122369395Y-86195108D01*
X122202305Y-86362198D01*
X122066765Y-86555770D01*
X121966897Y-86769936D01*
X121905736Y-86998192D01*
X121885140Y-87233599D01*
X121905736Y-87469007D01*
X121938518Y-87591349D01*
X121966897Y-87697263D01*
X122066765Y-87911430D01*
X122202305Y-88105001D01*
X122369399Y-88272095D01*
X122554960Y-88402026D01*
X122593824Y-88446343D01*
X122607835Y-88503600D01*
X122593824Y-88560857D01*
X122554958Y-88605175D01*
X122374241Y-88731715D01*
X122369395Y-88735108D01*
X122202305Y-88902198D01*
X122066765Y-89095770D01*
X121966897Y-89309936D01*
X121905736Y-89538192D01*
X121885140Y-89773600D01*
X121905736Y-90009007D01*
X121950509Y-90176102D01*
X121966897Y-90237263D01*
X122066765Y-90451430D01*
X122202305Y-90645001D01*
X122369399Y-90812095D01*
X122554960Y-90942026D01*
X122593824Y-90986343D01*
X122607835Y-91043600D01*
X122593824Y-91100857D01*
X122554959Y-91145175D01*
X122369395Y-91275108D01*
X122202305Y-91442198D01*
X122066765Y-91635770D01*
X121966897Y-91849936D01*
X121905736Y-92078192D01*
X121885140Y-92313599D01*
X121905736Y-92549007D01*
X121946061Y-92699500D01*
X121966897Y-92777263D01*
X122066765Y-92991430D01*
X122202305Y-93185001D01*
X122369399Y-93352095D01*
X122554960Y-93482026D01*
X122593824Y-93526343D01*
X122607835Y-93583600D01*
X122593824Y-93640857D01*
X122554958Y-93685175D01*
X122390972Y-93800000D01*
X122369395Y-93815108D01*
X122202305Y-93982198D01*
X122066765Y-94175770D01*
X121966897Y-94389936D01*
X121905736Y-94618192D01*
X121885140Y-94853600D01*
X121905736Y-95089007D01*
X121950509Y-95256101D01*
X121966897Y-95317263D01*
X122066765Y-95531430D01*
X122202305Y-95725001D01*
X122369399Y-95892095D01*
X122554960Y-96022026D01*
X122593824Y-96066343D01*
X122607835Y-96123600D01*
X122593824Y-96180857D01*
X122554960Y-96225174D01*
X122390392Y-96340406D01*
X122369395Y-96355108D01*
X122202305Y-96522198D01*
X122066765Y-96715770D01*
X121966897Y-96929936D01*
X121905736Y-97158192D01*
X121885140Y-97393600D01*
X121905736Y-97629007D01*
X121949854Y-97793658D01*
X121966897Y-97857263D01*
X122066765Y-98071430D01*
X122202305Y-98265001D01*
X122369399Y-98432095D01*
X122554960Y-98562026D01*
X122593824Y-98606343D01*
X122607835Y-98663600D01*
X122593824Y-98720857D01*
X122554960Y-98765174D01*
X122383677Y-98885108D01*
X122369395Y-98895108D01*
X122202305Y-99062198D01*
X122066765Y-99255770D01*
X121966897Y-99469936D01*
X121905736Y-99698192D01*
X121885140Y-99933599D01*
X121100000Y-99933599D01*
X121100000Y-60524000D01*
X121116613Y-60462000D01*
X121162000Y-60416613D01*
X121224000Y-60400000D01*
X127476000Y-60400000D01*
X127538000Y-60416613D01*
G37*
%TD.AperFunction*%
%TD*%
M02*
