%TF.GenerationSoftware,KiCad,Pcbnew,7.0.1*%
%TF.CreationDate,2023-04-20T15:34:15-04:00*%
%TF.ProjectId,esp,6573702e-6b69-4636-9164-5f7063625858,1.0*%
%TF.SameCoordinates,Original*%
%TF.FileFunction,Soldermask,Bot*%
%TF.FilePolarity,Negative*%
%FSLAX46Y46*%
G04 Gerber Fmt 4.6, Leading zero omitted, Abs format (unit mm)*
G04 Created by KiCad (PCBNEW 7.0.1) date 2023-04-20 15:34:15*
%MOMM*%
%LPD*%
G01*
G04 APERTURE LIST*
%ADD10R,3.000000X3.000000*%
%ADD11C,3.000000*%
%ADD12R,1.700000X1.700000*%
%ADD13O,1.700000X1.700000*%
%ADD14C,1.600000*%
%ADD15R,1.800000X1.600000*%
%ADD16C,0.650000*%
%ADD17O,1.000000X2.100000*%
%ADD18O,1.000000X1.800000*%
G04 APERTURE END LIST*
D10*
%TO.C,J2*%
X188975000Y-71705000D03*
D11*
X188975000Y-66625000D03*
%TD*%
D10*
%TO.C,J1*%
X188900000Y-87675000D03*
D11*
X188900000Y-82595000D03*
%TD*%
D12*
%TO.C,J4*%
X160722734Y-77048200D03*
D13*
X160722734Y-79588200D03*
%TD*%
D14*
%TO.C,K1*%
X180463300Y-108283900D03*
X185543300Y-108283900D03*
X190623300Y-108283900D03*
X180463300Y-100663900D03*
X185543300Y-100663900D03*
X190623300Y-100663900D03*
D15*
X172843300Y-108283900D03*
D14*
X172843300Y-100663900D03*
%TD*%
D12*
%TO.C,J9*%
X160646534Y-84683600D03*
D13*
X160646534Y-87223600D03*
X160646534Y-89763600D03*
%TD*%
D12*
%TO.C,J7*%
X160722734Y-69428200D03*
D13*
X160722734Y-71968200D03*
%TD*%
D12*
%TO.C,J6*%
X166793334Y-94843600D03*
D13*
X166793334Y-97383600D03*
X166793334Y-99923600D03*
%TD*%
D12*
%TO.C,J3*%
X166869534Y-69428200D03*
D13*
X166869534Y-71968200D03*
%TD*%
D16*
%TO.C,P1*%
X135870200Y-119264200D03*
X141650200Y-119264200D03*
D17*
X134440200Y-118764200D03*
D18*
X134440200Y-122944200D03*
D17*
X143080200Y-118764200D03*
D18*
X143080200Y-122944200D03*
%TD*%
D14*
%TO.C,K2*%
X180416200Y-122250200D03*
X185496200Y-122250200D03*
X190576200Y-122250200D03*
X180416200Y-114630200D03*
X185496200Y-114630200D03*
X190576200Y-114630200D03*
D15*
X172796200Y-122250200D03*
D14*
X172796200Y-114630200D03*
%TD*%
D12*
%TO.C,J10*%
X160646534Y-94843600D03*
D13*
X160646534Y-97383600D03*
X160646534Y-99923600D03*
%TD*%
D12*
%TO.C,J11*%
X123240800Y-69453600D03*
D13*
X123240800Y-71993600D03*
X123240800Y-74533600D03*
X123240800Y-77073600D03*
X123240800Y-79613600D03*
X123240800Y-82153600D03*
X123240800Y-84693600D03*
X123240800Y-87233600D03*
X123240800Y-89773600D03*
X123240800Y-92313600D03*
X123240800Y-94853600D03*
X123240800Y-97393600D03*
X123240800Y-99933600D03*
X123240800Y-102473600D03*
X123240800Y-105013600D03*
X123240800Y-107553600D03*
X123240800Y-110093600D03*
X123240800Y-112633600D03*
X123240800Y-115173600D03*
%TD*%
D12*
%TO.C,J5*%
X166793334Y-84683600D03*
D13*
X166793334Y-87223600D03*
X166793334Y-89763600D03*
%TD*%
D12*
%TO.C,J12*%
X153720800Y-69453600D03*
D13*
X153720800Y-71993600D03*
X153720800Y-74533600D03*
X153720800Y-77073600D03*
X153720800Y-79613600D03*
X153720800Y-82153600D03*
X153720800Y-84693600D03*
X153720800Y-87233600D03*
X153720800Y-89773600D03*
X153720800Y-92313600D03*
X153720800Y-94853600D03*
X153720800Y-97393600D03*
X153720800Y-99933600D03*
X153720800Y-102473600D03*
X153720800Y-105013600D03*
X153720800Y-107553600D03*
X153720800Y-110093600D03*
X153720800Y-112633600D03*
X153720800Y-115173600D03*
%TD*%
M02*
