%TF.GenerationSoftware,KiCad,Pcbnew,7.0.1*%
%TF.CreationDate,2023-04-20T15:34:14-04:00*%
%TF.ProjectId,esp,6573702e-6b69-4636-9164-5f7063625858,1.0*%
%TF.SameCoordinates,Original*%
%TF.FileFunction,Copper,L2,Inr*%
%TF.FilePolarity,Positive*%
%FSLAX46Y46*%
G04 Gerber Fmt 4.6, Leading zero omitted, Abs format (unit mm)*
G04 Created by KiCad (PCBNEW 7.0.1) date 2023-04-20 15:34:14*
%MOMM*%
%LPD*%
G01*
G04 APERTURE LIST*
%TA.AperFunction,ComponentPad*%
%ADD10R,3.000000X3.000000*%
%TD*%
%TA.AperFunction,ComponentPad*%
%ADD11C,3.000000*%
%TD*%
%TA.AperFunction,ComponentPad*%
%ADD12R,1.700000X1.700000*%
%TD*%
%TA.AperFunction,ComponentPad*%
%ADD13O,1.700000X1.700000*%
%TD*%
%TA.AperFunction,ComponentPad*%
%ADD14C,1.600000*%
%TD*%
%TA.AperFunction,ComponentPad*%
%ADD15R,1.800000X1.600000*%
%TD*%
%TA.AperFunction,ComponentPad*%
%ADD16O,1.000000X2.100000*%
%TD*%
%TA.AperFunction,ComponentPad*%
%ADD17O,1.000000X1.800000*%
%TD*%
%TA.AperFunction,ViaPad*%
%ADD18C,0.800000*%
%TD*%
%TA.AperFunction,Conductor*%
%ADD19C,0.250000*%
%TD*%
G04 APERTURE END LIST*
D10*
%TO.N,Net-(J2-Pin_1)*%
%TO.C,J2*%
X188975000Y-71705000D03*
D11*
%TO.N,Net-(J2-Pin_2)*%
X188975000Y-66625000D03*
%TD*%
D10*
%TO.N,Net-(J1-Pin_1)*%
%TO.C,J1*%
X188900000Y-87675000D03*
D11*
%TO.N,Net-(J1-Pin_2)*%
X188900000Y-82595000D03*
%TD*%
D12*
%TO.N,/IO21*%
%TO.C,J4*%
X160722734Y-77048200D03*
D13*
%TO.N,GND*%
X160722734Y-79588200D03*
%TD*%
D14*
%TO.N,Net-(J1-Pin_2)*%
%TO.C,K1*%
X180463300Y-108283900D03*
%TO.N,unconnected-(K1-Pad12)*%
X185543300Y-108283900D03*
%TO.N,Net-(J2-Pin_2)*%
X190623300Y-108283900D03*
%TO.N,Net-(J2-Pin_1)*%
X180463300Y-100663900D03*
%TO.N,unconnected-(K1-Pad22)*%
X185543300Y-100663900D03*
%TO.N,Net-(J1-Pin_1)*%
X190623300Y-100663900D03*
D15*
%TO.N,+5V*%
X172843300Y-108283900D03*
D14*
%TO.N,Net-(U3-O1)*%
X172843300Y-100663900D03*
%TD*%
D12*
%TO.N,+5V*%
%TO.C,J9*%
X160646534Y-84683600D03*
D13*
%TO.N,GND*%
X160646534Y-87223600D03*
%TO.N,/IO18*%
X160646534Y-89763600D03*
%TD*%
D12*
%TO.N,Net-(J7-Pin_1)*%
%TO.C,J7*%
X160722734Y-69428200D03*
D13*
%TO.N,GND*%
X160722734Y-71968200D03*
%TD*%
D12*
%TO.N,+5V*%
%TO.C,J6*%
X166793334Y-94843600D03*
D13*
%TO.N,GND*%
X166793334Y-97383600D03*
%TO.N,/IO16*%
X166793334Y-99923600D03*
%TD*%
D12*
%TO.N,Net-(J3-Pin_1)*%
%TO.C,J3*%
X166869534Y-69428200D03*
D13*
%TO.N,GND*%
X166869534Y-71968200D03*
%TD*%
D16*
%TO.N,GND*%
%TO.C,P1*%
X134440200Y-118764200D03*
D17*
X134440200Y-122944200D03*
D16*
X143080200Y-118764200D03*
D17*
X143080200Y-122944200D03*
%TD*%
D14*
%TO.N,Net-(J1-Pin_1)*%
%TO.C,K2*%
X180416200Y-122250200D03*
%TO.N,unconnected-(K2-Pad12)*%
X185496200Y-122250200D03*
%TO.N,Net-(J2-Pin_2)*%
X190576200Y-122250200D03*
%TO.N,Net-(J2-Pin_1)*%
X180416200Y-114630200D03*
%TO.N,unconnected-(K2-Pad22)*%
X185496200Y-114630200D03*
%TO.N,Net-(J1-Pin_2)*%
X190576200Y-114630200D03*
D15*
%TO.N,+5V*%
X172796200Y-122250200D03*
D14*
%TO.N,Net-(U3-O2)*%
X172796200Y-114630200D03*
%TD*%
D12*
%TO.N,+5V*%
%TO.C,J10*%
X160646534Y-94843600D03*
D13*
%TO.N,GND*%
X160646534Y-97383600D03*
%TO.N,/IO17*%
X160646534Y-99923600D03*
%TD*%
D12*
%TO.N,+3.3V*%
%TO.C,J11*%
X123240800Y-69453600D03*
D13*
%TO.N,/EN*%
X123240800Y-71993600D03*
%TO.N,/VP*%
X123240800Y-74533600D03*
%TO.N,/VN*%
X123240800Y-77073600D03*
%TO.N,/IO34*%
X123240800Y-79613600D03*
%TO.N,/IO35*%
X123240800Y-82153600D03*
%TO.N,/IO32*%
X123240800Y-84693600D03*
%TO.N,/IO33*%
X123240800Y-87233600D03*
%TO.N,/IO25*%
X123240800Y-89773600D03*
%TO.N,/IO26*%
X123240800Y-92313600D03*
%TO.N,/IO27*%
X123240800Y-94853600D03*
%TO.N,/IO14*%
X123240800Y-97393600D03*
%TO.N,/IO12*%
X123240800Y-99933600D03*
%TO.N,GND*%
X123240800Y-102473600D03*
%TO.N,/IO13*%
X123240800Y-105013600D03*
%TO.N,unconnected-(J11-Pin_16-Pad16)*%
X123240800Y-107553600D03*
%TO.N,unconnected-(J11-Pin_17-Pad17)*%
X123240800Y-110093600D03*
%TO.N,unconnected-(J11-Pin_18-Pad18)*%
X123240800Y-112633600D03*
%TO.N,+5V*%
X123240800Y-115173600D03*
%TD*%
D12*
%TO.N,+5V*%
%TO.C,J5*%
X166793334Y-84683600D03*
D13*
%TO.N,GND*%
X166793334Y-87223600D03*
%TO.N,/IO5*%
X166793334Y-89763600D03*
%TD*%
D12*
%TO.N,GND*%
%TO.C,J12*%
X153720800Y-69453600D03*
D13*
%TO.N,/IO23*%
X153720800Y-71993600D03*
%TO.N,/IO22*%
X153720800Y-74533600D03*
%TO.N,/RX*%
X153720800Y-77073600D03*
%TO.N,/TX*%
X153720800Y-79613600D03*
%TO.N,/IO21*%
X153720800Y-82153600D03*
%TO.N,GND*%
X153720800Y-84693600D03*
%TO.N,/IO19*%
X153720800Y-87233600D03*
%TO.N,/IO18*%
X153720800Y-89773600D03*
%TO.N,/IO5*%
X153720800Y-92313600D03*
%TO.N,/IO17*%
X153720800Y-94853600D03*
%TO.N,/IO16*%
X153720800Y-97393600D03*
%TO.N,/IO4*%
X153720800Y-99933600D03*
%TO.N,/IO0*%
X153720800Y-102473600D03*
%TO.N,/IO2*%
X153720800Y-105013600D03*
%TO.N,/IO15*%
X153720800Y-107553600D03*
%TO.N,unconnected-(J12-Pin_17-Pad17)*%
X153720800Y-110093600D03*
%TO.N,unconnected-(J12-Pin_18-Pad18)*%
X153720800Y-112633600D03*
%TO.N,unconnected-(J12-Pin_19-Pad19)*%
X153720800Y-115173600D03*
%TD*%
D18*
%TO.N,+5V*%
X142488700Y-102288700D03*
X139000000Y-111700000D03*
X144500000Y-111500000D03*
%TO.N,GND*%
X126750000Y-68900000D03*
X138660200Y-76100000D03*
X137950000Y-76835200D03*
X137400000Y-91400000D03*
X137950000Y-75435200D03*
X136550000Y-78235200D03*
X137950000Y-78235200D03*
X137260200Y-76150000D03*
X137260200Y-77550000D03*
X135860200Y-77550000D03*
X135860200Y-76150000D03*
X135844400Y-108055600D03*
X136550000Y-75435200D03*
X138660200Y-77550000D03*
X136550000Y-76835200D03*
%TO.N,+3.3V*%
X134900000Y-93800000D03*
X144300000Y-93800000D03*
X141024283Y-96775500D03*
X126100000Y-103300000D03*
X167050000Y-109800000D03*
X167050000Y-120200000D03*
%TO.N,Net-(U2-DTR)*%
X134900000Y-98800000D03*
X149017100Y-103700000D03*
%TO.N,Net-(D1-K)*%
X146400000Y-109400000D03*
X135900000Y-100000000D03*
%TO.N,Net-(D2-K)*%
X145767100Y-110400000D03*
X140950000Y-97875000D03*
%TO.N,/EN*%
X127500000Y-71993600D03*
X129300000Y-111700000D03*
X130300000Y-99900000D03*
%TO.N,/IO13*%
X134200000Y-88600000D03*
%TO.N,/IO21*%
X169650000Y-108050000D03*
%TO.N,/IO18*%
X127700000Y-99800000D03*
%TO.N,/IO17*%
X136713000Y-89100000D03*
%TO.N,/IO16*%
X148700000Y-116100000D03*
%TO.N,/IO0*%
X129468100Y-99168100D03*
X144800000Y-88375500D03*
X147500000Y-86700000D03*
%TO.N,/IO2*%
X140800000Y-91300000D03*
%TO.N,/IO15*%
X141500000Y-88500000D03*
%TO.N,Net-(P1-CC1)*%
X133250000Y-116525000D03*
X137084700Y-116200000D03*
%TO.N,/D+*%
X139749500Y-119538741D03*
X138350000Y-119575000D03*
%TO.N,/RST*%
X135800000Y-104900000D03*
X148000000Y-104000000D03*
%TO.N,Net-(U2-TXD)*%
X149800000Y-103000000D03*
X131200000Y-93600000D03*
%TO.N,Net-(U2-RXD)*%
X127500000Y-93200000D03*
X147100000Y-103013200D03*
%TO.N,Net-(P1-CC2)*%
X144025000Y-116375000D03*
X142000000Y-116350000D03*
%TD*%
D19*
%TO.N,+5V*%
X171718300Y-99768566D02*
X166793334Y-94843600D01*
X156731534Y-98758600D02*
X160646534Y-94843600D01*
X160646534Y-94843600D02*
X166793334Y-94843600D01*
X142488700Y-102288700D02*
X148411300Y-102288700D01*
X144300000Y-111700000D02*
X144500000Y-111500000D01*
X151941400Y-98758600D02*
X156731534Y-98758600D01*
X148411300Y-102288700D02*
X151941400Y-98758600D01*
X139000000Y-111700000D02*
X144300000Y-111700000D01*
X171718300Y-107158900D02*
X171718300Y-99768566D01*
X172843300Y-108283900D02*
X171718300Y-107158900D01*
%TO.N,/EN*%
X134925000Y-88299695D02*
X134925000Y-91475000D01*
X129675000Y-100525000D02*
X130300000Y-99900000D01*
X129300000Y-100900000D02*
X130300000Y-99900000D01*
X126900000Y-80274695D02*
X134925000Y-88299695D01*
X129300000Y-111700000D02*
X129300000Y-100900000D01*
X127500000Y-71993600D02*
X127500000Y-72350000D01*
X127325000Y-100525000D02*
X129675000Y-100525000D01*
X134925000Y-91475000D02*
X126975000Y-99425000D01*
X127500000Y-71993600D02*
X123240800Y-71993600D01*
X127500000Y-72350000D02*
X126900000Y-72950000D01*
X126975000Y-100175000D02*
X127325000Y-100525000D01*
X126900000Y-72950000D02*
X126900000Y-80274695D01*
X126975000Y-99425000D02*
X126975000Y-100175000D01*
%TO.N,/IO13*%
X125900000Y-93500000D02*
X125900000Y-102354400D01*
X130800000Y-88600000D02*
X125900000Y-93500000D01*
X125900000Y-102354400D02*
X123240800Y-105013600D01*
X134200000Y-88600000D02*
X130800000Y-88600000D01*
%TO.N,/IO18*%
X127700000Y-99800000D02*
X140600000Y-86900000D01*
X149922200Y-85975000D02*
X153720800Y-89773600D01*
X146564104Y-85975000D02*
X149922200Y-85975000D01*
X140600000Y-86900000D02*
X145639104Y-86900000D01*
X145639104Y-86900000D02*
X146564104Y-85975000D01*
%TO.N,/IO0*%
X130657205Y-99168100D02*
X139400000Y-90425305D01*
X147500000Y-86700000D02*
X146475500Y-86700000D01*
X139400000Y-89574695D02*
X141274695Y-87700000D01*
X146475500Y-86700000D02*
X144800000Y-88375500D01*
X144124500Y-87700000D02*
X144800000Y-88375500D01*
X129468100Y-99168100D02*
X130657205Y-99168100D01*
X141274695Y-87700000D02*
X144124500Y-87700000D01*
X139400000Y-90425305D02*
X139400000Y-89574695D01*
%TO.N,/IO2*%
X153720800Y-105013600D02*
X144188295Y-105013600D01*
X140100000Y-100925305D02*
X140100000Y-92000000D01*
X140100000Y-92000000D02*
X140800000Y-91300000D01*
X144188295Y-105013600D02*
X140100000Y-100925305D01*
%TO.N,/IO15*%
X139225000Y-100686701D02*
X146091899Y-107553600D01*
X141500000Y-88500000D02*
X139850000Y-90150000D01*
X139225000Y-91236701D02*
X139225000Y-100686701D01*
X139850000Y-90150000D02*
X139850000Y-90611701D01*
X139850000Y-90611701D02*
X139225000Y-91236701D01*
X146091899Y-107553600D02*
X153720800Y-107553600D01*
%TD*%
%TA.AperFunction,Conductor*%
%TO.N,GND*%
G36*
X138723385Y-89809135D02*
G01*
X138760985Y-89853158D01*
X138774500Y-89909453D01*
X138774500Y-90114852D01*
X138765061Y-90162305D01*
X138738181Y-90202533D01*
X135744069Y-93196643D01*
X135686386Y-93229279D01*
X135620134Y-93227544D01*
X135564238Y-93191935D01*
X135557997Y-93185004D01*
X135505871Y-93127112D01*
X135479458Y-93107922D01*
X135444156Y-93068195D01*
X135428727Y-93017334D01*
X135436009Y-92964687D01*
X135464662Y-92919926D01*
X138562818Y-89821772D01*
X138612182Y-89791522D01*
X138669898Y-89786980D01*
X138723385Y-89809135D01*
G37*
%TD.AperFunction*%
%TA.AperFunction,Conductor*%
G36*
X127538000Y-60416613D02*
G01*
X127583387Y-60462000D01*
X127600000Y-60524000D01*
X127600000Y-68100000D01*
X149500000Y-68100000D01*
X149500000Y-66624999D01*
X186969389Y-66624999D01*
X186989804Y-66910429D01*
X187050629Y-67190041D01*
X187150634Y-67458163D01*
X187287772Y-67709313D01*
X187373517Y-67823855D01*
X187459261Y-67938395D01*
X187661605Y-68140739D01*
X187833415Y-68269354D01*
X187890686Y-68312227D01*
X188030435Y-68388535D01*
X188141839Y-68449367D01*
X188409954Y-68549369D01*
X188409957Y-68549369D01*
X188409958Y-68549370D01*
X188462217Y-68560738D01*
X188689572Y-68610196D01*
X188953012Y-68629037D01*
X188974999Y-68630610D01*
X188974999Y-68630609D01*
X188975000Y-68630610D01*
X189260428Y-68610196D01*
X189540046Y-68549369D01*
X189808161Y-68449367D01*
X190059315Y-68312226D01*
X190288395Y-68140739D01*
X190490739Y-67938395D01*
X190662226Y-67709315D01*
X190799367Y-67458161D01*
X190899369Y-67190046D01*
X190960196Y-66910428D01*
X190980610Y-66625000D01*
X190960196Y-66339572D01*
X190899369Y-66059954D01*
X190799367Y-65791839D01*
X190662226Y-65540685D01*
X190490739Y-65311605D01*
X190288395Y-65109261D01*
X190173855Y-65023517D01*
X190059313Y-64937772D01*
X189808163Y-64800634D01*
X189808162Y-64800633D01*
X189808161Y-64800633D01*
X189540046Y-64700631D01*
X189540041Y-64700629D01*
X189260429Y-64639804D01*
X188975000Y-64619389D01*
X188689570Y-64639804D01*
X188409958Y-64700629D01*
X188141836Y-64800634D01*
X187890686Y-64937772D01*
X187661602Y-65109263D01*
X187459263Y-65311602D01*
X187287772Y-65540686D01*
X187150634Y-65791836D01*
X187050629Y-66059958D01*
X186989804Y-66339570D01*
X186969389Y-66624999D01*
X149500000Y-66624999D01*
X149500000Y-60573860D01*
X149516589Y-60511900D01*
X149561919Y-60466520D01*
X149623860Y-60449860D01*
X158780526Y-60439501D01*
X193575861Y-60400140D01*
X193637919Y-60416706D01*
X193683364Y-60462100D01*
X193700000Y-60524140D01*
X193700000Y-125876000D01*
X193683387Y-125938000D01*
X193638000Y-125983387D01*
X193576000Y-126000000D01*
X121224000Y-126000000D01*
X121162000Y-125983387D01*
X121116613Y-125938000D01*
X121100000Y-125876000D01*
X121100000Y-123194200D01*
X133440200Y-123194200D01*
X133440200Y-123394910D01*
X133455619Y-123546539D01*
X133516503Y-123740589D01*
X133615203Y-123918414D01*
X133747679Y-124072731D01*
X133908507Y-124197221D01*
X134091105Y-124286789D01*
X134190199Y-124312446D01*
X134190200Y-124312446D01*
X134190200Y-123194200D01*
X134690200Y-123194200D01*
X134690200Y-124317566D01*
X134692148Y-124317267D01*
X134882863Y-124246635D01*
X135055463Y-124139054D01*
X135202869Y-123998933D01*
X135319055Y-123832005D01*
X135399259Y-123645107D01*
X135440200Y-123445889D01*
X135440200Y-123194200D01*
X142080200Y-123194200D01*
X142080200Y-123394910D01*
X142095619Y-123546539D01*
X142156503Y-123740589D01*
X142255203Y-123918414D01*
X142387679Y-124072731D01*
X142548507Y-124197221D01*
X142731105Y-124286789D01*
X142830199Y-124312446D01*
X142830200Y-124312447D01*
X142830200Y-123194200D01*
X143330200Y-123194200D01*
X143330200Y-124317566D01*
X143332148Y-124317267D01*
X143522863Y-124246635D01*
X143695463Y-124139054D01*
X143842869Y-123998933D01*
X143959055Y-123832005D01*
X144039259Y-123645107D01*
X144080200Y-123445889D01*
X144080200Y-123194200D01*
X143330200Y-123194200D01*
X142830200Y-123194200D01*
X142080200Y-123194200D01*
X135440200Y-123194200D01*
X134690200Y-123194200D01*
X134190200Y-123194200D01*
X133440200Y-123194200D01*
X121100000Y-123194200D01*
X121100000Y-123098069D01*
X171395700Y-123098069D01*
X171402109Y-123157683D01*
X171452404Y-123292531D01*
X171538654Y-123407746D01*
X171653869Y-123493996D01*
X171788717Y-123544291D01*
X171848327Y-123550700D01*
X173744072Y-123550699D01*
X173803683Y-123544291D01*
X173938531Y-123493996D01*
X174053746Y-123407746D01*
X174139996Y-123292531D01*
X174190291Y-123157683D01*
X174196700Y-123098073D01*
X174196699Y-122250200D01*
X179110731Y-122250200D01*
X179130564Y-122476889D01*
X179189461Y-122696697D01*
X179285632Y-122902935D01*
X179416153Y-123089340D01*
X179577059Y-123250246D01*
X179763464Y-123380767D01*
X179763465Y-123380767D01*
X179763466Y-123380768D01*
X179969704Y-123476939D01*
X180189508Y-123535835D01*
X180416200Y-123555668D01*
X180642892Y-123535835D01*
X180862696Y-123476939D01*
X181068934Y-123380768D01*
X181255339Y-123250247D01*
X181416247Y-123089339D01*
X181546768Y-122902934D01*
X181642939Y-122696696D01*
X181701835Y-122476892D01*
X181721668Y-122250200D01*
X184190731Y-122250200D01*
X184210564Y-122476889D01*
X184269461Y-122696697D01*
X184365632Y-122902935D01*
X184496153Y-123089340D01*
X184657059Y-123250246D01*
X184843464Y-123380767D01*
X184843465Y-123380767D01*
X184843466Y-123380768D01*
X185049704Y-123476939D01*
X185269508Y-123535835D01*
X185496200Y-123555668D01*
X185722892Y-123535835D01*
X185942696Y-123476939D01*
X186148934Y-123380768D01*
X186335339Y-123250247D01*
X186496247Y-123089339D01*
X186626768Y-122902934D01*
X186722939Y-122696696D01*
X186781835Y-122476892D01*
X186801668Y-122250200D01*
X189270731Y-122250200D01*
X189290564Y-122476889D01*
X189349461Y-122696697D01*
X189445632Y-122902935D01*
X189576153Y-123089340D01*
X189737059Y-123250246D01*
X189923464Y-123380767D01*
X189923465Y-123380767D01*
X189923466Y-123380768D01*
X190129704Y-123476939D01*
X190349508Y-123535835D01*
X190576200Y-123555668D01*
X190802892Y-123535835D01*
X191022696Y-123476939D01*
X191228934Y-123380768D01*
X191415339Y-123250247D01*
X191576247Y-123089339D01*
X191706768Y-122902934D01*
X191802939Y-122696696D01*
X191861835Y-122476892D01*
X191881668Y-122250200D01*
X191861835Y-122023508D01*
X191802939Y-121803704D01*
X191706768Y-121597466D01*
X191688120Y-121570834D01*
X191576246Y-121411059D01*
X191415340Y-121250153D01*
X191228935Y-121119632D01*
X191022697Y-121023461D01*
X190802889Y-120964564D01*
X190576200Y-120944731D01*
X190349510Y-120964564D01*
X190129702Y-121023461D01*
X189923464Y-121119632D01*
X189737059Y-121250153D01*
X189576153Y-121411059D01*
X189445632Y-121597464D01*
X189349461Y-121803702D01*
X189290564Y-122023510D01*
X189270731Y-122250200D01*
X186801668Y-122250200D01*
X186781835Y-122023508D01*
X186722939Y-121803704D01*
X186626768Y-121597466D01*
X186608120Y-121570834D01*
X186496246Y-121411059D01*
X186335340Y-121250153D01*
X186148935Y-121119632D01*
X185942697Y-121023461D01*
X185722889Y-120964564D01*
X185496200Y-120944731D01*
X185269510Y-120964564D01*
X185049702Y-121023461D01*
X184843464Y-121119632D01*
X184657059Y-121250153D01*
X184496153Y-121411059D01*
X184365632Y-121597464D01*
X184269461Y-121803702D01*
X184210564Y-122023510D01*
X184190731Y-122250200D01*
X181721668Y-122250200D01*
X181701835Y-122023508D01*
X181642939Y-121803704D01*
X181546768Y-121597466D01*
X181528120Y-121570834D01*
X181416246Y-121411059D01*
X181255340Y-121250153D01*
X181068935Y-121119632D01*
X180862697Y-121023461D01*
X180642889Y-120964564D01*
X180416200Y-120944731D01*
X180189510Y-120964564D01*
X179969702Y-121023461D01*
X179763464Y-121119632D01*
X179577059Y-121250153D01*
X179416153Y-121411059D01*
X179285632Y-121597464D01*
X179189461Y-121803702D01*
X179130564Y-122023510D01*
X179110731Y-122250200D01*
X174196699Y-122250200D01*
X174196699Y-121402328D01*
X174190291Y-121342717D01*
X174139996Y-121207869D01*
X174053746Y-121092654D01*
X173938531Y-121006404D01*
X173803683Y-120956109D01*
X173744073Y-120949700D01*
X173744069Y-120949700D01*
X171848330Y-120949700D01*
X171788715Y-120956109D01*
X171653869Y-121006404D01*
X171538654Y-121092654D01*
X171452404Y-121207868D01*
X171402109Y-121342716D01*
X171395700Y-121402330D01*
X171395700Y-123098069D01*
X121100000Y-123098069D01*
X121100000Y-122694200D01*
X133440200Y-122694200D01*
X134190200Y-122694200D01*
X134190200Y-121575953D01*
X134690200Y-121575953D01*
X134690200Y-122694200D01*
X135440200Y-122694200D01*
X142080200Y-122694200D01*
X142830200Y-122694200D01*
X142830200Y-121575953D01*
X143330200Y-121575953D01*
X143330200Y-122694200D01*
X144080200Y-122694200D01*
X144080200Y-122493490D01*
X144064780Y-122341860D01*
X144003896Y-122147810D01*
X143905196Y-121969985D01*
X143772720Y-121815668D01*
X143611892Y-121691178D01*
X143429294Y-121601610D01*
X143330200Y-121575953D01*
X142830200Y-121575953D01*
X142830200Y-121570834D01*
X142828251Y-121571132D01*
X142637536Y-121641764D01*
X142464936Y-121749345D01*
X142317530Y-121889466D01*
X142201344Y-122056394D01*
X142121140Y-122243292D01*
X142080200Y-122442511D01*
X142080200Y-122694200D01*
X135440200Y-122694200D01*
X135440200Y-122493490D01*
X135424780Y-122341860D01*
X135363896Y-122147810D01*
X135265196Y-121969985D01*
X135132720Y-121815668D01*
X134971892Y-121691178D01*
X134789294Y-121601610D01*
X134690200Y-121575953D01*
X134190200Y-121575953D01*
X134190200Y-121570834D01*
X134188251Y-121571132D01*
X133997536Y-121641764D01*
X133824936Y-121749345D01*
X133677530Y-121889466D01*
X133561344Y-122056394D01*
X133481140Y-122243292D01*
X133440200Y-122442511D01*
X133440200Y-122694200D01*
X121100000Y-122694200D01*
X121100000Y-119014200D01*
X133440200Y-119014200D01*
X133440200Y-119364910D01*
X133455619Y-119516539D01*
X133516503Y-119710589D01*
X133615203Y-119888414D01*
X133747679Y-120042731D01*
X133908507Y-120167221D01*
X134091105Y-120256789D01*
X134190199Y-120282446D01*
X134190200Y-120282446D01*
X134190200Y-119014200D01*
X133440200Y-119014200D01*
X121100000Y-119014200D01*
X121100000Y-115173599D01*
X121885140Y-115173599D01*
X121905736Y-115409007D01*
X121937382Y-115527110D01*
X121966897Y-115637263D01*
X122066765Y-115851430D01*
X122202305Y-116045001D01*
X122369399Y-116212095D01*
X122562970Y-116347635D01*
X122777137Y-116447503D01*
X123005392Y-116508663D01*
X123240800Y-116529259D01*
X123289491Y-116524999D01*
X132344540Y-116524999D01*
X132364326Y-116713257D01*
X132422820Y-116893284D01*
X132517466Y-117057216D01*
X132644129Y-117197889D01*
X132797269Y-117309151D01*
X132970197Y-117386144D01*
X133155352Y-117425500D01*
X133155354Y-117425500D01*
X133344646Y-117425500D01*
X133344647Y-117425500D01*
X133434539Y-117406392D01*
X133529803Y-117386144D01*
X133529803Y-117386143D01*
X133538115Y-117384377D01*
X133596758Y-117386101D01*
X133648044Y-117414590D01*
X133680494Y-117463466D01*
X133686843Y-117521790D01*
X133665671Y-117576504D01*
X133561344Y-117726394D01*
X133481140Y-117913292D01*
X133440200Y-118112511D01*
X133440200Y-118514200D01*
X134190200Y-118514200D01*
X134190200Y-117245953D01*
X134690200Y-117245953D01*
X134690200Y-120287566D01*
X134692148Y-120287267D01*
X134882863Y-120216635D01*
X135055463Y-120109054D01*
X135202869Y-119968933D01*
X135319056Y-119802004D01*
X135332122Y-119771557D01*
X135365203Y-119726456D01*
X135414738Y-119700480D01*
X135470649Y-119698916D01*
X135521558Y-119722079D01*
X135579967Y-119766898D01*
X135719963Y-119824886D01*
X135719964Y-119824887D01*
X135832479Y-119839700D01*
X135832480Y-119839700D01*
X135907920Y-119839700D01*
X135907921Y-119839700D01*
X135964177Y-119832293D01*
X136020436Y-119824887D01*
X136160433Y-119766898D01*
X136280651Y-119674651D01*
X136357116Y-119575000D01*
X137444540Y-119575000D01*
X137464326Y-119763257D01*
X137522820Y-119943284D01*
X137617466Y-120107216D01*
X137744129Y-120247889D01*
X137897269Y-120359151D01*
X138070197Y-120436144D01*
X138255352Y-120475500D01*
X138255354Y-120475500D01*
X138444646Y-120475500D01*
X138444648Y-120475500D01*
X138568083Y-120449262D01*
X138629803Y-120436144D01*
X138802730Y-120359151D01*
X138955871Y-120247888D01*
X138975152Y-120226473D01*
X139024890Y-120192924D01*
X139084558Y-120186653D01*
X139140186Y-120209128D01*
X139296769Y-120322892D01*
X139469697Y-120399885D01*
X139654852Y-120439241D01*
X139654854Y-120439241D01*
X139844146Y-120439241D01*
X139844148Y-120439241D01*
X139967583Y-120413003D01*
X140029303Y-120399885D01*
X140202230Y-120322892D01*
X140257898Y-120282447D01*
X140355370Y-120211630D01*
X140377860Y-120186653D01*
X140482033Y-120070957D01*
X140576679Y-119907025D01*
X140635174Y-119726997D01*
X140654960Y-119538741D01*
X140635174Y-119350485D01*
X140607137Y-119264199D01*
X141069733Y-119264199D01*
X141089512Y-119414435D01*
X141141002Y-119538741D01*
X141147502Y-119554433D01*
X141239749Y-119674651D01*
X141359967Y-119766898D01*
X141499963Y-119824886D01*
X141499964Y-119824887D01*
X141612479Y-119839700D01*
X141612480Y-119839700D01*
X141687920Y-119839700D01*
X141687921Y-119839700D01*
X141744177Y-119832293D01*
X141800436Y-119824887D01*
X141940433Y-119766898D01*
X141999780Y-119721358D01*
X142047616Y-119698858D01*
X142100481Y-119698327D01*
X142148762Y-119719866D01*
X142183683Y-119759559D01*
X142255203Y-119888414D01*
X142387679Y-120042731D01*
X142548507Y-120167221D01*
X142731105Y-120256789D01*
X142830199Y-120282446D01*
X142830200Y-120282447D01*
X142830200Y-119014200D01*
X143330200Y-119014200D01*
X143330200Y-120287566D01*
X143332148Y-120287267D01*
X143522863Y-120216635D01*
X143549553Y-120199999D01*
X166144540Y-120199999D01*
X166164326Y-120388257D01*
X166222820Y-120568284D01*
X166317466Y-120732216D01*
X166444129Y-120872889D01*
X166597269Y-120984151D01*
X166770197Y-121061144D01*
X166955352Y-121100500D01*
X166955354Y-121100500D01*
X167144646Y-121100500D01*
X167144648Y-121100500D01*
X167268083Y-121074262D01*
X167329803Y-121061144D01*
X167502730Y-120984151D01*
X167655871Y-120872888D01*
X167782533Y-120732216D01*
X167877179Y-120568284D01*
X167935674Y-120388256D01*
X167955460Y-120200000D01*
X167935674Y-120011744D01*
X167901649Y-119907025D01*
X167877179Y-119831715D01*
X167782533Y-119667783D01*
X167655870Y-119527110D01*
X167502730Y-119415848D01*
X167329802Y-119338855D01*
X167144648Y-119299500D01*
X167144646Y-119299500D01*
X166955354Y-119299500D01*
X166955352Y-119299500D01*
X166770197Y-119338855D01*
X166597269Y-119415848D01*
X166444129Y-119527110D01*
X166317466Y-119667783D01*
X166222820Y-119831715D01*
X166164326Y-120011742D01*
X166144540Y-120199999D01*
X143549553Y-120199999D01*
X143695463Y-120109054D01*
X143842869Y-119968933D01*
X143959055Y-119802005D01*
X144039259Y-119615107D01*
X144080200Y-119415889D01*
X144080200Y-119014200D01*
X143330200Y-119014200D01*
X142830200Y-119014200D01*
X142830200Y-117240834D01*
X142828251Y-117241132D01*
X142637537Y-117311763D01*
X142582102Y-117346316D01*
X142580794Y-117346722D01*
X142579828Y-117347733D01*
X142464935Y-117419347D01*
X142317530Y-117559466D01*
X142201344Y-117726394D01*
X142121140Y-117913292D01*
X142080200Y-118112511D01*
X142080200Y-118633816D01*
X142065558Y-118692269D01*
X142025091Y-118736918D01*
X141968354Y-118757219D01*
X141908747Y-118748377D01*
X141800435Y-118703512D01*
X141687921Y-118688700D01*
X141687920Y-118688700D01*
X141612480Y-118688700D01*
X141612479Y-118688700D01*
X141499964Y-118703512D01*
X141359968Y-118761501D01*
X141239749Y-118853749D01*
X141147501Y-118973968D01*
X141089512Y-119113964D01*
X141069733Y-119264199D01*
X140607137Y-119264199D01*
X140604832Y-119257104D01*
X140576679Y-119170456D01*
X140482033Y-119006524D01*
X140355370Y-118865851D01*
X140202230Y-118754589D01*
X140029302Y-118677596D01*
X139844148Y-118638241D01*
X139844146Y-118638241D01*
X139654854Y-118638241D01*
X139654852Y-118638241D01*
X139469697Y-118677596D01*
X139296769Y-118754589D01*
X139143628Y-118865853D01*
X139124345Y-118887268D01*
X139074606Y-118920817D01*
X139014938Y-118927087D01*
X138959311Y-118904612D01*
X138955872Y-118902114D01*
X138955871Y-118902112D01*
X138802730Y-118790849D01*
X138802729Y-118790848D01*
X138802727Y-118790847D01*
X138629802Y-118713855D01*
X138444648Y-118674500D01*
X138444646Y-118674500D01*
X138255354Y-118674500D01*
X138255352Y-118674500D01*
X138070197Y-118713855D01*
X137897269Y-118790848D01*
X137744129Y-118902110D01*
X137617466Y-119042783D01*
X137522820Y-119206715D01*
X137464326Y-119386742D01*
X137444540Y-119575000D01*
X136357116Y-119575000D01*
X136372898Y-119554433D01*
X136430887Y-119414436D01*
X136450666Y-119264200D01*
X136430887Y-119113964D01*
X136372898Y-118973967D01*
X136280651Y-118853749D01*
X136160433Y-118761502D01*
X136150093Y-118757219D01*
X136020435Y-118703512D01*
X135907921Y-118688700D01*
X135907920Y-118688700D01*
X135832480Y-118688700D01*
X135832479Y-118688700D01*
X135719964Y-118703512D01*
X135611653Y-118748377D01*
X135552046Y-118757219D01*
X135495309Y-118736918D01*
X135454842Y-118692269D01*
X135440200Y-118633816D01*
X135440200Y-118163490D01*
X135424780Y-118011860D01*
X135363896Y-117817810D01*
X135265196Y-117639985D01*
X135132720Y-117485668D01*
X134971892Y-117361178D01*
X134789294Y-117271610D01*
X134690200Y-117245953D01*
X134190200Y-117245953D01*
X134190200Y-117240834D01*
X134188255Y-117241131D01*
X134103194Y-117272634D01*
X134038293Y-117278414D01*
X133979422Y-117250492D01*
X133942834Y-117196576D01*
X133938634Y-117131554D01*
X133967980Y-117073379D01*
X133978996Y-117061144D01*
X133982533Y-117057216D01*
X134077179Y-116893284D01*
X134135674Y-116713256D01*
X134155460Y-116525000D01*
X134135674Y-116336744D01*
X134091243Y-116200000D01*
X136179240Y-116200000D01*
X136199026Y-116388257D01*
X136257520Y-116568284D01*
X136352166Y-116732216D01*
X136478829Y-116872889D01*
X136631969Y-116984151D01*
X136804897Y-117061144D01*
X136990052Y-117100500D01*
X136990054Y-117100500D01*
X137179346Y-117100500D01*
X137179348Y-117100500D01*
X137306941Y-117073379D01*
X137364503Y-117061144D01*
X137537430Y-116984151D01*
X137569097Y-116961144D01*
X137690570Y-116872889D01*
X137817233Y-116732216D01*
X137911879Y-116568284D01*
X137925943Y-116524999D01*
X137970374Y-116388256D01*
X137974395Y-116350000D01*
X141094540Y-116350000D01*
X141114326Y-116538257D01*
X141172820Y-116718284D01*
X141267466Y-116882216D01*
X141394129Y-117022889D01*
X141547269Y-117134151D01*
X141720197Y-117211144D01*
X141905352Y-117250500D01*
X141905354Y-117250500D01*
X142094646Y-117250500D01*
X142094648Y-117250500D01*
X142226410Y-117222493D01*
X142279803Y-117211144D01*
X142452730Y-117134151D01*
X142605871Y-117022888D01*
X142732533Y-116882216D01*
X142827179Y-116718284D01*
X142885674Y-116538256D01*
X142887866Y-116517398D01*
X142908385Y-116461023D01*
X142952971Y-116420877D01*
X143011185Y-116406362D01*
X143069400Y-116420876D01*
X143113986Y-116461022D01*
X143134506Y-116517397D01*
X143136699Y-116538257D01*
X143139326Y-116563257D01*
X143197820Y-116743284D01*
X143292466Y-116907216D01*
X143402890Y-117029854D01*
X143431708Y-117085572D01*
X143429568Y-117148265D01*
X143397017Y-117201889D01*
X143360508Y-117222493D01*
X143330200Y-117245953D01*
X143330200Y-118514200D01*
X144080200Y-118514200D01*
X144080200Y-118163490D01*
X144064780Y-118011860D01*
X144003896Y-117817810D01*
X143905196Y-117639985D01*
X143772722Y-117485670D01*
X143767887Y-117481928D01*
X143728341Y-117429130D01*
X143721467Y-117363523D01*
X143749210Y-117303674D01*
X143803718Y-117266522D01*
X143869567Y-117262580D01*
X143930352Y-117275500D01*
X143930354Y-117275500D01*
X144119646Y-117275500D01*
X144119648Y-117275500D01*
X144258655Y-117245953D01*
X144304803Y-117236144D01*
X144477730Y-117159151D01*
X144512140Y-117134151D01*
X144630870Y-117047889D01*
X144757533Y-116907216D01*
X144852179Y-116743284D01*
X144909040Y-116568284D01*
X144910674Y-116563256D01*
X144930460Y-116375000D01*
X144910674Y-116186744D01*
X144882489Y-116099999D01*
X147794540Y-116099999D01*
X147814326Y-116288257D01*
X147872820Y-116468284D01*
X147967466Y-116632216D01*
X148094129Y-116772889D01*
X148247269Y-116884151D01*
X148420197Y-116961144D01*
X148605352Y-117000500D01*
X148605354Y-117000500D01*
X148794646Y-117000500D01*
X148794648Y-117000500D01*
X148918083Y-116974262D01*
X148979803Y-116961144D01*
X149152730Y-116884151D01*
X149305871Y-116772888D01*
X149432533Y-116632216D01*
X149527179Y-116468284D01*
X149585674Y-116288256D01*
X149605460Y-116100000D01*
X149585674Y-115911744D01*
X149536619Y-115760768D01*
X149527179Y-115731715D01*
X149432533Y-115567783D01*
X149305870Y-115427110D01*
X149152730Y-115315848D01*
X148979802Y-115238855D01*
X148794648Y-115199500D01*
X148794646Y-115199500D01*
X148605354Y-115199500D01*
X148605352Y-115199500D01*
X148420197Y-115238855D01*
X148247269Y-115315848D01*
X148094129Y-115427110D01*
X147967466Y-115567783D01*
X147872820Y-115731715D01*
X147814326Y-115911742D01*
X147794540Y-116099999D01*
X144882489Y-116099999D01*
X144852179Y-116006716D01*
X144852179Y-116006715D01*
X144757533Y-115842783D01*
X144630870Y-115702110D01*
X144477730Y-115590848D01*
X144304802Y-115513855D01*
X144119648Y-115474500D01*
X144119646Y-115474500D01*
X143930354Y-115474500D01*
X143930352Y-115474500D01*
X143745197Y-115513855D01*
X143572269Y-115590848D01*
X143419129Y-115702110D01*
X143292466Y-115842783D01*
X143197820Y-116006715D01*
X143139325Y-116186747D01*
X143137133Y-116207601D01*
X143116612Y-116263979D01*
X143072025Y-116304124D01*
X143013811Y-116318637D01*
X142955597Y-116304122D01*
X142911011Y-116263975D01*
X142890493Y-116207601D01*
X142885674Y-116161744D01*
X142835302Y-116006715D01*
X142827179Y-115981715D01*
X142732533Y-115817783D01*
X142605870Y-115677110D01*
X142452730Y-115565848D01*
X142279802Y-115488855D01*
X142094648Y-115449500D01*
X142094646Y-115449500D01*
X141905354Y-115449500D01*
X141905352Y-115449500D01*
X141720197Y-115488855D01*
X141547269Y-115565848D01*
X141394129Y-115677110D01*
X141267466Y-115817783D01*
X141172820Y-115981715D01*
X141114326Y-116161742D01*
X141094540Y-116350000D01*
X137974395Y-116350000D01*
X137990160Y-116200000D01*
X137970374Y-116011744D01*
X137937881Y-115911742D01*
X137911879Y-115831715D01*
X137817233Y-115667783D01*
X137690570Y-115527110D01*
X137537430Y-115415848D01*
X137364502Y-115338855D01*
X137179348Y-115299500D01*
X137179346Y-115299500D01*
X136990054Y-115299500D01*
X136990052Y-115299500D01*
X136804897Y-115338855D01*
X136631969Y-115415848D01*
X136478829Y-115527110D01*
X136352166Y-115667783D01*
X136257520Y-115831715D01*
X136199026Y-116011742D01*
X136179240Y-116200000D01*
X134091243Y-116200000D01*
X134077179Y-116156716D01*
X134077179Y-116156715D01*
X133982533Y-115992783D01*
X133855870Y-115852110D01*
X133702730Y-115740848D01*
X133529802Y-115663855D01*
X133344648Y-115624500D01*
X133344646Y-115624500D01*
X133155354Y-115624500D01*
X133155352Y-115624500D01*
X132970197Y-115663855D01*
X132797269Y-115740848D01*
X132644129Y-115852110D01*
X132517466Y-115992783D01*
X132422820Y-116156715D01*
X132364326Y-116336742D01*
X132344540Y-116524999D01*
X123289491Y-116524999D01*
X123476208Y-116508663D01*
X123704463Y-116447503D01*
X123918630Y-116347635D01*
X124112201Y-116212095D01*
X124279295Y-116045001D01*
X124414835Y-115851430D01*
X124514703Y-115637263D01*
X124575863Y-115409008D01*
X124596459Y-115173600D01*
X124575863Y-114938192D01*
X124514703Y-114709937D01*
X124414835Y-114495771D01*
X124279295Y-114302199D01*
X124112201Y-114135105D01*
X123926639Y-114005173D01*
X123887775Y-113960857D01*
X123873764Y-113903600D01*
X123887775Y-113846343D01*
X123926639Y-113802026D01*
X124112201Y-113672095D01*
X124279295Y-113505001D01*
X124414835Y-113311430D01*
X124514703Y-113097263D01*
X124575863Y-112869008D01*
X124596459Y-112633600D01*
X124575863Y-112398192D01*
X124514703Y-112169937D01*
X124414835Y-111955771D01*
X124279295Y-111762199D01*
X124112201Y-111595105D01*
X123926639Y-111465173D01*
X123887774Y-111420855D01*
X123873764Y-111363599D01*
X123887775Y-111306342D01*
X123926637Y-111262028D01*
X124112201Y-111132095D01*
X124279295Y-110965001D01*
X124414835Y-110771430D01*
X124514703Y-110557263D01*
X124575863Y-110329008D01*
X124596459Y-110093600D01*
X124575863Y-109858192D01*
X124514703Y-109629937D01*
X124414835Y-109415771D01*
X124279295Y-109222199D01*
X124112201Y-109055105D01*
X123926639Y-108925173D01*
X123887775Y-108880857D01*
X123873764Y-108823600D01*
X123887775Y-108766343D01*
X123926639Y-108722026D01*
X124112201Y-108592095D01*
X124279295Y-108425001D01*
X124414835Y-108231430D01*
X124514703Y-108017263D01*
X124575863Y-107789008D01*
X124596459Y-107553600D01*
X124575863Y-107318192D01*
X124514703Y-107089937D01*
X124414835Y-106875771D01*
X124279295Y-106682199D01*
X124112201Y-106515105D01*
X123926639Y-106385173D01*
X123887775Y-106340857D01*
X123873764Y-106283600D01*
X123887775Y-106226343D01*
X123926639Y-106182026D01*
X124112201Y-106052095D01*
X124279295Y-105885001D01*
X124414835Y-105691430D01*
X124514703Y-105477263D01*
X124575863Y-105249008D01*
X124596459Y-105013600D01*
X124575863Y-104778192D01*
X124548943Y-104677726D01*
X124548943Y-104613539D01*
X124581035Y-104557953D01*
X125246315Y-103892673D01*
X125303996Y-103860039D01*
X125370248Y-103861774D01*
X125426143Y-103897382D01*
X125439653Y-103912387D01*
X125494132Y-103972891D01*
X125647269Y-104084151D01*
X125820197Y-104161144D01*
X126005352Y-104200500D01*
X126005354Y-104200500D01*
X126194646Y-104200500D01*
X126194648Y-104200500D01*
X126318083Y-104174262D01*
X126379803Y-104161144D01*
X126552730Y-104084151D01*
X126574571Y-104068283D01*
X126705870Y-103972889D01*
X126760347Y-103912387D01*
X126832533Y-103832216D01*
X126927179Y-103668284D01*
X126985674Y-103488256D01*
X127005460Y-103300000D01*
X126985674Y-103111744D01*
X126936885Y-102961588D01*
X126927179Y-102931715D01*
X126832533Y-102767783D01*
X126705870Y-102627110D01*
X126576615Y-102533202D01*
X126539015Y-102489179D01*
X126525500Y-102432884D01*
X126525500Y-102413384D01*
X126527027Y-102393985D01*
X126530160Y-102374204D01*
X126526050Y-102330725D01*
X126525500Y-102319056D01*
X126525500Y-100909452D01*
X126539015Y-100853157D01*
X126576615Y-100809134D01*
X126630102Y-100786979D01*
X126687818Y-100791521D01*
X126737181Y-100821771D01*
X126824197Y-100908787D01*
X126837098Y-100924889D01*
X126839212Y-100926874D01*
X126839214Y-100926877D01*
X126886561Y-100971339D01*
X126888240Y-100972916D01*
X126891035Y-100975625D01*
X126910530Y-100995120D01*
X126913704Y-100997582D01*
X126922568Y-101005153D01*
X126954418Y-101035062D01*
X126955257Y-101035523D01*
X126971974Y-101044714D01*
X126988231Y-101055392D01*
X127004064Y-101067674D01*
X127016643Y-101073117D01*
X127044156Y-101085023D01*
X127054643Y-101090160D01*
X127092908Y-101111197D01*
X127112316Y-101116180D01*
X127130710Y-101122478D01*
X127149105Y-101130438D01*
X127192254Y-101137271D01*
X127203680Y-101139638D01*
X127219222Y-101143629D01*
X127245980Y-101150500D01*
X127245981Y-101150500D01*
X127266016Y-101150500D01*
X127285413Y-101152026D01*
X127305196Y-101155160D01*
X127348674Y-101151050D01*
X127360344Y-101150500D01*
X128550500Y-101150500D01*
X128612500Y-101167113D01*
X128657887Y-101212500D01*
X128674500Y-101274500D01*
X128674500Y-111001313D01*
X128666264Y-111045751D01*
X128642652Y-111084282D01*
X128609545Y-111121051D01*
X128567464Y-111167786D01*
X128472820Y-111331715D01*
X128414326Y-111511742D01*
X128394540Y-111699999D01*
X128414326Y-111888257D01*
X128472820Y-112068284D01*
X128567466Y-112232216D01*
X128694129Y-112372889D01*
X128847269Y-112484151D01*
X129020197Y-112561144D01*
X129205352Y-112600500D01*
X129205354Y-112600500D01*
X129394646Y-112600500D01*
X129394648Y-112600500D01*
X129518083Y-112574262D01*
X129579803Y-112561144D01*
X129752730Y-112484151D01*
X129905871Y-112372888D01*
X130032533Y-112232216D01*
X130127179Y-112068284D01*
X130185674Y-111888256D01*
X130205460Y-111700000D01*
X130205460Y-111699999D01*
X138094540Y-111699999D01*
X138114326Y-111888257D01*
X138172820Y-112068284D01*
X138267466Y-112232216D01*
X138394129Y-112372889D01*
X138547269Y-112484151D01*
X138720197Y-112561144D01*
X138905352Y-112600500D01*
X138905354Y-112600500D01*
X139094646Y-112600500D01*
X139094648Y-112600500D01*
X139218083Y-112574262D01*
X139279803Y-112561144D01*
X139452730Y-112484151D01*
X139605871Y-112372888D01*
X139611598Y-112366526D01*
X139653312Y-112336220D01*
X139703747Y-112325500D01*
X144113783Y-112325500D01*
X144164219Y-112336221D01*
X144220197Y-112361144D01*
X144405352Y-112400500D01*
X144405354Y-112400500D01*
X144594646Y-112400500D01*
X144594648Y-112400500D01*
X144724561Y-112372886D01*
X144779803Y-112361144D01*
X144952730Y-112284151D01*
X145105871Y-112172888D01*
X145232533Y-112032216D01*
X145327179Y-111868284D01*
X145385674Y-111688256D01*
X145405460Y-111500000D01*
X145395751Y-111407626D01*
X145403308Y-111350231D01*
X145436100Y-111302518D01*
X145486978Y-111274893D01*
X145544853Y-111273378D01*
X145672452Y-111300500D01*
X145672454Y-111300500D01*
X145861746Y-111300500D01*
X145861748Y-111300500D01*
X145989346Y-111273378D01*
X146046903Y-111261144D01*
X146219830Y-111184151D01*
X146357283Y-111084286D01*
X146372970Y-111072889D01*
X146499633Y-110932216D01*
X146594279Y-110768284D01*
X146611316Y-110715849D01*
X146652774Y-110588256D01*
X146672560Y-110400000D01*
X146668358Y-110360025D01*
X146673748Y-110308751D01*
X146699529Y-110264096D01*
X146741242Y-110233788D01*
X146852730Y-110184151D01*
X146852730Y-110184150D01*
X146852732Y-110184150D01*
X147005870Y-110072889D01*
X147042943Y-110031716D01*
X147132533Y-109932216D01*
X147227179Y-109768284D01*
X147285674Y-109588256D01*
X147305460Y-109400000D01*
X147285674Y-109211744D01*
X147227179Y-109031716D01*
X147227179Y-109031715D01*
X147132533Y-108867783D01*
X147005870Y-108727110D01*
X146852730Y-108615848D01*
X146679802Y-108538855D01*
X146494648Y-108499500D01*
X146494646Y-108499500D01*
X146305354Y-108499500D01*
X146305352Y-108499500D01*
X146120197Y-108538855D01*
X145947269Y-108615848D01*
X145794129Y-108727110D01*
X145667466Y-108867783D01*
X145572820Y-109031715D01*
X145514326Y-109211742D01*
X145494540Y-109400000D01*
X145498740Y-109439974D01*
X145493349Y-109491252D01*
X145467569Y-109535905D01*
X145425855Y-109566211D01*
X145314369Y-109615848D01*
X145161229Y-109727110D01*
X145034566Y-109867783D01*
X144939920Y-110031715D01*
X144881426Y-110211742D01*
X144861640Y-110400000D01*
X144871348Y-110492370D01*
X144863791Y-110549769D01*
X144830999Y-110597481D01*
X144780121Y-110625106D01*
X144722247Y-110626621D01*
X144594649Y-110599500D01*
X144594646Y-110599500D01*
X144405354Y-110599500D01*
X144405352Y-110599500D01*
X144220197Y-110638855D01*
X144047269Y-110715848D01*
X143894129Y-110827110D01*
X143767466Y-110967783D01*
X143741650Y-111012500D01*
X143696263Y-111057887D01*
X143634263Y-111074500D01*
X139703747Y-111074500D01*
X139653312Y-111063780D01*
X139611598Y-111033473D01*
X139605871Y-111027112D01*
X139452730Y-110915849D01*
X139452729Y-110915848D01*
X139452727Y-110915847D01*
X139279802Y-110838855D01*
X139094648Y-110799500D01*
X139094646Y-110799500D01*
X138905354Y-110799500D01*
X138905352Y-110799500D01*
X138720197Y-110838855D01*
X138547269Y-110915848D01*
X138394129Y-111027110D01*
X138267466Y-111167783D01*
X138172820Y-111331715D01*
X138114326Y-111511742D01*
X138094540Y-111699999D01*
X130205460Y-111699999D01*
X130185674Y-111511744D01*
X130137539Y-111363600D01*
X130127179Y-111331715D01*
X130032535Y-111167786D01*
X130000398Y-111132095D01*
X129957347Y-111084282D01*
X129933736Y-111045751D01*
X129925500Y-111001313D01*
X129925500Y-104900000D01*
X134894540Y-104900000D01*
X134914326Y-105088257D01*
X134972820Y-105268284D01*
X135067466Y-105432216D01*
X135194129Y-105572889D01*
X135347269Y-105684151D01*
X135520197Y-105761144D01*
X135705352Y-105800500D01*
X135705354Y-105800500D01*
X135894646Y-105800500D01*
X135894648Y-105800500D01*
X136018083Y-105774262D01*
X136079803Y-105761144D01*
X136252730Y-105684151D01*
X136405871Y-105572888D01*
X136532533Y-105432216D01*
X136627179Y-105268284D01*
X136685674Y-105088256D01*
X136705460Y-104900000D01*
X136685674Y-104711744D01*
X136652152Y-104608575D01*
X136627179Y-104531715D01*
X136532533Y-104367783D01*
X136405870Y-104227110D01*
X136252730Y-104115848D01*
X136079802Y-104038855D01*
X135894648Y-103999500D01*
X135894646Y-103999500D01*
X135705354Y-103999500D01*
X135705352Y-103999500D01*
X135520197Y-104038855D01*
X135347269Y-104115848D01*
X135194129Y-104227110D01*
X135067466Y-104367783D01*
X134972820Y-104531715D01*
X134914326Y-104711742D01*
X134894540Y-104900000D01*
X129925500Y-104900000D01*
X129925500Y-101210453D01*
X129934939Y-101163001D01*
X129961818Y-101122773D01*
X130075582Y-101009007D01*
X130090383Y-100996366D01*
X130092105Y-100995115D01*
X130106587Y-100984594D01*
X130134433Y-100950932D01*
X130142286Y-100942303D01*
X130247773Y-100836818D01*
X130288001Y-100809939D01*
X130335453Y-100800500D01*
X130394648Y-100800500D01*
X130518084Y-100774262D01*
X130579803Y-100761144D01*
X130752730Y-100684151D01*
X130782799Y-100662305D01*
X130905870Y-100572889D01*
X131032533Y-100432216D01*
X131127179Y-100268284D01*
X131143711Y-100217404D01*
X131185674Y-100088256D01*
X131205460Y-99900000D01*
X131185674Y-99711744D01*
X131163166Y-99642474D01*
X131160524Y-99575210D01*
X131193415Y-99516478D01*
X131909893Y-98800000D01*
X133994540Y-98800000D01*
X134014326Y-98988257D01*
X134072820Y-99168284D01*
X134167466Y-99332216D01*
X134294129Y-99472889D01*
X134447269Y-99584151D01*
X134620197Y-99661144D01*
X134805352Y-99700500D01*
X134888303Y-99700500D01*
X134954013Y-99719342D01*
X134999754Y-99770142D01*
X135011623Y-99837458D01*
X134994540Y-99999999D01*
X134994540Y-100000000D01*
X135014326Y-100188257D01*
X135072820Y-100368284D01*
X135167466Y-100532216D01*
X135294129Y-100672889D01*
X135447269Y-100784151D01*
X135620197Y-100861144D01*
X135805352Y-100900500D01*
X135805354Y-100900500D01*
X135994646Y-100900500D01*
X135994648Y-100900500D01*
X136118084Y-100874262D01*
X136179803Y-100861144D01*
X136352730Y-100784151D01*
X136432698Y-100726051D01*
X136505870Y-100672889D01*
X136537148Y-100638152D01*
X136632533Y-100532216D01*
X136727179Y-100368284D01*
X136785674Y-100188256D01*
X136805460Y-100000000D01*
X136785674Y-99811744D01*
X136749469Y-99700316D01*
X136727179Y-99631715D01*
X136632533Y-99467783D01*
X136505870Y-99327110D01*
X136352730Y-99215848D01*
X136179802Y-99138855D01*
X135994648Y-99099500D01*
X135994646Y-99099500D01*
X135911697Y-99099500D01*
X135845987Y-99080658D01*
X135800246Y-99029858D01*
X135788376Y-98962541D01*
X135805460Y-98800000D01*
X135785674Y-98611744D01*
X135744663Y-98485527D01*
X135727179Y-98431715D01*
X135632533Y-98267783D01*
X135505870Y-98127110D01*
X135352730Y-98015848D01*
X135179802Y-97938855D01*
X134994648Y-97899500D01*
X134994646Y-97899500D01*
X134805354Y-97899500D01*
X134805352Y-97899500D01*
X134620197Y-97938855D01*
X134447269Y-98015848D01*
X134294129Y-98127110D01*
X134167466Y-98267783D01*
X134072820Y-98431715D01*
X134014326Y-98611742D01*
X133994540Y-98800000D01*
X131909893Y-98800000D01*
X138387818Y-92322077D01*
X138437182Y-92291827D01*
X138494898Y-92287285D01*
X138548385Y-92309440D01*
X138585985Y-92353463D01*
X138599500Y-92409758D01*
X138599500Y-100603957D01*
X138597235Y-100624463D01*
X138599439Y-100694574D01*
X138599500Y-100698469D01*
X138599500Y-100726050D01*
X138600003Y-100730035D01*
X138600918Y-100741668D01*
X138602290Y-100785327D01*
X138607879Y-100804561D01*
X138611825Y-100823617D01*
X138614335Y-100843493D01*
X138630414Y-100884105D01*
X138634197Y-100895152D01*
X138646382Y-100937092D01*
X138656580Y-100954336D01*
X138665136Y-100971801D01*
X138672514Y-100990433D01*
X138672515Y-100990434D01*
X138698180Y-101025760D01*
X138704593Y-101035523D01*
X138726826Y-101073117D01*
X138726829Y-101073120D01*
X138726830Y-101073121D01*
X138740995Y-101087286D01*
X138753627Y-101102076D01*
X138765406Y-101118288D01*
X138799058Y-101146127D01*
X138807699Y-101153990D01*
X145591096Y-107937387D01*
X145603997Y-107953489D01*
X145606111Y-107955474D01*
X145606113Y-107955477D01*
X145653460Y-107999939D01*
X145655139Y-108001516D01*
X145657935Y-108004226D01*
X145677429Y-108023720D01*
X145680603Y-108026182D01*
X145689467Y-108033753D01*
X145721317Y-108063662D01*
X145731813Y-108069432D01*
X145738873Y-108073314D01*
X145755130Y-108083992D01*
X145770963Y-108096274D01*
X145787084Y-108103249D01*
X145811055Y-108113623D01*
X145821542Y-108118760D01*
X145859807Y-108139797D01*
X145879215Y-108144780D01*
X145897609Y-108151078D01*
X145916004Y-108159038D01*
X145959153Y-108165871D01*
X145970579Y-108168238D01*
X145986121Y-108172229D01*
X146012879Y-108179100D01*
X146012880Y-108179100D01*
X146032915Y-108179100D01*
X146052312Y-108180626D01*
X146072095Y-108183760D01*
X146115573Y-108179650D01*
X146127243Y-108179100D01*
X152445573Y-108179100D01*
X152502830Y-108193111D01*
X152547146Y-108231974D01*
X152682305Y-108425001D01*
X152849399Y-108592095D01*
X153034960Y-108722026D01*
X153073824Y-108766343D01*
X153087835Y-108823600D01*
X153073824Y-108880857D01*
X153034959Y-108925175D01*
X152849395Y-109055108D01*
X152682305Y-109222198D01*
X152546765Y-109415770D01*
X152446897Y-109629936D01*
X152385736Y-109858192D01*
X152365140Y-110093600D01*
X152385736Y-110329007D01*
X152394049Y-110360031D01*
X152446897Y-110557263D01*
X152546765Y-110771430D01*
X152682305Y-110965001D01*
X152849399Y-111132095D01*
X153034960Y-111262026D01*
X153073824Y-111306343D01*
X153087835Y-111363600D01*
X153073824Y-111420857D01*
X153034959Y-111465175D01*
X152849395Y-111595108D01*
X152682305Y-111762198D01*
X152546765Y-111955770D01*
X152446897Y-112169936D01*
X152385736Y-112398192D01*
X152365140Y-112633599D01*
X152385736Y-112869007D01*
X152430509Y-113036102D01*
X152446897Y-113097263D01*
X152546765Y-113311430D01*
X152682305Y-113505001D01*
X152849399Y-113672095D01*
X153034960Y-113802026D01*
X153073824Y-113846343D01*
X153087835Y-113903600D01*
X153073824Y-113960857D01*
X153034959Y-114005175D01*
X152849395Y-114135108D01*
X152682305Y-114302198D01*
X152546765Y-114495770D01*
X152446897Y-114709936D01*
X152385736Y-114938192D01*
X152365140Y-115173600D01*
X152385736Y-115409007D01*
X152417382Y-115527110D01*
X152446897Y-115637263D01*
X152546765Y-115851430D01*
X152682305Y-116045001D01*
X152849399Y-116212095D01*
X153042970Y-116347635D01*
X153257137Y-116447503D01*
X153485392Y-116508663D01*
X153720800Y-116529259D01*
X153956208Y-116508663D01*
X154184463Y-116447503D01*
X154398630Y-116347635D01*
X154592201Y-116212095D01*
X154759295Y-116045001D01*
X154894835Y-115851430D01*
X154994703Y-115637263D01*
X155055863Y-115409008D01*
X155076459Y-115173600D01*
X155055863Y-114938192D01*
X154994703Y-114709937D01*
X154957521Y-114630200D01*
X171490731Y-114630200D01*
X171510564Y-114856889D01*
X171569461Y-115076697D01*
X171665632Y-115282935D01*
X171796153Y-115469340D01*
X171957059Y-115630246D01*
X172143464Y-115760767D01*
X172143465Y-115760767D01*
X172143466Y-115760768D01*
X172349704Y-115856939D01*
X172569508Y-115915835D01*
X172796200Y-115935668D01*
X173022892Y-115915835D01*
X173242696Y-115856939D01*
X173448934Y-115760768D01*
X173635339Y-115630247D01*
X173796247Y-115469339D01*
X173926768Y-115282934D01*
X174022939Y-115076696D01*
X174081835Y-114856892D01*
X174101668Y-114630200D01*
X179110731Y-114630200D01*
X179130564Y-114856889D01*
X179189461Y-115076697D01*
X179285632Y-115282935D01*
X179416153Y-115469340D01*
X179577059Y-115630246D01*
X179763464Y-115760767D01*
X179763465Y-115760767D01*
X179763466Y-115760768D01*
X179969704Y-115856939D01*
X180189508Y-115915835D01*
X180416200Y-115935668D01*
X180642892Y-115915835D01*
X180862696Y-115856939D01*
X181068934Y-115760768D01*
X181255339Y-115630247D01*
X181416247Y-115469339D01*
X181546768Y-115282934D01*
X181642939Y-115076696D01*
X181701835Y-114856892D01*
X181721668Y-114630200D01*
X184190731Y-114630200D01*
X184210564Y-114856889D01*
X184269461Y-115076697D01*
X184365632Y-115282935D01*
X184496153Y-115469340D01*
X184657059Y-115630246D01*
X184843464Y-115760767D01*
X184843465Y-115760767D01*
X184843466Y-115760768D01*
X185049704Y-115856939D01*
X185269508Y-115915835D01*
X185496200Y-115935668D01*
X185722892Y-115915835D01*
X185942696Y-115856939D01*
X186148934Y-115760768D01*
X186335339Y-115630247D01*
X186496247Y-115469339D01*
X186626768Y-115282934D01*
X186722939Y-115076696D01*
X186781835Y-114856892D01*
X186801668Y-114630200D01*
X189270731Y-114630200D01*
X189290564Y-114856889D01*
X189349461Y-115076697D01*
X189445632Y-115282935D01*
X189576153Y-115469340D01*
X189737059Y-115630246D01*
X189923464Y-115760767D01*
X189923465Y-115760767D01*
X189923466Y-115760768D01*
X190129704Y-115856939D01*
X190349508Y-115915835D01*
X190576200Y-115935668D01*
X190802892Y-115915835D01*
X191022696Y-115856939D01*
X191228934Y-115760768D01*
X191415339Y-115630247D01*
X191576247Y-115469339D01*
X191706768Y-115282934D01*
X191802939Y-115076696D01*
X191861835Y-114856892D01*
X191881668Y-114630200D01*
X191861835Y-114403508D01*
X191802939Y-114183704D01*
X191706768Y-113977466D01*
X191695138Y-113960857D01*
X191576246Y-113791059D01*
X191415340Y-113630153D01*
X191228935Y-113499632D01*
X191022697Y-113403461D01*
X190802889Y-113344564D01*
X190576200Y-113324731D01*
X190349510Y-113344564D01*
X190129702Y-113403461D01*
X189923464Y-113499632D01*
X189737059Y-113630153D01*
X189576153Y-113791059D01*
X189445632Y-113977464D01*
X189349461Y-114183702D01*
X189290564Y-114403510D01*
X189270731Y-114630200D01*
X186801668Y-114630200D01*
X186781835Y-114403508D01*
X186722939Y-114183704D01*
X186626768Y-113977466D01*
X186615138Y-113960857D01*
X186496246Y-113791059D01*
X186335340Y-113630153D01*
X186148935Y-113499632D01*
X185942697Y-113403461D01*
X185722889Y-113344564D01*
X185496200Y-113324731D01*
X185269510Y-113344564D01*
X185049702Y-113403461D01*
X184843464Y-113499632D01*
X184657059Y-113630153D01*
X184496153Y-113791059D01*
X184365632Y-113977464D01*
X184269461Y-114183702D01*
X184210564Y-114403510D01*
X184190731Y-114630200D01*
X181721668Y-114630200D01*
X181701835Y-114403508D01*
X181642939Y-114183704D01*
X181546768Y-113977466D01*
X181535138Y-113960857D01*
X181416246Y-113791059D01*
X181255340Y-113630153D01*
X181068935Y-113499632D01*
X180862697Y-113403461D01*
X180642889Y-113344564D01*
X180416200Y-113324731D01*
X180189510Y-113344564D01*
X179969702Y-113403461D01*
X179763464Y-113499632D01*
X179577059Y-113630153D01*
X179416153Y-113791059D01*
X179285632Y-113977464D01*
X179189461Y-114183702D01*
X179130564Y-114403510D01*
X179110731Y-114630200D01*
X174101668Y-114630200D01*
X174081835Y-114403508D01*
X174022939Y-114183704D01*
X173926768Y-113977466D01*
X173915138Y-113960857D01*
X173796246Y-113791059D01*
X173635340Y-113630153D01*
X173448935Y-113499632D01*
X173242697Y-113403461D01*
X173022889Y-113344564D01*
X172796200Y-113324731D01*
X172569510Y-113344564D01*
X172349702Y-113403461D01*
X172143464Y-113499632D01*
X171957059Y-113630153D01*
X171796153Y-113791059D01*
X171665632Y-113977464D01*
X171569461Y-114183702D01*
X171510564Y-114403510D01*
X171490731Y-114630200D01*
X154957521Y-114630200D01*
X154894835Y-114495771D01*
X154759295Y-114302199D01*
X154592201Y-114135105D01*
X154406639Y-114005173D01*
X154367775Y-113960857D01*
X154353764Y-113903600D01*
X154367775Y-113846343D01*
X154406639Y-113802026D01*
X154592201Y-113672095D01*
X154759295Y-113505001D01*
X154894835Y-113311430D01*
X154994703Y-113097263D01*
X155055863Y-112869008D01*
X155076459Y-112633600D01*
X155055863Y-112398192D01*
X154994703Y-112169937D01*
X154894835Y-111955771D01*
X154759295Y-111762199D01*
X154592201Y-111595105D01*
X154406639Y-111465173D01*
X154367774Y-111420855D01*
X154353764Y-111363599D01*
X154367775Y-111306342D01*
X154406637Y-111262028D01*
X154592201Y-111132095D01*
X154759295Y-110965001D01*
X154894835Y-110771430D01*
X154994703Y-110557263D01*
X155055863Y-110329008D01*
X155076459Y-110093600D01*
X155055863Y-109858192D01*
X155040271Y-109800000D01*
X166144540Y-109800000D01*
X166164326Y-109988257D01*
X166222820Y-110168284D01*
X166317466Y-110332216D01*
X166444129Y-110472889D01*
X166597269Y-110584151D01*
X166770197Y-110661144D01*
X166955352Y-110700500D01*
X166955354Y-110700500D01*
X167144646Y-110700500D01*
X167144648Y-110700500D01*
X167268083Y-110674262D01*
X167329803Y-110661144D01*
X167502730Y-110584151D01*
X167550053Y-110549769D01*
X167655870Y-110472889D01*
X167782533Y-110332216D01*
X167877179Y-110168284D01*
X167901445Y-110093600D01*
X167935674Y-109988256D01*
X167955460Y-109800000D01*
X167935674Y-109611744D01*
X167896524Y-109491252D01*
X167877179Y-109431715D01*
X167782533Y-109267783D01*
X167655870Y-109127110D01*
X167502730Y-109015848D01*
X167329802Y-108938855D01*
X167144648Y-108899500D01*
X167144646Y-108899500D01*
X166955354Y-108899500D01*
X166955352Y-108899500D01*
X166770197Y-108938855D01*
X166597269Y-109015848D01*
X166444129Y-109127110D01*
X166317466Y-109267783D01*
X166222820Y-109431715D01*
X166164326Y-109611742D01*
X166144540Y-109800000D01*
X155040271Y-109800000D01*
X154994703Y-109629937D01*
X154894835Y-109415771D01*
X154759295Y-109222199D01*
X154592201Y-109055105D01*
X154406639Y-108925173D01*
X154367775Y-108880857D01*
X154353764Y-108823600D01*
X154367775Y-108766343D01*
X154406639Y-108722026D01*
X154592201Y-108592095D01*
X154759295Y-108425001D01*
X154894835Y-108231430D01*
X154979437Y-108050000D01*
X168744540Y-108050000D01*
X168764326Y-108238257D01*
X168822820Y-108418284D01*
X168917466Y-108582216D01*
X169044129Y-108722889D01*
X169197269Y-108834151D01*
X169370197Y-108911144D01*
X169555352Y-108950500D01*
X169555354Y-108950500D01*
X169744646Y-108950500D01*
X169744648Y-108950500D01*
X169890185Y-108919565D01*
X169929803Y-108911144D01*
X170102730Y-108834151D01*
X170245537Y-108730396D01*
X170255870Y-108722889D01*
X170382533Y-108582216D01*
X170477179Y-108418284D01*
X170520843Y-108283900D01*
X170535674Y-108238256D01*
X170555460Y-108050000D01*
X170535674Y-107861744D01*
X170505211Y-107767990D01*
X170477179Y-107681715D01*
X170382533Y-107517783D01*
X170255870Y-107377110D01*
X170102730Y-107265848D01*
X169929802Y-107188855D01*
X169744648Y-107149500D01*
X169744646Y-107149500D01*
X169555354Y-107149500D01*
X169555352Y-107149500D01*
X169370197Y-107188855D01*
X169197269Y-107265848D01*
X169044129Y-107377110D01*
X168917466Y-107517783D01*
X168822820Y-107681715D01*
X168764326Y-107861742D01*
X168744540Y-108050000D01*
X154979437Y-108050000D01*
X154994703Y-108017263D01*
X155055863Y-107789008D01*
X155076459Y-107553600D01*
X155073325Y-107517784D01*
X155055863Y-107318192D01*
X155041838Y-107265849D01*
X154994703Y-107089937D01*
X154894835Y-106875771D01*
X154759295Y-106682199D01*
X154592201Y-106515105D01*
X154406639Y-106385173D01*
X154367775Y-106340857D01*
X154353764Y-106283600D01*
X154367775Y-106226343D01*
X154406639Y-106182026D01*
X154592201Y-106052095D01*
X154759295Y-105885001D01*
X154894835Y-105691430D01*
X154994703Y-105477263D01*
X155055863Y-105249008D01*
X155076459Y-105013600D01*
X155055863Y-104778192D01*
X154994703Y-104549937D01*
X154894835Y-104335771D01*
X154759295Y-104142199D01*
X154592201Y-103975105D01*
X154406639Y-103845173D01*
X154367775Y-103800857D01*
X154353764Y-103743600D01*
X154367775Y-103686343D01*
X154406639Y-103642026D01*
X154592201Y-103512095D01*
X154759295Y-103345001D01*
X154894835Y-103151430D01*
X154994703Y-102937263D01*
X155055863Y-102709008D01*
X155076459Y-102473600D01*
X155063642Y-102327110D01*
X155055863Y-102238192D01*
X155017578Y-102095310D01*
X154994703Y-102009937D01*
X154894835Y-101795771D01*
X154759295Y-101602199D01*
X154592201Y-101435105D01*
X154406639Y-101305173D01*
X154367774Y-101260855D01*
X154353764Y-101203599D01*
X154367775Y-101146342D01*
X154406637Y-101102028D01*
X154592201Y-100972095D01*
X154759295Y-100805001D01*
X154894835Y-100611430D01*
X154994703Y-100397263D01*
X155055863Y-100169008D01*
X155076459Y-99933600D01*
X155075584Y-99923599D01*
X159290874Y-99923599D01*
X159311470Y-100159007D01*
X159340751Y-100268284D01*
X159372631Y-100387263D01*
X159472499Y-100601430D01*
X159608039Y-100795001D01*
X159775133Y-100962095D01*
X159968704Y-101097635D01*
X160182871Y-101197503D01*
X160411126Y-101258663D01*
X160646534Y-101279259D01*
X160881942Y-101258663D01*
X161110197Y-101197503D01*
X161324364Y-101097635D01*
X161517935Y-100962095D01*
X161685029Y-100795001D01*
X161820569Y-100601430D01*
X161920437Y-100387263D01*
X161981597Y-100159008D01*
X162002193Y-99923600D01*
X162002193Y-99923599D01*
X165437674Y-99923599D01*
X165458270Y-100159007D01*
X165487551Y-100268284D01*
X165519431Y-100387263D01*
X165619299Y-100601430D01*
X165754839Y-100795001D01*
X165921933Y-100962095D01*
X166115504Y-101097635D01*
X166329671Y-101197503D01*
X166557926Y-101258663D01*
X166793334Y-101279259D01*
X167028742Y-101258663D01*
X167256997Y-101197503D01*
X167471164Y-101097635D01*
X167664735Y-100962095D01*
X167831829Y-100795001D01*
X167967369Y-100601430D01*
X168067237Y-100387263D01*
X168128397Y-100159008D01*
X168148993Y-99923600D01*
X168146884Y-99899500D01*
X168128397Y-99688192D01*
X168113264Y-99631715D01*
X168067237Y-99459937D01*
X167967369Y-99245771D01*
X167831829Y-99052199D01*
X167664735Y-98885105D01*
X167478736Y-98754867D01*
X167439873Y-98710551D01*
X167425862Y-98653294D01*
X167439873Y-98596037D01*
X167478739Y-98551719D01*
X167664412Y-98421709D01*
X167831440Y-98254681D01*
X167966934Y-98061176D01*
X168066764Y-97847092D01*
X168123970Y-97633600D01*
X165462698Y-97633600D01*
X165519903Y-97847092D01*
X165619733Y-98061176D01*
X165755227Y-98254681D01*
X165922252Y-98421706D01*
X166107929Y-98551719D01*
X166146794Y-98596037D01*
X166160805Y-98653294D01*
X166146794Y-98710551D01*
X166107929Y-98754869D01*
X165921929Y-98885108D01*
X165754839Y-99052198D01*
X165619299Y-99245770D01*
X165519431Y-99459936D01*
X165458270Y-99688192D01*
X165437674Y-99923599D01*
X162002193Y-99923599D01*
X162000084Y-99899500D01*
X161981597Y-99688192D01*
X161966464Y-99631715D01*
X161920437Y-99459937D01*
X161820569Y-99245771D01*
X161685029Y-99052199D01*
X161517935Y-98885105D01*
X161331936Y-98754867D01*
X161293073Y-98710551D01*
X161279062Y-98653294D01*
X161293073Y-98596037D01*
X161331939Y-98551719D01*
X161517612Y-98421709D01*
X161684640Y-98254681D01*
X161820134Y-98061176D01*
X161919964Y-97847092D01*
X161977170Y-97633600D01*
X159315898Y-97633600D01*
X159373103Y-97847092D01*
X159472933Y-98061176D01*
X159608427Y-98254681D01*
X159775452Y-98421706D01*
X159961129Y-98551719D01*
X159999994Y-98596037D01*
X160014005Y-98653294D01*
X159999994Y-98710551D01*
X159961129Y-98754869D01*
X159775129Y-98885108D01*
X159608039Y-99052198D01*
X159472499Y-99245770D01*
X159372631Y-99459936D01*
X159311470Y-99688192D01*
X159290874Y-99923599D01*
X155075584Y-99923599D01*
X155055863Y-99698192D01*
X155025306Y-99584151D01*
X155013528Y-99540193D01*
X155011686Y-99483909D01*
X155034927Y-99432614D01*
X155078459Y-99396888D01*
X155133303Y-99384100D01*
X156648790Y-99384100D01*
X156669296Y-99386364D01*
X156672199Y-99386272D01*
X156672201Y-99386273D01*
X156739406Y-99384161D01*
X156743302Y-99384100D01*
X156770883Y-99384100D01*
X156770884Y-99384100D01*
X156774853Y-99383598D01*
X156786499Y-99382680D01*
X156830161Y-99381309D01*
X156849393Y-99375720D01*
X156868452Y-99371774D01*
X156874730Y-99370981D01*
X156888326Y-99369264D01*
X156928941Y-99353182D01*
X156939978Y-99349403D01*
X156981924Y-99337218D01*
X156999163Y-99327022D01*
X157016636Y-99318462D01*
X157035266Y-99311086D01*
X157070598Y-99285414D01*
X157080364Y-99279000D01*
X157117952Y-99256771D01*
X157117951Y-99256771D01*
X157117954Y-99256770D01*
X157132119Y-99242604D01*
X157146907Y-99229973D01*
X157163121Y-99218194D01*
X157190972Y-99184526D01*
X157198813Y-99175909D01*
X159204806Y-97169917D01*
X159245032Y-97143039D01*
X159292485Y-97133600D01*
X161977170Y-97133600D01*
X161977169Y-97133599D01*
X161919964Y-96920107D01*
X161820133Y-96706021D01*
X161684643Y-96512521D01*
X161562587Y-96390465D01*
X161531291Y-96337719D01*
X161529102Y-96276426D01*
X161556555Y-96221581D01*
X161606932Y-96186603D01*
X161738865Y-96137396D01*
X161854080Y-96051146D01*
X161940330Y-95935931D01*
X161990625Y-95801083D01*
X161997034Y-95741473D01*
X161997034Y-95593100D01*
X162013647Y-95531100D01*
X162059034Y-95485713D01*
X162121034Y-95469100D01*
X165318835Y-95469100D01*
X165380835Y-95485713D01*
X165426222Y-95531100D01*
X165442835Y-95593100D01*
X165442835Y-95741472D01*
X165447106Y-95781212D01*
X165449243Y-95801084D01*
X165471825Y-95861629D01*
X165499538Y-95935931D01*
X165585788Y-96051146D01*
X165701003Y-96137396D01*
X165832932Y-96186602D01*
X165883312Y-96221581D01*
X165910765Y-96276425D01*
X165908576Y-96337718D01*
X165877281Y-96390465D01*
X165755222Y-96512524D01*
X165619734Y-96706021D01*
X165519903Y-96920107D01*
X165462698Y-97133599D01*
X165462698Y-97133600D01*
X168147382Y-97133600D01*
X168194835Y-97143039D01*
X168235063Y-97169919D01*
X171056481Y-99991337D01*
X171083361Y-100031565D01*
X171092800Y-100079018D01*
X171092800Y-107076156D01*
X171090535Y-107096662D01*
X171092739Y-107166773D01*
X171092800Y-107170668D01*
X171092800Y-107198249D01*
X171093303Y-107202234D01*
X171094218Y-107213867D01*
X171095590Y-107257526D01*
X171101179Y-107276760D01*
X171105125Y-107295816D01*
X171107635Y-107315692D01*
X171123714Y-107356304D01*
X171127497Y-107367351D01*
X171139682Y-107409291D01*
X171149880Y-107426535D01*
X171158436Y-107444000D01*
X171165814Y-107462632D01*
X171165815Y-107462633D01*
X171191480Y-107497959D01*
X171197893Y-107507722D01*
X171220126Y-107545316D01*
X171220129Y-107545319D01*
X171220130Y-107545320D01*
X171234295Y-107559485D01*
X171246927Y-107574275D01*
X171258706Y-107590487D01*
X171292358Y-107618326D01*
X171300999Y-107626189D01*
X171406481Y-107731671D01*
X171433361Y-107771899D01*
X171442800Y-107819352D01*
X171442800Y-109131769D01*
X171449209Y-109191384D01*
X171474356Y-109258807D01*
X171499504Y-109326231D01*
X171585754Y-109441446D01*
X171700969Y-109527696D01*
X171835817Y-109577991D01*
X171895427Y-109584400D01*
X173791172Y-109584399D01*
X173850783Y-109577991D01*
X173985631Y-109527696D01*
X174100846Y-109441446D01*
X174187096Y-109326231D01*
X174237391Y-109191383D01*
X174243800Y-109131773D01*
X174243799Y-108283899D01*
X179157831Y-108283899D01*
X179177664Y-108510589D01*
X179236561Y-108730397D01*
X179332732Y-108936635D01*
X179463253Y-109123040D01*
X179624159Y-109283946D01*
X179810564Y-109414467D01*
X179810565Y-109414467D01*
X179810566Y-109414468D01*
X180016804Y-109510639D01*
X180236608Y-109569535D01*
X180463300Y-109589368D01*
X180689992Y-109569535D01*
X180909796Y-109510639D01*
X181116034Y-109414468D01*
X181302439Y-109283947D01*
X181463347Y-109123039D01*
X181593868Y-108936634D01*
X181690039Y-108730396D01*
X181748935Y-108510592D01*
X181768768Y-108283900D01*
X181768768Y-108283899D01*
X184237831Y-108283899D01*
X184257664Y-108510589D01*
X184316561Y-108730397D01*
X184412732Y-108936635D01*
X184543253Y-109123040D01*
X184704159Y-109283946D01*
X184890564Y-109414467D01*
X184890565Y-109414467D01*
X184890566Y-109414468D01*
X185096804Y-109510639D01*
X185316608Y-109569535D01*
X185543300Y-109589368D01*
X185769992Y-109569535D01*
X185989796Y-109510639D01*
X186196034Y-109414468D01*
X186382439Y-109283947D01*
X186543347Y-109123039D01*
X186673868Y-108936634D01*
X186770039Y-108730396D01*
X186828935Y-108510592D01*
X186848768Y-108283900D01*
X186848768Y-108283899D01*
X189317831Y-108283899D01*
X189337664Y-108510589D01*
X189396561Y-108730397D01*
X189492732Y-108936635D01*
X189623253Y-109123040D01*
X189784159Y-109283946D01*
X189970564Y-109414467D01*
X189970565Y-109414467D01*
X189970566Y-109414468D01*
X190176804Y-109510639D01*
X190396608Y-109569535D01*
X190623300Y-109589368D01*
X190849992Y-109569535D01*
X191069796Y-109510639D01*
X191276034Y-109414468D01*
X191462439Y-109283947D01*
X191623347Y-109123039D01*
X191753868Y-108936634D01*
X191850039Y-108730396D01*
X191908935Y-108510592D01*
X191928768Y-108283900D01*
X191908935Y-108057208D01*
X191850039Y-107837404D01*
X191753868Y-107631166D01*
X191747486Y-107622052D01*
X191623346Y-107444759D01*
X191462440Y-107283853D01*
X191276035Y-107153332D01*
X191069797Y-107057161D01*
X190849989Y-106998264D01*
X190623300Y-106978431D01*
X190396610Y-106998264D01*
X190176802Y-107057161D01*
X189970564Y-107153332D01*
X189784159Y-107283853D01*
X189623253Y-107444759D01*
X189492732Y-107631164D01*
X189396561Y-107837402D01*
X189337664Y-108057210D01*
X189317831Y-108283899D01*
X186848768Y-108283899D01*
X186828935Y-108057208D01*
X186770039Y-107837404D01*
X186673868Y-107631166D01*
X186667486Y-107622052D01*
X186543346Y-107444759D01*
X186382440Y-107283853D01*
X186196035Y-107153332D01*
X185989797Y-107057161D01*
X185769989Y-106998264D01*
X185543300Y-106978431D01*
X185316610Y-106998264D01*
X185096802Y-107057161D01*
X184890564Y-107153332D01*
X184704159Y-107283853D01*
X184543253Y-107444759D01*
X184412732Y-107631164D01*
X184316561Y-107837402D01*
X184257664Y-108057210D01*
X184237831Y-108283899D01*
X181768768Y-108283899D01*
X181748935Y-108057208D01*
X181690039Y-107837404D01*
X181593868Y-107631166D01*
X181587486Y-107622052D01*
X181463346Y-107444759D01*
X181302440Y-107283853D01*
X181116035Y-107153332D01*
X180909797Y-107057161D01*
X180689989Y-106998264D01*
X180463300Y-106978431D01*
X180236610Y-106998264D01*
X180016802Y-107057161D01*
X179810564Y-107153332D01*
X179624159Y-107283853D01*
X179463253Y-107444759D01*
X179332732Y-107631164D01*
X179236561Y-107837402D01*
X179177664Y-108057210D01*
X179157831Y-108283899D01*
X174243799Y-108283899D01*
X174243799Y-107436028D01*
X174237391Y-107376417D01*
X174187096Y-107241569D01*
X174100846Y-107126354D01*
X173985631Y-107040104D01*
X173850783Y-106989809D01*
X173791173Y-106983400D01*
X173791169Y-106983400D01*
X172478753Y-106983400D01*
X172431300Y-106973961D01*
X172391072Y-106947081D01*
X172380119Y-106936128D01*
X172353239Y-106895900D01*
X172343800Y-106848447D01*
X172343800Y-102038037D01*
X172356588Y-101983193D01*
X172392313Y-101939661D01*
X172443609Y-101916420D01*
X172499893Y-101918262D01*
X172616607Y-101949534D01*
X172616608Y-101949535D01*
X172843300Y-101969368D01*
X173069992Y-101949535D01*
X173289796Y-101890639D01*
X173496034Y-101794468D01*
X173682439Y-101663947D01*
X173843347Y-101503039D01*
X173973868Y-101316634D01*
X174070039Y-101110396D01*
X174128935Y-100890592D01*
X174148768Y-100663900D01*
X174148768Y-100663899D01*
X179157831Y-100663899D01*
X179177664Y-100890589D01*
X179236561Y-101110397D01*
X179332732Y-101316635D01*
X179463253Y-101503040D01*
X179624159Y-101663946D01*
X179810564Y-101794467D01*
X179810565Y-101794467D01*
X179810566Y-101794468D01*
X180016804Y-101890639D01*
X180236608Y-101949535D01*
X180463300Y-101969368D01*
X180689992Y-101949535D01*
X180909796Y-101890639D01*
X181116034Y-101794468D01*
X181302439Y-101663947D01*
X181463347Y-101503039D01*
X181593868Y-101316634D01*
X181690039Y-101110396D01*
X181748935Y-100890592D01*
X181768768Y-100663900D01*
X181768768Y-100663899D01*
X184237831Y-100663899D01*
X184257664Y-100890589D01*
X184316561Y-101110397D01*
X184412732Y-101316635D01*
X184543253Y-101503040D01*
X184704159Y-101663946D01*
X184890564Y-101794467D01*
X184890565Y-101794467D01*
X184890566Y-101794468D01*
X185096804Y-101890639D01*
X185316608Y-101949535D01*
X185543300Y-101969368D01*
X185769992Y-101949535D01*
X185989796Y-101890639D01*
X186196034Y-101794468D01*
X186382439Y-101663947D01*
X186543347Y-101503039D01*
X186673868Y-101316634D01*
X186770039Y-101110396D01*
X186828935Y-100890592D01*
X186848768Y-100663900D01*
X186848768Y-100663899D01*
X189317831Y-100663899D01*
X189337664Y-100890589D01*
X189396561Y-101110397D01*
X189492732Y-101316635D01*
X189623253Y-101503040D01*
X189784159Y-101663946D01*
X189970564Y-101794467D01*
X189970565Y-101794467D01*
X189970566Y-101794468D01*
X190176804Y-101890639D01*
X190396608Y-101949535D01*
X190623300Y-101969368D01*
X190849992Y-101949535D01*
X191069796Y-101890639D01*
X191276034Y-101794468D01*
X191462439Y-101663947D01*
X191623347Y-101503039D01*
X191753868Y-101316634D01*
X191850039Y-101110396D01*
X191908935Y-100890592D01*
X191928768Y-100663900D01*
X191928628Y-100662305D01*
X191908935Y-100437210D01*
X191908935Y-100437208D01*
X191850039Y-100217404D01*
X191753868Y-100011166D01*
X191699556Y-99933600D01*
X191623346Y-99824759D01*
X191462440Y-99663853D01*
X191276035Y-99533332D01*
X191069797Y-99437161D01*
X190849989Y-99378264D01*
X190623300Y-99358431D01*
X190396610Y-99378264D01*
X190176802Y-99437161D01*
X189970564Y-99533332D01*
X189784159Y-99663853D01*
X189623253Y-99824759D01*
X189492732Y-100011164D01*
X189396561Y-100217402D01*
X189337664Y-100437210D01*
X189317831Y-100663899D01*
X186848768Y-100663899D01*
X186848628Y-100662305D01*
X186828935Y-100437210D01*
X186828935Y-100437208D01*
X186770039Y-100217404D01*
X186673868Y-100011166D01*
X186619556Y-99933600D01*
X186543346Y-99824759D01*
X186382440Y-99663853D01*
X186196035Y-99533332D01*
X185989797Y-99437161D01*
X185769989Y-99378264D01*
X185543300Y-99358431D01*
X185316610Y-99378264D01*
X185096802Y-99437161D01*
X184890564Y-99533332D01*
X184704159Y-99663853D01*
X184543253Y-99824759D01*
X184412732Y-100011164D01*
X184316561Y-100217402D01*
X184257664Y-100437210D01*
X184237831Y-100663899D01*
X181768768Y-100663899D01*
X181768628Y-100662305D01*
X181748935Y-100437210D01*
X181748935Y-100437208D01*
X181690039Y-100217404D01*
X181593868Y-100011166D01*
X181539556Y-99933600D01*
X181463346Y-99824759D01*
X181302440Y-99663853D01*
X181116035Y-99533332D01*
X180909797Y-99437161D01*
X180689989Y-99378264D01*
X180463300Y-99358431D01*
X180236610Y-99378264D01*
X180016802Y-99437161D01*
X179810564Y-99533332D01*
X179624159Y-99663853D01*
X179463253Y-99824759D01*
X179332732Y-100011164D01*
X179236561Y-100217402D01*
X179177664Y-100437210D01*
X179157831Y-100663899D01*
X174148768Y-100663899D01*
X174148628Y-100662305D01*
X174128935Y-100437210D01*
X174128935Y-100437208D01*
X174070039Y-100217404D01*
X173973868Y-100011166D01*
X173919556Y-99933600D01*
X173843346Y-99824759D01*
X173682440Y-99663853D01*
X173496035Y-99533332D01*
X173289797Y-99437161D01*
X173069989Y-99378264D01*
X172843300Y-99358431D01*
X172616610Y-99378264D01*
X172396803Y-99437161D01*
X172382853Y-99443666D01*
X172323671Y-99455097D01*
X172266092Y-99437272D01*
X172223720Y-99394404D01*
X172216471Y-99382147D01*
X172202306Y-99367982D01*
X172189667Y-99353183D01*
X172177895Y-99336979D01*
X172144241Y-99309139D01*
X172135599Y-99301275D01*
X168180152Y-95345827D01*
X168153272Y-95305599D01*
X168143833Y-95258146D01*
X168143833Y-93945730D01*
X168143833Y-93945727D01*
X168137425Y-93886117D01*
X168087130Y-93751269D01*
X168000880Y-93636054D01*
X167885665Y-93549804D01*
X167750817Y-93499509D01*
X167691207Y-93493100D01*
X167691203Y-93493100D01*
X165895464Y-93493100D01*
X165835849Y-93499509D01*
X165701003Y-93549804D01*
X165585788Y-93636054D01*
X165499538Y-93751268D01*
X165449243Y-93886116D01*
X165442834Y-93945731D01*
X165442834Y-94094100D01*
X165426221Y-94156100D01*
X165380834Y-94201487D01*
X165318834Y-94218100D01*
X162121033Y-94218100D01*
X162059033Y-94201487D01*
X162013646Y-94156100D01*
X161997033Y-94094100D01*
X161997033Y-93945730D01*
X161997033Y-93945727D01*
X161990625Y-93886117D01*
X161940330Y-93751269D01*
X161854080Y-93636054D01*
X161738865Y-93549804D01*
X161604017Y-93499509D01*
X161544407Y-93493100D01*
X161544403Y-93493100D01*
X159748664Y-93493100D01*
X159689049Y-93499509D01*
X159554203Y-93549804D01*
X159438988Y-93636054D01*
X159352738Y-93751268D01*
X159302443Y-93886116D01*
X159296034Y-93945731D01*
X159296034Y-95258146D01*
X159286595Y-95305599D01*
X159259715Y-95345827D01*
X156508762Y-98096781D01*
X156468534Y-98123661D01*
X156421081Y-98133100D01*
X155060719Y-98133100D01*
X155001076Y-98117814D01*
X154956138Y-98075725D01*
X154936984Y-98017210D01*
X154948337Y-97956695D01*
X154956656Y-97938855D01*
X154994703Y-97857263D01*
X155055863Y-97629008D01*
X155076459Y-97393600D01*
X155055863Y-97158192D01*
X154994703Y-96929937D01*
X154894835Y-96715771D01*
X154759295Y-96522199D01*
X154592201Y-96355105D01*
X154406639Y-96225173D01*
X154367774Y-96180855D01*
X154353764Y-96123599D01*
X154367775Y-96066342D01*
X154406637Y-96022028D01*
X154592201Y-95892095D01*
X154759295Y-95725001D01*
X154894835Y-95531430D01*
X154994703Y-95317263D01*
X155055863Y-95089008D01*
X155076459Y-94853600D01*
X155055863Y-94618192D01*
X154994703Y-94389937D01*
X154894835Y-94175771D01*
X154759295Y-93982199D01*
X154592201Y-93815105D01*
X154406639Y-93685173D01*
X154367775Y-93640857D01*
X154353764Y-93583600D01*
X154367775Y-93526343D01*
X154406639Y-93482026D01*
X154592201Y-93352095D01*
X154759295Y-93185001D01*
X154894835Y-92991430D01*
X154994703Y-92777263D01*
X155055863Y-92549008D01*
X155076459Y-92313600D01*
X155055863Y-92078192D01*
X154994703Y-91849937D01*
X154894835Y-91635771D01*
X154759295Y-91442199D01*
X154592201Y-91275105D01*
X154406639Y-91145173D01*
X154367775Y-91100857D01*
X154353764Y-91043600D01*
X154367775Y-90986343D01*
X154406639Y-90942026D01*
X154592201Y-90812095D01*
X154759295Y-90645001D01*
X154894835Y-90451430D01*
X154994703Y-90237263D01*
X155055863Y-90009008D01*
X155076459Y-89773600D01*
X155075584Y-89763599D01*
X159290874Y-89763599D01*
X159311470Y-89999007D01*
X159340116Y-90105915D01*
X159372631Y-90227263D01*
X159472499Y-90441430D01*
X159608039Y-90635001D01*
X159775133Y-90802095D01*
X159968704Y-90937635D01*
X160182871Y-91037503D01*
X160411126Y-91098663D01*
X160646533Y-91119259D01*
X160646533Y-91119258D01*
X160646534Y-91119259D01*
X160881942Y-91098663D01*
X161110197Y-91037503D01*
X161324364Y-90937635D01*
X161517935Y-90802095D01*
X161685029Y-90635001D01*
X161820569Y-90441430D01*
X161920437Y-90227263D01*
X161981597Y-89999008D01*
X162002193Y-89763600D01*
X162002193Y-89763599D01*
X165437674Y-89763599D01*
X165458270Y-89999007D01*
X165486916Y-90105915D01*
X165519431Y-90227263D01*
X165619299Y-90441430D01*
X165754839Y-90635001D01*
X165921933Y-90802095D01*
X166115504Y-90937635D01*
X166329671Y-91037503D01*
X166557926Y-91098663D01*
X166793333Y-91119259D01*
X166793333Y-91119258D01*
X166793334Y-91119259D01*
X167028742Y-91098663D01*
X167256997Y-91037503D01*
X167471164Y-90937635D01*
X167664735Y-90802095D01*
X167831829Y-90635001D01*
X167967369Y-90441430D01*
X168067237Y-90227263D01*
X168128397Y-89999008D01*
X168148993Y-89763600D01*
X168128397Y-89528192D01*
X168067237Y-89299937D01*
X168031299Y-89222869D01*
X186899500Y-89222869D01*
X186905909Y-89282484D01*
X186919138Y-89317952D01*
X186956204Y-89417331D01*
X187042454Y-89532546D01*
X187157669Y-89618796D01*
X187292517Y-89669091D01*
X187352127Y-89675500D01*
X190447872Y-89675499D01*
X190507483Y-89669091D01*
X190642331Y-89618796D01*
X190757546Y-89532546D01*
X190843796Y-89417331D01*
X190894091Y-89282483D01*
X190900500Y-89222873D01*
X190900499Y-86127128D01*
X190894091Y-86067517D01*
X190843796Y-85932669D01*
X190757546Y-85817454D01*
X190642331Y-85731204D01*
X190507483Y-85680909D01*
X190447873Y-85674500D01*
X190447869Y-85674500D01*
X187352130Y-85674500D01*
X187292515Y-85680909D01*
X187157669Y-85731204D01*
X187042454Y-85817454D01*
X186956204Y-85932668D01*
X186905909Y-86067516D01*
X186899500Y-86127130D01*
X186899500Y-89222869D01*
X168031299Y-89222869D01*
X167967369Y-89085771D01*
X167831829Y-88892199D01*
X167664735Y-88725105D01*
X167478736Y-88594867D01*
X167439873Y-88550551D01*
X167425862Y-88493294D01*
X167439873Y-88436037D01*
X167478739Y-88391719D01*
X167664412Y-88261709D01*
X167831440Y-88094681D01*
X167966934Y-87901176D01*
X168066764Y-87687092D01*
X168123970Y-87473600D01*
X165462698Y-87473600D01*
X165519903Y-87687092D01*
X165619733Y-87901176D01*
X165755227Y-88094681D01*
X165922252Y-88261706D01*
X166107929Y-88391719D01*
X166146794Y-88436037D01*
X166160805Y-88493294D01*
X166146794Y-88550551D01*
X166107929Y-88594869D01*
X165921929Y-88725108D01*
X165754839Y-88892198D01*
X165619299Y-89085770D01*
X165519431Y-89299936D01*
X165458270Y-89528192D01*
X165437674Y-89763599D01*
X162002193Y-89763599D01*
X161981597Y-89528192D01*
X161920437Y-89299937D01*
X161820569Y-89085771D01*
X161685029Y-88892199D01*
X161517935Y-88725105D01*
X161331936Y-88594867D01*
X161293073Y-88550551D01*
X161279062Y-88493294D01*
X161293073Y-88436037D01*
X161331939Y-88391719D01*
X161517612Y-88261709D01*
X161684640Y-88094681D01*
X161820134Y-87901176D01*
X161919964Y-87687092D01*
X161977170Y-87473600D01*
X159315898Y-87473600D01*
X159373103Y-87687092D01*
X159472933Y-87901176D01*
X159608427Y-88094681D01*
X159775452Y-88261706D01*
X159961129Y-88391719D01*
X159999994Y-88436037D01*
X160014005Y-88493294D01*
X159999994Y-88550551D01*
X159961129Y-88594869D01*
X159775129Y-88725108D01*
X159608039Y-88892198D01*
X159472499Y-89085770D01*
X159372631Y-89299936D01*
X159311470Y-89528192D01*
X159290874Y-89763599D01*
X155075584Y-89763599D01*
X155062153Y-89610091D01*
X155055863Y-89538192D01*
X155050215Y-89517113D01*
X154994703Y-89309937D01*
X154894835Y-89095771D01*
X154759295Y-88902199D01*
X154592201Y-88735105D01*
X154406639Y-88605173D01*
X154367776Y-88560857D01*
X154353765Y-88503600D01*
X154367776Y-88446343D01*
X154406639Y-88402026D01*
X154592201Y-88272095D01*
X154759295Y-88105001D01*
X154894835Y-87911430D01*
X154994703Y-87697263D01*
X155055863Y-87469008D01*
X155076459Y-87233600D01*
X155055863Y-86998192D01*
X154994703Y-86769937D01*
X154894835Y-86555771D01*
X154759295Y-86362199D01*
X154592201Y-86195105D01*
X154406202Y-86064867D01*
X154367339Y-86020551D01*
X154353328Y-85963294D01*
X154367339Y-85906037D01*
X154406205Y-85861719D01*
X154591878Y-85731709D01*
X154742118Y-85581469D01*
X159296034Y-85581469D01*
X159302443Y-85641083D01*
X159352738Y-85775931D01*
X159438988Y-85891146D01*
X159554203Y-85977396D01*
X159686132Y-86026602D01*
X159736512Y-86061581D01*
X159763965Y-86116425D01*
X159761776Y-86177718D01*
X159730481Y-86230465D01*
X159608422Y-86352524D01*
X159472934Y-86546021D01*
X159373103Y-86760107D01*
X159315898Y-86973599D01*
X159315898Y-86973600D01*
X161977170Y-86973600D01*
X161977169Y-86973599D01*
X161919964Y-86760107D01*
X161820133Y-86546021D01*
X161684643Y-86352521D01*
X161562587Y-86230465D01*
X161531291Y-86177719D01*
X161529102Y-86116426D01*
X161556555Y-86061581D01*
X161606932Y-86026603D01*
X161738865Y-85977396D01*
X161854080Y-85891146D01*
X161940330Y-85775931D01*
X161990625Y-85641083D01*
X161997034Y-85581473D01*
X161997034Y-85581469D01*
X165442834Y-85581469D01*
X165449243Y-85641083D01*
X165499538Y-85775931D01*
X165585788Y-85891146D01*
X165701003Y-85977396D01*
X165832932Y-86026602D01*
X165883312Y-86061581D01*
X165910765Y-86116425D01*
X165908576Y-86177718D01*
X165877281Y-86230465D01*
X165755222Y-86352524D01*
X165619734Y-86546021D01*
X165519903Y-86760107D01*
X165462698Y-86973599D01*
X165462698Y-86973600D01*
X168123970Y-86973600D01*
X168123969Y-86973599D01*
X168066764Y-86760107D01*
X167966933Y-86546021D01*
X167831443Y-86352521D01*
X167709387Y-86230465D01*
X167678091Y-86177719D01*
X167675902Y-86116426D01*
X167703355Y-86061581D01*
X167753732Y-86026603D01*
X167885665Y-85977396D01*
X168000880Y-85891146D01*
X168087130Y-85775931D01*
X168137425Y-85641083D01*
X168143834Y-85581473D01*
X168143833Y-83785728D01*
X168137425Y-83726117D01*
X168087130Y-83591269D01*
X168000880Y-83476054D01*
X167885665Y-83389804D01*
X167750817Y-83339509D01*
X167691207Y-83333100D01*
X167691203Y-83333100D01*
X165895464Y-83333100D01*
X165835849Y-83339509D01*
X165701003Y-83389804D01*
X165585788Y-83476054D01*
X165499538Y-83591268D01*
X165449243Y-83726116D01*
X165442834Y-83785730D01*
X165442834Y-85581469D01*
X161997034Y-85581469D01*
X161997033Y-83785728D01*
X161990625Y-83726117D01*
X161940330Y-83591269D01*
X161854080Y-83476054D01*
X161738865Y-83389804D01*
X161604017Y-83339509D01*
X161544407Y-83333100D01*
X161544403Y-83333100D01*
X159748664Y-83333100D01*
X159689049Y-83339509D01*
X159554203Y-83389804D01*
X159438988Y-83476054D01*
X159352738Y-83591268D01*
X159302443Y-83726116D01*
X159296034Y-83785730D01*
X159296034Y-85581469D01*
X154742118Y-85581469D01*
X154758906Y-85564681D01*
X154894400Y-85371176D01*
X154994230Y-85157092D01*
X155051436Y-84943600D01*
X152390164Y-84943600D01*
X152447369Y-85157092D01*
X152547199Y-85371176D01*
X152682693Y-85564681D01*
X152849718Y-85731706D01*
X153035395Y-85861719D01*
X153074260Y-85906037D01*
X153088271Y-85963294D01*
X153074260Y-86020551D01*
X153035395Y-86064869D01*
X152849395Y-86195108D01*
X152682305Y-86362198D01*
X152546765Y-86555770D01*
X152446897Y-86769936D01*
X152385736Y-86998192D01*
X152364201Y-87244328D01*
X152339049Y-87309007D01*
X152283083Y-87350042D01*
X152213834Y-87354581D01*
X152152992Y-87321201D01*
X150423002Y-85591211D01*
X150410106Y-85575113D01*
X150358975Y-85527098D01*
X150356178Y-85524387D01*
X150336670Y-85504879D01*
X150333490Y-85502412D01*
X150324624Y-85494839D01*
X150292782Y-85464938D01*
X150275224Y-85455285D01*
X150258964Y-85444604D01*
X150243136Y-85432327D01*
X150203051Y-85414980D01*
X150192561Y-85409841D01*
X150154291Y-85388802D01*
X150134891Y-85383821D01*
X150116484Y-85377519D01*
X150098097Y-85369562D01*
X150054958Y-85362729D01*
X150043524Y-85360361D01*
X150001219Y-85349500D01*
X149981184Y-85349500D01*
X149961786Y-85347973D01*
X149954362Y-85346797D01*
X149942005Y-85344840D01*
X149942004Y-85344840D01*
X149916668Y-85347235D01*
X149898525Y-85348950D01*
X149886856Y-85349500D01*
X146646848Y-85349500D01*
X146626340Y-85347235D01*
X146556217Y-85349439D01*
X146552323Y-85349500D01*
X146524754Y-85349500D01*
X146520775Y-85350002D01*
X146509145Y-85350917D01*
X146465476Y-85352289D01*
X146446232Y-85357880D01*
X146427188Y-85361824D01*
X146407312Y-85364335D01*
X146366704Y-85380413D01*
X146355658Y-85384194D01*
X146313714Y-85396382D01*
X146313711Y-85396383D01*
X146296469Y-85406579D01*
X146279008Y-85415133D01*
X146260371Y-85422512D01*
X146225035Y-85448185D01*
X146215278Y-85454595D01*
X146177684Y-85476829D01*
X146163517Y-85490996D01*
X146148728Y-85503626D01*
X146132517Y-85515404D01*
X146104676Y-85549058D01*
X146096815Y-85557697D01*
X145416332Y-86238181D01*
X145376104Y-86265061D01*
X145328651Y-86274500D01*
X140682744Y-86274500D01*
X140662237Y-86272235D01*
X140592127Y-86274439D01*
X140588232Y-86274500D01*
X140560650Y-86274500D01*
X140556665Y-86275003D01*
X140545033Y-86275918D01*
X140501369Y-86277290D01*
X140482129Y-86282880D01*
X140463081Y-86286825D01*
X140443209Y-86289335D01*
X140402599Y-86305413D01*
X140391554Y-86309194D01*
X140349610Y-86321381D01*
X140332365Y-86331579D01*
X140314904Y-86340133D01*
X140296267Y-86347512D01*
X140260931Y-86373185D01*
X140251174Y-86379595D01*
X140213580Y-86401829D01*
X140199413Y-86415996D01*
X140184624Y-86428626D01*
X140168413Y-86440404D01*
X140140572Y-86474058D01*
X140132711Y-86482697D01*
X137767504Y-88847904D01*
X137713482Y-88879567D01*
X137650876Y-88880797D01*
X137595652Y-88851279D01*
X137561892Y-88798541D01*
X137540179Y-88731715D01*
X137445533Y-88567783D01*
X137318870Y-88427110D01*
X137165730Y-88315848D01*
X136992802Y-88238855D01*
X136807648Y-88199500D01*
X136807646Y-88199500D01*
X136618354Y-88199500D01*
X136618352Y-88199500D01*
X136433197Y-88238855D01*
X136260269Y-88315848D01*
X136107129Y-88427110D01*
X135980466Y-88567783D01*
X135885820Y-88731715D01*
X135827326Y-88911742D01*
X135807540Y-89099999D01*
X135827326Y-89288257D01*
X135885820Y-89468284D01*
X135980466Y-89632216D01*
X136107129Y-89772889D01*
X136260269Y-89884151D01*
X136421339Y-89955865D01*
X136468282Y-89992377D01*
X136492827Y-90046547D01*
X136489325Y-90105915D01*
X136458583Y-90156825D01*
X136099561Y-90515849D01*
X135762181Y-90853229D01*
X135712818Y-90883479D01*
X135655102Y-90888021D01*
X135601615Y-90865866D01*
X135564015Y-90821843D01*
X135550500Y-90765548D01*
X135550500Y-88382439D01*
X135552764Y-88361932D01*
X135550561Y-88291822D01*
X135550500Y-88287927D01*
X135550500Y-88260348D01*
X135549997Y-88256367D01*
X135549080Y-88244714D01*
X135548896Y-88238855D01*
X135547709Y-88201068D01*
X135542120Y-88181835D01*
X135538174Y-88162777D01*
X135535664Y-88142901D01*
X135519588Y-88102299D01*
X135515804Y-88091248D01*
X135509881Y-88070863D01*
X135503618Y-88049305D01*
X135493414Y-88032050D01*
X135484861Y-88014590D01*
X135477486Y-87995964D01*
X135477486Y-87995963D01*
X135451808Y-87960620D01*
X135445401Y-87950866D01*
X135423169Y-87913274D01*
X135409006Y-87899111D01*
X135396367Y-87884312D01*
X135384595Y-87868108D01*
X135350941Y-87840268D01*
X135342299Y-87832404D01*
X129663496Y-82153600D01*
X152365140Y-82153600D01*
X152385736Y-82389007D01*
X152430509Y-82556102D01*
X152446897Y-82617263D01*
X152546765Y-82831430D01*
X152682305Y-83025001D01*
X152849399Y-83192095D01*
X153035397Y-83322332D01*
X153074260Y-83366648D01*
X153088271Y-83423905D01*
X153074261Y-83481161D01*
X153035395Y-83525480D01*
X152849719Y-83655492D01*
X152682690Y-83822521D01*
X152547200Y-84016021D01*
X152447369Y-84230107D01*
X152390164Y-84443599D01*
X152390164Y-84443600D01*
X155051436Y-84443600D01*
X155051435Y-84443599D01*
X154994230Y-84230107D01*
X154894399Y-84016021D01*
X154758909Y-83822521D01*
X154591881Y-83655493D01*
X154406204Y-83525480D01*
X154367339Y-83481162D01*
X154353328Y-83423905D01*
X154367339Y-83366648D01*
X154406202Y-83322332D01*
X154592201Y-83192095D01*
X154759295Y-83025001D01*
X154894835Y-82831430D01*
X154994703Y-82617263D01*
X155000669Y-82594999D01*
X186894389Y-82594999D01*
X186914804Y-82880429D01*
X186975629Y-83160041D01*
X186975631Y-83160046D01*
X187042567Y-83339509D01*
X187075634Y-83428163D01*
X187212772Y-83679313D01*
X187292433Y-83785727D01*
X187384261Y-83908395D01*
X187586605Y-84110739D01*
X187745834Y-84229936D01*
X187815686Y-84282227D01*
X187955435Y-84358535D01*
X188066839Y-84419367D01*
X188334954Y-84519369D01*
X188334957Y-84519369D01*
X188334958Y-84519370D01*
X188387217Y-84530738D01*
X188614572Y-84580196D01*
X188900000Y-84600610D01*
X189185428Y-84580196D01*
X189465046Y-84519369D01*
X189733161Y-84419367D01*
X189984315Y-84282226D01*
X190213395Y-84110739D01*
X190415739Y-83908395D01*
X190587226Y-83679315D01*
X190724367Y-83428161D01*
X190824369Y-83160046D01*
X190885196Y-82880428D01*
X190905610Y-82595000D01*
X190885196Y-82309572D01*
X190824369Y-82029954D01*
X190724367Y-81761839D01*
X190587226Y-81510685D01*
X190415739Y-81281605D01*
X190213395Y-81079261D01*
X190028509Y-80940857D01*
X189984313Y-80907772D01*
X189733163Y-80770634D01*
X189733162Y-80770633D01*
X189733161Y-80770633D01*
X189517164Y-80690070D01*
X189465041Y-80670629D01*
X189185429Y-80609804D01*
X188900000Y-80589389D01*
X188614570Y-80609804D01*
X188334958Y-80670629D01*
X188066836Y-80770634D01*
X187815686Y-80907772D01*
X187586602Y-81079263D01*
X187384263Y-81281602D01*
X187212772Y-81510686D01*
X187075634Y-81761836D01*
X186975629Y-82029958D01*
X186914804Y-82309570D01*
X186894389Y-82594999D01*
X155000669Y-82594999D01*
X155055863Y-82389008D01*
X155076459Y-82153600D01*
X155055863Y-81918192D01*
X154994703Y-81689937D01*
X154894835Y-81475771D01*
X154759295Y-81282199D01*
X154592201Y-81115105D01*
X154406639Y-80985173D01*
X154367775Y-80940857D01*
X154353764Y-80883600D01*
X154367775Y-80826343D01*
X154406639Y-80782026D01*
X154592201Y-80652095D01*
X154759295Y-80485001D01*
X154894835Y-80291430D01*
X154994703Y-80077263D01*
X155055863Y-79849008D01*
X155056809Y-79838200D01*
X159392098Y-79838200D01*
X159449303Y-80051692D01*
X159549133Y-80265776D01*
X159684627Y-80459281D01*
X159851652Y-80626306D01*
X160045157Y-80761800D01*
X160259241Y-80861630D01*
X160472733Y-80918835D01*
X160472734Y-80918836D01*
X160472734Y-79838200D01*
X160972734Y-79838200D01*
X160972734Y-80918835D01*
X161186226Y-80861630D01*
X161400310Y-80761800D01*
X161593815Y-80626306D01*
X161760840Y-80459281D01*
X161896334Y-80265776D01*
X161996164Y-80051692D01*
X162053370Y-79838200D01*
X160972734Y-79838200D01*
X160472734Y-79838200D01*
X159392098Y-79838200D01*
X155056809Y-79838200D01*
X155076459Y-79613600D01*
X155055863Y-79378192D01*
X154994703Y-79149937D01*
X154894835Y-78935771D01*
X154759295Y-78742199D01*
X154592201Y-78575105D01*
X154406639Y-78445173D01*
X154367775Y-78400857D01*
X154353764Y-78343600D01*
X154367775Y-78286343D01*
X154406639Y-78242026D01*
X154592201Y-78112095D01*
X154758227Y-77946069D01*
X159372234Y-77946069D01*
X159378643Y-78005683D01*
X159428938Y-78140531D01*
X159515188Y-78255746D01*
X159630403Y-78341996D01*
X159762332Y-78391202D01*
X159812712Y-78426181D01*
X159840165Y-78481025D01*
X159837976Y-78542318D01*
X159806681Y-78595065D01*
X159684622Y-78717124D01*
X159549134Y-78910621D01*
X159449303Y-79124707D01*
X159392098Y-79338199D01*
X159392098Y-79338200D01*
X162053370Y-79338200D01*
X162053369Y-79338199D01*
X161996164Y-79124707D01*
X161896333Y-78910621D01*
X161760843Y-78717121D01*
X161638787Y-78595065D01*
X161607491Y-78542319D01*
X161605302Y-78481026D01*
X161632755Y-78426181D01*
X161683132Y-78391203D01*
X161815065Y-78341996D01*
X161930280Y-78255746D01*
X162016530Y-78140531D01*
X162066825Y-78005683D01*
X162073234Y-77946073D01*
X162073233Y-76150328D01*
X162066825Y-76090717D01*
X162016530Y-75955869D01*
X161930280Y-75840654D01*
X161815065Y-75754404D01*
X161680217Y-75704109D01*
X161620607Y-75697700D01*
X161620603Y-75697700D01*
X159824864Y-75697700D01*
X159765249Y-75704109D01*
X159630403Y-75754404D01*
X159515188Y-75840654D01*
X159428938Y-75955868D01*
X159378643Y-76090716D01*
X159372234Y-76150330D01*
X159372234Y-77946069D01*
X154758227Y-77946069D01*
X154759295Y-77945001D01*
X154894835Y-77751430D01*
X154994703Y-77537263D01*
X155055863Y-77309008D01*
X155076459Y-77073600D01*
X155055863Y-76838192D01*
X154994703Y-76609937D01*
X154894835Y-76395771D01*
X154759295Y-76202199D01*
X154592201Y-76035105D01*
X154406639Y-75905173D01*
X154367775Y-75860857D01*
X154353764Y-75803600D01*
X154367775Y-75746343D01*
X154406639Y-75702026D01*
X154592201Y-75572095D01*
X154759295Y-75405001D01*
X154894835Y-75211430D01*
X154994703Y-74997263D01*
X155055863Y-74769008D01*
X155076459Y-74533600D01*
X155055863Y-74298192D01*
X154994703Y-74069937D01*
X154894835Y-73855771D01*
X154759295Y-73662199D01*
X154592201Y-73495105D01*
X154406639Y-73365173D01*
X154367774Y-73320855D01*
X154353764Y-73263599D01*
X154367775Y-73206342D01*
X154406637Y-73162028D01*
X154592201Y-73032095D01*
X154759295Y-72865001D01*
X154894835Y-72671430D01*
X154994703Y-72457263D01*
X155055863Y-72229008D01*
X155056809Y-72218200D01*
X159392098Y-72218200D01*
X159449303Y-72431692D01*
X159549133Y-72645776D01*
X159684627Y-72839281D01*
X159851652Y-73006306D01*
X160045157Y-73141800D01*
X160259241Y-73241630D01*
X160472733Y-73298835D01*
X160472734Y-73298836D01*
X160472734Y-72218200D01*
X160972734Y-72218200D01*
X160972734Y-73298835D01*
X161186226Y-73241630D01*
X161400310Y-73141800D01*
X161593815Y-73006306D01*
X161760840Y-72839281D01*
X161896334Y-72645776D01*
X161996164Y-72431692D01*
X162053370Y-72218200D01*
X165538898Y-72218200D01*
X165596103Y-72431692D01*
X165695933Y-72645776D01*
X165831427Y-72839281D01*
X165998452Y-73006306D01*
X166191957Y-73141800D01*
X166406041Y-73241630D01*
X166619533Y-73298835D01*
X166619534Y-73298836D01*
X166619534Y-72218200D01*
X167119534Y-72218200D01*
X167119534Y-73298835D01*
X167291081Y-73252869D01*
X186974500Y-73252869D01*
X186980909Y-73312484D01*
X186984032Y-73320857D01*
X187031204Y-73447331D01*
X187117454Y-73562546D01*
X187232669Y-73648796D01*
X187367517Y-73699091D01*
X187427127Y-73705500D01*
X190522872Y-73705499D01*
X190582483Y-73699091D01*
X190717331Y-73648796D01*
X190832546Y-73562546D01*
X190918796Y-73447331D01*
X190969091Y-73312483D01*
X190975500Y-73252873D01*
X190975499Y-70157128D01*
X190969091Y-70097517D01*
X190918796Y-69962669D01*
X190832546Y-69847454D01*
X190717331Y-69761204D01*
X190582483Y-69710909D01*
X190522873Y-69704500D01*
X190522869Y-69704500D01*
X187427130Y-69704500D01*
X187367515Y-69710909D01*
X187232669Y-69761204D01*
X187117454Y-69847454D01*
X187031204Y-69962668D01*
X186980909Y-70097516D01*
X186974500Y-70157130D01*
X186974500Y-73252869D01*
X167291081Y-73252869D01*
X167333026Y-73241630D01*
X167547110Y-73141800D01*
X167740615Y-73006306D01*
X167907640Y-72839281D01*
X168043134Y-72645776D01*
X168142964Y-72431692D01*
X168200170Y-72218200D01*
X167119534Y-72218200D01*
X166619534Y-72218200D01*
X165538898Y-72218200D01*
X162053370Y-72218200D01*
X160972734Y-72218200D01*
X160472734Y-72218200D01*
X159392098Y-72218200D01*
X155056809Y-72218200D01*
X155076459Y-71993600D01*
X155055863Y-71758192D01*
X154994703Y-71529937D01*
X154894835Y-71315771D01*
X154759295Y-71122199D01*
X154636981Y-70999885D01*
X154605685Y-70947139D01*
X154603496Y-70885846D01*
X154630949Y-70831001D01*
X154681328Y-70796022D01*
X154812889Y-70746952D01*
X154927988Y-70660788D01*
X155014152Y-70545689D01*
X155064397Y-70410975D01*
X155070800Y-70351424D01*
X155070800Y-70326069D01*
X159372234Y-70326069D01*
X159378643Y-70385684D01*
X159388117Y-70411084D01*
X159428938Y-70520531D01*
X159515188Y-70635746D01*
X159630403Y-70721996D01*
X159762332Y-70771202D01*
X159812712Y-70806181D01*
X159840165Y-70861025D01*
X159837976Y-70922318D01*
X159806681Y-70975065D01*
X159684622Y-71097124D01*
X159549134Y-71290621D01*
X159449303Y-71504707D01*
X159392098Y-71718199D01*
X159392098Y-71718200D01*
X162053370Y-71718200D01*
X162053369Y-71718199D01*
X161996164Y-71504707D01*
X161896333Y-71290621D01*
X161760843Y-71097121D01*
X161638787Y-70975065D01*
X161607491Y-70922319D01*
X161605302Y-70861026D01*
X161632755Y-70806181D01*
X161683132Y-70771203D01*
X161815065Y-70721996D01*
X161930280Y-70635746D01*
X162016530Y-70520531D01*
X162066825Y-70385683D01*
X162073234Y-70326073D01*
X162073234Y-70326069D01*
X165519034Y-70326069D01*
X165525443Y-70385684D01*
X165534917Y-70411084D01*
X165575738Y-70520531D01*
X165661988Y-70635746D01*
X165777203Y-70721996D01*
X165909132Y-70771202D01*
X165959512Y-70806181D01*
X165986965Y-70861025D01*
X165984776Y-70922318D01*
X165953481Y-70975065D01*
X165831422Y-71097124D01*
X165695934Y-71290621D01*
X165596103Y-71504707D01*
X165538898Y-71718199D01*
X165538898Y-71718200D01*
X168200170Y-71718200D01*
X168200169Y-71718199D01*
X168142964Y-71504707D01*
X168043133Y-71290621D01*
X167907643Y-71097121D01*
X167785587Y-70975065D01*
X167754291Y-70922319D01*
X167752102Y-70861026D01*
X167779555Y-70806181D01*
X167829932Y-70771203D01*
X167961865Y-70721996D01*
X168077080Y-70635746D01*
X168163330Y-70520531D01*
X168213625Y-70385683D01*
X168220034Y-70326073D01*
X168220033Y-68530328D01*
X168213625Y-68470717D01*
X168163330Y-68335869D01*
X168077080Y-68220654D01*
X167961865Y-68134404D01*
X167827017Y-68084109D01*
X167767407Y-68077700D01*
X167767403Y-68077700D01*
X165971664Y-68077700D01*
X165912049Y-68084109D01*
X165777203Y-68134404D01*
X165661988Y-68220654D01*
X165575738Y-68335868D01*
X165525443Y-68470716D01*
X165519034Y-68530330D01*
X165519034Y-70326069D01*
X162073234Y-70326069D01*
X162073233Y-68530328D01*
X162066825Y-68470717D01*
X162016530Y-68335869D01*
X161930280Y-68220654D01*
X161815065Y-68134404D01*
X161680217Y-68084109D01*
X161620607Y-68077700D01*
X161620603Y-68077700D01*
X159824864Y-68077700D01*
X159765249Y-68084109D01*
X159630403Y-68134404D01*
X159515188Y-68220654D01*
X159428938Y-68335868D01*
X159378643Y-68470716D01*
X159372234Y-68530330D01*
X159372234Y-70326069D01*
X155070800Y-70326069D01*
X155070800Y-69703600D01*
X152370800Y-69703600D01*
X152370800Y-70351424D01*
X152377202Y-70410975D01*
X152427447Y-70545689D01*
X152513611Y-70660788D01*
X152628711Y-70746952D01*
X152760271Y-70796022D01*
X152810650Y-70831001D01*
X152838103Y-70885846D01*
X152835914Y-70947139D01*
X152804619Y-70999885D01*
X152682303Y-71122201D01*
X152546765Y-71315770D01*
X152446897Y-71529936D01*
X152385736Y-71758192D01*
X152365140Y-71993599D01*
X152385736Y-72229007D01*
X152430509Y-72396102D01*
X152446897Y-72457263D01*
X152546765Y-72671430D01*
X152682305Y-72865001D01*
X152849399Y-73032095D01*
X153034960Y-73162026D01*
X153073824Y-73206343D01*
X153087835Y-73263600D01*
X153073824Y-73320857D01*
X153034959Y-73365175D01*
X152849395Y-73495108D01*
X152682305Y-73662198D01*
X152546765Y-73855770D01*
X152446897Y-74069936D01*
X152385736Y-74298192D01*
X152365140Y-74533600D01*
X152385736Y-74769007D01*
X152430509Y-74936101D01*
X152446897Y-74997263D01*
X152546765Y-75211430D01*
X152682305Y-75405001D01*
X152849399Y-75572095D01*
X153034960Y-75702026D01*
X153073824Y-75746343D01*
X153087835Y-75803600D01*
X153073824Y-75860857D01*
X153034959Y-75905175D01*
X152849395Y-76035108D01*
X152682305Y-76202198D01*
X152546765Y-76395770D01*
X152446897Y-76609936D01*
X152385736Y-76838192D01*
X152365140Y-77073599D01*
X152385736Y-77309007D01*
X152430509Y-77476101D01*
X152446897Y-77537263D01*
X152546765Y-77751430D01*
X152682305Y-77945001D01*
X152849399Y-78112095D01*
X153034960Y-78242026D01*
X153073824Y-78286343D01*
X153087835Y-78343600D01*
X153073824Y-78400857D01*
X153034958Y-78445175D01*
X152896223Y-78542319D01*
X152849395Y-78575108D01*
X152682305Y-78742198D01*
X152546765Y-78935770D01*
X152446897Y-79149936D01*
X152385736Y-79378192D01*
X152365140Y-79613599D01*
X152385736Y-79849007D01*
X152416613Y-79964242D01*
X152446897Y-80077263D01*
X152546765Y-80291430D01*
X152682305Y-80485001D01*
X152849399Y-80652095D01*
X153034960Y-80782026D01*
X153073824Y-80826343D01*
X153087835Y-80883600D01*
X153073824Y-80940857D01*
X153034959Y-80985175D01*
X152849395Y-81115108D01*
X152682305Y-81282198D01*
X152546765Y-81475770D01*
X152446897Y-81689936D01*
X152385736Y-81918192D01*
X152365140Y-82153600D01*
X129663496Y-82153600D01*
X127561819Y-80051923D01*
X127534939Y-80011695D01*
X127525500Y-79964242D01*
X127525500Y-73260452D01*
X127534939Y-73212999D01*
X127561819Y-73172771D01*
X127702499Y-73032091D01*
X127883789Y-72850800D01*
X127899885Y-72837906D01*
X127901873Y-72835787D01*
X127901877Y-72835786D01*
X127947948Y-72786724D01*
X127950564Y-72784025D01*
X127960860Y-72773729D01*
X127975642Y-72761103D01*
X128105871Y-72666488D01*
X128232533Y-72525816D01*
X128327179Y-72361884D01*
X128385674Y-72181856D01*
X128405460Y-71993600D01*
X128385674Y-71805344D01*
X128327179Y-71625316D01*
X128327179Y-71625315D01*
X128232533Y-71461383D01*
X128105870Y-71320710D01*
X127952730Y-71209448D01*
X127779802Y-71132455D01*
X127594648Y-71093100D01*
X127594646Y-71093100D01*
X127405354Y-71093100D01*
X127405352Y-71093100D01*
X127220197Y-71132455D01*
X127047272Y-71209447D01*
X126945176Y-71283624D01*
X126894129Y-71320712D01*
X126888401Y-71327073D01*
X126846688Y-71357380D01*
X126796253Y-71368100D01*
X124516026Y-71368100D01*
X124458769Y-71354089D01*
X124414451Y-71315223D01*
X124279294Y-71122198D01*
X124157369Y-71000273D01*
X124126073Y-70947527D01*
X124123884Y-70886234D01*
X124151337Y-70831389D01*
X124201716Y-70796410D01*
X124333131Y-70747396D01*
X124448346Y-70661146D01*
X124534596Y-70545931D01*
X124584891Y-70411083D01*
X124591300Y-70351473D01*
X124591299Y-69203600D01*
X152370800Y-69203600D01*
X153470800Y-69203600D01*
X153470800Y-68103600D01*
X153970800Y-68103600D01*
X153970800Y-69203600D01*
X155070800Y-69203600D01*
X155070800Y-68555776D01*
X155064397Y-68496224D01*
X155014152Y-68361510D01*
X154927988Y-68246411D01*
X154812889Y-68160247D01*
X154678175Y-68110002D01*
X154618624Y-68103600D01*
X153970800Y-68103600D01*
X153470800Y-68103600D01*
X152822976Y-68103600D01*
X152763424Y-68110002D01*
X152628710Y-68160247D01*
X152513611Y-68246411D01*
X152427447Y-68361510D01*
X152377202Y-68496224D01*
X152370800Y-68555776D01*
X152370800Y-69203600D01*
X124591299Y-69203600D01*
X124591299Y-68555728D01*
X124584891Y-68496117D01*
X124534596Y-68361269D01*
X124448346Y-68246054D01*
X124333131Y-68159804D01*
X124198283Y-68109509D01*
X124138673Y-68103100D01*
X124138669Y-68103100D01*
X122342930Y-68103100D01*
X122283315Y-68109509D01*
X122148469Y-68159804D01*
X122033254Y-68246054D01*
X121947004Y-68361268D01*
X121896709Y-68496115D01*
X121896709Y-68496117D01*
X121890984Y-68549370D01*
X121890300Y-68555730D01*
X121890300Y-70351469D01*
X121896697Y-70410975D01*
X121896709Y-70411083D01*
X121947004Y-70545931D01*
X122033254Y-70661146D01*
X122148469Y-70747396D01*
X122260707Y-70789258D01*
X122279882Y-70796410D01*
X122330262Y-70831389D01*
X122357715Y-70886234D01*
X122355526Y-70947526D01*
X122324231Y-71000273D01*
X122202303Y-71122201D01*
X122066765Y-71315770D01*
X121966897Y-71529936D01*
X121905736Y-71758192D01*
X121885140Y-71993600D01*
X121905736Y-72229007D01*
X121950509Y-72396102D01*
X121966897Y-72457263D01*
X122066765Y-72671430D01*
X122202305Y-72865001D01*
X122369399Y-73032095D01*
X122554960Y-73162026D01*
X122593824Y-73206343D01*
X122607835Y-73263600D01*
X122593824Y-73320857D01*
X122554959Y-73365175D01*
X122369395Y-73495108D01*
X122202305Y-73662198D01*
X122066765Y-73855770D01*
X121966897Y-74069936D01*
X121905736Y-74298192D01*
X121885140Y-74533600D01*
X121905736Y-74769007D01*
X121950509Y-74936101D01*
X121966897Y-74997263D01*
X122066765Y-75211430D01*
X122202305Y-75405001D01*
X122369399Y-75572095D01*
X122554960Y-75702026D01*
X122593824Y-75746343D01*
X122607835Y-75803600D01*
X122593824Y-75860857D01*
X122554959Y-75905175D01*
X122369395Y-76035108D01*
X122202305Y-76202198D01*
X122066765Y-76395770D01*
X121966897Y-76609936D01*
X121905736Y-76838192D01*
X121885140Y-77073600D01*
X121905736Y-77309007D01*
X121950509Y-77476101D01*
X121966897Y-77537263D01*
X122066765Y-77751430D01*
X122202305Y-77945001D01*
X122369399Y-78112095D01*
X122554960Y-78242026D01*
X122593824Y-78286343D01*
X122607835Y-78343600D01*
X122593824Y-78400857D01*
X122554958Y-78445175D01*
X122416223Y-78542319D01*
X122369395Y-78575108D01*
X122202305Y-78742198D01*
X122066765Y-78935770D01*
X121966897Y-79149936D01*
X121905736Y-79378192D01*
X121885140Y-79613600D01*
X121905736Y-79849007D01*
X121936613Y-79964242D01*
X121966897Y-80077263D01*
X122066765Y-80291430D01*
X122202305Y-80485001D01*
X122369399Y-80652095D01*
X122554960Y-80782026D01*
X122593824Y-80826343D01*
X122607835Y-80883600D01*
X122593824Y-80940857D01*
X122554959Y-80985175D01*
X122369395Y-81115108D01*
X122202305Y-81282198D01*
X122066765Y-81475770D01*
X121966897Y-81689936D01*
X121905736Y-81918192D01*
X121885140Y-82153599D01*
X121905736Y-82389007D01*
X121950509Y-82556102D01*
X121966897Y-82617263D01*
X122066765Y-82831430D01*
X122202305Y-83025001D01*
X122369399Y-83192095D01*
X122554960Y-83322026D01*
X122593824Y-83366343D01*
X122607835Y-83423600D01*
X122593824Y-83480857D01*
X122554959Y-83525175D01*
X122369395Y-83655108D01*
X122202305Y-83822198D01*
X122066765Y-84015770D01*
X121966897Y-84229936D01*
X121905736Y-84458192D01*
X121885140Y-84693600D01*
X121905736Y-84929007D01*
X121950509Y-85096101D01*
X121966897Y-85157263D01*
X122066765Y-85371430D01*
X122202305Y-85565001D01*
X122369399Y-85732095D01*
X122554960Y-85862026D01*
X122593824Y-85906343D01*
X122607835Y-85963600D01*
X122593824Y-86020857D01*
X122554958Y-86065175D01*
X122394231Y-86177718D01*
X122369395Y-86195108D01*
X122202305Y-86362198D01*
X122066765Y-86555770D01*
X121966897Y-86769936D01*
X121905736Y-86998192D01*
X121885140Y-87233599D01*
X121905736Y-87469007D01*
X121930424Y-87561144D01*
X121966897Y-87697263D01*
X122066765Y-87911430D01*
X122202305Y-88105001D01*
X122369399Y-88272095D01*
X122554960Y-88402026D01*
X122593824Y-88446343D01*
X122607835Y-88503600D01*
X122593824Y-88560857D01*
X122554958Y-88605175D01*
X122374241Y-88731715D01*
X122369395Y-88735108D01*
X122202305Y-88902198D01*
X122066765Y-89095770D01*
X121966897Y-89309936D01*
X121905736Y-89538192D01*
X121885140Y-89773600D01*
X121905736Y-90009007D01*
X121915795Y-90046547D01*
X121966897Y-90237263D01*
X122066765Y-90451430D01*
X122202305Y-90645001D01*
X122369399Y-90812095D01*
X122554960Y-90942026D01*
X122593824Y-90986343D01*
X122607835Y-91043600D01*
X122593824Y-91100857D01*
X122554958Y-91145175D01*
X122402070Y-91252229D01*
X122369395Y-91275108D01*
X122202305Y-91442198D01*
X122066765Y-91635770D01*
X121966897Y-91849936D01*
X121905736Y-92078192D01*
X121885140Y-92313599D01*
X121905736Y-92549007D01*
X121946061Y-92699500D01*
X121966897Y-92777263D01*
X122066765Y-92991430D01*
X122202305Y-93185001D01*
X122369399Y-93352095D01*
X122554960Y-93482026D01*
X122593824Y-93526343D01*
X122607835Y-93583600D01*
X122593824Y-93640857D01*
X122554958Y-93685175D01*
X122390972Y-93800000D01*
X122369395Y-93815108D01*
X122202305Y-93982198D01*
X122066765Y-94175770D01*
X121966897Y-94389936D01*
X121905736Y-94618192D01*
X121885140Y-94853600D01*
X121905736Y-95089007D01*
X121950509Y-95256101D01*
X121966897Y-95317263D01*
X122066765Y-95531430D01*
X122202305Y-95725001D01*
X122369399Y-95892095D01*
X122554960Y-96022026D01*
X122593824Y-96066343D01*
X122607835Y-96123600D01*
X122593824Y-96180857D01*
X122554960Y-96225174D01*
X122394231Y-96337718D01*
X122369395Y-96355108D01*
X122202305Y-96522198D01*
X122066765Y-96715770D01*
X121966897Y-96929936D01*
X121905736Y-97158192D01*
X121885140Y-97393600D01*
X121905736Y-97629007D01*
X121921207Y-97686744D01*
X121966897Y-97857263D01*
X122066765Y-98071430D01*
X122202305Y-98265001D01*
X122369399Y-98432095D01*
X122554960Y-98562026D01*
X122593824Y-98606343D01*
X122607835Y-98663600D01*
X122593824Y-98720857D01*
X122554958Y-98765175D01*
X122383677Y-98885108D01*
X122369395Y-98895108D01*
X122202305Y-99062198D01*
X122066765Y-99255770D01*
X121966897Y-99469936D01*
X121905736Y-99698192D01*
X121885140Y-99933599D01*
X121905736Y-100169007D01*
X121950509Y-100336101D01*
X121966897Y-100397263D01*
X122066765Y-100611430D01*
X122202305Y-100805001D01*
X122369399Y-100972095D01*
X122555397Y-101102332D01*
X122594260Y-101146648D01*
X122608271Y-101203905D01*
X122594261Y-101261161D01*
X122555395Y-101305480D01*
X122369719Y-101435492D01*
X122202690Y-101602521D01*
X122067200Y-101796021D01*
X121967369Y-102010107D01*
X121910164Y-102223599D01*
X121910164Y-102223600D01*
X124571436Y-102223600D01*
X124571435Y-102223599D01*
X124514230Y-102010107D01*
X124414399Y-101796021D01*
X124278909Y-101602521D01*
X124111881Y-101435493D01*
X123926204Y-101305480D01*
X123887339Y-101261162D01*
X123873328Y-101203905D01*
X123887339Y-101146648D01*
X123926202Y-101102332D01*
X124112201Y-100972095D01*
X124279295Y-100805001D01*
X124414835Y-100611430D01*
X124514703Y-100397263D01*
X124575863Y-100169008D01*
X124596459Y-99933600D01*
X124577048Y-99711742D01*
X124575863Y-99698192D01*
X124541570Y-99570208D01*
X124514703Y-99469937D01*
X124414835Y-99255771D01*
X124279295Y-99062199D01*
X124112201Y-98895105D01*
X123926639Y-98765173D01*
X123887775Y-98720857D01*
X123873764Y-98663600D01*
X123887775Y-98606343D01*
X123926639Y-98562026D01*
X124112201Y-98432095D01*
X124279295Y-98265001D01*
X124414835Y-98071430D01*
X124514703Y-97857263D01*
X124575863Y-97629008D01*
X124596459Y-97393600D01*
X124575863Y-97158192D01*
X124514703Y-96929937D01*
X124414835Y-96715771D01*
X124279295Y-96522199D01*
X124112201Y-96355105D01*
X123926639Y-96225173D01*
X123887775Y-96180857D01*
X123873764Y-96123600D01*
X123887775Y-96066343D01*
X123926639Y-96022026D01*
X124112201Y-95892095D01*
X124279295Y-95725001D01*
X124414835Y-95531430D01*
X124514703Y-95317263D01*
X124575863Y-95089008D01*
X124596459Y-94853600D01*
X124575863Y-94618192D01*
X124514703Y-94389937D01*
X124414835Y-94175771D01*
X124279295Y-93982199D01*
X124112201Y-93815105D01*
X123926639Y-93685173D01*
X123887775Y-93640857D01*
X123873764Y-93583600D01*
X123887775Y-93526343D01*
X123926639Y-93482026D01*
X124112201Y-93352095D01*
X124279295Y-93185001D01*
X124414835Y-92991430D01*
X124514703Y-92777263D01*
X124575863Y-92549008D01*
X124596459Y-92313600D01*
X124575863Y-92078192D01*
X124514703Y-91849937D01*
X124414835Y-91635771D01*
X124279295Y-91442199D01*
X124112201Y-91275105D01*
X123926639Y-91145173D01*
X123887775Y-91100857D01*
X123873764Y-91043600D01*
X123887775Y-90986343D01*
X123926639Y-90942026D01*
X124112201Y-90812095D01*
X124279295Y-90645001D01*
X124414835Y-90451430D01*
X124514703Y-90237263D01*
X124575863Y-90009008D01*
X124596459Y-89773600D01*
X124575863Y-89538192D01*
X124514703Y-89309937D01*
X124414835Y-89095771D01*
X124279295Y-88902199D01*
X124112201Y-88735105D01*
X123926639Y-88605173D01*
X123887776Y-88560857D01*
X123873765Y-88503600D01*
X123887776Y-88446343D01*
X123926639Y-88402026D01*
X124112201Y-88272095D01*
X124279295Y-88105001D01*
X124414835Y-87911430D01*
X124514703Y-87697263D01*
X124575863Y-87469008D01*
X124596459Y-87233600D01*
X124575863Y-86998192D01*
X124514703Y-86769937D01*
X124414835Y-86555771D01*
X124279295Y-86362199D01*
X124112201Y-86195105D01*
X123926639Y-86065173D01*
X123887775Y-86020857D01*
X123873764Y-85963600D01*
X123887775Y-85906343D01*
X123926639Y-85862026D01*
X124112201Y-85732095D01*
X124279295Y-85565001D01*
X124414835Y-85371430D01*
X124514703Y-85157263D01*
X124575863Y-84929008D01*
X124596459Y-84693600D01*
X124575863Y-84458192D01*
X124514703Y-84229937D01*
X124414835Y-84015771D01*
X124279295Y-83822199D01*
X124112201Y-83655105D01*
X123926639Y-83525173D01*
X123887775Y-83480857D01*
X123873764Y-83423600D01*
X123887775Y-83366343D01*
X123926639Y-83322026D01*
X124112201Y-83192095D01*
X124279295Y-83025001D01*
X124414835Y-82831430D01*
X124514703Y-82617263D01*
X124575863Y-82389008D01*
X124596459Y-82153600D01*
X124585641Y-82029958D01*
X124575863Y-81918192D01*
X124575862Y-81918191D01*
X124514703Y-81689937D01*
X124414835Y-81475771D01*
X124279295Y-81282199D01*
X124112201Y-81115105D01*
X123926639Y-80985173D01*
X123887775Y-80940857D01*
X123873764Y-80883600D01*
X123887775Y-80826343D01*
X123926639Y-80782026D01*
X124112201Y-80652095D01*
X124279295Y-80485001D01*
X124414835Y-80291430D01*
X124514703Y-80077263D01*
X124575863Y-79849008D01*
X124596459Y-79613600D01*
X124575863Y-79378192D01*
X124514703Y-79149937D01*
X124414835Y-78935771D01*
X124279295Y-78742199D01*
X124112201Y-78575105D01*
X123926639Y-78445173D01*
X123887775Y-78400857D01*
X123873764Y-78343600D01*
X123887775Y-78286343D01*
X123926639Y-78242026D01*
X124112201Y-78112095D01*
X124279295Y-77945001D01*
X124414835Y-77751430D01*
X124514703Y-77537263D01*
X124575863Y-77309008D01*
X124596459Y-77073600D01*
X124575863Y-76838192D01*
X124514703Y-76609937D01*
X124414835Y-76395771D01*
X124279295Y-76202199D01*
X124112201Y-76035105D01*
X123926639Y-75905173D01*
X123887775Y-75860857D01*
X123873764Y-75803600D01*
X123887775Y-75746343D01*
X123926639Y-75702026D01*
X124112201Y-75572095D01*
X124279295Y-75405001D01*
X124414835Y-75211430D01*
X124514703Y-74997263D01*
X124575863Y-74769008D01*
X124596459Y-74533600D01*
X124575863Y-74298192D01*
X124514703Y-74069937D01*
X124414835Y-73855771D01*
X124279295Y-73662199D01*
X124112201Y-73495105D01*
X123926639Y-73365173D01*
X123887774Y-73320855D01*
X123873764Y-73263599D01*
X123887775Y-73206342D01*
X123926637Y-73162028D01*
X124112201Y-73032095D01*
X124279295Y-72865001D01*
X124414453Y-72671974D01*
X124458770Y-72633111D01*
X124516027Y-72619100D01*
X126173927Y-72619100D01*
X126225842Y-72630491D01*
X126268219Y-72662570D01*
X126293272Y-72709444D01*
X126296400Y-72762502D01*
X126287728Y-72817243D01*
X126285360Y-72828674D01*
X126274500Y-72870978D01*
X126274500Y-72891016D01*
X126272973Y-72910415D01*
X126269840Y-72930194D01*
X126273950Y-72973675D01*
X126274500Y-72985344D01*
X126274500Y-80191951D01*
X126272235Y-80212457D01*
X126274439Y-80282568D01*
X126274500Y-80286463D01*
X126274500Y-80314044D01*
X126275003Y-80318029D01*
X126275918Y-80329662D01*
X126277290Y-80373321D01*
X126282879Y-80392555D01*
X126286825Y-80411611D01*
X126289335Y-80431487D01*
X126305414Y-80472099D01*
X126309197Y-80483146D01*
X126321382Y-80525086D01*
X126331580Y-80542330D01*
X126340136Y-80559795D01*
X126347514Y-80578427D01*
X126347515Y-80578428D01*
X126373180Y-80613754D01*
X126379593Y-80623517D01*
X126401826Y-80661111D01*
X126401829Y-80661114D01*
X126401830Y-80661115D01*
X126415995Y-80675280D01*
X126428627Y-80690070D01*
X126440406Y-80706282D01*
X126474058Y-80734121D01*
X126482699Y-80741984D01*
X133503533Y-87762819D01*
X133533783Y-87812182D01*
X133538325Y-87869898D01*
X133516170Y-87923385D01*
X133472147Y-87960985D01*
X133415852Y-87974500D01*
X130882740Y-87974500D01*
X130862236Y-87972236D01*
X130792144Y-87974439D01*
X130788250Y-87974500D01*
X130760648Y-87974500D01*
X130756653Y-87975004D01*
X130745029Y-87975918D01*
X130701368Y-87977290D01*
X130682129Y-87982880D01*
X130663080Y-87986825D01*
X130643208Y-87989335D01*
X130602593Y-88005415D01*
X130591549Y-88009196D01*
X130549611Y-88021382D01*
X130532364Y-88031581D01*
X130514900Y-88040136D01*
X130496267Y-88047514D01*
X130460926Y-88073189D01*
X130451168Y-88079599D01*
X130413579Y-88101829D01*
X130399410Y-88115998D01*
X130384622Y-88128628D01*
X130368413Y-88140405D01*
X130340572Y-88174058D01*
X130332711Y-88182696D01*
X125516208Y-92999199D01*
X125500110Y-93012096D01*
X125452096Y-93063225D01*
X125449391Y-93066017D01*
X125429874Y-93085534D01*
X125427415Y-93088705D01*
X125419842Y-93097572D01*
X125389935Y-93129420D01*
X125380285Y-93146974D01*
X125369609Y-93163228D01*
X125357326Y-93179063D01*
X125339975Y-93219158D01*
X125334838Y-93229644D01*
X125313802Y-93267907D01*
X125308821Y-93287309D01*
X125302520Y-93305711D01*
X125294561Y-93324102D01*
X125287728Y-93367242D01*
X125285360Y-93378674D01*
X125274500Y-93420978D01*
X125274500Y-93441016D01*
X125272973Y-93460415D01*
X125269840Y-93480194D01*
X125273950Y-93523675D01*
X125274500Y-93535344D01*
X125274500Y-102043948D01*
X125265061Y-102091401D01*
X125238181Y-102131629D01*
X124682527Y-102687281D01*
X124642299Y-102714161D01*
X124594846Y-102723600D01*
X121910164Y-102723600D01*
X121967369Y-102937092D01*
X122067199Y-103151176D01*
X122202693Y-103344681D01*
X122369718Y-103511706D01*
X122555395Y-103641719D01*
X122594260Y-103686037D01*
X122608271Y-103743294D01*
X122594260Y-103800551D01*
X122555395Y-103844869D01*
X122369395Y-103975108D01*
X122202305Y-104142198D01*
X122066765Y-104335770D01*
X121966897Y-104549936D01*
X121905736Y-104778192D01*
X121885140Y-105013599D01*
X121905736Y-105249007D01*
X121950509Y-105416101D01*
X121966897Y-105477263D01*
X122066765Y-105691430D01*
X122202305Y-105885001D01*
X122369399Y-106052095D01*
X122554960Y-106182026D01*
X122593824Y-106226343D01*
X122607835Y-106283600D01*
X122593824Y-106340857D01*
X122554959Y-106385175D01*
X122369395Y-106515108D01*
X122202305Y-106682198D01*
X122066765Y-106875770D01*
X121966897Y-107089936D01*
X121905736Y-107318192D01*
X121885140Y-107553600D01*
X121905736Y-107789007D01*
X121948088Y-107947066D01*
X121966897Y-108017263D01*
X122066765Y-108231430D01*
X122202305Y-108425001D01*
X122369399Y-108592095D01*
X122554960Y-108722026D01*
X122593824Y-108766343D01*
X122607835Y-108823600D01*
X122593824Y-108880857D01*
X122554959Y-108925175D01*
X122369395Y-109055108D01*
X122202305Y-109222198D01*
X122066765Y-109415770D01*
X121966897Y-109629936D01*
X121905736Y-109858192D01*
X121885140Y-110093599D01*
X121905736Y-110329007D01*
X121914049Y-110360031D01*
X121966897Y-110557263D01*
X122066765Y-110771430D01*
X122202305Y-110965001D01*
X122369399Y-111132095D01*
X122554960Y-111262026D01*
X122593824Y-111306343D01*
X122607835Y-111363600D01*
X122593824Y-111420857D01*
X122554959Y-111465175D01*
X122369395Y-111595108D01*
X122202305Y-111762198D01*
X122066765Y-111955770D01*
X121966897Y-112169936D01*
X121905736Y-112398192D01*
X121885140Y-112633600D01*
X121905736Y-112869007D01*
X121950509Y-113036102D01*
X121966897Y-113097263D01*
X122066765Y-113311430D01*
X122202305Y-113505001D01*
X122369399Y-113672095D01*
X122554960Y-113802026D01*
X122593824Y-113846343D01*
X122607835Y-113903600D01*
X122593824Y-113960857D01*
X122554959Y-114005175D01*
X122369395Y-114135108D01*
X122202305Y-114302198D01*
X122066765Y-114495770D01*
X121966897Y-114709936D01*
X121905736Y-114938192D01*
X121885140Y-115173599D01*
X121100000Y-115173599D01*
X121100000Y-60524000D01*
X121116613Y-60462000D01*
X121162000Y-60416613D01*
X121224000Y-60400000D01*
X127476000Y-60400000D01*
X127538000Y-60416613D01*
G37*
%TD.AperFunction*%
%TD*%
M02*
