M48
; DRILL file {KiCad 7.0.1} date Fri Mar 24 11:50:01 2023
; FORMAT={-:-/ absolute / inch / decimal}
; #@! TF.CreationDate,2023-03-24T11:50:01-04:00
; #@! TF.GenerationSoftware,Kicad,Pcbnew,7.0.1
; #@! TF.FileFunction,MixedPlating,1,4
FMAT,2
INCH
; #@! TA.AperFunction,Plated,PTH,ViaDrill
T1C0.0157
; #@! TA.AperFunction,Plated,PTH,ComponentDrill
T2C0.0236
; #@! TA.AperFunction,Plated,PTH,ComponentDrill
T3C0.0315
; #@! TA.AperFunction,Plated,PTH,ComponentDrill
T4C0.0394
; #@! TA.AperFunction,Plated,PTH,ComponentDrill
T5C0.0598
; #@! TA.AperFunction,NonPlated,NPTH,ComponentDrill
T6C0.0256
%
G90
G05
T1
X4.9646Y-4.0669
X4.9902Y-2.7126
X5.0197Y-2.8344
X5.0197Y-3.6693
X5.0276Y-3.9291
X5.0906Y-4.3976
X5.0972Y-3.9043
X5.1299Y-3.9331
X5.1654Y-3.685
X5.2835Y-3.4882
X5.311Y-3.6929
X5.311Y-3.8898
X5.3465Y-4.1299
X5.3482Y-4.2542
X5.3488Y-2.998
X5.3488Y-3.0531
X5.3504Y-3.937
X5.376Y-2.9699
X5.376Y-3.025
X5.376Y-3.0801
X5.3824Y-3.5079
X5.4039Y-2.998
X5.4039Y-3.0531
X5.4094Y-3.5984
X5.4311Y-2.9699
X5.4311Y-3.025
X5.4311Y-3.0801
X5.4591Y-2.9961
X5.4591Y-3.0531
X5.4724Y-4.3976
X5.5433Y-3.5945
X5.5492Y-3.8533
X5.5521Y-3.8101
X5.5709Y-3.4843
X5.6098Y-4.0271
X5.6811Y-3.6929
X5.689Y-4.3898
X5.7008Y-3.4794
X5.7264Y-4.7205
X5.7389Y-4.3465
X5.7638Y-4.3071
X5.7913Y-4.0556
X5.8071Y-3.4134
X5.8268Y-4.0945
X5.8543Y-4.5709
X5.8668Y-4.0827
X5.8976Y-4.0551
X6.5768Y-4.3228
X6.5768Y-4.7323
X6.624Y-4.1752
X6.6791Y-4.2539
T3
X6.803Y-4.513
X6.803Y-4.813
X6.8049Y-3.9631
X6.8049Y-4.2631
X7.103Y-4.513
X7.103Y-4.813
X7.1049Y-3.9631
X7.1049Y-4.2631
X7.303Y-4.513
X7.303Y-4.813
X7.3049Y-3.9631
X7.3049Y-4.2631
X7.503Y-4.513
X7.503Y-4.813
X7.5049Y-3.9631
X7.5049Y-4.2631
T4
X4.852Y-2.7344
X4.852Y-2.8344
X4.852Y-2.9344
X4.852Y-3.0344
X4.852Y-3.1344
X4.852Y-3.2344
X4.852Y-3.3344
X4.852Y-3.4344
X4.852Y-3.5344
X4.852Y-3.6344
X4.852Y-3.7344
X4.852Y-3.8344
X4.852Y-3.9344
X4.852Y-4.0344
X4.852Y-4.1344
X4.852Y-4.2344
X4.852Y-4.3344
X4.852Y-4.4344
X4.852Y-4.5344
X6.052Y-2.7344
X6.052Y-2.8344
X6.052Y-2.9344
X6.052Y-3.0344
X6.052Y-3.1344
X6.052Y-3.2344
X6.052Y-3.3344
X6.052Y-3.4344
X6.052Y-3.5344
X6.052Y-3.6344
X6.052Y-3.7344
X6.052Y-3.8344
X6.052Y-3.9344
X6.052Y-4.0344
X6.052Y-4.1344
X6.052Y-4.2344
X6.052Y-4.3344
X6.052Y-4.4344
X6.052Y-4.5344
X6.3247Y-3.334
X6.3247Y-3.434
X6.3247Y-3.534
X6.3247Y-3.734
X6.3247Y-3.834
X6.3247Y-3.934
X6.3277Y-2.7334
X6.3277Y-2.8334
X6.3277Y-3.0334
X6.3277Y-3.1334
X6.5667Y-3.334
X6.5667Y-3.434
X6.5667Y-3.534
X6.5667Y-3.734
X6.5667Y-3.834
X6.5667Y-3.934
X6.5697Y-2.7334
X6.5697Y-2.8334
X6.5697Y-3.033
X6.5697Y-3.133
T5
X7.437Y-3.2518
X7.437Y-3.4518
X7.44Y-2.623
X7.44Y-2.823
T6
X5.3492Y-4.6954
X5.5768Y-4.6954
T2
G00X5.2929Y-4.6541
M15
G01X5.2929Y-4.6974
M16
G05
G00X5.2929Y-4.8246
M15
G01X5.2929Y-4.8561
M16
G05
G00X5.6331Y-4.6541
M15
G01X5.6331Y-4.6974
M16
G05
G00X5.6331Y-4.8246
M15
G01X5.6331Y-4.8561
M16
G05
T0
M30
